<svg width="351" height="52" viewBox="0 0 351 52" fill="none" xmlns="http://www.w3.org/2000/svg">
<path d="M351 3L351 31.5L346.973 28.5L346.973 0L351 3Z" fill="#60F4FF" fill-opacity="0.898039"/>
<path d="M70.1211 51.5H78.175" stroke="#60F4FF" stroke-opacity="0.3"/>
<path d="M57.0337 51.5H69.1145" stroke="#60F4FF" stroke-opacity="0.3"/>
<path d="M73.1414 51.5H80.1885" stroke="#60F4FF" stroke-opacity="0.7"/>
<path d="M54.0134 51.5L58.0404 51.5" stroke="#60F4FF" stroke-opacity="0.6"/>
<path d="M52 51.5L56.0269 51.5" stroke="#60F4FF" stroke-opacity="0.6"/>
<path d="M326.407 51.5H343.033" stroke="#60F4FF" stroke-opacity="0.3"/>
<path d="M299.391 51.5H324.33" stroke="#60F4FF" stroke-opacity="0.3"/>
<path d="M332.643 51.5H347.19" stroke="#60F4FF" stroke-opacity="0.7"/>
<path d="M293.157 51.5L301.47 51.5" stroke="#60F4FF" stroke-opacity="0.6"/>
<path d="M289 51.5L297.313 51.5" stroke="#60F4FF" stroke-opacity="0.6"/>
<path d="M183.524 51.5H224.081" stroke="#60F4FF" stroke-opacity="0.3"/>
<path d="M117.616 51.5H178.452" stroke="#60F4FF" stroke-opacity="0.3"/>
<path d="M198.731 51.5H234.219" stroke="#60F4FF" stroke-opacity="0.7"/>
<path d="M102.409 51.5L122.688 51.5" stroke="#60F4FF" stroke-opacity="0.6"/>
<path d="M92.2693 51.5L112.548 51.5" stroke="#60F4FF" stroke-opacity="0.6"/>
<path opacity="0.3" d="M351 37L351 49L346.973 52L346.973 34L351 37Z" fill="white"/>
<path d="M351 37L351 38L346.973 35L346.973 34L351 37Z" fill="#60F4FF" fill-opacity="0.898039"/>
<path d="M351 35L351 36L346.973 33L346.973 32L351 35Z" fill="#60F4FF" fill-opacity="0.898039"/>
<mask id="mask0_107_5569" style="mask-type:alpha" maskUnits="userSpaceOnUse" x="167" y="12" width="40" height="9">
<path d="M167 12H207V21H167V12Z" fill="#FFFB00" fill-opacity="0.6"/>
</mask>
<g mask="url(#mask0_107_5569)">
<path fill-rule="evenodd" clip-rule="evenodd" d="M204.538 10.4944L187.395 27.576L186.048 26.234L203.191 9.15234L204.538 10.4944Z" fill="#FFFB00" fill-opacity="0.6"/>
<path fill-rule="evenodd" clip-rule="evenodd" d="M210.251 10.4944L193.109 27.576L191.762 26.234L208.905 9.15234L210.251 10.4944Z" fill="#FFFB00" fill-opacity="0.6"/>
<path fill-rule="evenodd" clip-rule="evenodd" d="M215.966 10.4944L198.823 27.576L197.476 26.234L214.619 9.15234L215.966 10.4944Z" fill="#FFFB00" fill-opacity="0.6"/>
<path fill-rule="evenodd" clip-rule="evenodd" d="M221.68 10.4944L204.537 27.576L203.19 26.234L220.333 9.15234L221.68 10.4944Z" fill="#FFFB00" fill-opacity="0.6"/>
<path fill-rule="evenodd" clip-rule="evenodd" d="M198.823 10.4944L181.68 27.576L180.333 26.234L197.476 9.15234L198.823 10.4944Z" fill="#FFFB00" fill-opacity="0.6"/>
<path fill-rule="evenodd" clip-rule="evenodd" d="M193.108 10.4944L175.966 27.576L174.619 26.234L191.762 9.15234L193.108 10.4944Z" fill="#FFFB00" fill-opacity="0.6"/>
<path fill-rule="evenodd" clip-rule="evenodd" d="M187.395 10.4944L170.252 27.576L168.905 26.234L186.048 9.15234L187.395 10.4944Z" fill="#FFFB00" fill-opacity="0.6"/>
<path fill-rule="evenodd" clip-rule="evenodd" d="M181.68 10.4944L164.537 27.576L163.19 26.234L180.333 9.15234L181.68 10.4944Z" fill="#FFFB00" fill-opacity="0.6"/>
<path fill-rule="evenodd" clip-rule="evenodd" d="M175.966 10.4944L158.823 27.576L157.476 26.234L174.619 9.15234L175.966 10.4944Z" fill="#FFFB00" fill-opacity="0.6"/>
<path fill-rule="evenodd" clip-rule="evenodd" d="M170.251 10.4944L153.109 27.576L151.762 26.234L168.905 9.15234L170.251 10.4944Z" fill="#FFFB00" fill-opacity="0.6"/>
</g>
<path d="M52 28L347 28" stroke="#60F4FF" stroke-opacity="0.4"/>
<path fill-rule="evenodd" clip-rule="evenodd" d="M2 44.2072V44.2305L1 43.2305V1H51V51H8.76953L7.76953 50H7.79282L2 44.2072Z" fill="#60F4FF" fill-opacity="0.13"/>
<g opacity="0.3">
<path fill-rule="evenodd" clip-rule="evenodd" d="M42 19H51.5V18H42V19Z" fill="#60F4FF"/>
<path fill-rule="evenodd" clip-rule="evenodd" d="M4 30V40.6969L10.8075 48H46V51H47V47H11.2425L5 40.3031V30H4Z" fill="#60F4FF"/>
<path fill-rule="evenodd" clip-rule="evenodd" d="M8.5 44.5V15.5H7.5V44.5H8.5Z" fill="#60F4FF"/>
<path fill-rule="evenodd" clip-rule="evenodd" d="M48.5931 24.2094L46 27.8398V47.5H47V28.1602L49.4069 24.7906L48.5931 24.2094Z" fill="#60F4FF"/>
<path fill-rule="evenodd" clip-rule="evenodd" d="M40.2071 16H51.5V15H39.7929L36.1464 18.6464L36.8536 19.3536L40.2071 16Z" fill="#60F4FF"/>
<path d="M34.5 19.5C34.5 20.3284 35.1716 21 36 21C36.8284 21 37.5 20.3284 37.5 19.5C37.5 18.6716 36.8284 18 36 18C35.1716 18 34.5 18.6716 34.5 19.5Z" fill="#60F4FF"/>
<path d="M40.5 18.5C40.5 19.3284 41.1716 20 42 20C42.8284 20 43.5 19.3284 43.5 18.5C43.5 17.6716 42.8284 17 42 17C41.1716 17 40.5 17.6716 40.5 18.5Z" fill="#60F4FF"/>
<path d="M47.5 24.5C47.5 25.3284 48.1716 26 49 26C49.8284 26 50.5 25.3284 50.5 24.5C50.5 23.6716 49.8284 23 49 23C48.1716 23 47.5 23.6716 47.5 24.5Z" fill="#60F4FF"/>
<path d="M3 28.5C3 29.3284 3.67157 30 4.5 30C5.32843 30 6 29.3284 6 28.5C6 27.6716 5.32843 27 4.5 27C3.67157 27 3 27.6716 3 28.5Z" fill="#60F4FF"/>
<path d="M6.5 15.5C6.5 16.3284 7.17157 17 8 17C8.82843 17 9.5 16.3284 9.5 15.5C9.5 14.6716 8.82843 14 8 14C7.17157 14 6.5 14.6716 6.5 15.5Z" fill="#60F4FF"/>
</g>
<path fill-rule="evenodd" clip-rule="evenodd" d="M1 44.2072V44.2305L0 43.2305V0H52V52H8.76953L7.76953 51H7.79282L1 44.2072ZM1 1H51V51H9.20703L1 42.793V1Z" fill="#FFFB00"/>
<path fill-rule="evenodd" clip-rule="evenodd" d="M52 1H0V12H21.8L26 9L30.2 12H52V1Z" fill="#FFFB00"/>
<path fill-rule="evenodd" clip-rule="evenodd" d="M21.4282 13.2773L26 10L30.5718 13.2773L27.668 15.4613H27.2506C27.1848 15.3092 27.0334 15.2028 26.8571 15.2028C26.6205 15.2028 26.4286 15.3947 26.4286 15.6314C26.4286 15.8681 26.6205 16.0599 26.8571 16.0599C27.0537 16.0599 27.2194 15.9275 27.27 15.747H27.7606L30.8146 13.4514L34 15.7349L32.1412 21.333L28.5035 18.5986H28.2985C28.248 18.4181 28.0823 18.2857 27.8857 18.2857C27.6491 18.2857 27.4572 18.4776 27.4572 18.7143C27.4572 18.951 27.6491 19.1429 27.8857 19.1429C28.062 19.1429 28.2134 19.0364 28.2792 18.8843H28.4109L32.0464 21.6187L30.9236 25H21.0764L19.9536 21.6187L23.5891 18.8843H23.7208C23.7866 19.0364 23.938 19.1429 24.1143 19.1429C24.3509 19.1429 24.5428 18.951 24.5428 18.7143C24.5428 18.4776 24.3509 18.2857 24.1143 18.2857C23.9177 18.2857 23.752 18.4181 23.7015 18.5986H23.4965L19.8588 21.333L18 15.7349L21.1854 13.4514L24.2394 15.747H24.7301C24.7806 15.9275 24.9463 16.0599 25.1429 16.0599C25.3795 16.0599 25.5714 15.8681 25.5714 15.6314C25.5714 15.3947 25.3795 15.2028 25.1429 15.2028C24.9666 15.2028 24.8152 15.3092 24.7494 15.4613H24.332L21.4282 13.2773ZM30.5343 24.7143L26.0142 21.4532L26 21.4652L25.9858 21.4532L21.4658 24.7143H30.5343ZM26 21.0906L30.4286 24.2857L29.8715 20.3375L29.5486 20.0947L30.052 23.6617L26.1652 20.8575L29.2123 19.8417L28.9349 19.633L26 20.6113L23.0651 19.633L22.7877 19.8417L25.8348 20.8575L21.948 23.6617L22.4514 20.0947L22.1285 20.3375L21.5714 24.2857L26 21.0906ZM26 11.4628L27.8676 14.9537L28.0987 14.7799L26 10.8571L23.9013 14.7799L24.1324 14.9537L26 11.4628ZM23.7742 15.7548L22.8418 18.7304L22.4502 19.0248L23.5319 15.5726L23.7742 15.7548ZM19.4931 16.3915L22.2198 19.1979L21.9896 19.371L18.7143 16L23.1435 15.2807L23.4602 15.5188L19.638 16.1395L21.5692 16.8103C21.6477 16.7121 21.7686 16.6492 21.904 16.6492C22.1407 16.6492 22.3326 16.8411 22.3326 17.0778C22.3326 17.3145 22.1407 17.5064 21.904 17.5064C21.6681 17.5064 21.4767 17.3158 21.4754 17.0802L19.4931 16.3915ZM18.4225 16.1097L21.7594 19.544L20.0043 20.8633L18.4225 16.1097ZM21.2413 24.5807L20.2896 21.7206L21.8057 20.5803L21.2413 24.5807ZM23.6703 14.6061L25.9132 10.4138L21.9109 13.2828L23.6703 14.6061ZM21.1814 13.8058L22.8269 15.0427L18.4688 15.7504L21.1814 13.8058ZM28.2258 15.7548L29.1582 18.7304L29.5498 19.0248L28.4681 15.5726L28.2258 15.7548ZM32.5069 16.3915L29.7802 19.1979L30.0104 19.371L33.2857 16L28.8565 15.2807L28.5398 15.5188L32.362 16.1395L30.4308 16.8103C30.3523 16.7121 30.2314 16.6492 30.096 16.6492C29.8593 16.6492 29.6674 16.8411 29.6674 17.0778C29.6674 17.3145 29.8593 17.5064 30.096 17.5064C30.3319 17.5064 30.5233 17.3158 30.5246 17.0802L32.5069 16.3915ZM33.5775 16.1097L30.2406 19.544L31.9957 20.8633L33.5775 16.1097ZM30.7587 24.5807L31.7104 21.7206L30.1943 20.5803L30.7587 24.5807ZM28.3297 14.6061L26.0868 10.4138L30.0891 13.2828L28.3297 14.6061ZM30.8186 13.8058L29.1731 15.0427L33.5313 15.7504L30.8186 13.8058Z" fill="#FFFB00"/>
<path fill-rule="evenodd" clip-rule="evenodd" d="M0 52H7L5 50.1333H2V46.8667L0 45L0 52Z" fill="#FFFB00"/>
</svg>
