<svg width="42" height="13" viewBox="0 0 42 13" fill="none" xmlns="http://www.w3.org/2000/svg">
<path d="M-0.000204432 6.00075L40 6.00081" stroke="#FFFB00"/>
<path d="M29.2174 1L35 6.13333L29.2174 12M29.2174 1V12M29.2174 1H28M29.2174 12H28" stroke="#FFFB00"/>
<path d="M29 1L40 6.13043L29 12" stroke="#FFFB00"/>
<path d="M16.2174 1L22 6.13333L16.2174 12M16.2174 1V12M16.2174 1H15M16.2174 12H15" stroke="#FFFB00"/>
<path d="M16 1L27 6.13043L16 12" stroke="#FFFB00"/>
<path d="M3.21739 1L9 6.13333L3.21739 12M3.21739 1V12M3.21739 1H2M3.21739 12H2" stroke="#FFFB00"/>
<path d="M3 1L14 6.13043L3 12" stroke="#FFFB00"/>
</svg>
