<svg width="42" height="13" viewBox="0 0 42 13" fill="none" xmlns="http://www.w3.org/2000/svg">
<path d="M42.0002 6.00075L2.00001 6.00081" stroke="#FFFB00"/>
<path d="M12.7826 1L7 6.13333L12.7826 12M12.7826 1V12M12.7826 1H14M12.7826 12H14" stroke="#FFFB00"/>
<path d="M13 1L2 6.13043L13 12" stroke="#FFFB00"/>
<path d="M25.7826 1L20 6.13333L25.7826 12M25.7826 1V12M25.7826 1H27M25.7826 12H27" stroke="#FFFB00"/>
<path d="M26 1L15 6.13043L26 12" stroke="#FFFB00"/>
<path d="M38.7826 1L33 6.13333L38.7826 12M38.7826 1V12M38.7826 1H40M38.7826 12H40" stroke="#FFFB00"/>
<path d="M39 1L28 6.13043L39 12" stroke="#FFFB00"/>
</svg>
