<svg width="137" height="43" viewBox="0 0 137 43" fill="none" xmlns="http://www.w3.org/2000/svg">
<path d="M12.4747 27.08C7.52473 26.765 19.0447 26.81 18.7747 26.9C18.5047 27.53 18.2347 28.295 18.0547 28.97C17.6497 29.465 18.5047 29.195 18.5947 29.375C18.2347 29.51 17.6947 29.285 17.6947 30.05C17.5597 30.5 17.2447 31.445 17.1097 31.805C16.8397 32.21 16.7497 32.84 16.6147 33.155C16.7047 33.425 16.3897 33.29 16.5247 33.605C16.5697 33.695 16.3897 33.65 16.3447 33.785C16.4797 34.415 15.2197 37.025 15.0397 37.835C14.7247 38.24 13.6897 42.56 13.1047 41.84C12.8797 41.615 13.8247 39.005 13.5097 38.735C13.4197 38.69 13.4197 38.105 13.5547 37.835C13.4647 37.835 13.0147 38.51 12.7897 38.465C12.5197 38.465 12.2047 39.365 11.9347 39.365C11.8897 39.365 11.8897 39.32 11.7997 39.32C11.4847 39.32 12.0247 37.475 12.0247 37.34C11.9347 37.25 11.5297 37.205 11.3947 37.025C11.1247 37.115 11.2147 34.415 11.3497 34.415C11.4847 34.01 11.7547 33.56 11.7997 33.155C11.7097 32.84 11.8447 32.885 11.8447 32.75C11.7997 32.48 11.9797 32.21 12.1597 32.12C12.2947 31.94 12.0247 31.94 12.1597 31.805C12.2497 31.715 12.1147 31.445 12.2947 31.445C12.3847 31.445 12.4297 31.355 12.3847 31.175C12.4297 31.13 12.6997 30.995 12.4297 31.04C12.4297 31.04 12.4297 31.04 12.3847 31.04C12.2497 31.04 12.6997 30.005 12.7897 29.96C13.1497 29.24 12.5197 29.375 14.2747 29.375C17.3797 29.285 13.9147 29.15 12.9697 29.195C12.9697 28.925 13.1947 28.745 13.2847 28.52C13.2847 28.52 13.2397 27.98 13.3297 28.16C13.4197 28.295 13.5097 28.16 13.4647 27.935C13.4647 27.665 13.6897 27.395 13.6447 27.08H12.4747ZM25.0747 8.36C25.2547 8.945 24.3097 9.17 24.4447 9.755C24.5347 10.475 24.1297 9.755 24.2197 10.025C24.3997 10.52 23.9047 11.24 23.9047 11.735C23.9947 11.96 23.8147 11.735 23.8147 11.915C23.8147 12.23 23.8147 12.275 23.6797 12.23C23.4097 12.365 23.6347 13.04 23.3647 13.355C22.9147 14.435 22.4647 15.335 22.1947 16.595C22.2847 17.18 21.2047 18.17 21.8797 18.17C22.0147 18.17 22.1947 18.125 22.4197 18.08C23.3647 17.855 23.6347 18.395 23.0497 18.62C23.0497 18.62 21.5647 19.25 22.1947 19.115C22.4647 19.025 22.8697 18.935 23.2747 18.935C24.0847 18.935 24.8047 19.25 23.7697 20.195C23.2747 20.825 21.7447 20.195 22.4647 21.005C22.6897 21.275 22.5097 21.77 22.8247 21.995C23.9947 23.975 19.8997 22.715 19.6747 23.66C19.6297 24.155 19.5397 24.38 19.4497 24.74C19.4047 24.785 19.4947 25.19 19.3597 25.19C19.3147 25.19 19.3147 25.235 19.3147 25.28C19.4047 25.775 19.0897 25.37 19.0897 25.865C19.0897 25.955 19.0447 26 18.9997 25.955C18.9097 26 18.8647 26.405 18.7747 26.495C18.7747 26.54 17.9197 26.585 16.3447 26.585C13.9597 26.495 13.5547 26.765 14.1397 26.135C14.2297 26 13.9597 25.91 14.1397 25.865C14.2747 25.82 14.1397 25.595 14.2297 25.595C14.3647 25.595 14.2747 25.145 14.3647 25.145C14.4547 25.19 14.5447 24.83 14.4997 24.65C14.4097 24.425 14.6797 24.47 14.6347 24.29C14.6347 24.2 14.6347 24.2 14.6797 24.2C14.8147 24.29 14.9047 23.57 14.8147 23.435C14.7247 23.39 9.45973 23.345 9.09973 23.435C8.60473 23.48 8.69473 24.065 8.46973 24.47C7.43473 27.485 5.81473 30.68 4.55473 33.56C4.68973 33.92 3.74473 34.73 3.69973 35.18C3.42973 35.945 2.97973 37.475 2.57473 37.475C2.39473 37.475 2.21473 37.205 2.03473 36.44C1.76473 36.575 2.34973 34.19 2.07973 33.515C1.85473 33.47 1.94473 32.48 1.67473 32.165C1.35973 32.12 1.94473 31.94 1.71973 31.715C1.58473 31.4 1.58473 31.085 1.08973 31.175C1.08973 30.815 1.13473 29.78 1.26973 29.645C1.40473 29.15 1.53973 29.285 1.53973 28.655C1.58473 28.07 2.88973 25.28 3.24973 24.56C3.29473 24.38 3.33973 24.38 4.37473 24.38C7.97473 24.155 1.44973 24.38 1.80973 24.2C1.67473 24.02 3.24973 24.11 3.56473 24.11C3.51973 23.975 3.69973 23.435 3.69973 23.66C3.65473 23.75 3.65473 23.75 3.74473 23.66C4.37473 23.165 1.62973 23.48 1.62973 23.12C1.49473 22.805 2.70973 23.03 2.48473 22.715C2.30473 22.31 3.51973 22.445 3.78973 22.355C4.19473 22.4 3.92473 22.13 4.10473 22.31C4.14973 22.49 4.41973 22.22 4.28473 22.13C4.19473 21.995 4.05973 22.175 4.14973 21.995C4.14973 21.95 4.23973 21.86 4.32973 21.86C4.41973 21.815 3.74473 21.635 3.78973 21.725C3.65473 21.815 3.42973 21.815 3.20473 21.815C2.75473 21.815 2.25973 21.725 1.94473 21.635C1.04473 21.59 0.639726 21.05 1.62973 21.095C2.48473 21.23 1.89973 20.69 2.25973 20.465C2.48473 20.42 2.66473 20.105 2.97973 20.15C3.33973 20.24 3.33973 19.97 3.51973 20.105C3.65473 20.195 3.65473 20.15 3.65473 20.06C3.60973 19.88 4.14973 20.06 4.19473 19.925C5.09473 19.835 4.50973 19.655 4.95973 19.61C5.09473 19.565 5.31973 19.79 5.09473 19.745C5.04973 19.745 5.00473 19.745 5.00473 19.79C5.22973 20.24 5.90473 18.935 5.54473 18.935H5.49973C4.73473 19.025 3.74473 19.07 3.24973 18.62C2.97973 17.99 7.07473 18.26 6.30973 17.81C6.21973 17.675 6.48973 17.54 6.44473 17.405C6.44473 17.225 6.66973 17.09 6.66973 16.955C9.32473 11.69 6.93973 12.815 12.9697 12.635C12.1597 12.635 8.78473 12.635 8.60473 12.59C8.60473 12.545 8.78473 12.23 8.82973 12.14C5.18473 11.96 11.1247 11.87 12.1147 11.87V11.51L9.09973 11.465C9.41473 11.24 9.45973 10.745 9.63973 10.43C9.41473 10.25 9.00973 9.98 8.60473 10.205C7.92973 10.385 6.62473 10.115 6.03973 9.98C5.85973 9.395 9.09973 9.755 8.37973 9.26C8.28973 9.17 8.24473 9.08 8.24473 8.9C8.46973 8.495 6.57973 8.315 7.65973 7.91C7.92973 7.865 7.92973 7.865 7.83973 7.685C7.56973 7.28 8.15473 7.01 8.60473 6.965C8.91973 6.965 8.64973 6.83 8.73973 6.74C8.78473 6.695 8.82973 6.74 8.87473 6.785C9.05473 7.055 9.05473 6.65 9.18973 6.56C9.32473 6.65 9.41473 7.19 9.72973 6.83C10.1347 6.695 10.7197 6.65 11.1697 6.695C11.4847 6.695 11.3497 6.965 11.6647 6.83C11.8897 6.74 11.9347 6.56 11.7997 6.515C11.6647 6.29 12.1147 5.975 11.4397 6.02C11.2597 6.11 10.8547 5.795 10.9447 5.93C10.9897 6.11 10.5847 5.885 10.3597 5.93C9.27973 5.705 8.78473 5.84 8.96473 5.345C9.54973 5.075 11.4397 4.625 12.9247 4.625C13.5997 4.625 14.1847 4.715 14.4997 4.985C14.4997 5.03 14.4997 5.075 14.5897 5.075C14.7697 5.165 14.5447 4.895 14.7247 4.94C14.8597 5.075 15.3997 5.075 16.0747 5.075C17.4697 5.075 19.5397 4.94 20.4847 4.94C20.7997 4.94 21.7447 4.985 21.9247 5.165C22.0147 5.255 22.3297 6.02 22.5547 6.02C22.5547 6.02 22.5997 6.02 22.6447 5.93C22.5997 5.84 22.7347 5.84 22.9147 5.93C23.1397 6.065 23.0947 5.84 23.4097 5.93C24.3097 5.93 24.8947 6.02 25.2547 7.1C25.5247 7.73 25.0747 7.775 25.0747 8.36ZM15.1297 19.16C17.9647 18.89 14.9497 18.845 13.5547 18.89C12.4297 18.98 11.7547 18.755 10.9897 18.98C11.4847 19.205 12.1147 19.25 12.7447 19.25C13.5547 19.25 14.4097 19.16 15.1297 19.16ZM19.4047 10.43C19.7197 10.295 19.2697 10.25 18.2347 10.295C16.5697 10.34 15.5797 10.385 15.1297 10.385C14.5447 10.34 14.9497 10.52 14.7247 10.745C14.6347 10.79 14.4097 11.375 14.4097 11.555C14.4097 11.78 14.0497 11.735 14.1397 11.96C14.0497 12.545 13.4647 12.995 13.4197 13.58C12.6097 14.93 12.0247 16.64 11.3497 18.035C11.3497 18.125 12.0247 18.125 15.8047 18.08H16.6147C16.9297 17.495 17.0197 16.82 17.3797 16.28C17.6047 16.01 17.2897 16.19 17.4247 16.01C17.5147 15.74 17.6497 15.2 17.7847 14.975C17.7847 14.66 18.1447 13.76 18.2347 13.76C18.3697 13.85 18.2347 13.265 18.3697 13.355C18.5047 13.265 18.3247 13.13 18.5497 12.995C18.5047 12.86 18.3697 13.04 18.4597 12.815C18.5047 12.635 18.8647 12.77 18.6847 12.455C18.5047 12.005 19.1347 12.05 18.9997 11.42C18.9547 11.06 19.1347 11.375 19.1797 11.15C19.2247 10.925 19.3597 11.105 19.3147 10.925C19.2697 10.88 19.2697 10.835 19.3597 10.88C19.4947 10.925 19.2247 10.43 19.4047 10.43ZM20.7097 21.86C20.7997 21.68 19.9447 21.95 20.4397 21.95C20.5747 21.95 20.7097 21.905 20.7097 21.86ZM21.7897 21.725C21.6097 21.815 21.2497 21.77 21.1147 21.86C21.2497 22.04 22.9597 21.725 21.7897 21.725ZM9.18973 9.125C9.81973 9.125 8.91973 8.945 8.91973 9.08C8.91973 9.125 9.05473 9.125 9.18973 9.125ZM9.72973 9.125C9.95473 9.125 9.90973 8.9 9.63973 9.08C9.54973 9.125 9.59473 9.125 9.72973 9.125ZM12.6097 5.12C12.6997 5.21 13.0597 5.255 12.9697 5.165C12.9697 5.165 12.4297 5.03 12.6097 5.12ZM16.2547 5.975C16.2097 6.065 16.4797 6.02 16.4797 6.11C16.4797 6.2 16.5697 6.2 16.6597 6.11C16.7047 6.02 16.3447 5.885 16.2547 5.975ZM18.1447 5.84C17.7847 5.795 17.7847 5.795 17.9647 5.93C18.2347 6.155 18.9547 5.795 18.1447 5.84ZM20.6197 6.11C20.7547 6.2 20.8447 6.11 20.7547 5.975C20.5747 5.705 21.6097 5.975 21.4747 5.57C21.5197 5.525 20.7997 5.48 21.0247 5.57C21.2497 5.615 21.1597 5.705 20.9347 5.705C20.8447 5.705 20.7547 5.705 20.7547 5.615C20.7547 5.435 20.4847 5.705 20.3497 5.57C19.7647 5.48 20.1697 5.885 19.1347 5.795C18.1897 5.795 19.1347 6.11 19.4947 6.11C19.6297 6.11 19.7197 6.11 19.6747 6.02C19.6297 5.885 20.5297 5.975 20.6197 6.11ZM19.7647 8.855C19.8997 8.855 19.8997 8.675 19.7647 8.675C19.6297 8.675 19.6297 8.855 19.7647 8.855ZM22.3297 6.875C22.5997 7.145 22.2847 6.83 22.5547 6.83C23.0947 6.74 21.9697 6.605 22.3297 6.875ZM22.7797 6.695C22.6897 6.785 23.3197 6.965 23.0047 6.74C22.8697 6.605 22.7797 6.605 22.7797 6.695ZM22.8247 7.01C23.5447 7.19 22.8247 6.875 22.5997 6.92L22.8247 7.01ZM24.1297 7.19C24.2647 7.235 24.2647 6.965 24.1747 6.965C24.1297 6.965 24.0847 6.965 24.1297 6.92C24.2197 6.875 23.9947 6.695 23.8597 6.695C23.6347 6.695 24.0847 6.875 23.7247 7.055C23.5897 7.19 23.4547 6.965 23.5897 6.92C23.6347 6.92 23.6347 6.875 23.6347 6.785C23.6347 6.65 23.2747 6.605 23.4097 6.875C23.4997 7.145 23.2747 7.01 23.2297 7.145C23.6347 7.145 23.4097 7.82 23.5897 7.775C23.6797 7.73 23.5897 7.415 23.7697 7.415C23.9047 7.46 23.9947 7.1 24.1297 7.19ZM49.5083 6.65C49.7783 7.055 49.4183 7.28 48.8783 7.28C47.8883 7.28 48.1583 8.18 47.2133 8.18C46.8983 8.495 44.9633 8.495 43.9733 8.45C43.9283 8.81 44.5583 8.945 45.3683 8.945C46.5383 8.945 48.0683 8.72 48.6533 8.81C48.6083 9.35 46.6733 9.08 46.4933 9.305C46.5383 9.665 46.3583 9.305 46.1783 9.395C45.5483 9.44 45.7733 9.575 46.3583 9.575C47.0783 9.44 46.8083 10.115 46.2683 10.115C45.9983 10.115 45.9533 10.115 46.0433 10.205C47.8883 11.15 44.5133 10.79 41.9483 10.79C40.5083 10.79 39.3833 10.925 39.5183 11.42C39.3833 12.14 38.9783 13.895 38.6633 14.345C38.7083 14.57 38.3033 14.84 38.3033 15.11C38.2133 15.47 38.3033 15.695 38.0783 15.965C37.8983 16.055 38.0783 16.505 37.9433 16.325C37.8983 16.235 37.8983 16.235 37.8983 16.415C37.9883 16.73 37.6733 16.505 37.7633 16.865C37.8983 17.18 37.6283 16.955 37.6283 17.045C37.6733 17.225 37.4033 17.585 37.4933 17.765C37.5383 17.9 37.4933 17.945 37.4033 17.945C37.2683 17.9 37.2683 18.305 37.3583 18.08C37.5383 17.9 37.4483 18.125 37.3133 18.35C37.0883 18.62 37.2683 18.665 37.1333 18.89C36.9533 19.52 36.5483 19.925 36.4583 20.6L36.4133 20.915H34.0283V21.455H37.8083C37.7633 21.545 37.6283 21.815 37.5833 21.95C37.2683 21.95 36.0533 21.905 36.0083 22.04C35.8733 22.535 35.7383 22.895 35.5133 23.435C34.9733 24.92 34.4333 26.315 33.9833 27.845C33.7583 28.7 33.2183 29.6 33.0383 30.41C32.7683 31.175 32.3633 31.85 32.4983 32.84C32.2733 32.885 30.3833 32.66 30.4283 33.02C30.2483 33.38 31.9133 33.02 32.0033 33.155C33.5783 33.02 34.2083 33.29 32.6333 33.47H31.9133C31.7333 34.505 30.9233 35.405 30.8783 36.395C30.9683 37.205 30.3383 37.565 30.1133 38.285C29.8433 39.05 29.4833 40.355 29.0783 40.355C29.0333 40.355 28.9433 40.31 28.8983 40.265C28.7183 40.04 28.8983 39.59 28.5383 39.455C28.1783 38.87 27.6833 38.375 28.3583 37.655C28.5383 37.385 28.5383 37.34 28.4483 37.16C28.2683 36.89 28.4933 36.08 28.3133 35.765C28.0883 35.405 28.4483 34.82 28.0433 34.505C27.5033 33.74 27.6833 31.805 27.8183 31.22C27.8183 30.86 27.9983 31.04 27.9983 30.77C27.9533 30.68 27.9983 30.635 28.0433 30.635C28.2683 30.59 27.9533 29.915 28.4033 29.51C28.5383 29.375 28.5383 29.375 28.4483 29.42C28.1783 29.645 28.4483 29.24 28.4483 29.105C29.3483 28.61 26.0183 28.97 26.1083 28.745C25.9283 28.655 36.8183 28.7 30.5633 28.565C27.7283 28.565 28.8083 28.7 29.5733 26.135C29.6183 25.91 29.7983 25.685 29.7983 25.505C29.9783 25.505 29.9783 24.83 30.0233 24.875C30.2033 25.055 30.0683 24.2 30.2933 24.155C30.4733 24.065 30.3833 23.57 30.4733 23.525C30.5183 23.525 30.5633 23.48 30.5183 23.435C30.4733 23.3 30.7433 23.3 30.6983 23.075C30.7433 22.355 31.1933 21.77 31.3283 21.05C31.3283 20.915 31.5533 20.33 31.4633 20.69C31.4633 20.87 31.4633 20.87 31.5083 20.735C31.7333 20.465 31.6883 20.015 31.8233 19.745C32.0033 19.565 32.2283 18.665 32.2283 18.485C32.6333 18.035 32.7683 16.595 33.1733 15.875C33.6233 15.605 31.2383 15.83 31.3733 15.65C31.2833 15.56 32.1833 15.56 33.2633 15.56C34.3433 15.56 35.5583 15.56 36.0983 15.47C36.1433 15.2 32.5883 15.74 33.4433 14.975C33.5783 14.795 33.4433 14.48 33.6233 14.525C33.9833 14.615 33.5333 13.85 33.8033 13.94C34.0283 13.895 33.8483 13.085 34.0283 12.95C34.2533 12.41 34.4333 11.735 34.6583 11.195C34.9733 10.97 34.1633 11.105 34.1633 10.97C34.1633 10.925 32.9933 10.925 30.7433 10.88C27.6383 10.88 27.2783 10.88 27.0983 10.745C27.0083 10.655 26.8733 10.52 26.8733 10.43C26.7833 10.25 26.7833 10.25 25.7483 10.25C24.8033 10.25 24.7133 10.25 24.7583 10.115C24.4883 9.89 30.9233 10.16 30.5633 9.935C30.8333 9.755 27.5483 9.8 27.0533 9.8C27.1433 9.71 27.4133 9.485 27.5033 9.35C27.1883 9.215 25.4783 9.35 25.9283 8.675C26.1533 8.405 28.2233 8.855 27.9533 8C27.8633 6.965 28.5833 7.325 29.0783 7.325C29.2583 7.325 29.3933 7.28 29.4383 7.145C29.7533 6.605 30.8333 6.785 31.8233 6.785C31.8233 6.38 31.8233 6.38 31.3733 6.38C30.3833 6.29 30.4283 6.2 29.7983 6.065C29.4833 6.02 28.9883 5.75 29.2133 5.75C29.1233 5.48 30.9233 5.075 31.6883 5.075C31.9133 5.075 32.0483 5.12 32.0483 5.165C32.2283 5.345 32.2283 5.48 32.0483 5.525C31.9133 5.57 32.5433 5.48 32.4983 5.57C32.5433 5.615 34.9283 5.615 38.5733 5.57C40.5083 5.525 40.8683 5.615 41.5883 5.57C42.3983 5.57 45.4583 5.255 45.7733 6.02L45.9083 6.335C46.9883 6.245 49.2383 6.38 49.5083 6.65ZM32.0033 32.705C32.0933 32.615 32.1833 32.3 32.0033 32.48C31.9133 32.525 31.8233 32.885 32.0033 32.705ZM30.7883 9.665C31.0583 9.89 31.1033 9.35 30.8333 9.575C30.6983 9.575 30.6983 9.62 30.7883 9.665ZM34.9283 6.695C35.1083 6.83 35.3333 6.695 35.1533 6.605C35.1083 6.605 35.1083 6.56 35.1083 6.515C35.1533 6.245 34.5233 6.515 34.9283 6.695ZM36.3683 6.605C36.4133 6.47 36.1883 6.605 36.3233 6.425C36.4583 6.29 36.3683 6.29 35.8733 6.425L35.6483 6.515C35.8283 6.56 36.3683 6.785 36.3683 6.605ZM37.1333 6.605C37.4483 6.245 36.3683 6.245 36.5483 6.38C36.9533 6.245 36.8183 6.74 36.9533 6.74C36.9983 6.74 37.0433 6.695 37.1333 6.605ZM41.0033 6.515C40.8233 6.425 41.1833 6.47 41.1833 6.38C40.9583 6.245 39.4733 6.38 39.0683 6.425C38.7533 6.605 37.9433 6.155 37.5833 6.425C37.4483 6.65 38.1233 6.56 38.2583 6.695C38.4383 6.83 38.7083 6.785 38.7083 6.65C38.7083 6.56 38.7533 6.56 38.8433 6.56C39.0683 6.56 39.3833 6.65 39.6083 6.65C39.6983 6.65 39.7433 6.65 39.7433 6.56C39.7883 6.38 41.0933 6.695 41.0033 6.515ZM44.0633 6.65C44.3783 6.11 42.3083 6.425 42.1283 6.29C42.1283 6.245 41.1383 6.47 41.6333 6.47C42.4883 6.425 43.4783 6.74 44.0633 6.65ZM45.5933 6.38C44.1083 6.47 43.3883 6.335 45.6383 6.74C45.6383 6.74 45.5933 6.425 45.5933 6.38ZM72.49 6.65C72.76 7.055 72.4 7.28 71.86 7.28C70.87 7.28 71.14 8.18 70.195 8.18C69.88 8.495 67.945 8.495 66.955 8.45C66.91 8.81 67.54 8.945 68.35 8.945C69.52 8.945 71.05 8.72 71.635 8.81C71.59 9.35 69.655 9.08 69.475 9.305C69.52 9.665 69.34 9.305 69.16 9.395C68.53 9.44 68.755 9.575 69.34 9.575C70.06 9.44 69.79 10.115 69.25 10.115C68.98 10.115 68.935 10.115 69.025 10.205C70.87 11.15 67.495 10.79 64.93 10.79C63.49 10.79 62.365 10.925 62.5 11.42C62.365 12.14 61.96 13.895 61.645 14.345C61.69 14.57 61.285 14.84 61.285 15.11C61.195 15.47 61.285 15.695 61.06 15.965C60.88 16.055 61.06 16.505 60.925 16.325C60.88 16.235 60.88 16.235 60.88 16.415C60.97 16.73 60.655 16.505 60.745 16.865C60.88 17.18 60.61 16.955 60.61 17.045C60.655 17.225 60.385 17.585 60.475 17.765C60.52 17.9 60.475 17.945 60.385 17.945C60.25 17.9 60.25 18.305 60.34 18.08C60.52 17.9 60.43 18.125 60.295 18.35C60.07 18.62 60.25 18.665 60.115 18.89C59.935 19.52 59.53 19.925 59.44 20.6L59.395 20.915H57.01V21.455H60.79C60.745 21.545 60.61 21.815 60.565 21.95C60.25 21.95 59.035 21.905 58.99 22.04C58.855 22.535 58.72 22.895 58.495 23.435C57.955 24.92 57.415 26.315 56.965 27.845C56.74 28.7 56.2 29.6 56.02 30.41C55.75 31.175 55.345 31.85 55.48 32.84C55.255 32.885 53.365 32.66 53.41 33.02C53.23 33.38 54.895 33.02 54.985 33.155C56.56 33.02 57.19 33.29 55.615 33.47H54.895C54.715 34.505 53.905 35.405 53.86 36.395C53.95 37.205 53.32 37.565 53.095 38.285C52.825 39.05 52.465 40.355 52.06 40.355C52.015 40.355 51.925 40.31 51.88 40.265C51.7 40.04 51.88 39.59 51.52 39.455C51.16 38.87 50.665 38.375 51.34 37.655C51.52 37.385 51.52 37.34 51.43 37.16C51.25 36.89 51.475 36.08 51.295 35.765C51.07 35.405 51.43 34.82 51.025 34.505C50.485 33.74 50.665 31.805 50.8 31.22C50.8 30.86 50.98 31.04 50.98 30.77C50.935 30.68 50.98 30.635 51.025 30.635C51.25 30.59 50.935 29.915 51.385 29.51C51.52 29.375 51.52 29.375 51.43 29.42C51.16 29.645 51.43 29.24 51.43 29.105C52.33 28.61 49 28.97 49.09 28.745C48.91 28.655 59.8 28.7 53.545 28.565C50.71 28.565 51.79 28.7 52.555 26.135C52.6 25.91 52.78 25.685 52.78 25.505C52.96 25.505 52.96 24.83 53.005 24.875C53.185 25.055 53.05 24.2 53.275 24.155C53.455 24.065 53.365 23.57 53.455 23.525C53.5 23.525 53.545 23.48 53.5 23.435C53.455 23.3 53.725 23.3 53.68 23.075C53.725 22.355 54.175 21.77 54.31 21.05C54.31 20.915 54.535 20.33 54.445 20.69C54.445 20.87 54.445 20.87 54.49 20.735C54.715 20.465 54.67 20.015 54.805 19.745C54.985 19.565 55.21 18.665 55.21 18.485C55.615 18.035 55.75 16.595 56.155 15.875C56.605 15.605 54.22 15.83 54.355 15.65C54.265 15.56 55.165 15.56 56.245 15.56C57.325 15.56 58.54 15.56 59.08 15.47C59.125 15.2 55.57 15.74 56.425 14.975C56.56 14.795 56.425 14.48 56.605 14.525C56.965 14.615 56.515 13.85 56.785 13.94C57.01 13.895 56.83 13.085 57.01 12.95C57.235 12.41 57.415 11.735 57.64 11.195C57.955 10.97 57.145 11.105 57.145 10.97C57.145 10.925 55.975 10.925 53.725 10.88C50.62 10.88 50.26 10.88 50.08 10.745C49.99 10.655 49.855 10.52 49.855 10.43C49.765 10.25 49.765 10.25 48.73 10.25C47.785 10.25 47.695 10.25 47.74 10.115C47.47 9.89 53.905 10.16 53.545 9.935C53.815 9.755 50.53 9.8 50.035 9.8C50.125 9.71 50.395 9.485 50.485 9.35C50.17 9.215 48.46 9.35 48.91 8.675C49.135 8.405 51.205 8.855 50.935 8C50.845 6.965 51.565 7.325 52.06 7.325C52.24 7.325 52.375 7.28 52.42 7.145C52.735 6.605 53.815 6.785 54.805 6.785C54.805 6.38 54.805 6.38 54.355 6.38C53.365 6.29 53.41 6.2 52.78 6.065C52.465 6.02 51.97 5.75 52.195 5.75C52.105 5.48 53.905 5.075 54.67 5.075C54.895 5.075 55.03 5.12 55.03 5.165C55.21 5.345 55.21 5.48 55.03 5.525C54.895 5.57 55.525 5.48 55.48 5.57C55.525 5.615 57.91 5.615 61.555 5.57C63.49 5.525 63.85 5.615 64.57 5.57C65.38 5.57 68.44 5.255 68.755 6.02L68.89 6.335C69.97 6.245 72.22 6.38 72.49 6.65ZM54.985 32.705C55.075 32.615 55.165 32.3 54.985 32.48C54.895 32.525 54.805 32.885 54.985 32.705ZM53.77 9.665C54.04 9.89 54.085 9.35 53.815 9.575C53.68 9.575 53.68 9.62 53.77 9.665ZM57.91 6.695C58.09 6.83 58.315 6.695 58.135 6.605C58.09 6.605 58.09 6.56 58.09 6.515C58.135 6.245 57.505 6.515 57.91 6.695ZM59.35 6.605C59.395 6.47 59.17 6.605 59.305 6.425C59.44 6.29 59.35 6.29 58.855 6.425L58.63 6.515C58.81 6.56 59.35 6.785 59.35 6.605ZM60.115 6.605C60.43 6.245 59.35 6.245 59.53 6.38C59.935 6.245 59.8 6.74 59.935 6.74C59.98 6.74 60.025 6.695 60.115 6.605ZM63.985 6.515C63.805 6.425 64.165 6.47 64.165 6.38C63.94 6.245 62.455 6.38 62.05 6.425C61.735 6.605 60.925 6.155 60.565 6.425C60.43 6.65 61.105 6.56 61.24 6.695C61.42 6.83 61.69 6.785 61.69 6.65C61.69 6.56 61.735 6.56 61.825 6.56C62.05 6.56 62.365 6.65 62.59 6.65C62.68 6.65 62.725 6.65 62.725 6.56C62.77 6.38 64.075 6.695 63.985 6.515ZM67.045 6.65C67.36 6.11 65.29 6.425 65.11 6.29C65.11 6.245 64.12 6.47 64.615 6.47C65.47 6.425 66.46 6.74 67.045 6.65ZM68.575 6.38C67.09 6.47 66.37 6.335 68.62 6.74C68.62 6.74 68.575 6.425 68.575 6.38ZM78.3435 27.08C73.3935 26.765 84.9135 26.81 84.6435 26.9C84.3735 27.53 84.1035 28.295 83.9235 28.97C83.5185 29.465 84.3735 29.195 84.4635 29.375C84.1035 29.51 83.5635 29.285 83.5635 30.05C83.4285 30.5 83.1135 31.445 82.9785 31.805C82.7085 32.21 82.6185 32.84 82.4835 33.155C82.5735 33.425 82.2585 33.29 82.3935 33.605C82.4385 33.695 82.2585 33.65 82.2135 33.785C82.3485 34.415 81.0885 37.025 80.9085 37.835C80.5935 38.24 79.5585 42.56 78.9735 41.84C78.7485 41.615 79.6935 39.005 79.3785 38.735C79.2885 38.69 79.2885 38.105 79.4235 37.835C79.3335 37.835 78.8835 38.51 78.6585 38.465C78.3885 38.465 78.0735 39.365 77.8035 39.365C77.7585 39.365 77.7585 39.32 77.6685 39.32C77.3535 39.32 77.8935 37.475 77.8935 37.34C77.8035 37.25 77.3985 37.205 77.2635 37.025C76.9935 37.115 77.0835 34.415 77.2185 34.415C77.3535 34.01 77.6235 33.56 77.6685 33.155C77.5785 32.84 77.7135 32.885 77.7135 32.75C77.6685 32.48 77.8485 32.21 78.0285 32.12C78.1635 31.94 77.8935 31.94 78.0285 31.805C78.1185 31.715 77.9835 31.445 78.1635 31.445C78.2535 31.445 78.2985 31.355 78.2535 31.175C78.2985 31.13 78.5685 30.995 78.2985 31.04C78.2985 31.04 78.2985 31.04 78.2535 31.04C78.1185 31.04 78.5685 30.005 78.6585 29.96C79.0185 29.24 78.3885 29.375 80.1435 29.375C83.2485 29.285 79.7835 29.15 78.8385 29.195C78.8385 28.925 79.0635 28.745 79.1535 28.52C79.1535 28.52 79.1085 27.98 79.1985 28.16C79.2885 28.295 79.3785 28.16 79.3335 27.935C79.3335 27.665 79.5585 27.395 79.5135 27.08H78.3435ZM90.9435 8.36C91.1235 8.945 90.1785 9.17 90.3135 9.755C90.4035 10.475 89.9985 9.755 90.0885 10.025C90.2685 10.52 89.7735 11.24 89.7735 11.735C89.8635 11.96 89.6835 11.735 89.6835 11.915C89.6835 12.23 89.6835 12.275 89.5485 12.23C89.2785 12.365 89.5035 13.04 89.2335 13.355C88.7835 14.435 88.3335 15.335 88.0635 16.595C88.1535 17.18 87.0735 18.17 87.7485 18.17C87.8835 18.17 88.0635 18.125 88.2885 18.08C89.2335 17.855 89.5035 18.395 88.9185 18.62C88.9185 18.62 87.4335 19.25 88.0635 19.115C88.3335 19.025 88.7385 18.935 89.1435 18.935C89.9535 18.935 90.6735 19.25 89.6385 20.195C89.1435 20.825 87.6135 20.195 88.3335 21.005C88.5585 21.275 88.3785 21.77 88.6935 21.995C89.8635 23.975 85.7685 22.715 85.5435 23.66C85.4985 24.155 85.4085 24.38 85.3185 24.74C85.2735 24.785 85.3635 25.19 85.2285 25.19C85.1835 25.19 85.1835 25.235 85.1835 25.28C85.2735 25.775 84.9585 25.37 84.9585 25.865C84.9585 25.955 84.9135 26 84.8685 25.955C84.7785 26 84.7335 26.405 84.6435 26.495C84.6435 26.54 83.7885 26.585 82.2135 26.585C79.8285 26.495 79.4235 26.765 80.0085 26.135C80.0985 26 79.8285 25.91 80.0085 25.865C80.1435 25.82 80.0085 25.595 80.0985 25.595C80.2335 25.595 80.1435 25.145 80.2335 25.145C80.3235 25.19 80.4135 24.83 80.3685 24.65C80.2785 24.425 80.5485 24.47 80.5035 24.29C80.5035 24.2 80.5035 24.2 80.5485 24.2C80.6835 24.29 80.7735 23.57 80.6835 23.435C80.5935 23.39 75.3285 23.345 74.9685 23.435C74.4735 23.48 74.5635 24.065 74.3385 24.47C73.3035 27.485 71.6835 30.68 70.4235 33.56C70.5585 33.92 69.6135 34.73 69.5685 35.18C69.2985 35.945 68.8485 37.475 68.4435 37.475C68.2635 37.475 68.0835 37.205 67.9035 36.44C67.6335 36.575 68.2185 34.19 67.9485 33.515C67.7235 33.47 67.8135 32.48 67.5435 32.165C67.2285 32.12 67.8135 31.94 67.5885 31.715C67.4535 31.4 67.4535 31.085 66.9585 31.175C66.9585 30.815 67.0035 29.78 67.1385 29.645C67.2735 29.15 67.4085 29.285 67.4085 28.655C67.4535 28.07 68.7585 25.28 69.1185 24.56C69.1635 24.38 69.2085 24.38 70.2435 24.38C73.8435 24.155 67.3185 24.38 67.6785 24.2C67.5435 24.02 69.1185 24.11 69.4335 24.11C69.3885 23.975 69.5685 23.435 69.5685 23.66C69.5235 23.75 69.5235 23.75 69.6135 23.66C70.2435 23.165 67.4985 23.48 67.4985 23.12C67.3635 22.805 68.5785 23.03 68.3535 22.715C68.1735 22.31 69.3885 22.445 69.6585 22.355C70.0635 22.4 69.7935 22.13 69.9735 22.31C70.0185 22.49 70.2885 22.22 70.1535 22.13C70.0635 21.995 69.9285 22.175 70.0185 21.995C70.0185 21.95 70.1085 21.86 70.1985 21.86C70.2885 21.815 69.6135 21.635 69.6585 21.725C69.5235 21.815 69.2985 21.815 69.0735 21.815C68.6235 21.815 68.1285 21.725 67.8135 21.635C66.9135 21.59 66.5085 21.05 67.4985 21.095C68.3535 21.23 67.7685 20.69 68.1285 20.465C68.3535 20.42 68.5335 20.105 68.8485 20.15C69.2085 20.24 69.2085 19.97 69.3885 20.105C69.5235 20.195 69.5235 20.15 69.5235 20.06C69.4785 19.88 70.0185 20.06 70.0635 19.925C70.9635 19.835 70.3785 19.655 70.8285 19.61C70.9635 19.565 71.1885 19.79 70.9635 19.745C70.9185 19.745 70.8735 19.745 70.8735 19.79C71.0985 20.24 71.7735 18.935 71.4135 18.935H71.3685C70.6035 19.025 69.6135 19.07 69.1185 18.62C68.8485 17.99 72.9435 18.26 72.1785 17.81C72.0885 17.675 72.3585 17.54 72.3135 17.405C72.3135 17.225 72.5385 17.09 72.5385 16.955C75.1935 11.69 72.8085 12.815 78.8385 12.635C78.0285 12.635 74.6535 12.635 74.4735 12.59C74.4735 12.545 74.6535 12.23 74.6985 12.14C71.0535 11.96 76.9935 11.87 77.9835 11.87V11.51L74.9685 11.465C75.2835 11.24 75.3285 10.745 75.5085 10.43C75.2835 10.25 74.8785 9.98 74.4735 10.205C73.7985 10.385 72.4935 10.115 71.9085 9.98C71.7285 9.395 74.9685 9.755 74.2485 9.26C74.1585 9.17 74.1135 9.08 74.1135 8.9C74.3385 8.495 72.4485 8.315 73.5285 7.91C73.7985 7.865 73.7985 7.865 73.7085 7.685C73.4385 7.28 74.0235 7.01 74.4735 6.965C74.7885 6.965 74.5185 6.83 74.6085 6.74C74.6535 6.695 74.6985 6.74 74.7435 6.785C74.9235 7.055 74.9235 6.65 75.0585 6.56C75.1935 6.65 75.2835 7.19 75.5985 6.83C76.0035 6.695 76.5885 6.65 77.0385 6.695C77.3535 6.695 77.2185 6.965 77.5335 6.83C77.7585 6.74 77.8035 6.56 77.6685 6.515C77.5335 6.29 77.9835 5.975 77.3085 6.02C77.1285 6.11 76.7235 5.795 76.8135 5.93C76.8585 6.11 76.4535 5.885 76.2285 5.93C75.1485 5.705 74.6535 5.84 74.8335 5.345C75.4185 5.075 77.3085 4.625 78.7935 4.625C79.4685 4.625 80.0535 4.715 80.3685 4.985C80.3685 5.03 80.3685 5.075 80.4585 5.075C80.6385 5.165 80.4135 4.895 80.5935 4.94C80.7285 5.075 81.2685 5.075 81.9435 5.075C83.3385 5.075 85.4085 4.94 86.3535 4.94C86.6685 4.94 87.6135 4.985 87.7935 5.165C87.8835 5.255 88.1985 6.02 88.4235 6.02C88.4235 6.02 88.4685 6.02 88.5135 5.93C88.4685 5.84 88.6035 5.84 88.7835 5.93C89.0085 6.065 88.9635 5.84 89.2785 5.93C90.1785 5.93 90.7635 6.02 91.1235 7.1C91.3935 7.73 90.9435 7.775 90.9435 8.36ZM80.9985 19.16C83.8335 18.89 80.8185 18.845 79.4235 18.89C78.2985 18.98 77.6235 18.755 76.8585 18.98C77.3535 19.205 77.9835 19.25 78.6135 19.25C79.4235 19.25 80.2785 19.16 80.9985 19.16ZM85.2735 10.43C85.5885 10.295 85.1385 10.25 84.1035 10.295C82.4385 10.34 81.4485 10.385 80.9985 10.385C80.4135 10.34 80.8185 10.52 80.5935 10.745C80.5035 10.79 80.2785 11.375 80.2785 11.555C80.2785 11.78 79.9185 11.735 80.0085 11.96C79.9185 12.545 79.3335 12.995 79.2885 13.58C78.4785 14.93 77.8935 16.64 77.2185 18.035C77.2185 18.125 77.8935 18.125 81.6735 18.08H82.4835C82.7985 17.495 82.8885 16.82 83.2485 16.28C83.4735 16.01 83.1585 16.19 83.2935 16.01C83.3835 15.74 83.5185 15.2 83.6535 14.975C83.6535 14.66 84.0135 13.76 84.1035 13.76C84.2385 13.85 84.1035 13.265 84.2385 13.355C84.3735 13.265 84.1935 13.13 84.4185 12.995C84.3735 12.86 84.2385 13.04 84.3285 12.815C84.3735 12.635 84.7335 12.77 84.5535 12.455C84.3735 12.005 85.0035 12.05 84.8685 11.42C84.8235 11.06 85.0035 11.375 85.0485 11.15C85.0935 10.925 85.2285 11.105 85.1835 10.925C85.1385 10.88 85.1385 10.835 85.2285 10.88C85.3635 10.925 85.0935 10.43 85.2735 10.43ZM86.5785 21.86C86.6685 21.68 85.8135 21.95 86.3085 21.95C86.4435 21.95 86.5785 21.905 86.5785 21.86ZM87.6585 21.725C87.4785 21.815 87.1185 21.77 86.9835 21.86C87.1185 22.04 88.8285 21.725 87.6585 21.725ZM75.0585 9.125C75.6885 9.125 74.7885 8.945 74.7885 9.08C74.7885 9.125 74.9235 9.125 75.0585 9.125ZM75.5985 9.125C75.8235 9.125 75.7785 8.9 75.5085 9.08C75.4185 9.125 75.4635 9.125 75.5985 9.125ZM78.4785 5.12C78.5685 5.21 78.9285 5.255 78.8385 5.165C78.8385 5.165 78.2985 5.03 78.4785 5.12ZM82.1235 5.975C82.0785 6.065 82.3485 6.02 82.3485 6.11C82.3485 6.2 82.4385 6.2 82.5285 6.11C82.5735 6.02 82.2135 5.885 82.1235 5.975ZM84.0135 5.84C83.6535 5.795 83.6535 5.795 83.8335 5.93C84.1035 6.155 84.8235 5.795 84.0135 5.84ZM86.4885 6.11C86.6235 6.2 86.7135 6.11 86.6235 5.975C86.4435 5.705 87.4785 5.975 87.3435 5.57C87.3885 5.525 86.6685 5.48 86.8935 5.57C87.1185 5.615 87.0285 5.705 86.8035 5.705C86.7135 5.705 86.6235 5.705 86.6235 5.615C86.6235 5.435 86.3535 5.705 86.2185 5.57C85.6335 5.48 86.0385 5.885 85.0035 5.795C84.0585 5.795 85.0035 6.11 85.3635 6.11C85.4985 6.11 85.5885 6.11 85.5435 6.02C85.4985 5.885 86.3985 5.975 86.4885 6.11ZM85.6335 8.855C85.7685 8.855 85.7685 8.675 85.6335 8.675C85.4985 8.675 85.4985 8.855 85.6335 8.855ZM88.1985 6.875C88.4685 7.145 88.1535 6.83 88.4235 6.83C88.9635 6.74 87.8385 6.605 88.1985 6.875ZM88.6485 6.695C88.5585 6.785 89.1885 6.965 88.8735 6.74C88.7385 6.605 88.6485 6.605 88.6485 6.695ZM88.6935 7.01C89.4135 7.19 88.6935 6.875 88.4685 6.92L88.6935 7.01ZM89.9985 7.19C90.1335 7.235 90.1335 6.965 90.0435 6.965C89.9985 6.965 89.9535 6.965 89.9985 6.92C90.0885 6.875 89.8635 6.695 89.7285 6.695C89.5035 6.695 89.9535 6.875 89.5935 7.055C89.4585 7.19 89.3235 6.965 89.4585 6.92C89.5035 6.92 89.5035 6.875 89.5035 6.785C89.5035 6.65 89.1435 6.605 89.2785 6.875C89.3685 7.145 89.1435 7.01 89.0985 7.145C89.5035 7.145 89.2785 7.82 89.4585 7.775C89.5485 7.73 89.4585 7.415 89.6385 7.415C89.7735 7.46 89.8635 7.1 89.9985 7.19ZM114.083 6.875C114.308 6.785 114.488 6.785 114.623 6.785C115.253 6.785 114.083 7.775 113.138 8.135C112.103 8.585 112.508 9.17 111.383 9.62C110.978 9.8 110.708 10.07 110.708 10.295C110.753 10.655 109.313 11.33 108.953 11.645C108.458 11.825 108.278 12.185 107.783 12.275C107.513 12.32 107.018 12.86 106.793 12.995C106.568 13.04 106.163 13.49 105.983 13.535C105.623 13.58 105.353 14.075 105.083 14.21C104.903 14.165 104.723 14.615 104.588 14.525C104.543 14.525 104.453 14.57 104.453 14.66C104.228 14.84 103.688 15.155 103.508 15.38C102.068 16.55 101.078 17.09 99.8183 18.35C98.7833 19.295 97.8833 20.105 96.7583 21.14C96.7133 21.14 96.3083 21.5 95.9483 21.815C95.4083 22.085 98.1983 21.86 97.8383 22.085C96.8033 22.58 97.7033 22.4 94.2833 22.4L91.3133 22.355V22.805C91.9433 22.805 95.0483 22.76 95.0933 22.85C95.0933 22.895 94.7783 23.255 94.4183 23.615C93.8333 24.245 93.5183 24.65 93.4733 24.83C93.4733 25.01 93.3833 25.145 93.2483 25.19C92.9333 25.37 92.8433 25.91 92.6633 26.225C92.4383 26.81 92.4383 28.925 93.8333 28.79C95.7683 29.015 98.4683 28.565 100.763 28.295C101.573 28.385 102.473 27.845 103.103 27.845C103.418 27.845 103.688 27.98 103.823 28.52C103.508 28.835 103.373 28.295 102.563 28.7C102.248 28.7 102.653 28.835 102.518 28.88C102.248 28.655 102.203 29.06 101.933 29.06C101.843 28.97 101.258 29.375 101.348 29.195C100.718 29.105 99.0533 29.51 98.5133 29.555C98.3783 29.645 98.3333 29.42 98.2433 29.51C98.1533 29.645 97.9283 29.555 97.7483 29.645C97.6133 29.645 97.5233 29.645 97.5233 29.6C97.6133 29.555 96.5783 29.69 96.6683 29.915C97.2983 29.825 98.6033 29.735 99.1883 29.825C99.1883 29.735 99.5933 29.51 99.5933 29.69C99.7733 29.735 100.313 29.555 100.493 29.735C100.853 29.51 101.393 29.42 101.888 29.375C102.473 29.15 103.643 29.33 104.093 29.15C104.228 29.24 104.408 29.42 104.633 29.24C105.353 29.06 106.568 28.97 107.378 28.79C109.043 28.745 106.523 29.825 106.388 30.095C106.118 30.23 106.073 30.59 105.713 30.725C104.633 30.995 105.263 31.355 104.948 31.895C104.813 32.12 104.813 32.165 104.903 32.255C105.083 32.39 105.668 32.21 106.118 32.21C106.388 32.21 106.613 32.255 106.658 32.57C105.173 33.92 102.833 33.92 100.853 34.19C99.5033 34.415 97.5233 34.685 95.5433 34.685C93.2933 34.685 91.0433 34.325 89.6033 33.29C89.2883 33.065 88.0283 32.165 88.3433 31.94C88.4783 31.535 87.8483 31.13 87.8933 30.59C87.5333 29.015 87.2633 26.675 87.9833 25.235C88.0283 25.235 88.0283 25.28 88.0283 25.325C87.9383 25.46 88.1633 25.28 88.1183 25.235C88.1633 25.01 88.6133 24.875 87.9383 24.875C86.1383 24.605 92.3033 24.785 91.8983 24.65C92.1233 24.56 88.3883 24.605 88.4783 24.515C88.7033 24.02 88.8383 23.21 89.1533 22.715C89.6483 21.77 92.6633 17.405 93.6533 16.865C94.5083 16.28 93.7433 16.46 94.5533 15.785C95.3633 14.975 96.5783 13.94 97.2983 13.13C97.4783 13.04 93.9233 13.175 94.4633 12.995C94.3733 12.815 98.1983 12.86 100.988 12.86C102.608 12.86 103.913 12.86 103.778 12.77C103.778 12.635 103.373 12.635 100.853 12.635C97.3883 12.455 97.5683 13.085 98.9633 11.735C99.4133 11.465 106.568 5.615 108.368 5.615C108.728 5.615 108.863 5.84 108.728 6.335C108.593 6.02 108.233 6.785 108.053 6.74C107.783 6.785 108.368 7.1 107.648 7.055C107.243 6.92 107.558 7.28 107.333 7.325C107.243 7.325 107.063 7.505 106.838 7.685C106.073 8.36 106.388 8.225 106.028 8.45C105.938 8.585 106.478 8.675 106.478 8.585C106.658 8.45 106.658 8.09 106.883 8.045C107.018 8.09 107.108 8.135 107.243 8.135C107.918 8.135 108.818 7.37 109.493 7.235C110.078 7.19 110.393 6.56 110.933 6.56C111.518 6.56 111.608 6.875 112.103 6.92C112.598 6.965 112.868 7.1 113.183 7.1C113.408 7.1 113.678 7.055 114.083 6.875ZM106.478 7.28C106.298 7.37 106.028 7.685 106.118 7.685C106.118 7.73 106.703 7.19 106.478 7.28ZM103.328 32.3C103.238 32.3 103.148 32.345 103.148 32.345C103.193 32.525 103.643 32.3 103.328 32.3ZM94.7783 30.41C94.4633 30.005 94.6883 30.635 94.8233 30.59C94.8683 30.545 94.8233 30.455 94.7783 30.41ZM91.6733 30.365C91.4933 30.275 91.6283 30.23 91.8083 30.23C92.1233 30.23 92.5283 30.275 92.0783 30.095C91.8083 30.05 91.5833 29.195 91.2683 29.24C91.0883 29.24 91.0883 29.24 91.1333 29.51C91.1783 29.87 91.4483 30.005 91.4933 30.365C91.5383 30.635 91.5833 30.68 91.8083 30.635C91.9433 30.635 91.9433 30.905 92.0333 30.725C91.9883 30.275 91.6733 30.77 91.7183 30.5C91.7633 30.41 91.7633 30.365 91.6733 30.365ZM92.5733 30.86C92.7533 30.725 92.3033 30.77 92.2583 30.68C92.0333 30.5 92.2133 31.085 92.5733 30.86ZM92.7533 29.465C92.6633 29.465 92.6633 29.465 92.7533 29.6C92.9783 29.96 93.0233 29.51 92.7533 29.465ZM92.3483 29.6C92.0783 29.555 92.3033 29.285 91.8533 29.195C91.4483 29.06 91.4033 29.015 91.6733 29.375C91.9883 29.825 92.3483 30.005 92.7533 30.275C92.8883 30.275 93.1583 30.725 93.2483 30.5C93.2933 30.455 93.0233 30.275 93.1583 30.275C93.2483 30.275 93.6083 30.86 93.5633 30.41C93.5633 30.32 93.5633 30.275 93.6083 30.275C93.9233 30.23 93.2933 29.78 93.2933 30.005C93.2483 30.23 92.8433 30.365 92.8433 30.005C92.8883 29.915 92.6183 29.735 92.7083 29.915C92.7083 29.96 92.7083 29.96 92.6633 29.96C92.5283 29.78 92.7983 29.51 92.3483 29.6ZM92.2133 28.025C92.1683 28.07 92.0783 28.34 92.0333 28.34C91.7183 27.71 91.7183 28.385 91.8533 28.475C92.0783 28.475 92.2583 28.25 92.2133 28.025ZM104.588 9.53C104.633 9.215 104.138 9.71 104.453 9.665C104.543 9.665 104.588 9.62 104.588 9.53ZM136.595 5.345C136.595 5.525 136.55 5.66 136.01 6.245C134.39 7.64 136.235 7.55 135.155 8.495C133.4 9.53 134.57 9.98 132.86 11.06C131.96 11.69 131.825 12.23 131.105 12.86C131.06 12.995 130.97 13.085 130.835 13.085C130.7 13.085 130.655 13.13 130.655 13.265C130.655 13.445 130.34 13.76 130.16 13.895H127.235C122.825 13.85 123.41 14.21 128.36 14.165C132.365 14.165 132.41 14.165 132.32 14.3C132.5 14.57 130.115 14.435 129.62 14.48C128.9 15.02 128.27 15.83 127.91 16.055C127.1 16.775 126.38 17.945 125.345 18.62C125.075 18.755 124.895 19.25 124.67 19.43C124.445 19.88 123.635 20.33 123.365 20.735C123.185 21.005 122.825 21.365 122.6 21.59C122.465 21.545 122.42 21.86 122.33 21.86C122.105 21.905 121.7 22.445 121.61 22.58C120.8 23.39 121.205 23.345 122.105 23.66C122.735 24.155 126.875 24.74 123.455 24.605C121.97 24.65 121.925 24.515 121.79 24.965C121.925 24.92 121.97 24.83 122.42 25.01C122.6 25.01 122.825 24.875 124.85 24.92C127.415 24.965 127.01 24.83 127.775 25.19C124.4 25.1 129.44 25.865 129.8 27.17C130.025 27.62 128.135 27.755 128.81 28.25C128.99 28.385 128.855 28.97 128.855 29.195C129.665 30.095 131.015 30.455 131.69 31.895C131.87 32.255 131.735 32.345 131.42 32.345C130.565 32.345 128.225 31.265 127.775 31.265C125.165 30.185 121.16 28.61 117.965 27.53C117.74 27.395 117.515 27.35 117.335 27.35C116.75 27.35 116.39 27.935 116.03 28.43C115.4 28.88 114.95 30.275 114.95 31.13C114.365 31.175 110.405 31.04 110.9 31.265C111.17 31.535 113.15 31.445 114.77 31.445C115.76 31.445 116.57 31.49 116.75 31.67C116.975 31.85 114.905 31.805 114.59 31.85C114.095 32.885 114.185 34.55 113.24 35.18C113.015 35.315 112.385 34.775 112.385 35.135C111.935 35.855 110.945 36.08 110.585 37.475C110.36 38.15 110.135 38.375 109.955 38.375C109.685 38.375 109.46 37.88 109.55 37.34C109.505 35.135 108.02 37.025 109.37 33.245C109.82 31.715 110.27 29.96 110.585 28.43C110.585 28.025 110.765 28.61 110.765 28.295C110.945 27.845 111.125 27.17 111.215 26.675C111.35 26.54 111.26 26.225 111.44 25.955C111.575 25.73 111.575 25.64 111.485 25.595C111.305 25.55 111.71 25.01 111.755 24.965C111.845 24.83 111.845 24.11 111.935 23.93C112.025 23.615 112.475 22.805 112.34 22.625C112.25 22.31 112.61 21.95 112.655 21.68C112.79 21.545 111.215 21.635 111.35 21.5C111.395 21.41 112.025 21.41 114.185 21.365C116.615 21.365 116.975 21.32 116.975 21.23C117.515 21.05 112.385 21.185 112.745 21.05C112.835 20.6 113.105 20.195 113.195 19.835C113.33 19.655 113.24 19.16 113.465 19.025C113.645 19.025 113.51 18.665 113.6 18.62C113.735 18.485 113.78 17.9 113.915 17.765C113.915 17.045 114.185 17.18 114.185 16.55C114.185 16.505 114.185 16.46 114.23 16.46C114.365 16.46 114.23 16.145 114.32 16.145C114.365 16.1 114.365 16.055 114.365 16.01C114.275 15.92 114.5 15.875 114.41 15.785C114.365 15.65 114.635 15.875 114.59 15.65C114.68 15.065 115.175 14.435 115.265 13.76C115.535 12.365 116.03 11.15 116.57 9.89C116.57 9.575 116.885 9.575 116.795 9.26C116.795 9.125 116.795 9.08 116.885 9.125C117.02 9.035 117.29 7.91 116.525 8.09C116.03 8 120.935 8.045 120.485 7.955C120.665 7.73 116.48 8.135 117.245 7.595C117.38 7.235 117.56 6.695 117.65 6.38C117.83 6.245 118.055 5.975 118.145 5.435C118.55 4.04 119.135 2.195 119.63 0.799998C119.72 0.709999 119.81 0.664999 119.9 0.664999C120.395 0.664999 120.305 2.645 120.62 2.825C121.385 2.96 121.25 3.995 120.89 4.49C121.475 4.94 122.69 5.12 122.645 6.065C122.24 7.37 122.645 7.325 121.925 8.63C121.745 8.99 121.745 9.485 121.565 9.71C121.25 9.71 121.43 11.06 121.115 11.06C121.025 11.42 120.845 12.185 120.575 12.5C120.62 12.77 120.395 13.085 120.35 13.355C120.215 14.075 120.08 13.895 119.945 14.435C119.72 15.065 119.585 15.785 119.225 16.37C119.18 16.415 119.135 16.46 119.18 16.595C119.225 16.865 118.955 16.775 119 17.135C119 17.54 118.595 17.9 118.46 18.305C119.675 17.225 120.845 15.515 122.33 14.435C122.78 13.895 123.455 13.13 123.95 12.68C123.95 12.59 124.31 12.23 124.4 12.23C124.625 12.23 124.94 11.6 125.21 11.51C125.48 11.42 124.94 11.375 125.39 11.24C126.11 10.655 127.01 9.35 127.775 8.765C128.27 8.27 128.81 7.415 129.395 7.415C129.62 7.415 129.845 7.595 130.07 8C130.385 7.595 130.655 7.46 130.88 7.46C131.24 7.46 131.555 7.73 131.825 7.73C131.96 7.73 132.05 7.685 132.185 7.595C132.635 6.83 132.86 6.92 133.175 6.92C133.355 6.92 133.58 6.875 133.85 6.695C134.075 6.38 134.885 6.335 135.11 5.975C135.425 5.66 136.01 5.075 136.325 5.075C136.46 5.075 136.55 5.165 136.595 5.345ZM121.205 5.345C121.115 5.345 121.115 5.66 121.205 5.615C121.295 5.57 121.295 5.39 121.205 5.345ZM127.1 26.81C126.92 26.99 127.505 26.765 127.37 26.99C127.28 27.035 127.325 27.08 127.37 27.125C127.46 27.215 127.505 27.215 127.505 27.125C127.46 26.945 128.045 26.9 127.775 26.99C127.55 26.99 128.09 27.17 127.73 27.125C127.64 27.08 127.595 27.125 127.595 27.125C127.685 27.485 126.83 26.9 127.235 27.35C127.37 27.395 127.235 27.62 127.325 27.575C127.55 27.575 127.37 28.16 127.505 28.16C127.595 28.16 127.685 28.07 127.82 27.89C128.135 27.575 128.18 27.485 127.91 27.305C127.865 27.215 127.91 27.215 128.09 27.305C128.72 27.485 128.45 26.855 128.18 26.675C128.27 27.17 127.28 26.54 127.1 26.81ZM132.725 7.865C132.95 7.91 132.725 7.685 132.635 7.82C132.635 7.865 132.635 7.865 132.725 7.865ZM127.64 27.26C127.64 27.125 127.82 27.35 127.775 27.395C127.73 27.44 127.64 27.305 127.64 27.26Z" fill="#FFFB00"/>
</svg>
