<svg width="60" height="50" viewBox="0 0 60 50" fill="none" xmlns="http://www.w3.org/2000/svg">
<path fill-rule="evenodd" clip-rule="evenodd" d="M23.9746 0L30 6L36.0254 0H36.2462L43.2642 4.77093L35.7388 7.50744C35.4686 7.1126 35.0146 6.85352 34.5 6.85352C33.6716 6.85352 33 7.52509 33 8.35352C33 9.18194 33.6716 9.85352 34.5 9.85352C35.2864 9.85352 35.9314 9.24838 35.9949 8.47838L36.6854 8.22728L41.9848 10.905L49.2939 7.73774L54.5478 10.1664L41.3574 18.3535H33.9147C33.7087 17.7709 33.1531 17.3535 32.5 17.3535C31.6716 17.3535 31 18.0251 31 18.8535C31 19.6819 31.6716 20.3535 32.5 20.3535C33.1531 20.3535 33.7087 19.9361 33.9146 19.3535H41.6425L55.2602 10.9012L55.6738 12.1283L53 14L55 18.5L57.1955 16.6423L57.5491 17.6913V17.9415L53.3314 21.1048C53.0934 20.9461 52.8075 20.8535 52.5 20.8535C51.6716 20.8535 51 21.5251 51 22.3535C51 23.1819 51.6716 23.8535 52.5 23.8535C53.3284 23.8535 54 23.1819 54 22.3535C54 22.1971 53.9761 22.0463 53.9317 21.9046L57.5491 19.1915V24.8284L52.97 28.6443L54.0371 37.181L59.4854 39.9052L50.9514 46.5816V42.6092L52.8533 40.7073C53.0491 40.801 53.2684 40.8535 53.5 40.8535C54.3284 40.8535 55 40.1819 55 39.3535C55 38.5251 54.3284 37.8535 53.5 37.8535C52.6716 37.8535 52 38.5251 52 39.3535C52 39.5851 52.0525 39.8044 52.1462 40.0002L50.9502 41.1962L47.8904 33.9091L47.505 28.8988L49.383 21.7625L50 19.5L49.9795 19.4955L49.9834 19.4808L49.0163 19.2263L49.0026 19.2784L45.5 18.5L47.8612 23.6159L46.5697 28.5235L43.3671 30.3536H37.9147C37.7088 29.7709 37.1531 29.3535 36.5 29.3535C35.6716 29.3535 35 30.0251 35 30.8535C35 31.6819 35.6716 32.3535 36.5 32.3535C37.1531 32.3535 37.7087 31.9361 37.9146 31.3536H43.1098L45.3598 40.3536H43.0625L42.0046 48.2875L42.0719 48.2965L40.0347 49.7224L40.5 46L36.5 48.5L31 50H30.7236V46.3535L35.6181 46.3535L39.4587 44.4332C39.7285 44.6934 40.0955 44.8535 40.5 44.8535C41.3284 44.8535 42 44.1819 42 43.3535C42 42.5251 41.3284 41.8535 40.5 41.8535C39.6716 41.8535 39 42.5251 39 43.3535C39 43.4163 39.0039 43.4781 39.0113 43.5388L35.382 45.3535L30.7236 45.3535V40.3535L35.6181 40.3535L38.4587 38.9332C38.7285 39.1934 39.0955 39.3535 39.5 39.3535C40.3284 39.3535 41 38.6819 41 37.8535C41 37.0251 40.3284 36.3535 39.5 36.3535C38.6716 36.3535 38 37.0251 38 37.8535C38 37.9163 38.0039 37.9781 38.0113 38.0388L35.382 39.3535L30.7236 39.3535V22.8535L30 21.8535L29.2764 22.8535V39.3535L24.618 39.3535L21.9887 38.0388C21.9961 37.9781 22 37.9163 22 37.8535C22 37.0251 21.3284 36.3535 20.5 36.3535C19.6716 36.3535 19 37.0251 19 37.8535C19 38.6819 19.6716 39.3535 20.5 39.3535C20.9045 39.3535 21.2715 39.1934 21.5413 38.9332L24.3819 40.3535L29.2764 40.3535V45.3535L24.618 45.3535L20.9887 43.5388C20.9961 43.4781 21 43.4163 21 43.3535C21 42.5251 20.3284 41.8535 19.5 41.8535C18.6716 41.8535 18 42.5251 18 43.3535C18 44.1819 18.6716 44.8535 19.5 44.8535C19.9045 44.8535 20.2715 44.6934 20.5413 44.4332L24.3819 46.3535L29.2764 46.3535V50H29L23.5 48.5L19.5 46L19.9653 49.7224L17.9281 48.2965L17.9954 48.2875L16.9375 40.3536H14.6402L16.8902 31.3536H22.0854C22.2913 31.9361 22.8469 32.3535 23.5 32.3535C24.3284 32.3535 25 31.6819 25 30.8535C25 30.0251 24.3284 29.3535 23.5 29.3535C22.8469 29.3535 22.2912 29.7709 22.0853 30.3536H16.6329L13.4303 28.5235L12.1388 23.6159L14.5 18.5L10.9974 19.2784L10.9837 19.2263L10.0166 19.4808L10.0205 19.4955L10 19.5L10.617 21.7625L12.495 28.8988L12.1096 33.9091L9.04976 41.1962L7.85381 40.0002C7.94752 39.8044 8 39.5851 8 39.3535C8 38.5251 7.32843 37.8535 6.5 37.8535C5.67157 37.8535 5 38.5251 5 39.3535C5 40.1819 5.67157 40.8535 6.5 40.8535C6.73157 40.8535 6.95089 40.801 7.14671 40.7073L9.04858 42.6092V46.5816L0.514624 39.9052L5.96292 37.181L7.03001 28.6443L2.45087 24.8284V19.1915L6.06833 21.9046C6.02393 22.0463 6 22.1971 6 22.3535C6 23.1819 6.67157 23.8535 7.5 23.8535C8.32843 23.8535 9 23.1819 9 22.3535C9 21.5251 8.32843 20.8535 7.5 20.8535C7.19248 20.8535 6.90658 20.9461 6.66861 21.1048L2.45087 17.9415V17.6913L2.80451 16.6423L5 18.5L7 14L4.32618 12.1283L4.73984 10.9012L18.3575 19.3535H26.0854C26.2913 19.9361 26.8469 20.3535 27.5 20.3535C28.3284 20.3535 29 19.6819 29 18.8535C29 18.0251 28.3284 17.3535 27.5 17.3535C26.8469 17.3535 26.2913 17.7709 26.0853 18.3535H18.6426L5.45225 10.1664L10.7061 7.73774L18.0152 10.905L23.3146 8.22728L24.0051 8.47838C24.0686 9.24838 24.7136 9.85352 25.5 9.85352C26.3284 9.85352 27 9.18194 27 8.35352C27 7.52509 26.3284 6.85352 25.5 6.85352C24.9854 6.85352 24.5314 7.1126 24.2612 7.50744L16.7358 4.77093L23.7538 0H23.9746ZM23.5 1.5L19.5 4L23.5 5.5V1.5ZM36.5 1.5L40.5 4L36.5 5.5V1.5Z" fill="#4BFFF6"/>
<path d="M25.3918 0H34.6082L30.0056 4.58324L30 4.57763L29.9944 4.58324L25.3918 0Z" fill="#4BFFF6"/>
<path d="M16.809 46.9559L16.062 41.3536H14.476L16.809 46.9559Z" fill="#4BFFF6"/>
<path d="M13.7783 39.6779L15.9229 31.0996L13.4379 29.6796L13.0469 34.7626L13.7052 39.5026L13.7783 39.6779Z" fill="#4BFFF6"/>
<path d="M0 39.0444L5.03703 36.5259L5.96994 29.0626L2.3249 26.0251L0 32.2321V39.0444Z" fill="#4BFFF6"/>
<path d="M11.923 7.17521L17.985 9.80209L22.0525 7.76833L15.6647 5.4455L11.923 7.17521Z" fill="#4BFFF6"/>
<path d="M43.191 46.9559L43.938 41.3536H45.524L43.191 46.9559Z" fill="#4BFFF6"/>
<path d="M46.2217 39.6779L44.0771 31.0996L46.5621 29.6796L46.9531 34.7626L46.2948 39.5026L46.2217 39.6779Z" fill="#4BFFF6"/>
<path d="M60 39.0444L54.963 36.5259L54.0301 29.0626L57.6751 26.0251L60 32.2321V39.0444Z" fill="#4BFFF6"/>
<path d="M48.077 7.17521L42.015 9.80209L37.9475 7.76833L44.3353 5.4455L48.077 7.17521Z" fill="#4BFFF6"/>
</svg>
