<svg width="138" height="41" viewBox="0 0 138 41" fill="none" xmlns="http://www.w3.org/2000/svg">
<path d="M26.5146 12.095C27.3246 12.725 25.3896 13.175 25.5696 13.85C25.6146 14.3 24.5796 14.705 24.8046 15.335C24.8946 15.695 24.4446 15.695 24.5346 16.055C24.5796 16.235 24.5346 16.325 24.2196 16.685C23.7246 17.135 23.7696 17.495 23.3196 17.765C23.0046 18.035 22.9596 18.395 22.5096 18.665C22.5546 19.07 20.0796 18.935 19.8996 18.935C17.8746 18.935 17.5596 18.935 17.5596 19.07C17.5596 19.16 17.9646 19.16 20.6196 19.16C24.1296 19.07 24.4896 19.43 21.5196 19.385C21.1146 20.195 20.0796 20.825 19.3146 21.725C18.8646 22.265 18.0996 22.4 17.9196 22.895C17.9196 23.03 17.7846 23.165 17.6046 23.165C14.6346 25.955 12.0246 28.43 9.05455 31.175C8.33455 31.22 4.19455 31.085 4.64455 31.355C4.55455 31.715 11.2146 31.445 10.8546 31.805C10.6746 32.165 7.47955 31.715 7.52455 32.435C7.25455 32.885 6.12955 33.92 5.72455 34.145C5.40955 34.235 5.54455 34.955 5.04955 35C3.96955 35.585 3.20455 37.025 2.34955 37.79C1.94455 38.15 1.44955 38.69 1.04455 38.69C0.819551 38.69 0.639551 38.555 0.50455 38.285C0.414551 37.385 1.80955 36.215 1.62955 35.27C1.53955 34.82 1.80955 34.325 1.26955 33.92C0.999551 33.605 1.49455 32.93 1.31455 32.435C1.13455 31.85 1.40455 32.21 1.49455 31.94C1.85455 31.355 1.89955 31.49 1.98955 30.725C2.07955 30.815 2.12455 30.77 2.21455 30.455C2.39455 30.005 1.71955 30.365 2.03455 30.05C2.34955 29.78 2.39455 29.69 2.39455 29.51C2.39455 29.24 2.61955 29.33 2.52955 29.015C2.52955 28.7 2.57455 28.61 2.70955 28.745C2.84455 28.655 2.84455 27.935 2.93455 27.62C3.20455 27.08 2.30455 27.485 2.61955 27.125C2.75455 27.035 2.48455 27.35 2.66455 27.17C2.61955 27.08 3.33955 27.08 4.05955 27.08C4.77955 27.08 5.49955 27.08 5.36455 26.99C5.36455 26.9 5.18455 26.855 4.32955 26.855C3.33955 26.855 3.24955 26.855 3.42955 26.585C3.51955 26.405 3.20455 26.045 3.56455 26.09C3.74455 26.18 3.33955 25.595 3.69955 25.595C3.87955 25.46 3.60955 25.37 3.24955 25.37C2.88955 25.37 2.84455 25.37 2.88955 25.28C2.93455 25.145 3.33955 25.145 7.16455 25.19C10.5396 25.19 11.4396 25.19 11.4396 25.1C11.7996 24.965 5.09455 25.01 3.96955 25.01C3.92455 24.515 4.10455 24.38 4.19455 23.93C4.19455 23.3 4.37455 23.795 4.46455 23.12C4.55455 23.03 4.50955 22.67 4.64455 22.58C4.77955 22.625 4.77955 21.86 5.00455 21.68C5.13955 21.545 4.77955 21.68 5.04955 21.32C5.27455 20.78 5.31955 20.51 5.58955 19.97C5.72455 19.61 5.76955 19.25 5.85955 18.935C5.94955 18.935 6.08455 18.53 6.03955 18.485C5.99455 18.395 6.17455 18.44 6.17455 18.305C6.12955 18.17 6.39955 17.9 6.21955 17.99C6.35455 17.9 6.26455 17.54 6.39955 17.54C6.57955 17.54 6.48955 17.27 6.57955 17.045C6.57955 16.91 6.62455 16.82 6.66955 16.82C6.84955 16.775 6.75955 16.415 6.80455 16.235C6.80455 16.19 6.84955 16.145 6.89455 16.145C7.02955 16.19 6.93955 15.695 7.07455 15.65C7.16455 15.56 7.16455 15.515 7.11955 15.515C6.98455 15.47 7.29955 15.155 7.29955 14.975C7.61455 14.345 7.02955 14.48 6.62455 14.48C6.44455 14.48 6.30955 14.48 6.26455 14.39C6.39955 14.3 6.75955 14.255 7.16455 14.255C8.01955 14.255 9.14455 14.39 9.95455 14.39C10.3596 14.39 10.6746 14.345 10.8096 14.255C10.9446 13.985 9.63955 14.165 8.64955 14.165C7.88455 14.165 7.29955 14.075 7.83955 13.58C7.92955 13.4 7.97455 13.22 7.97455 13.22C7.92955 13.13 8.19955 13.265 8.19955 13.085C8.24455 12.905 8.10955 12.995 8.10955 12.815C8.10955 12.68 8.28955 12.77 8.19955 12.59C8.19955 12.545 8.19955 12.5 8.24455 12.545C8.55955 12.545 8.33455 11.69 8.60455 11.33C8.82955 10.655 9.05455 9.845 9.36955 9.215C9.54955 8.945 9.41455 8.405 9.72955 8.18C9.86455 8.135 9.86455 8.09 9.72955 7.82C9.54955 7.505 9.50455 7.01 9.68455 7.01C9.72955 7.01 9.68455 6.965 9.63955 6.92C9.50455 6.92 9.45955 6.605 9.54955 6.695C9.59455 6.785 9.59455 6.785 9.68455 6.695C9.81955 6.56 9.63955 6.38 9.90955 6.605C10.1346 6.92 9.99955 6.425 9.81955 6.335C9.27955 6.02 10.1796 5.075 9.36955 5.075H9.32455C8.46955 5.165 9.09955 4.085 8.55955 3.95C7.61455 3.68 7.79455 3.095 8.33455 3.095C8.46955 3.095 8.60455 3.095 8.78455 3.185C9.68455 3.455 11.1696 4.265 12.1146 4.4C13.6896 4.625 15.4446 6.02 16.9746 6.695C19.4496 7.865 25.4796 9.53 26.5146 12.095ZM18.9996 14.615L20.0796 13.49C18.1896 12.545 15.8046 11.69 13.9146 10.79C13.7796 10.79 13.5546 11.24 13.5546 11.6C13.3746 12.23 13.0146 12.995 12.7446 13.625C12.6096 14.21 12.3396 15.38 12.0696 15.74C11.9346 15.605 11.9346 16.73 11.7996 16.415C11.6646 16.19 11.8896 16.91 11.7096 16.775C11.6646 16.73 11.6196 16.865 11.6196 17.045C11.4846 17.135 11.5296 17.27 11.4396 17.405C11.0346 18.305 10.9446 19.16 10.5846 19.745C10.8546 19.88 10.4046 19.88 10.4046 20.375C10.0896 21.59 9.54955 22.4 9.27955 23.615C12.5646 20.42 15.5796 17.81 18.9996 14.615ZM11.5746 6.245C11.5296 6.38 11.7996 6.245 11.7546 6.2C11.7546 6.065 11.6196 6.11 11.5746 6.245ZM11.9796 5.525C11.7096 5.525 12.1596 5.705 12.0696 5.93C12.0246 6.245 12.3846 6.29 12.2496 6.065C12.0246 5.885 12.6996 6.29 12.7896 6.29C13.1046 6.335 13.1946 6.965 13.5096 6.605C13.5546 6.515 13.5546 6.47 13.4646 6.425C13.1946 6.335 13.9596 6.155 13.1496 6.065C12.6546 5.975 12.3396 5.705 11.9796 5.525ZM15.1746 7.055C14.9946 7.055 14.9496 7.055 14.9496 7.19C14.9946 7.505 15.7596 7.055 15.1746 7.055ZM15.5796 7.685C15.3096 7.775 16.0746 8.135 16.1196 7.865C16.1646 7.775 15.8496 7.64 15.8496 7.775C15.8496 7.91 15.6696 7.64 15.5796 7.685ZM15.9396 7.46C15.4896 7.325 16.2096 7.865 16.1196 7.505C16.1196 7.415 16.0746 7.37 16.0746 7.325C15.9846 7.28 16.2096 7.55 15.9396 7.46ZM16.6146 7.73C16.3896 7.595 16.0746 7.775 16.2996 7.91C16.4796 8.045 16.2996 8.315 16.7046 8.315C17.1096 8.36 18.5046 9.17 18.7296 8.9C18.9096 8.9 18.2796 8.18 18.0996 8.18C18.0996 8.18 18.0546 8.18 18.0546 8.225C18.0096 8.36 17.8296 8.315 17.9196 8.18C17.9646 8.09 17.6496 8.18 17.6496 8.045C17.6046 7.865 17.8296 8.135 17.7396 8C17.6496 7.865 17.1096 8 16.9746 7.775C16.7496 7.55 16.7946 7.865 16.6146 7.73ZM20.4396 9.755C20.7096 9.8 20.9346 10.205 21.2496 9.98C21.2496 9.935 20.7546 9.89 20.7546 9.845C20.7096 9.71 21.0696 9.755 21.0696 9.665C21.0696 9.53 20.6646 9.71 20.6646 9.485C20.6196 8.99 19.7646 8.99 19.4046 8.855C19.3146 8.9 19.4496 8.63 19.3596 8.675C19.2696 8.72 18.6846 8.36 18.8646 8.72C18.9096 8.9 18.9546 9.35 19.2696 9.26C19.2246 9.17 18.8646 9.17 19.0896 8.99C19.2246 8.72 19.2696 9.035 19.4046 8.99C19.7196 8.855 19.8996 9.575 19.6296 9.305C19.6296 9.26 19.5396 9.215 19.4496 9.26C19.1796 9.26 19.5846 9.485 19.4946 9.575C19.5846 9.53 20.2596 9.755 20.4396 9.755ZM21.4746 10.115C21.6096 10.025 21.4296 9.845 21.4296 9.935C21.4746 9.98 21.4296 10.07 21.3846 10.07C21.1596 10.16 21.3396 10.43 21.4746 10.115ZM21.9696 10.565C21.4296 10.43 21.8346 10.79 22.0596 10.565C22.1046 10.295 21.2046 10.205 21.9696 10.565ZM24.8496 11.87C24.7146 11.51 25.3446 11.555 24.4896 11.465C24.3546 11.465 24.3546 11.285 24.5346 11.33C24.6246 11.375 24.6246 11.375 24.5346 11.285C24.3996 11.24 24.6246 10.97 24.5346 10.925C24.3996 10.97 24.4446 11.285 24.2196 11.06C23.9046 10.7 24.4896 11.465 24.0396 11.15C23.9946 11.06 23.9046 11.015 23.8596 11.06C23.8596 11.06 23.8146 11.015 23.8146 10.97C23.8146 10.79 24.1296 11.06 23.9046 10.79C23.6796 10.61 23.9946 10.52 23.8596 10.385C23.7246 10.295 23.6346 10.43 23.6796 10.565C23.8146 10.835 23.1846 10.43 23.2746 10.7C23.4546 11.06 24.3546 11.555 24.6246 11.87C24.5346 12.095 24.1746 11.78 24.0396 11.735C23.9046 11.735 24.0396 11.465 23.7246 11.465C23.6346 11.465 22.9596 10.7 23.3196 11.24C23.5896 11.69 24.1296 12.185 24.2646 12.635C24.3996 12.68 24.6696 12.365 24.4446 12.365C24.3996 12.41 24.3996 12.365 24.4896 12.275C24.6696 11.96 24.6246 12.23 24.7596 12.23C24.8046 12.23 24.8496 12.23 24.8496 12.275C24.8946 12.365 24.9846 11.87 24.8496 11.87ZM48.8904 7.955V8C49.7455 8.72 47.2254 8.72 47.4055 9.26C47.2254 9.665 47.0004 9.62 46.8204 9.62C46.5954 9.62 46.3704 9.665 46.2804 10.655C45.9204 10.835 47.3604 10.925 46.6854 11.24C46.1004 11.375 47.2254 11.96 46.5504 12.05C43.7154 12.23 40.3404 12.23 38.0004 12.365C35.3904 12.5 35.9754 12.275 35.3904 13.715C35.3904 13.76 35.2554 14.12 35.1654 14.255H33.5004C27.1104 14.39 41.4204 14.435 35.1654 14.525C34.8954 14.84 34.8954 15.425 34.6704 15.605C34.6254 15.56 34.6254 15.605 34.6704 15.65C34.7154 15.875 34.4004 15.92 34.4454 16.28C34.4454 17 33.9954 17.135 33.9954 17.495C33.7254 18.755 33.3654 18.98 33.7704 18.98C34.0404 18.98 34.6704 18.845 36.0204 18.89C37.5504 18.755 39.2604 18.8 40.4754 18.89C41.0604 18.98 43.0404 18.665 43.0854 19.25C43.0854 19.385 42.9954 19.475 42.7704 19.61C42.1404 19.925 42.5004 20.69 41.7354 20.735C41.1954 20.825 41.1054 20.915 41.1504 21.32C41.2854 22.58 38.8104 21.41 39.9354 23.075C40.3854 23.39 39.7104 23.435 40.0254 23.795C40.2504 24.74 38.8554 24.155 37.4154 24.38C34.2204 24.425 32.3304 24.47 31.9704 24.515C31.2054 24.515 31.5654 26.09 30.9354 26.675H29.0004V27.125C29.6304 27.08 30.8904 27.08 31.5204 27.035C31.5204 27.26 31.6104 27.44 31.2504 27.44C31.2054 27.44 31.2054 27.395 31.1604 27.395C30.8904 27.395 30.4854 28.835 30.3954 28.925C31.7454 28.925 36.8754 28.88 38.2704 28.745C38.5404 28.745 39.8904 28.565 41.1054 28.565C42.8154 28.565 44.3004 28.88 42.6354 30.14C41.6004 31.175 41.2854 30.545 40.8354 31.94C40.7004 32.3 39.2154 31.85 39.6204 32.48C39.7104 32.795 40.0704 33.11 40.1604 33.47C39.7554 33.56 40.1604 33.875 40.1604 34.19C38.9904 34.775 35.9754 34.55 34.1304 34.775C31.7904 34.955 30.3054 34.505 27.9654 34.955C27.4704 35.9 27.6504 37.16 26.8404 37.925C26.5254 38.15 26.6604 39.185 26.2554 39.185C26.1654 39.185 26.0304 39.095 25.8054 38.915C25.5354 38.42 25.9404 36.755 25.4904 36.755C24.9504 36.71 25.4004 35.81 25.0404 35.81C24.5004 35.675 24.7704 35.225 24.1854 34.91C23.8704 34.73 23.2854 33.92 23.6004 33.92C23.7354 33.83 23.9604 33.92 23.8254 33.785C23.9604 33.11 21.4404 33.56 21.1254 33.38C21.1254 33.29 24.3654 33.2 28.5954 33.2C32.1954 33.2 32.4204 33.2 32.3754 33.065C33.1854 32.84 24.5004 32.975 23.1054 32.93C23.2404 31.85 23.1954 31.355 24.2754 31.22C24.4104 31.355 24.4554 31.04 24.5004 31.265C24.5454 31.535 24.7704 30.635 24.8154 30.455C24.4554 30.5 24.2304 30.455 24.0054 30.275C23.2854 29.915 25.3104 29.87 25.1304 29.375C25.2654 28.565 25.4904 27.71 25.7604 27.08C25.6704 26.945 26.0304 26.675 25.9854 26.63C25.8504 26.63 26.0304 26 26.2104 25.82C26.5254 25.55 26.1654 25.55 26.3454 25.325C26.8404 24.92 24.5904 25.1 24.2304 25.055C25.5804 24.875 29.0904 25.055 30.1704 24.92C30.3054 24.785 27.0654 24.83 26.4804 24.83C26.5704 24.56 26.6154 24.2 26.7054 24.02C26.8404 23.84 27.2454 23.03 26.7954 22.76C26.4354 22.31 26.4354 21.455 26.4354 20.87C28.0554 20.915 27.6954 21.005 28.2804 19.745C28.5054 19.745 28.1004 19.565 27.7854 19.655C27.1554 19.565 27.0654 18.98 28.0104 19.025C28.6854 19.07 28.3254 18.71 28.6854 18.485C28.9104 18.35 28.7304 18.17 28.9104 18.035C29.0454 17.945 28.9554 17.72 29.0454 17.63C29.1804 17.54 29.1804 17.045 29.3154 17C29.4504 17 29.2704 16.595 29.4054 16.685C29.5404 16.73 29.5854 16.145 29.6754 16.19C29.7204 16.01 29.7654 16.01 29.8104 15.56C29.7654 14.975 29.9904 15.11 30.0804 14.66C30.1254 14.165 30.3054 14.12 30.3954 14.03C30.4404 13.265 30.8004 12.725 31.0704 12.14C31.4754 11.915 30.7104 11.915 30.8454 11.375C30.9354 10.88 29.9004 11.015 29.9454 10.34C29.9904 9.845 29.1804 10.115 29.0454 9.755C28.9554 9.575 28.9104 9.575 28.3704 9.575C27.8754 9.575 27.8304 9.575 27.8754 9.485C27.6054 9.305 31.3404 9.35 34.0854 9.35C35.6604 9.35 36.8754 9.35 36.6954 9.26C36.6954 9.17 36.2904 9.125 33.2304 9.125C30.3954 9.125 28.8204 9.08 30.8454 8.945C30.9804 8.945 31.1604 8.945 31.1154 8.855C31.0704 8.81 31.2054 8.495 31.2054 8.675C31.1604 8.81 32.1054 9.125 31.8354 8.945C31.6554 8.855 32.1054 8.54 32.0154 8.405C32.0154 8.315 32.1054 8.225 32.1954 8.18C32.6904 7.91 31.7454 7.775 31.6104 7.82C31.0254 7.595 30.7104 7.01 31.9704 7.145C33.0054 7.145 32.8254 7.19 33.0504 6.65C33.2304 6.515 33.0954 5.795 33.4104 5.93C33.8604 5.705 33.7704 4.715 34.0854 4.31C34.6704 3.77 34.8504 0.889999 36.1554 0.799998C36.1554 1.295 36.1104 2.6 36.4254 2.645C36.8754 2.87 36.2904 3.815 36.4704 4.175C36.5604 4.355 37.1904 4.85 37.3254 4.67H37.3704C38.5854 4.67 38.3154 6.29 38.0904 6.965C39.1704 7.1 41.4654 6.74 43.2654 6.74C44.2104 6.74 44.9754 6.875 45.3354 7.19C45.6054 8.045 46.1454 8 46.8204 7.865C47.6304 7.73 47.3604 8.135 48.2154 7.955C48.6204 7.865 48.7105 7.865 48.8904 7.955ZM29.8554 30.32C29.3604 30.365 29.9454 30.5 30.1704 30.365C30.1704 30.32 32.2854 30.365 32.1954 30.23C32.2404 30.14 32.2854 30.14 32.3304 30.23C32.5104 30.365 33.0954 29.96 33.1854 30.23C33.3204 30.455 33.7704 30.185 33.5004 30.185C33.4104 30.23 33.3654 30.185 33.3654 30.14C33.3654 30.095 33.4554 30.095 33.6804 30.14C34.0404 30.23 34.1304 29.96 34.4454 30.14C34.6704 30.275 34.8504 30.275 34.7154 30.185C34.5804 30.05 35.6154 30.05 35.7054 30.14C35.9304 30.095 36.4254 30.05 36.8754 30.05C37.1454 30.05 37.4154 30.05 37.5954 30.14C38.1354 30.41 38.0004 29.96 38.4504 30.05C39.0354 30.05 38.6304 30.32 38.9454 30.23C39.0354 30.14 40.0254 30.185 40.0254 30.005C38.1804 29.51 33.8604 29.6 32.1054 29.69C31.8804 29.78 31.7904 29.465 31.6104 29.735C31.3854 29.87 31.1604 29.915 30.8904 29.915C30.6654 29.915 30.4404 29.87 30.2154 29.735C30.1704 29.915 30.0804 30.365 29.8554 30.32ZM32.7804 20.195C32.7354 20.285 32.8254 20.285 33.0054 20.285C33.4104 20.285 34.2654 20.15 34.9854 20.195C37.3704 20.105 38.2704 20.33 40.4304 20.24C40.8354 20.465 40.7454 19.97 41.0154 19.88C41.6454 19.295 39.5304 20.105 39.0804 19.79C37.9554 19.565 37.2804 19.745 36.2454 19.61C35.8854 19.475 35.7504 19.79 35.3454 19.79C35.2104 19.79 35.0754 19.745 34.8504 19.655C34.6704 19.565 33.5904 19.835 33.3204 19.88C33.0054 19.925 32.9604 19.835 32.7804 20.195ZM38.4954 22.895C38.5854 22.895 38.1804 22.805 38.0454 22.805C37.6404 22.895 38.3604 22.985 38.4954 22.895ZM38.7204 22.985C38.9004 22.985 38.9004 22.85 38.7204 22.85C38.4954 22.85 38.4954 22.985 38.7204 22.985ZM39.5754 22.895C39.6204 22.805 39.2604 22.805 39.3504 22.895C39.3954 23.03 39.4854 23.03 39.5754 22.895ZM44.1654 7.955C44.1654 7.82 45.3804 7.955 45.4254 7.865C45.2004 7.235 43.1754 7.82 42.5904 7.55C42.2304 7.55 41.8704 7.685 41.5554 7.685C41.4654 7.595 40.0254 7.55 39.9804 7.73C39.8004 7.91 39.8454 7.73 39.6654 7.775C39.4854 7.865 39.4404 7.505 39.3054 7.73C38.8104 7.955 37.3704 7.55 37.1004 8.135C37.0554 8.54 38.3154 7.865 38.7204 8.18C38.8104 8.225 38.8554 8.225 38.8554 8.135C38.9004 8 38.9004 8.36 39.0354 8.135C39.2154 7.865 40.7004 8.18 41.2854 8C41.4204 7.865 41.5554 7.82 41.6454 7.955C41.7354 8.09 42.4104 8.09 42.5454 7.955C42.5904 7.865 42.6354 7.865 42.7254 7.955C42.8154 8.045 42.9054 8.045 42.9504 8.045C43.2204 8.045 43.4004 7.73 43.8504 7.955C44.0754 8.045 44.1204 8.045 44.1654 7.955ZM73.8197 6.92C74.3597 7.505 72.7397 7.46 73.0547 7.82C73.8197 8.09 72.4697 9.035 72.0647 9.035C71.8847 8.99 71.8397 8.99 71.8397 9.125C71.8397 9.44 71.2097 9.395 71.0297 9.62C71.0747 9.71 70.4447 10.34 70.7147 10.295C70.8497 10.295 70.9397 10.34 70.9397 10.43C70.8947 10.61 70.6247 10.565 71.0747 10.7C71.6597 10.745 70.8047 11.375 71.1197 11.42C71.7497 12.14 70.9847 12.05 66.6647 12.14C63.6947 12.23 61.3997 12.05 58.8797 12.275C58.5197 13.22 57.8897 14.84 57.7547 15.92C57.8447 16.37 57.3497 17.36 57.2597 17.675C57.7097 17.72 60.1847 17.54 60.6797 17.45C62.1647 17.27 65.5397 17.45 66.7997 17.36C68.3747 17.135 67.7447 18.035 67.0247 18.575C66.4397 19.115 65.8097 19.025 65.1797 19.475C64.0547 19.79 65.2247 20.555 62.8397 21.185C62.6147 21.365 61.8947 21.32 62.2547 21.545C62.2997 21.59 62.3447 21.635 62.3447 21.68C62.2547 22.13 62.7947 22.04 62.7047 22.49C62.6147 22.535 62.0747 22.715 62.4347 22.76C62.5247 22.76 62.5697 22.805 62.5697 22.895C61.6697 23.21 58.3397 22.985 57.5297 23.03C56.8997 23.03 55.7297 23.165 55.1447 23.21C54.6047 24.2 54.2447 25.37 54.0647 26.495C54.0197 26.855 52.2647 26.675 51.3197 26.675C50.9597 26.675 50.6897 26.72 50.7347 26.81C50.0147 27.035 58.3847 26.81 54.6047 27.125C53.7497 27.215 53.7497 26.855 53.5247 27.8C53.4797 27.845 53.1647 29.015 53.0297 28.925C52.9847 28.925 52.9397 28.925 52.9847 29.06C53.0747 29.42 52.6247 29.555 52.6697 29.915C52.6697 30.275 52.5347 30.86 52.4447 30.86C52.2197 31.4 51.6797 32.57 51.5897 32.975C51.6797 33.335 51.2747 32.93 51.3647 33.245C51.3647 33.335 51.3647 33.425 51.3197 33.425C50.8247 34.01 50.5997 35.9 49.6997 36.125C49.0247 36.215 48.9347 35.855 48.7997 35.855C48.7097 35.855 48.6197 36.08 48.2147 36.755C48.3497 37.025 47.2697 37.25 47.3147 37.7C47.3147 38.15 46.6397 38.15 46.5947 38.645C46.5047 39.365 45.7397 39.545 45.3347 40.04C45.1547 40.175 44.9747 40.22 44.8847 40.22C44.3897 40.22 45.4697 38.33 45.3797 37.88C45.4247 37.385 45.4697 37.25 45.6947 36.89C46.0997 36.125 46.0097 35.135 46.3697 34.37C46.4147 33.425 46.8197 32.795 47.1347 32.03C47.1347 31.805 47.0447 31.175 47.3597 31.04C47.4947 31.085 47.4047 30.23 47.6297 30.41C47.9447 29.555 48.3047 28.25 48.6647 27.215C48.6647 27.125 48.6647 27.125 48.7097 27.26C48.7997 27.35 48.7997 27.35 48.7997 27.17C48.7547 26.9 48.8447 26.63 48.9347 26.63C49.0247 26.45 48.9347 26.225 49.1147 25.82C50.1947 22.985 50.3297 23.255 49.7447 23.255C49.4297 23.255 48.8897 23.165 48.1247 22.445C48.2597 22.445 48.5747 22.625 48.4847 22.4C48.4847 22.175 48.1247 22.22 48.3947 22.085C48.4847 22.13 48.6647 21.905 48.6647 21.77C48.6647 21.59 49.1597 21.77 49.1597 21.5C48.1697 21.41 47.8547 21.455 48.1697 20.24C48.2147 19.88 48.8447 20.195 48.7997 19.79C48.7997 19.7 48.8447 19.655 48.9797 19.655C49.2047 19.52 49.3397 19.475 49.4297 19.475C49.5647 19.475 49.5197 19.61 49.5647 19.61C49.6097 19.61 49.6547 19.61 49.6997 19.52C50.0597 19.205 49.8797 19.52 50.0147 19.565C50.1047 19.52 50.2397 19.25 50.3747 19.475C50.4197 19.52 50.5547 19.25 50.7797 19.34C51.0047 19.43 51.1847 19.115 51.1847 19.295C50.9147 19.835 51.4547 19.205 51.4997 18.935C50.5997 19.07 50.9597 18.755 50.4647 18.665C47.8997 18.17 50.8697 17.945 51.9047 17.855C51.9047 17.45 52.2647 17.18 52.2197 16.73C52.2647 16.595 52.6697 16.055 52.6247 15.83C52.6247 15.515 52.8947 15.11 52.9847 14.795C52.9847 14.255 53.4797 13.58 53.5247 12.995C49.2947 12.905 55.6847 12.86 57.1247 12.86H55.4597C53.9297 12.815 53.6597 12.77 53.6597 12.68C53.6597 12.5 53.8847 12.68 53.7497 12.455C53.6147 12.005 54.1997 12.275 53.3897 11.735C53.2547 11.6 53.2997 11.42 53.4797 11.555C53.6597 11.51 53.5247 11.285 53.2547 11.33C52.9397 11.06 53.3447 11.105 53.6147 11.06C54.0197 10.97 53.0747 10.655 53.9747 10.655C54.8747 10.565 53.1197 10.565 52.8947 10.43C52.4447 10.25 52.8497 9.845 52.7597 9.44C52.7147 8.72 52.8947 9.35 53.0747 9.08C53.0747 8.945 53.0297 8.855 52.8497 8.675C52.1297 8 53.0747 8.135 53.5247 8.225C53.2997 8.18 53.1197 8.09 52.9397 7.91C52.4897 7.55 52.4447 8.045 51.7247 7.73C50.5097 7.46 50.7797 6.92 51.4097 6.92C51.5447 6.92 51.7247 6.965 51.8597 7.01C52.0847 7.1 52.2197 7.1 52.3547 7.1C52.6697 7.1 52.6697 6.83 53.5697 6.92C54.2897 6.92 54.6497 6.92 55.1447 6.875C55.4597 5.795 55.9097 4.985 56.2697 3.995C56.4947 3.635 56.4047 2.87 56.8547 2.87C57.1247 2.87 57.2597 3.095 57.2597 3.68C57.1697 4.895 58.1597 4.4 58.0697 5.57C59.1947 5.21 58.6547 6.38 59.2847 6.38C59.5097 6.38 59.7797 6.56 59.8247 6.74C60.6347 6.83 61.5797 6.83 62.6597 6.83C64.9097 6.83 67.6097 6.74 69.9947 6.74C71.4347 6.74 72.7847 6.785 73.8197 6.92ZM51.8597 23.525C51.9947 23.255 51.9947 23.21 51.9047 23.21C51.8147 23.21 51.4997 24.155 51.8597 23.525ZM54.0647 11.06C54.2447 11.06 54.2447 10.925 54.0647 10.925C53.8847 10.925 53.8847 11.06 54.0647 11.06ZM57.4397 18.35C56.4047 18.62 56.1797 19.115 58.4297 18.845C61.1747 18.89 60.7247 17.99 59.2847 18.305C59.1947 18.44 58.6547 18.44 58.6547 18.305C58.6547 18.215 58.6097 18.215 58.6097 18.305C58.3397 18.62 57.7097 18.08 57.7547 18.395C57.7547 18.575 57.6647 18.215 57.4397 18.35ZM57.3047 5.12C57.2147 5.03 57.2147 5.39 57.3047 5.345C57.4397 5.345 57.3947 5.12 57.3047 5.12ZM58.6547 7.865C58.8797 7.73 58.5197 7.685 58.0697 7.685C57.4847 7.685 56.6747 7.775 56.9447 7.82C57.0797 7.955 57.6647 8 57.7097 7.91C57.9347 7.91 58.4297 8.225 58.6547 7.865ZM64.4147 7.865C65.6297 7.82 65.2247 7.55 64.3247 7.64C63.7397 7.775 62.2997 7.595 61.2647 7.595C60.6797 7.595 60.1847 7.64 60.0497 7.865C60.0497 8.045 60.6797 8.09 60.6797 7.955C60.6347 7.865 60.8147 7.82 60.9947 7.91C61.1747 8 64.2797 8.045 64.2797 7.955C64.2797 7.91 64.3247 7.865 64.4147 7.865ZM69.1847 7.955C69.5897 7.775 68.8247 7.37 68.5547 7.55C68.3297 7.64 67.7897 7.505 67.5647 7.64C67.3847 7.82 67.2947 7.415 67.2047 7.55C66.8897 7.64 65.4497 7.595 65.3147 7.775C65.4047 7.82 65.6747 7.865 65.7647 7.91C65.8997 8 65.7197 7.775 65.8547 7.82C65.9897 7.775 66.0347 7.955 66.1247 7.955C66.1247 7.82 66.8897 7.82 67.1147 7.955C67.2497 8 67.2947 8 67.3397 7.91C67.4747 7.73 67.6547 8.09 67.9247 7.91C68.0597 7.82 68.1497 7.82 68.1947 7.91C68.3297 8.09 69.0047 7.91 69.1847 7.955ZM70.3097 7.955C70.7147 7.91 69.4547 7.505 69.4547 7.73C69.6347 7.82 70.1297 7.865 70.3097 7.955ZM70.2647 10.7C70.3547 10.7 70.3997 10.655 70.3997 10.61C70.3097 10.52 69.9497 10.7 70.2647 10.7ZM94.2385 7.955V8C95.0935 8.72 92.5735 8.72 92.7535 9.26C92.5735 9.665 92.3485 9.62 92.1685 9.62C91.9435 9.62 91.7185 9.665 91.6285 10.655C91.2685 10.835 92.7085 10.925 92.0335 11.24C91.4485 11.375 92.5735 11.96 91.8985 12.05C89.0635 12.23 85.6885 12.23 83.3485 12.365C80.7385 12.5 81.3235 12.275 80.7385 13.715C80.7385 13.76 80.6035 14.12 80.5135 14.255H78.8485C72.4585 14.39 86.7685 14.435 80.5135 14.525C80.2435 14.84 80.2435 15.425 80.0185 15.605C79.9735 15.56 79.9735 15.605 80.0185 15.65C80.0635 15.875 79.7485 15.92 79.7935 16.28C79.7935 17 79.3435 17.135 79.3435 17.495C79.0735 18.755 78.7135 18.98 79.1185 18.98C79.3885 18.98 80.0185 18.845 81.3685 18.89C82.8985 18.755 84.6085 18.8 85.8235 18.89C86.4085 18.98 88.3885 18.665 88.4335 19.25C88.4335 19.385 88.3435 19.475 88.1185 19.61C87.4885 19.925 87.8485 20.69 87.0835 20.735C86.5435 20.825 86.4535 20.915 86.4985 21.32C86.6335 22.58 84.1585 21.41 85.2835 23.075C85.7335 23.39 85.0585 23.435 85.3735 23.795C85.5985 24.74 84.2035 24.155 82.7635 24.38C79.5685 24.425 77.6785 24.47 77.3185 24.515C76.5535 24.515 76.9135 26.09 76.2835 26.675H74.3485V27.125C74.9785 27.08 76.2385 27.08 76.8685 27.035C76.8685 27.26 76.9585 27.44 76.5985 27.44C76.5535 27.44 76.5535 27.395 76.5085 27.395C76.2385 27.395 75.8335 28.835 75.7435 28.925C77.0935 28.925 82.2235 28.88 83.6185 28.745C83.8885 28.745 85.2385 28.565 86.4535 28.565C88.1635 28.565 89.6485 28.88 87.9835 30.14C86.9485 31.175 86.6335 30.545 86.1835 31.94C86.0485 32.3 84.5635 31.85 84.9685 32.48C85.0585 32.795 85.4185 33.11 85.5085 33.47C85.1035 33.56 85.5085 33.875 85.5085 34.19C84.3385 34.775 81.3235 34.55 79.4785 34.775C77.1385 34.955 75.6535 34.505 73.3135 34.955C72.8185 35.9 72.9985 37.16 72.1885 37.925C71.8735 38.15 72.0085 39.185 71.6035 39.185C71.5135 39.185 71.3785 39.095 71.1535 38.915C70.8835 38.42 71.2885 36.755 70.8385 36.755C70.2985 36.71 70.7485 35.81 70.3885 35.81C69.8485 35.675 70.1185 35.225 69.5335 34.91C69.2185 34.73 68.6335 33.92 68.9485 33.92C69.0835 33.83 69.3085 33.92 69.1735 33.785C69.3085 33.11 66.7885 33.56 66.4735 33.38C66.4735 33.29 69.7135 33.2 73.9435 33.2C77.5435 33.2 77.7685 33.2 77.7235 33.065C78.5335 32.84 69.8485 32.975 68.4535 32.93C68.5885 31.85 68.5435 31.355 69.6235 31.22C69.7585 31.355 69.8035 31.04 69.8485 31.265C69.8935 31.535 70.1185 30.635 70.1635 30.455C69.8035 30.5 69.5785 30.455 69.3535 30.275C68.6335 29.915 70.6585 29.87 70.4785 29.375C70.6135 28.565 70.8385 27.71 71.1085 27.08C71.0185 26.945 71.3785 26.675 71.3335 26.63C71.1985 26.63 71.3785 26 71.5585 25.82C71.8735 25.55 71.5135 25.55 71.6935 25.325C72.1885 24.92 69.9385 25.1 69.5785 25.055C70.9285 24.875 74.4385 25.055 75.5185 24.92C75.6535 24.785 72.4135 24.83 71.8285 24.83C71.9185 24.56 71.9635 24.2 72.0535 24.02C72.1885 23.84 72.5935 23.03 72.1435 22.76C71.7835 22.31 71.7835 21.455 71.7835 20.87C73.4035 20.915 73.0435 21.005 73.6285 19.745C73.8535 19.745 73.4485 19.565 73.1335 19.655C72.5035 19.565 72.4135 18.98 73.3585 19.025C74.0335 19.07 73.6735 18.71 74.0335 18.485C74.2585 18.35 74.0785 18.17 74.2585 18.035C74.3935 17.945 74.3035 17.72 74.3935 17.63C74.5285 17.54 74.5285 17.045 74.6635 17C74.7985 17 74.6185 16.595 74.7535 16.685C74.8885 16.73 74.9335 16.145 75.0235 16.19C75.0685 16.01 75.1135 16.01 75.1585 15.56C75.1135 14.975 75.3385 15.11 75.4285 14.66C75.4735 14.165 75.6535 14.12 75.7435 14.03C75.7885 13.265 76.1485 12.725 76.4185 12.14C76.8235 11.915 76.0585 11.915 76.1935 11.375C76.2835 10.88 75.2485 11.015 75.2935 10.34C75.3385 9.845 74.5285 10.115 74.3935 9.755C74.3035 9.575 74.2585 9.575 73.7185 9.575C73.2235 9.575 73.1785 9.575 73.2235 9.485C72.9535 9.305 76.6885 9.35 79.4335 9.35C81.0085 9.35 82.2235 9.35 82.0435 9.26C82.0435 9.17 81.6385 9.125 78.5785 9.125C75.7435 9.125 74.1685 9.08 76.1935 8.945C76.3285 8.945 76.5085 8.945 76.4635 8.855C76.4185 8.81 76.5535 8.495 76.5535 8.675C76.5085 8.81 77.4535 9.125 77.1835 8.945C77.0035 8.855 77.4535 8.54 77.3635 8.405C77.3635 8.315 77.4535 8.225 77.5435 8.18C78.0385 7.91 77.0935 7.775 76.9585 7.82C76.3735 7.595 76.0585 7.01 77.3185 7.145C78.3535 7.145 78.1735 7.19 78.3985 6.65C78.5785 6.515 78.4435 5.795 78.7585 5.93C79.2085 5.705 79.1185 4.715 79.4335 4.31C80.0185 3.77 80.1985 0.889999 81.5035 0.799998C81.5035 1.295 81.4585 2.6 81.7735 2.645C82.2235 2.87 81.6385 3.815 81.8185 4.175C81.9085 4.355 82.5385 4.85 82.6735 4.67H82.7185C83.9335 4.67 83.6635 6.29 83.4385 6.965C84.5185 7.1 86.8135 6.74 88.6135 6.74C89.5585 6.74 90.3235 6.875 90.6835 7.19C90.9535 8.045 91.4935 8 92.1685 7.865C92.9785 7.73 92.7085 8.135 93.5635 7.955C93.9685 7.865 94.0585 7.865 94.2385 7.955ZM75.2035 30.32C74.7085 30.365 75.2935 30.5 75.5185 30.365C75.5185 30.32 77.6335 30.365 77.5435 30.23C77.5885 30.14 77.6335 30.14 77.6785 30.23C77.8585 30.365 78.4435 29.96 78.5335 30.23C78.6685 30.455 79.1185 30.185 78.8485 30.185C78.7585 30.23 78.7135 30.185 78.7135 30.14C78.7135 30.095 78.8035 30.095 79.0285 30.14C79.3885 30.23 79.4785 29.96 79.7935 30.14C80.0185 30.275 80.1985 30.275 80.0635 30.185C79.9285 30.05 80.9635 30.05 81.0535 30.14C81.2785 30.095 81.7735 30.05 82.2235 30.05C82.4935 30.05 82.7635 30.05 82.9435 30.14C83.4835 30.41 83.3485 29.96 83.7985 30.05C84.3835 30.05 83.9785 30.32 84.2935 30.23C84.3835 30.14 85.3735 30.185 85.3735 30.005C83.5285 29.51 79.2085 29.6 77.4535 29.69C77.2285 29.78 77.1385 29.465 76.9585 29.735C76.7335 29.87 76.5085 29.915 76.2385 29.915C76.0135 29.915 75.7885 29.87 75.5635 29.735C75.5185 29.915 75.4285 30.365 75.2035 30.32ZM78.1285 20.195C78.0835 20.285 78.1735 20.285 78.3535 20.285C78.7585 20.285 79.6135 20.15 80.3335 20.195C82.7185 20.105 83.6185 20.33 85.7785 20.24C86.1835 20.465 86.0935 19.97 86.3635 19.88C86.9935 19.295 84.8785 20.105 84.4285 19.79C83.3035 19.565 82.6285 19.745 81.5935 19.61C81.2335 19.475 81.0985 19.79 80.6935 19.79C80.5585 19.79 80.4235 19.745 80.1985 19.655C80.0185 19.565 78.9385 19.835 78.6685 19.88C78.3535 19.925 78.3085 19.835 78.1285 20.195ZM83.8435 22.895C83.9335 22.895 83.5285 22.805 83.3935 22.805C82.9885 22.895 83.7085 22.985 83.8435 22.895ZM84.0685 22.985C84.2485 22.985 84.2485 22.85 84.0685 22.85C83.8435 22.85 83.8435 22.985 84.0685 22.985ZM84.9235 22.895C84.9685 22.805 84.6085 22.805 84.6985 22.895C84.7435 23.03 84.8335 23.03 84.9235 22.895ZM89.5135 7.955C89.5135 7.82 90.7285 7.955 90.7735 7.865C90.5485 7.235 88.5235 7.82 87.9385 7.55C87.5785 7.55 87.2185 7.685 86.9035 7.685C86.8135 7.595 85.3735 7.55 85.3285 7.73C85.1485 7.91 85.1935 7.73 85.0135 7.775C84.8335 7.865 84.7885 7.505 84.6535 7.73C84.1585 7.955 82.7185 7.55 82.4485 8.135C82.4035 8.54 83.6635 7.865 84.0685 8.18C84.1585 8.225 84.2035 8.225 84.2035 8.135C84.2485 8 84.2485 8.36 84.3835 8.135C84.5635 7.865 86.0485 8.18 86.6335 8C86.7685 7.865 86.9035 7.82 86.9935 7.955C87.0835 8.09 87.7585 8.09 87.8935 7.955C87.9385 7.865 87.9835 7.865 88.0735 7.955C88.1635 8.045 88.2535 8.045 88.2985 8.045C88.5685 8.045 88.7485 7.73 89.1985 7.955C89.4235 8.045 89.4685 8.045 89.5135 7.955ZM114.353 10.745C117.008 10.745 118.988 10.835 116.828 10.925H115.973C115.703 11.375 115.703 11.915 115.433 12.32C115.163 12.545 115.298 13.085 115.073 13.265C115.163 13.4 114.803 13.76 114.893 13.805C115.028 13.76 114.713 14.345 114.803 14.39C114.848 14.435 114.803 14.435 114.758 14.435C114.578 14.345 114.668 14.795 114.533 14.795C114.443 15.2 114.308 15.83 114.083 16.19C113.993 16.64 113.858 17.27 113.633 17.675C113.588 17.945 113.093 18.485 113.363 18.8C113.318 18.89 113.138 18.71 113.093 18.98C113.093 19.16 112.823 19.655 112.913 19.835C112.913 19.88 112.913 19.88 112.868 19.835C112.688 19.745 112.778 20.42 112.598 20.51C112.418 20.555 112.598 20.915 112.418 20.96C112.283 21.05 112.373 21.275 112.193 21.41C112.103 21.68 112.148 22.085 111.878 22.31C111.833 22.4 111.743 23.12 111.608 23.165C111.338 23.75 111.338 24.785 111.023 25.37C110.753 25.685 110.708 26.045 110.798 26.18C110.753 26.27 110.528 26.09 110.618 26.315C110.663 26.54 110.438 26.405 110.483 26.63C109.673 28.385 110.843 29.24 108.548 29.06C106.523 29.06 106.748 29.465 109.358 29.33C110.708 29.33 112.103 29.375 111.383 29.51C111.563 29.645 109.493 29.555 109.583 29.645C109.628 29.69 109.538 30.455 109.358 30.41C109.268 30.41 109.268 30.41 109.358 30.455C109.403 30.5 109.448 30.545 109.358 30.59C109.223 30.725 109.313 31.4 109.088 31.31C108.728 31.625 107.243 38.195 106.163 38.195C106.073 38.195 106.028 38.195 105.938 38.105C104.903 36.305 105.533 36.755 106.028 35.18C104.768 34.64 105.353 34.19 104.768 33.785C104.273 33.785 104.588 33.02 104.498 32.75C104.363 32.705 104.228 31.895 104.273 31.49C104.408 30.5 104.588 31.22 104.543 30.275C104.543 30.23 105.038 29.645 104.768 29.78C104.543 29.78 104.993 29.15 104.903 28.925C104.903 28.07 105.308 28.295 105.308 27.935C105.263 27.845 105.488 27.665 105.353 27.62C105.263 27.62 105.353 27.35 105.488 27.395C105.623 27.395 105.488 26.765 105.623 26.72C105.803 26.495 105.578 26.315 105.848 26.135C105.983 26.045 106.028 25.955 105.983 25.955C105.848 25.955 105.803 25.415 106.028 25.685C106.118 25.775 106.118 25.73 106.028 25.595C105.893 25.325 106.163 25.235 106.163 24.92C106.163 24.56 106.208 24.47 106.388 24.47C106.478 24.47 106.523 24.29 106.388 24.38C106.163 24.47 106.568 23.93 106.568 23.84C106.658 23.615 107.153 22.49 107.153 22.175C107.558 21.275 107.738 20.195 108.098 19.25C108.323 19.07 108.413 18.935 108.323 18.935C108.233 18.935 108.323 18.395 108.458 18.305C108.593 18.215 108.593 17.495 108.728 17.405C108.863 17.27 109.043 16.505 109.088 16.19C108.998 16.1 108.998 16.1 108.908 16.28C108.818 16.505 108.143 17 108.098 17.18C108.053 17.36 107.873 17.36 107.783 17.63C107.738 17.945 107.423 17.855 107.378 18.08C107.108 18.53 106.838 18.89 106.478 19.25C106.253 19.34 106.253 19.61 106.073 19.655C105.983 19.655 105.938 19.7 105.938 19.79C105.938 20.06 105.488 20.375 105.398 20.645C104.678 21.365 104.048 22.265 103.418 23.12C103.373 23.48 102.923 23.345 102.878 23.66C102.878 23.84 102.518 24.335 102.473 24.47C102.473 24.56 101.933 24.785 101.978 24.875C101.798 25.1 101.528 25.55 101.348 25.73C100.988 27.035 98.1078 26.675 96.5328 26.675C96.0828 26.675 95.7678 26.72 95.5878 26.81C95.5878 26.9 96.0378 26.9 99.4128 26.9C102.428 26.9 103.238 26.945 103.193 26.99C103.328 27.17 100.133 27.08 100.313 27.26C99.9078 27.485 99.2328 28.475 99.0078 29.06C99.0078 29.15 98.4228 29.645 98.3328 29.645C98.1528 30.14 97.7928 30.5 97.4778 30.86C97.2528 31.265 96.9378 31.175 96.8028 31.67C96.7578 31.895 96.5778 31.895 96.5328 32.075C95.9928 32.66 95.6778 33.605 94.5978 33.38L93.9678 33.335C93.9228 33.83 93.6078 34.73 93.2928 34.73C92.2578 35 92.3028 34.775 91.7628 35.855C91.2678 36.665 91.5378 36.575 90.9528 37.16C90.8178 37.43 90.5478 37.565 90.2778 37.565C89.9178 37.565 89.5578 37.25 89.8728 36.8C90.2778 35.99 90.3678 34.415 90.9078 33.83C91.7628 32.75 90.6378 32.84 91.3128 31.67C91.6278 30.77 91.0878 30.32 91.8978 29.42C91.8528 29.33 90.9528 29.375 91.4028 29.195C91.3578 29.105 94.4628 29.195 94.1928 29.015C94.3278 28.835 92.5728 28.925 92.2578 28.925C92.6178 27.395 93.2028 25.865 93.6978 24.38C93.9678 24.11 93.6978 24.29 93.6528 24.155C93.7428 23.975 93.8778 24.155 93.8778 23.75C93.8778 23.3 94.0578 23.21 94.1028 22.85C93.6528 22.805 90.9078 22.895 91.0878 22.76C90.9078 22.625 93.5628 22.67 96.1728 22.67C98.8278 22.67 101.393 22.625 100.898 22.49C100.898 22.31 100.853 22.31 97.6128 22.31C94.8678 22.31 94.3278 22.31 94.3278 22.22C94.3278 22.175 94.3728 22.085 94.4178 22.085C94.5978 21.905 94.3728 21.68 94.6878 21.455C94.9128 21.23 94.9128 21.185 94.8228 21.14C94.7328 21.095 94.7778 21.05 94.9578 20.87C95.1828 20.69 95.0478 20.555 95.1828 20.42C95.3178 20.375 95.2728 20.105 95.3628 20.06C95.4078 20.015 95.4078 19.97 95.3628 19.97C95.2728 19.88 95.3178 19.34 95.4528 19.34C95.5428 19.295 95.4978 19.16 95.6778 18.935C95.7678 18.755 95.8578 18.62 95.8128 18.62C95.5878 18.485 95.9928 18.08 96.0378 17.9C96.0378 17.765 96.1728 17.945 96.1278 17.765C96.0828 17.63 96.3528 17.63 96.3078 17.495C96.2628 17.45 96.2628 17.45 96.3078 17.45C96.4428 17.405 96.2178 16.955 96.4428 17.09C96.5328 17.135 96.5778 17 96.5328 16.685C96.5328 16.46 96.7128 16.685 96.7128 16.415C96.6678 16.325 96.8478 16.01 96.8028 15.965C96.7578 16.01 96.7128 15.965 96.7578 15.875C96.7578 15.785 96.9828 15.38 97.0278 15.38C97.0728 15.425 97.0728 15.425 97.0278 15.335C96.9828 15.2 97.2078 14.975 97.1628 14.84C97.0728 14.66 97.3428 14.93 97.2528 14.795C97.1628 14.66 97.5228 14.39 97.4778 14.3C97.3428 13.94 97.7028 13.895 97.7478 13.58C97.7028 13.31 97.8828 13.445 97.8378 13.22C97.7928 13.13 97.8378 13.04 97.8828 13.04C98.0178 12.905 97.9728 12.41 98.1978 12.32C98.2878 12.32 98.2428 11.915 98.3328 11.915C98.6478 11.87 98.2428 11.78 97.7028 11.78C94.5978 11.555 102.248 11.69 102.698 11.465C102.923 11.33 101.753 11.33 100.583 11.33C99.4128 11.33 98.2878 11.33 98.5128 11.24C99.1428 9.755 100.673 5.795 101.438 3.68C101.708 3.14 101.888 2.87 102.023 2.87C102.203 2.87 102.338 3.14 102.518 3.725C102.653 3.905 102.698 4.31 102.563 4.625C102.383 5.03 102.743 5.3 102.518 5.75C102.203 6.29 102.878 6.83 102.788 7.28C102.473 7.775 103.418 7.325 103.688 7.325H103.733C104.768 7.46 104.858 8.81 104.183 9.53C104.093 9.71 104.093 10.115 103.913 10.34C103.643 10.565 103.733 11.015 103.553 11.24C103.643 11.735 103.148 12.275 103.058 12.725C102.743 13.355 102.473 14.3 102.203 14.93C102.068 15.2 101.978 15.47 101.888 15.785C101.933 15.965 101.663 16.325 101.618 16.28C101.618 16.46 101.213 17.225 101.213 17.45C101.033 18.125 101.843 17.405 101.753 17.27C101.708 17.27 101.753 17.18 101.843 17.09C102.023 16.955 101.978 16.775 102.113 16.685C102.158 16.46 103.373 15.065 103.643 14.975C103.418 14.705 105.398 12.905 105.308 12.725C105.443 12.545 105.803 12.365 105.893 12.14C106.433 11.42 106.658 11.6 106.748 11.33C106.613 10.925 107.468 10.565 107.648 10.475C107.333 10.295 107.828 9.89 108.053 9.71C109.853 7.955 111.023 6.38 112.193 6.38C112.373 6.38 112.553 6.425 112.733 6.515C113.993 6.74 113.498 7.505 113.903 7.505C113.993 7.505 114.128 7.46 114.353 7.37C114.713 7.325 115.478 6.335 115.883 6.335C116.198 6.335 116.018 6.875 116.018 7.1C116.018 7.28 116.018 7.325 116.288 7.37C117.413 7.415 116.378 8.99 116.243 9.71C116.198 10.07 116.108 10.34 115.973 10.61C113.228 10.565 107.288 10.745 114.353 10.745ZM94.9128 32.93C95.1828 32.84 94.7778 32.795 94.8678 32.615C94.8228 32.255 94.6428 32.93 94.9128 32.93ZM106.298 32.615C106.343 32.345 106.343 32.255 106.253 32.21C106.073 32.12 106.118 33.2 106.298 32.615ZM100.988 8.99C101.123 8.765 100.898 8.81 100.853 8.99C100.718 9.215 100.898 9.125 100.988 8.99ZM110.483 8.315C110.843 8 110.258 8.27 110.258 8.405C110.258 8.495 110.303 8.495 110.483 8.315ZM110.843 8.225C111.023 7.955 110.618 7.865 110.753 8.225C110.798 8.315 110.798 8.315 110.843 8.225ZM110.978 7.91C110.843 7.955 111.203 8.27 111.383 8.225C111.518 8.225 111.023 8.405 111.068 8.45C111.113 8.585 111.338 8.36 111.473 8.54C111.788 8.855 112.148 8.45 112.103 7.82C112.058 7.37 112.283 7.28 112.148 7.1C111.878 6.875 111.563 7.415 111.338 7.46C111.113 7.505 111.068 7.775 110.978 7.91ZM114.488 9.17C114.353 9.35 114.488 9.89 114.578 9.485C114.578 9.08 114.803 9.305 114.848 9.08C114.803 8.675 114.443 8.855 114.488 9.17ZM106.118 36.665C106.163 36.575 106.163 36.53 106.163 36.485C106.028 36.395 105.938 36.935 106.118 36.665ZM94.3728 32.75C94.5528 32.84 94.6878 32.84 94.5528 32.75C94.5078 32.705 94.1478 32.66 94.3728 32.75ZM111.788 8.225C111.653 8.18 111.878 8 111.833 8.18C111.833 8.225 111.788 8.225 111.788 8.225ZM136.765 12.095C137.575 12.725 135.64 13.175 135.82 13.85C135.865 14.3 134.83 14.705 135.055 15.335C135.145 15.695 134.695 15.695 134.785 16.055C134.83 16.235 134.785 16.325 134.47 16.685C133.975 17.135 134.02 17.495 133.57 17.765C133.255 18.035 133.21 18.395 132.76 18.665C132.805 19.07 130.33 18.935 130.15 18.935C128.125 18.935 127.81 18.935 127.81 19.07C127.81 19.16 128.215 19.16 130.87 19.16C134.38 19.07 134.74 19.43 131.77 19.385C131.365 20.195 130.33 20.825 129.565 21.725C129.115 22.265 128.35 22.4 128.17 22.895C128.17 23.03 128.035 23.165 127.855 23.165C124.885 25.955 122.275 28.43 119.305 31.175C118.585 31.22 114.445 31.085 114.895 31.355C114.805 31.715 121.465 31.445 121.105 31.805C120.925 32.165 117.73 31.715 117.775 32.435C117.505 32.885 116.38 33.92 115.975 34.145C115.66 34.235 115.795 34.955 115.3 35C114.22 35.585 113.455 37.025 112.6 37.79C112.195 38.15 111.7 38.69 111.295 38.69C111.07 38.69 110.89 38.555 110.755 38.285C110.665 37.385 112.06 36.215 111.88 35.27C111.79 34.82 112.06 34.325 111.52 33.92C111.25 33.605 111.745 32.93 111.565 32.435C111.385 31.85 111.655 32.21 111.745 31.94C112.105 31.355 112.15 31.49 112.24 30.725C112.33 30.815 112.375 30.77 112.465 30.455C112.645 30.005 111.97 30.365 112.285 30.05C112.6 29.78 112.645 29.69 112.645 29.51C112.645 29.24 112.87 29.33 112.78 29.015C112.78 28.7 112.825 28.61 112.96 28.745C113.095 28.655 113.095 27.935 113.185 27.62C113.455 27.08 112.555 27.485 112.87 27.125C113.005 27.035 112.735 27.35 112.915 27.17C112.87 27.08 113.59 27.08 114.31 27.08C115.03 27.08 115.75 27.08 115.615 26.99C115.615 26.9 115.435 26.855 114.58 26.855C113.59 26.855 113.5 26.855 113.68 26.585C113.77 26.405 113.455 26.045 113.815 26.09C113.995 26.18 113.59 25.595 113.95 25.595C114.13 25.46 113.86 25.37 113.5 25.37C113.14 25.37 113.095 25.37 113.14 25.28C113.185 25.145 113.59 25.145 117.415 25.19C120.79 25.19 121.69 25.19 121.69 25.1C122.05 24.965 115.345 25.01 114.22 25.01C114.175 24.515 114.355 24.38 114.445 23.93C114.445 23.3 114.625 23.795 114.715 23.12C114.805 23.03 114.76 22.67 114.895 22.58C115.03 22.625 115.03 21.86 115.255 21.68C115.39 21.545 115.03 21.68 115.3 21.32C115.525 20.78 115.57 20.51 115.84 19.97C115.975 19.61 116.02 19.25 116.11 18.935C116.2 18.935 116.335 18.53 116.29 18.485C116.245 18.395 116.425 18.44 116.425 18.305C116.38 18.17 116.65 17.9 116.47 17.99C116.605 17.9 116.515 17.54 116.65 17.54C116.83 17.54 116.74 17.27 116.83 17.045C116.83 16.91 116.875 16.82 116.92 16.82C117.1 16.775 117.01 16.415 117.055 16.235C117.055 16.19 117.1 16.145 117.145 16.145C117.28 16.19 117.19 15.695 117.325 15.65C117.415 15.56 117.415 15.515 117.37 15.515C117.235 15.47 117.55 15.155 117.55 14.975C117.865 14.345 117.28 14.48 116.875 14.48C116.695 14.48 116.56 14.48 116.515 14.39C116.65 14.3 117.01 14.255 117.415 14.255C118.27 14.255 119.395 14.39 120.205 14.39C120.61 14.39 120.925 14.345 121.06 14.255C121.195 13.985 119.89 14.165 118.9 14.165C118.135 14.165 117.55 14.075 118.09 13.58C118.18 13.4 118.225 13.22 118.225 13.22C118.18 13.13 118.45 13.265 118.45 13.085C118.495 12.905 118.36 12.995 118.36 12.815C118.36 12.68 118.54 12.77 118.45 12.59C118.45 12.545 118.45 12.5 118.495 12.545C118.81 12.545 118.585 11.69 118.855 11.33C119.08 10.655 119.305 9.845 119.62 9.215C119.8 8.945 119.665 8.405 119.98 8.18C120.115 8.135 120.115 8.09 119.98 7.82C119.8 7.505 119.755 7.01 119.935 7.01C119.98 7.01 119.935 6.965 119.89 6.92C119.755 6.92 119.71 6.605 119.8 6.695C119.845 6.785 119.845 6.785 119.935 6.695C120.07 6.56 119.89 6.38 120.16 6.605C120.385 6.92 120.25 6.425 120.07 6.335C119.53 6.02 120.43 5.075 119.62 5.075H119.575C118.72 5.165 119.35 4.085 118.81 3.95C117.865 3.68 118.045 3.095 118.585 3.095C118.72 3.095 118.855 3.095 119.035 3.185C119.935 3.455 121.42 4.265 122.365 4.4C123.94 4.625 125.695 6.02 127.225 6.695C129.7 7.865 135.73 9.53 136.765 12.095ZM129.25 14.615L130.33 13.49C128.44 12.545 126.055 11.69 124.165 10.79C124.03 10.79 123.805 11.24 123.805 11.6C123.625 12.23 123.265 12.995 122.995 13.625C122.86 14.21 122.59 15.38 122.32 15.74C122.185 15.605 122.185 16.73 122.05 16.415C121.915 16.19 122.14 16.91 121.96 16.775C121.915 16.73 121.87 16.865 121.87 17.045C121.735 17.135 121.78 17.27 121.69 17.405C121.285 18.305 121.195 19.16 120.835 19.745C121.105 19.88 120.655 19.88 120.655 20.375C120.34 21.59 119.8 22.4 119.53 23.615C122.815 20.42 125.83 17.81 129.25 14.615ZM121.825 6.245C121.78 6.38 122.05 6.245 122.005 6.2C122.005 6.065 121.87 6.11 121.825 6.245ZM122.23 5.525C121.96 5.525 122.41 5.705 122.32 5.93C122.275 6.245 122.635 6.29 122.5 6.065C122.275 5.885 122.95 6.29 123.04 6.29C123.355 6.335 123.445 6.965 123.76 6.605C123.805 6.515 123.805 6.47 123.715 6.425C123.445 6.335 124.21 6.155 123.4 6.065C122.905 5.975 122.59 5.705 122.23 5.525ZM125.425 7.055C125.245 7.055 125.2 7.055 125.2 7.19C125.245 7.505 126.01 7.055 125.425 7.055ZM125.83 7.685C125.56 7.775 126.325 8.135 126.37 7.865C126.415 7.775 126.1 7.64 126.1 7.775C126.1 7.91 125.92 7.64 125.83 7.685ZM126.19 7.46C125.74 7.325 126.46 7.865 126.37 7.505C126.37 7.415 126.325 7.37 126.325 7.325C126.235 7.28 126.46 7.55 126.19 7.46ZM126.865 7.73C126.64 7.595 126.325 7.775 126.55 7.91C126.73 8.045 126.55 8.315 126.955 8.315C127.36 8.36 128.755 9.17 128.98 8.9C129.16 8.9 128.53 8.18 128.35 8.18C128.35 8.18 128.305 8.18 128.305 8.225C128.26 8.36 128.08 8.315 128.17 8.18C128.215 8.09 127.9 8.18 127.9 8.045C127.855 7.865 128.08 8.135 127.99 8C127.9 7.865 127.36 8 127.225 7.775C127 7.55 127.045 7.865 126.865 7.73ZM130.69 9.755C130.96 9.8 131.185 10.205 131.5 9.98C131.5 9.935 131.005 9.89 131.005 9.845C130.96 9.71 131.32 9.755 131.32 9.665C131.32 9.53 130.915 9.71 130.915 9.485C130.87 8.99 130.015 8.99 129.655 8.855C129.565 8.9 129.7 8.63 129.61 8.675C129.52 8.72 128.935 8.36 129.115 8.72C129.16 8.9 129.205 9.35 129.52 9.26C129.475 9.17 129.115 9.17 129.34 8.99C129.475 8.72 129.52 9.035 129.655 8.99C129.97 8.855 130.15 9.575 129.88 9.305C129.88 9.26 129.79 9.215 129.7 9.26C129.43 9.26 129.835 9.485 129.745 9.575C129.835 9.53 130.51 9.755 130.69 9.755ZM131.725 10.115C131.86 10.025 131.68 9.845 131.68 9.935C131.725 9.98 131.68 10.07 131.635 10.07C131.41 10.16 131.59 10.43 131.725 10.115ZM132.22 10.565C131.68 10.43 132.085 10.79 132.31 10.565C132.355 10.295 131.455 10.205 132.22 10.565ZM135.1 11.87C134.965 11.51 135.595 11.555 134.74 11.465C134.605 11.465 134.605 11.285 134.785 11.33C134.875 11.375 134.875 11.375 134.785 11.285C134.65 11.24 134.875 10.97 134.785 10.925C134.65 10.97 134.695 11.285 134.47 11.06C134.155 10.7 134.74 11.465 134.29 11.15C134.245 11.06 134.155 11.015 134.11 11.06C134.11 11.06 134.065 11.015 134.065 10.97C134.065 10.79 134.38 11.06 134.155 10.79C133.93 10.61 134.245 10.52 134.11 10.385C133.975 10.295 133.885 10.43 133.93 10.565C134.065 10.835 133.435 10.43 133.525 10.7C133.705 11.06 134.605 11.555 134.875 11.87C134.785 12.095 134.425 11.78 134.29 11.735C134.155 11.735 134.29 11.465 133.975 11.465C133.885 11.465 133.21 10.7 133.57 11.24C133.84 11.69 134.38 12.185 134.515 12.635C134.65 12.68 134.92 12.365 134.695 12.365C134.65 12.41 134.65 12.365 134.74 12.275C134.92 11.96 134.875 12.23 135.01 12.23C135.055 12.23 135.1 12.23 135.1 12.275C135.145 12.365 135.235 11.87 135.1 11.87Z" fill="#FFFB00"/>
</svg>
