<svg width="36" height="51" viewBox="0 0 36 51" fill="none" xmlns="http://www.w3.org/2000/svg">
<path fill-rule="evenodd" clip-rule="evenodd" d="M10.2299 0.878236L9.96071 0.90991L0.237626 8.4232L7.30882 10.9189H9.12846C9.31583 10.3888 9.82139 10.009 10.4157 10.009C11.1695 10.009 11.7805 10.6201 11.7805 11.3739C11.7805 12.1277 11.1695 12.7387 10.4157 12.7387C9.82139 12.7387 9.31583 12.3589 9.12846 11.8288H7.15296L0 9.30425L0.321982 13.7047L1.88746 14.5586H12.7681C12.9555 14.0285 13.461 13.6486 14.0553 13.6486C14.8091 13.6486 15.4202 14.2597 15.4202 15.0135C15.4202 15.7673 14.8091 16.3784 14.0553 16.3784C13.461 16.3784 12.9555 15.9986 12.7681 15.4685H1.65544L0.400974 14.7842L0.550908 16.8333H11.0732L14.0553 20.018L14.078 20.1024L15.4202 22.0653V26.1599L14.0203 28.2072H7.72093L6.32107 26.1599V22.0653L7.72093 18.1982L12.2568 19.5086L10.668 17.7432H0.617487L0.713006 19.0487L3.13638 20.018V28.2072H1.48717L1.74308 29.5721H13.3217L12.1525 33.0794L5.32011 36.4956L7.64218 38.1844L14.7617 34.6246L14.7912 34.6837L16.4211 30.027H18.9688L20.6638 34.8699L27.704 38.39V38.2162L30.0698 36.4956L23.2373 33.0794L22.0682 29.5721H33.6468L33.9027 28.2072H32.7085V20.018L34.6632 19.2361L34.7724 17.7432H24.7349L23.3392 19.449L27.669 18.1982L29.0688 22.0653V26.1599L27.669 28.2072H21.3696L19.9697 26.1599V22.0653L21.3182 20.0931L21.3346 20.018L24.3037 16.8333H34.839L35.0078 14.5258L33.2795 15.4685H21.7119C21.5245 15.9986 21.0189 16.3784 20.4247 16.3784C19.6709 16.3784 19.0598 15.7673 19.0598 15.0135C19.0598 14.2597 19.6709 13.6486 20.4247 13.6486C21.0189 13.6486 21.5245 14.0285 21.7119 14.5586H33.0475L35.0868 13.4462L35.3899 9.30425L28.2369 11.8288H26.2614C26.0741 12.3589 25.5685 12.7387 24.9742 12.7387C24.2204 12.7387 23.6094 12.1277 23.6094 11.3739C23.6094 10.6201 24.2204 10.009 24.9742 10.009C25.5685 10.009 26.0741 10.3888 26.2614 10.9189H28.0811L35.1523 8.4232L25.4292 0.90991L25.1598 0.878218L17.6949 7.90404L10.2299 0.878236ZM23.9797 0.739381L17.6949 0L11.4101 0.739399L17.6949 6.65451L23.9797 0.739381ZM33.4762 30.482H23.3307L23.9814 32.4341L30.8987 35.8928L32.7085 34.5766L33.4762 30.482ZM27.704 39.4073L27.603 39.3568L24.6875 41.8558H24.5193V46.4054L27.704 44.1306V39.4073ZM23.1544 41.8558H20.4247V50.045L23.1544 47.7703V41.8558ZM19.0598 41.8558H16.3301V50.5H19.0598V41.8558ZM14.9652 41.8558H12.2355V47.7703L14.9652 50.045V41.8558ZM10.8706 41.8558H10.7023L7.68593 39.2704V44.1306L10.8706 46.4054V41.8558ZM4.49119 35.8928L11.4085 32.4341L12.0592 30.482H1.91369L2.68143 34.5766L4.49119 35.8928ZM15.0726 35.4865H19.8623L26.72 38.9153L24.3509 40.9459H11.0389L8.50224 38.7717L15.0726 35.4865Z" fill="#8560FF"/>
</svg>
