<svg width="36" height="68" viewBox="0 0 36 68" fill="none" xmlns="http://www.w3.org/2000/svg">
<path d="M5.03095 0.706594L3.5 0L1.91184 8.32301L3.52724 5.32299L5.03095 0.706594Z" fill="#8560FF"/>
<path d="M1.548 11.108L2.99177 14.3565L7.69433 14.0206L9.21765 11.2786C9.07954 11.0516 9 10.7851 9 10.5C9 9.67157 9.67157 9 10.5 9C11.3284 9 12 9.67157 12 10.5C12 11.3284 11.3284 12 10.5 12C10.3273 12 10.1613 11.9708 10.0069 11.9171L8.30557 14.9795L3.42363 15.3282L3.5 15.5L4.5 25.5L7.38889 36.5H10.3333L7.5621 28.9987C7.5415 28.9996 7.5208 29 7.5 29C6.67157 29 6 28.3284 6 27.5C6 26.6716 6.67157 26 7.5 26C8.32843 26 9 26.6716 9 27.5C9 27.947 8.80445 28.3484 8.49423 28.6232L11.6666 37.5H7.44444L7 41.5L6.562 44.128L8.24225 44.4431L9.36414 42.4797C9.13723 42.2169 9 41.8745 9 41.5C9 40.6716 9.67157 40 10.5 40C11.3284 40 12 40.6716 12 41.5C12 42.3284 11.3284 43 10.5 43C10.4086 43 10.3191 42.9918 10.2322 42.9762L9.05045 45.0443L10.3085 48.3992L13.5595 47.5239L14.3611 41.1112L6.90525 18.2583L11.5759 15.6635L12.5652 12.2009L14.5875 10.6842L11.4594 6.61769L12.4906 4.14949L5.9591 1.13497L4.62614 5.00001H7.08535C7.29127 4.41741 7.84689 4 8.5 4C9.32843 4 10 4.67157 10 5.5C10 6.32843 9.32843 7 8.5 7C7.84689 7 7.29128 6.5826 7.08536 6.00001H5.06732L6.88392 8.17994L6.1157 8.82013L4.08929 6.38843L1.548 11.108Z" fill="#8560FF"/>
<path d="M13.4343 12.7991L15.1 11.5498L17 22L15.5 28.5L13.6533 35.2718L8.09429 18.7417L12.4236 16.3365L13.4343 12.7991Z" fill="#8560FF"/>
<path d="M12.9416 48.7259L8.5 54.5L5.5 58L4.39617 57.8774L10.3053 49.4356L12.9416 48.7259Z" fill="#8560FF"/>
<path d="M1.55496 57.5617L3.2636 57.7515L9.43926 48.9291L8.13069 45.4396L6.0504 45.0495L2 50L0 53.5L0.833624 56.8345L4.31473 51.4194C4.11746 51.1655 4 50.8465 4 50.5C4 49.6716 4.67157 49 5.5 49C6.32843 49 7 49.6716 7 50.5C7 51.3284 6.32843 52 5.5 52C5.38156 52 5.26633 51.9863 5.15581 51.9603L1.55496 57.5617Z" fill="#8560FF"/>
<path d="M34.452 20.973L33.0082 24.2215L28.3057 23.8856L26.7824 21.1436C26.9205 20.9167 27 20.6501 27 20.365C27 19.5366 26.3284 18.865 25.5 18.865C24.6716 18.865 24 19.5366 24 20.365C24 21.1935 24.6716 21.865 25.5 21.865C25.6727 21.865 25.8387 21.8358 25.9931 21.7821L27.6944 24.8445L32.5764 25.1932L32.5 25.365L31.5 35.365L28.6111 46.3651H25.6667L28.4379 38.8638C28.4585 38.8646 28.4792 38.865 28.5 38.865C29.3284 38.865 30 38.1935 30 37.365C30 36.5366 29.3284 35.865 28.5 35.865C27.6716 35.865 27 36.5366 27 37.365C27 37.8121 27.1955 38.2134 27.5058 38.4882L24.3334 47.3651H28.5556L29 51.365L29.438 53.993L27.7578 54.3081L26.6359 52.3448C26.8628 52.0819 27 51.7395 27 51.365C27 50.5366 26.3284 49.865 25.5 49.865C24.6716 49.865 24 50.5366 24 51.365C24 52.1935 24.6716 52.865 25.5 52.865C25.5914 52.865 25.6809 52.8569 25.7678 52.8412L26.9496 54.9093L25.6915 58.2642L22.4405 57.3889L21.6389 50.9763L29.0948 28.1233L24.4241 25.5285L23.4348 22.0659L21.4125 20.5492L24.5406 16.4827L23.5094 12.0145L30.0409 9L31.3739 14.865H28.9146C28.7087 14.2824 28.1531 13.865 27.5 13.865C26.6716 13.865 26 14.5366 26 15.365C26 16.1935 26.6716 16.865 27.5 16.865C28.1531 16.865 28.7087 16.4476 28.9146 15.865H30.9327L29.1161 18.045L29.8843 18.6852L31.9107 16.2535L34.452 20.973Z" fill="#8560FF"/>
<path d="M22.582 12.4426L23.46 16.2474L20.7621 19.7547L19.5 13.865L22.582 12.4426Z" fill="#8560FF"/>
<path d="M22.5657 22.6641L20.9 21.4149L19 31.865L20.5 38.365L22.3467 45.1368L27.9057 28.6067L23.5764 26.2015L22.5657 22.6641Z" fill="#8560FF"/>
<path d="M23.0584 58.5909L27.5 64.365L30.5 67.865L31.6038 67.7424L25.6947 59.3007L23.0584 58.5909Z" fill="#8560FF"/>
<path d="M34.445 67.4267L32.7364 67.6165L26.5607 58.7941L27.8693 55.3046L29.9496 54.9145L34 59.865L36 63.365L35.1664 66.6995L31.6853 61.2845C31.8825 61.0305 32 60.7115 32 60.365C32 59.5366 31.3284 58.865 30.5 58.865C29.6716 58.865 29 59.5366 29 60.365C29 61.1935 29.6716 61.865 30.5 61.865C30.6184 61.865 30.7337 61.8513 30.8442 61.8254L34.445 67.4267Z" fill="#8560FF"/>
</svg>
