<svg width="343" height="131" viewBox="0 0 343 131" fill="none" xmlns="http://www.w3.org/2000/svg">
<path d="M0 1H115V131H0V1Z" fill="#D9D9D9" fill-opacity="0.04"/>
<path d="M0.5 1.5H114.5V130.5H0.5V1.5Z" stroke="#FFFB00" stroke-opacity="0.2"/>
<mask id="mask0_219_521" style="mask-type:alpha" maskUnits="userSpaceOnUse" x="6" y="7" width="40" height="9">
<path d="M6 7H46V16H6V7Z" fill="#FFFB00" fill-opacity="0.6"/>
</mask>
<g mask="url(#mask0_219_521)">
<path fill-rule="evenodd" clip-rule="evenodd" d="M43.5376 5.4944L26.3947 22.576L25.0479 21.234L42.1907 4.15234L43.5376 5.4944Z" fill="#FFFB00" fill-opacity="0.6"/>
<path fill-rule="evenodd" clip-rule="evenodd" d="M49.2514 5.4944L32.1086 22.576L30.7617 21.234L47.9046 4.15234L49.2514 5.4944Z" fill="#FFFB00" fill-opacity="0.6"/>
<path fill-rule="evenodd" clip-rule="evenodd" d="M54.9658 5.4944L37.8229 22.576L36.4761 21.234L53.6189 4.15234L54.9658 5.4944Z" fill="#FFFB00" fill-opacity="0.6"/>
<path fill-rule="evenodd" clip-rule="evenodd" d="M60.6802 5.4944L43.5373 22.576L42.1904 21.234L59.3333 4.15234L60.6802 5.4944Z" fill="#FFFB00" fill-opacity="0.6"/>
<path fill-rule="evenodd" clip-rule="evenodd" d="M37.8232 5.4944L20.6804 22.576L19.3335 21.234L36.4764 4.15234L37.8232 5.4944Z" fill="#FFFB00" fill-opacity="0.6"/>
<path fill-rule="evenodd" clip-rule="evenodd" d="M32.1084 5.4944L14.9655 22.576L13.6187 21.234L30.7615 4.15234L32.1084 5.4944Z" fill="#FFFB00" fill-opacity="0.6"/>
<path fill-rule="evenodd" clip-rule="evenodd" d="M26.3945 5.4944L9.25166 22.576L7.90479 21.234L25.0476 4.15234L26.3945 5.4944Z" fill="#FFFB00" fill-opacity="0.6"/>
<path fill-rule="evenodd" clip-rule="evenodd" d="M20.6802 5.4944L3.5373 22.576L2.19043 21.234L19.3333 4.15234L20.6802 5.4944Z" fill="#FFFB00" fill-opacity="0.6"/>
<path fill-rule="evenodd" clip-rule="evenodd" d="M14.9658 5.4944L-2.17706 22.576L-3.52393 21.234L13.6189 4.15234L14.9658 5.4944Z" fill="#FFFB00" fill-opacity="0.6"/>
<path fill-rule="evenodd" clip-rule="evenodd" d="M9.25145 5.4944L-7.89141 22.576L-9.23828 21.234L7.90458 4.15234L9.25145 5.4944Z" fill="#FFFB00" fill-opacity="0.6"/>
</g>
<path d="M0 22L97 22" stroke="#FFFB00" stroke-opacity="0.2"/>
<rect x="114" y="1" width="115" height="130" fill="#D9D9D9" fill-opacity="0.04"/>
<rect x="114.5" y="1.5" width="114" height="129" stroke="#FFFB00" stroke-opacity="0.2"/>
<rect x="228" y="1" width="115" height="130" fill="#D9D9D9" fill-opacity="0.04"/>
<rect x="228.5" y="1.5" width="114" height="129" stroke="#FFFB00" stroke-opacity="0.2"/>
<path fill-rule="evenodd" clip-rule="evenodd" d="M155.686 1L79 1.176V21.0601L85.6542 25H88.1707V24H90.4634V25H93.9024V24H95.0488V25H96.1951V24H105.366V25H106.512V24H109.951V25H260.363V24.805L260.506 24.8977L267 21.0601V1.176L190.314 1L184.288 5.52776H161.712L155.686 1Z" fill="#9AA011"/>
<path d="M79 1.176L78.9989 0.675997L78.5 0.677141V1.176H79ZM155.686 1L155.986 0.600256L155.852 0.499617L155.685 0.500001L155.686 1ZM79 21.0601H78.5V21.3451L78.7453 21.4903L79 21.0601ZM85.6542 25L85.3995 25.4302L85.5173 25.5H85.6542V25ZM88.1707 25V25.5H88.6707V25H88.1707ZM88.1707 24V23.5H87.6707V24H88.1707ZM90.4634 24H90.9634V23.5H90.4634V24ZM90.4634 25H89.9634V25.5H90.4634V25ZM93.9024 25V25.5H94.4024V25H93.9024ZM93.9024 24V23.5H93.4024V24H93.9024ZM95.0488 24H95.5488V23.5H95.0488V24ZM95.0488 25H94.5488V25.5H95.0488V25ZM96.1951 25V25.5H96.6951V25H96.1951ZM96.1951 24V23.5H95.6951V24H96.1951ZM105.366 24H105.866V23.5H105.366V24ZM105.366 25H104.866V25.5H105.366V25ZM106.512 25V25.5H107.012V25H106.512ZM106.512 24V23.5H106.012V24H106.512ZM109.951 24H110.451V23.5H109.951V24ZM109.951 25H109.451V25.5H109.951V25ZM260.363 25V25.5H260.863V25H260.363ZM260.363 24.805L260.635 24.3854L259.863 23.8853V24.805H260.363ZM260.506 24.8977L260.235 25.3174L260.494 25.4857L260.761 25.3282L260.506 24.8977ZM267 21.0601L267.254 21.4905L267.5 21.3454V21.0601H267ZM267 1.176H267.5V0.677141L267.001 0.675997L267 1.176ZM190.314 1L190.315 0.500001L190.148 0.499617L190.014 0.600256L190.314 1ZM184.288 5.52776V6.02776H184.455L184.588 5.9275L184.288 5.52776ZM161.712 5.52776L161.412 5.9275L161.545 6.02776H161.712V5.52776ZM79.0011 1.67599L155.687 1.5L155.685 0.500001L78.9989 0.675997L79.0011 1.67599ZM79.5 21.0601V1.176H78.5V21.0601H79.5ZM85.909 24.5698L79.2547 20.6299L78.7453 21.4903L85.3995 25.4302L85.909 24.5698ZM88.1707 24.5H85.6542V25.5H88.1707V24.5ZM87.6707 24V25H88.6707V24H87.6707ZM90.4634 23.5H88.1707V24.5H90.4634V23.5ZM90.9634 25V24H89.9634V25H90.9634ZM93.9024 24.5H90.4634V25.5H93.9024V24.5ZM93.4024 24V25H94.4024V24H93.4024ZM95.0488 23.5H93.9024V24.5H95.0488V23.5ZM95.5488 25V24H94.5488V25H95.5488ZM96.1951 24.5H95.0488V25.5H96.1951V24.5ZM95.6951 24V25H96.6951V24H95.6951ZM105.366 23.5H96.1951V24.5H105.366V23.5ZM105.866 25V24H104.866V25H105.866ZM106.512 24.5H105.366V25.5H106.512V24.5ZM106.012 24V25H107.012V24H106.012ZM109.951 23.5H106.512V24.5H109.951V23.5ZM110.451 25V24H109.451V25H110.451ZM260.363 24.5H109.951V25.5H260.363V24.5ZM259.863 24.805V25H260.863V24.805H259.863ZM260.778 24.4781L260.635 24.3854L260.091 25.2246L260.235 25.3174L260.778 24.4781ZM266.746 20.6296L260.252 24.4673L260.761 25.3282L267.254 21.4905L266.746 20.6296ZM266.5 1.176V21.0601H267.5V1.176H266.5ZM190.313 1.5L266.999 1.67599L267.001 0.675997L190.315 0.500001L190.313 1.5ZM184.588 5.9275L190.615 1.39974L190.014 0.600256L183.988 5.12802L184.588 5.9275ZM161.712 6.02776H184.288V5.02776H161.712V6.02776ZM155.385 1.39974L161.412 5.9275L162.012 5.12802L155.986 0.600256L155.385 1.39974Z" fill="#FFFB00"/>
<path d="M103.133 19V10.372L109.985 10.372C110.313 10.372 110.609 10.452 110.873 10.612C111.145 10.772 111.361 10.988 111.521 11.26C111.689 11.532 111.773 11.828 111.773 12.148V14.38C111.773 14.7 111.689 14.996 111.521 15.268C111.361 15.54 111.145 15.756 110.873 15.916C110.609 16.076 110.313 16.156 109.985 16.156L104.993 16.168V19H103.133ZM104.993 14.284L109.889 14.284V12.232L104.993 12.232V14.284ZM112.925 19V10.36H114.761V19H112.925ZM118.168 19C117.84 19 117.54 18.92 117.268 18.76C117.004 18.6 116.792 18.388 116.632 18.124C116.472 17.852 116.392 17.552 116.392 17.224V12.136C116.392 11.808 116.472 11.512 116.632 11.248C116.792 10.976 117.004 10.76 117.268 10.6C117.54 10.44 117.84 10.36 118.168 10.36L125.008 10.36V12.232L118.648 12.232C118.52 12.232 118.42 12.264 118.348 12.328C118.284 12.392 118.252 12.492 118.252 12.628V16.732C118.252 16.86 118.284 16.96 118.348 17.032C118.42 17.096 118.52 17.128 118.648 17.128L125.008 17.128V19L118.168 19ZM126.871 19V10.36H128.743V13.744L130.435 13.744L133.267 10.36H135.211V11.008L132.127 14.68L135.211 18.352V19H133.267L130.435 15.616H128.743V19H126.871ZM141.512 19V12.136C141.512 11.808 141.592 11.512 141.752 11.248C141.912 10.976 142.128 10.76 142.4 10.6C142.672 10.44 142.968 10.36 143.288 10.36L148.364 10.36C148.692 10.36 148.988 10.44 149.252 10.6C149.524 10.76 149.74 10.976 149.9 11.248C150.068 11.512 150.152 11.808 150.152 12.136V19H148.268V16.216H143.372V19H141.512ZM143.372 14.344L148.268 14.344V12.232L143.372 12.232V14.344ZM155.072 19V12.232H151.688V10.36L160.328 10.36V12.232H156.944V19H155.072ZM164.777 19V12.232H161.393V10.36L170.033 10.36V12.232L166.649 12.232V19L164.777 19ZM171.555 19V12.136C171.555 11.808 171.635 11.512 171.795 11.248C171.955 10.976 172.171 10.76 172.443 10.6C172.715 10.44 173.011 10.36 173.331 10.36L178.407 10.36C178.735 10.36 179.031 10.44 179.295 10.6C179.567 10.76 179.783 10.976 179.943 11.248C180.111 11.512 180.195 11.808 180.195 12.136V19H178.311V16.216H173.415V19H171.555ZM173.415 14.344H178.311V12.232H173.415V14.344ZM183.938 19C183.61 19 183.31 18.92 183.038 18.76C182.774 18.6 182.562 18.388 182.402 18.124C182.242 17.852 182.162 17.552 182.162 17.224V12.136C182.162 11.808 182.242 11.512 182.402 11.248C182.562 10.976 182.774 10.76 183.038 10.6C183.31 10.44 183.61 10.36 183.938 10.36L190.778 10.36V12.232L184.418 12.232C184.29 12.232 184.19 12.264 184.118 12.328C184.054 12.392 184.022 12.492 184.022 12.628V16.732C184.022 16.86 184.054 16.96 184.118 17.032C184.19 17.096 184.29 17.128 184.418 17.128H190.778V19H183.938ZM192.641 19V10.36H194.513V13.744L196.205 13.744L199.037 10.36H200.981V11.008L197.897 14.68L200.981 18.352V19H199.037L196.205 15.616H194.513V19H192.641ZM207.283 19V12.136C207.283 11.808 207.363 11.512 207.523 11.248C207.683 10.976 207.899 10.76 208.171 10.6C208.443 10.44 208.739 10.36 209.059 10.36L214.135 10.36C214.463 10.36 214.759 10.44 215.023 10.6C215.295 10.76 215.511 10.976 215.671 11.248C215.839 11.512 215.923 11.808 215.923 12.136V19H214.039V16.216H209.143V19L207.283 19ZM209.143 14.344L214.039 14.344V12.232L209.143 12.232V14.344ZM224.598 19L222.09 16.012H224.526L226.518 18.364V19H224.598ZM217.89 19V10.372L224.742 10.372C225.07 10.372 225.366 10.452 225.63 10.612C225.902 10.772 226.118 10.988 226.278 11.26C226.446 11.532 226.53 11.828 226.53 12.148V14.38C226.53 14.7 226.446 14.996 226.278 15.268C226.118 15.54 225.902 15.756 225.63 15.916C225.366 16.076 225.07 16.156 224.742 16.156L219.75 16.168V19H217.89ZM219.75 14.284H224.646V12.232H219.75V14.284ZM228.416 19V10.36L236.396 10.36V12.232L230.3 12.232V13.744L235.208 13.744V15.616L230.3 15.616V17.128H236.396V19H228.416ZM238.204 19V12.136C238.204 11.808 238.284 11.512 238.444 11.248C238.604 10.976 238.82 10.76 239.092 10.6C239.364 10.44 239.66 10.36 239.98 10.36L245.056 10.36C245.384 10.36 245.68 10.44 245.944 10.6C246.216 10.76 246.432 10.976 246.592 11.248C246.76 11.512 246.844 11.808 246.844 12.136V19H244.96V16.216L240.064 16.216V19H238.204ZM240.064 14.344H244.96V12.232H240.064V14.344Z" fill="black"/>
<path d="M0.5 63V1" stroke="#FFFB00" stroke-opacity="0.4"/>
<path d="M342.5 108V46" stroke="#FFFB00" stroke-opacity="0.4"/>
<path d="M342.5 33V1" stroke="#FFFB00"/>
<path d="M1 104L343 104" stroke="#FFFB00" stroke-opacity="0.2"/>
<mask id="mask1_219_521" style="mask-type:alpha" maskUnits="userSpaceOnUse" x="300" y="7" width="40" height="9">
<path d="M300 7H340V16H300V7Z" fill="#FFFB00" fill-opacity="0.6"/>
</mask>
<g mask="url(#mask1_219_521)">
<path fill-rule="evenodd" clip-rule="evenodd" d="M337.538 5.4944L320.395 22.576L319.048 21.234L336.191 4.15234L337.538 5.4944Z" fill="#FFFB00" fill-opacity="0.6"/>
<path fill-rule="evenodd" clip-rule="evenodd" d="M343.251 5.4944L326.109 22.576L324.762 21.234L341.905 4.15234L343.251 5.4944Z" fill="#FFFB00" fill-opacity="0.6"/>
<path fill-rule="evenodd" clip-rule="evenodd" d="M348.966 5.4944L331.823 22.576L330.476 21.234L347.619 4.15234L348.966 5.4944Z" fill="#FFFB00" fill-opacity="0.6"/>
<path fill-rule="evenodd" clip-rule="evenodd" d="M354.68 5.4944L337.537 22.576L336.19 21.234L353.333 4.15234L354.68 5.4944Z" fill="#FFFB00" fill-opacity="0.6"/>
<path fill-rule="evenodd" clip-rule="evenodd" d="M331.823 5.4944L314.68 22.576L313.333 21.234L330.476 4.15234L331.823 5.4944Z" fill="#FFFB00" fill-opacity="0.6"/>
<path fill-rule="evenodd" clip-rule="evenodd" d="M326.108 5.4944L308.966 22.576L307.619 21.234L324.762 4.15234L326.108 5.4944Z" fill="#FFFB00" fill-opacity="0.6"/>
<path fill-rule="evenodd" clip-rule="evenodd" d="M320.395 5.4944L303.252 22.576L301.905 21.234L319.048 4.15234L320.395 5.4944Z" fill="#FFFB00" fill-opacity="0.6"/>
<path fill-rule="evenodd" clip-rule="evenodd" d="M314.68 5.4944L297.537 22.576L296.19 21.234L313.333 4.15234L314.68 5.4944Z" fill="#FFFB00" fill-opacity="0.6"/>
<path fill-rule="evenodd" clip-rule="evenodd" d="M308.966 5.4944L291.823 22.576L290.476 21.234L307.619 4.15234L308.966 5.4944Z" fill="#FFFB00" fill-opacity="0.6"/>
<path fill-rule="evenodd" clip-rule="evenodd" d="M303.251 5.4944L286.109 22.576L284.762 21.234L301.905 4.15234L303.251 5.4944Z" fill="#FFFB00" fill-opacity="0.6"/>
</g>
<path d="M263 22L343 22" stroke="#FFFB00" stroke-opacity="0.2"/>
<path d="M166 1H180" stroke="#FFFB00" stroke-width="2"/>
<path d="M163 4H183" stroke="#FFFB00" stroke-width="2"/>
</svg>
