<svg width="343" height="131" viewBox="0 0 343 131" fill="none" xmlns="http://www.w3.org/2000/svg">
<path d="M0 1H115V131H0V1Z" fill="#D9D9D9" fill-opacity="0.04"/>
<path d="M0.5 1.5H114.5V130.5H0.5V1.5Z" stroke="#FFFB00" stroke-opacity="0.2"/>
<mask id="mask0_219_521" style="mask-type:alpha" maskUnits="userSpaceOnUse" x="6" y="7" width="40" height="9">
<path d="M6 7H46V16H6V7Z" fill="#FFFB00" fill-opacity="0.6"/>
</mask>
<g mask="url(#mask0_219_521)">
<path fill-rule="evenodd" clip-rule="evenodd" d="M43.5376 5.4944L26.3947 22.576L25.0479 21.234L42.1907 4.15234L43.5376 5.4944Z" fill="#FFFB00" fill-opacity="0.6"/>
<path fill-rule="evenodd" clip-rule="evenodd" d="M49.2514 5.4944L32.1086 22.576L30.7617 21.234L47.9046 4.15234L49.2514 5.4944Z" fill="#FFFB00" fill-opacity="0.6"/>
<path fill-rule="evenodd" clip-rule="evenodd" d="M54.9658 5.4944L37.8229 22.576L36.4761 21.234L53.6189 4.15234L54.9658 5.4944Z" fill="#FFFB00" fill-opacity="0.6"/>
<path fill-rule="evenodd" clip-rule="evenodd" d="M60.6802 5.4944L43.5373 22.576L42.1904 21.234L59.3333 4.15234L60.6802 5.4944Z" fill="#FFFB00" fill-opacity="0.6"/>
<path fill-rule="evenodd" clip-rule="evenodd" d="M37.8232 5.4944L20.6804 22.576L19.3335 21.234L36.4764 4.15234L37.8232 5.4944Z" fill="#FFFB00" fill-opacity="0.6"/>
<path fill-rule="evenodd" clip-rule="evenodd" d="M32.1084 5.4944L14.9655 22.576L13.6187 21.234L30.7615 4.15234L32.1084 5.4944Z" fill="#FFFB00" fill-opacity="0.6"/>
<path fill-rule="evenodd" clip-rule="evenodd" d="M26.3945 5.4944L9.25166 22.576L7.90479 21.234L25.0476 4.15234L26.3945 5.4944Z" fill="#FFFB00" fill-opacity="0.6"/>
<path fill-rule="evenodd" clip-rule="evenodd" d="M20.6802 5.4944L3.5373 22.576L2.19043 21.234L19.3333 4.15234L20.6802 5.4944Z" fill="#FFFB00" fill-opacity="0.6"/>
<path fill-rule="evenodd" clip-rule="evenodd" d="M14.9658 5.4944L-2.17706 22.576L-3.52393 21.234L13.6189 4.15234L14.9658 5.4944Z" fill="#FFFB00" fill-opacity="0.6"/>
<path fill-rule="evenodd" clip-rule="evenodd" d="M9.25145 5.4944L-7.89141 22.576L-9.23828 21.234L7.90458 4.15234L9.25145 5.4944Z" fill="#FFFB00" fill-opacity="0.6"/>
</g>
<path d="M0 22L97 22" stroke="#FFFB00" stroke-opacity="0.2"/>
<rect x="114" y="1" width="115" height="130" fill="#D9D9D9" fill-opacity="0.04"/>
<rect x="114.5" y="1.5" width="114" height="129" stroke="#FFFB00" stroke-opacity="0.2"/>
<rect x="228" y="1" width="115" height="130" fill="#D9D9D9" fill-opacity="0.04"/>
<rect x="228.5" y="1.5" width="114" height="129" stroke="#FFFB00" stroke-opacity="0.2"/>
<path fill-rule="evenodd" clip-rule="evenodd" d="M154.686 1L78 1.176V21.0601L84.6542 25H87.1707V24H89.4634V25H92.9024V24H94.0488V25H95.1951V24H104.366V25H105.512V24H108.951V25H259.363V24.805L259.506 24.8977L266 21.0601V1.176L189.314 1L183.288 5.52776H160.712L154.686 1Z" fill="#9AA011"/>
<path d="M78 1.176L77.9989 0.675997L77.5 0.677141V1.176H78ZM154.686 1L154.986 0.600256L154.852 0.499617L154.685 0.500001L154.686 1ZM78 21.0601H77.5V21.3451L77.7453 21.4903L78 21.0601ZM84.6542 25L84.3995 25.4302L84.5173 25.5H84.6542V25ZM87.1707 25V25.5H87.6707V25H87.1707ZM87.1707 24V23.5H86.6707V24H87.1707ZM89.4634 24H89.9634V23.5H89.4634V24ZM89.4634 25H88.9634V25.5H89.4634V25ZM92.9024 25V25.5H93.4024V25H92.9024ZM92.9024 24V23.5H92.4024V24H92.9024ZM94.0488 24H94.5488V23.5H94.0488V24ZM94.0488 25H93.5488V25.5H94.0488V25ZM95.1951 25V25.5H95.6951V25H95.1951ZM95.1951 24V23.5H94.6951V24H95.1951ZM104.366 24H104.866V23.5H104.366V24ZM104.366 25H103.866V25.5H104.366V25ZM105.512 25V25.5H106.012V25H105.512ZM105.512 24V23.5H105.012V24H105.512ZM108.951 24H109.451V23.5H108.951V24ZM108.951 25H108.451V25.5H108.951V25ZM259.363 25V25.5H259.863V25H259.363ZM259.363 24.805L259.635 24.3854L258.863 23.8853V24.805H259.363ZM259.506 24.8977L259.235 25.3174L259.494 25.4857L259.761 25.3282L259.506 24.8977ZM266 21.0601L266.254 21.4905L266.5 21.3454V21.0601H266ZM266 1.176H266.5V0.677141L266.001 0.675997L266 1.176ZM189.314 1L189.315 0.500001L189.148 0.499617L189.014 0.600256L189.314 1ZM183.288 5.52776V6.02776H183.455L183.588 5.9275L183.288 5.52776ZM160.712 5.52776L160.412 5.9275L160.545 6.02776H160.712V5.52776ZM78.0011 1.67599L154.687 1.5L154.685 0.500001L77.9989 0.675997L78.0011 1.67599ZM78.5 21.0601V1.176H77.5V21.0601H78.5ZM84.909 24.5698L78.2547 20.6299L77.7453 21.4903L84.3995 25.4302L84.909 24.5698ZM87.1707 24.5H84.6542V25.5H87.1707V24.5ZM86.6707 24V25H87.6707V24H86.6707ZM89.4634 23.5H87.1707V24.5H89.4634V23.5ZM89.9634 25V24H88.9634V25H89.9634ZM92.9024 24.5H89.4634V25.5H92.9024V24.5ZM92.4024 24V25H93.4024V24H92.4024ZM94.0488 23.5H92.9024V24.5H94.0488V23.5ZM94.5488 25V24H93.5488V25H94.5488ZM95.1951 24.5H94.0488V25.5H95.1951V24.5ZM94.6951 24V25H95.6951V24H94.6951ZM104.366 23.5H95.1951V24.5H104.366V23.5ZM104.866 25V24H103.866V25H104.866ZM105.512 24.5H104.366V25.5H105.512V24.5ZM105.012 24V25H106.012V24H105.012ZM108.951 23.5H105.512V24.5H108.951V23.5ZM109.451 25V24H108.451V25H109.451ZM259.363 24.5H108.951V25.5H259.363V24.5ZM258.863 24.805V25H259.863V24.805H258.863ZM259.778 24.4781L259.635 24.3854L259.091 25.2246L259.235 25.3174L259.778 24.4781ZM265.746 20.6297L259.252 24.4673L259.761 25.3282L266.254 21.4905L265.746 20.6297ZM265.5 1.176V21.0601H266.5V1.176H265.5ZM189.313 1.5L265.999 1.67599L266.001 0.675997L189.315 0.500001L189.313 1.5ZM183.588 5.9275L189.615 1.39974L189.014 0.600256L182.988 5.12802L183.588 5.9275ZM160.712 6.02776H183.288V5.02776H160.712V6.02776ZM154.385 1.39974L160.412 5.9275L161.012 5.12802L154.986 0.600256L154.385 1.39974Z" fill="#FFFB00"/>
<path d="M0.5 63V1" stroke="#FFFB00" stroke-opacity="0.4"/>
<path d="M342.5 108V46" stroke="#FFFB00" stroke-opacity="0.4"/>
<path d="M342.5 33V1" stroke="#FFFB00"/>
<path d="M1 104L343 104" stroke="#FFFB00" stroke-opacity="0.2"/>
<mask id="mask1_219_521" style="mask-type:alpha" maskUnits="userSpaceOnUse" x="300" y="7" width="40" height="9">
<path d="M300 7H340V16H300V7Z" fill="#FFFB00" fill-opacity="0.6"/>
</mask>
<g mask="url(#mask1_219_521)">
<path fill-rule="evenodd" clip-rule="evenodd" d="M337.538 5.4944L320.395 22.576L319.048 21.234L336.191 4.15234L337.538 5.4944Z" fill="#FFFB00" fill-opacity="0.6"/>
<path fill-rule="evenodd" clip-rule="evenodd" d="M343.251 5.4944L326.109 22.576L324.762 21.234L341.905 4.15234L343.251 5.4944Z" fill="#FFFB00" fill-opacity="0.6"/>
<path fill-rule="evenodd" clip-rule="evenodd" d="M348.966 5.4944L331.823 22.576L330.476 21.234L347.619 4.15234L348.966 5.4944Z" fill="#FFFB00" fill-opacity="0.6"/>
<path fill-rule="evenodd" clip-rule="evenodd" d="M354.68 5.4944L337.537 22.576L336.19 21.234L353.333 4.15234L354.68 5.4944Z" fill="#FFFB00" fill-opacity="0.6"/>
<path fill-rule="evenodd" clip-rule="evenodd" d="M331.823 5.4944L314.68 22.576L313.333 21.234L330.476 4.15234L331.823 5.4944Z" fill="#FFFB00" fill-opacity="0.6"/>
<path fill-rule="evenodd" clip-rule="evenodd" d="M326.108 5.4944L308.966 22.576L307.619 21.234L324.762 4.15234L326.108 5.4944Z" fill="#FFFB00" fill-opacity="0.6"/>
<path fill-rule="evenodd" clip-rule="evenodd" d="M320.395 5.4944L303.252 22.576L301.905 21.234L319.048 4.15234L320.395 5.4944Z" fill="#FFFB00" fill-opacity="0.6"/>
<path fill-rule="evenodd" clip-rule="evenodd" d="M314.68 5.4944L297.537 22.576L296.19 21.234L313.333 4.15234L314.68 5.4944Z" fill="#FFFB00" fill-opacity="0.6"/>
<path fill-rule="evenodd" clip-rule="evenodd" d="M308.966 5.4944L291.823 22.576L290.476 21.234L307.619 4.15234L308.966 5.4944Z" fill="#FFFB00" fill-opacity="0.6"/>
<path fill-rule="evenodd" clip-rule="evenodd" d="M303.251 5.4944L286.109 22.576L284.762 21.234L301.905 4.15234L303.251 5.4944Z" fill="#FFFB00" fill-opacity="0.6"/>
</g>
<path d="M263 22L343 22" stroke="#FFFB00" stroke-opacity="0.2"/>
<path d="M166 1H180" stroke="#FFFB00" stroke-width="2"/>
<path d="M163 4H183" stroke="#FFFB00" stroke-width="2"/>
</svg>
