<svg width="190" height="26" viewBox="0 0 190 26" fill="none" xmlns="http://www.w3.org/2000/svg">
<path fill-rule="evenodd" clip-rule="evenodd" d="M77.6858 1L1 1.176V21.0601L7.65423 25H10.1707V24H12.4634V25H15.9024V24H17.0488V25H18.1951V24H27.3659V25H28.5122V24H31.9512V25H182.363V24.805L182.506 24.8977L189 21.0601V1.176L112.314 1L106.288 5.52776H83.7121L77.6858 1Z" fill="#9AA011"/>
<path d="M1 1.176L0.998852 0.675997L0.5 0.677141V1.176H1ZM77.6858 1L77.9861 0.600256L77.8522 0.499617L77.6846 0.500001L77.6858 1ZM1 21.0601H0.5V21.3451L0.745259 21.4903L1 21.0601ZM7.65423 25L7.39949 25.4302L7.51731 25.5H7.65423V25ZM10.1707 25V25.5H10.6707V25H10.1707ZM10.1707 24V23.5H9.67073V24H10.1707ZM12.4634 24H12.9634V23.5H12.4634V24ZM12.4634 25H11.9634V25.5H12.4634V25ZM15.9024 25V25.5H16.4024V25H15.9024ZM15.9024 24V23.5H15.4024V24H15.9024ZM17.0488 24H17.5488V23.5H17.0488V24ZM17.0488 25H16.5488V25.5H17.0488V25ZM18.1951 25V25.5H18.6951V25H18.1951ZM18.1951 24V23.5H17.6951V24H18.1951ZM27.3659 24H27.8659V23.5H27.3659V24ZM27.3659 25H26.8659V25.5H27.3659V25ZM28.5122 25V25.5H29.0122V25H28.5122ZM28.5122 24V23.5H28.0122V24H28.5122ZM31.9512 24H32.4512V23.5H31.9512V24ZM31.9512 25H31.4512V25.5H31.9512V25ZM182.363 25V25.5H182.863V25H182.363ZM182.363 24.805L182.635 24.3854L181.863 23.8853V24.805H182.363ZM182.506 24.8977L182.235 25.3174L182.494 25.4857L182.761 25.3282L182.506 24.8977ZM189 21.0601L189.254 21.4905L189.5 21.3454V21.0601H189ZM189 1.176H189.5V0.677141L189.001 0.675997L189 1.176ZM112.314 1L112.315 0.500001L112.148 0.499617L112.014 0.600256L112.314 1ZM106.288 5.52776V6.02776H106.455L106.588 5.9275L106.288 5.52776ZM83.7121 5.52776L83.4117 5.9275L83.5452 6.02776H83.7121V5.52776ZM1.00115 1.67599L77.6869 1.5L77.6846 0.500001L0.998852 0.675997L1.00115 1.67599ZM1.5 21.0601V1.176H0.5V21.0601H1.5ZM7.90897 24.5698L1.25474 20.6299L0.745259 21.4903L7.39949 25.4302L7.90897 24.5698ZM10.1707 24.5H7.65423V25.5H10.1707V24.5ZM9.67073 24V25H10.6707V24H9.67073ZM12.4634 23.5H10.1707V24.5H12.4634V23.5ZM12.9634 25V24H11.9634V25H12.9634ZM15.9024 24.5H12.4634V25.5H15.9024V24.5ZM15.4024 24V25H16.4024V24H15.4024ZM17.0488 23.5H15.9024V24.5H17.0488V23.5ZM17.5488 25V24H16.5488V25H17.5488ZM18.1951 24.5H17.0488V25.5H18.1951V24.5ZM17.6951 24V25H18.6951V24H17.6951ZM27.3659 23.5H18.1951V24.5H27.3659V23.5ZM27.8659 25V24H26.8659V25H27.8659ZM28.5122 24.5H27.3659V25.5H28.5122V24.5ZM28.0122 24V25H29.0122V24H28.0122ZM31.9512 23.5H28.5122V24.5H31.9512V23.5ZM32.4512 25V24H31.4512V25H32.4512ZM182.363 24.5H31.9512V25.5H182.363V24.5ZM181.863 24.805V25H182.863V24.805H181.863ZM182.778 24.4781L182.635 24.3854L182.091 25.2246L182.235 25.3174L182.778 24.4781ZM188.746 20.6296L182.252 24.4673L182.761 25.3282L189.254 21.4905L188.746 20.6296ZM188.5 1.176V21.0601H189.5V1.176H188.5ZM112.313 1.5L188.999 1.67599L189.001 0.675997L112.315 0.500001L112.313 1.5ZM106.588 5.9275L112.615 1.39974L112.014 0.600256L105.988 5.12802L106.588 5.9275ZM83.7121 6.02776H106.288V5.02776H83.7121V6.02776ZM77.3854 1.39974L83.4117 5.9275L84.0124 5.12802L77.9861 0.600256L77.3854 1.39974Z" fill="#FFFB00"/>
<path d="M25.1329 19V10.372L31.9849 10.372C32.3129 10.372 32.6089 10.452 32.8729 10.612C33.1449 10.772 33.3609 10.988 33.5209 11.26C33.6889 11.532 33.7729 11.828 33.7729 12.148V14.38C33.7729 14.7 33.6889 14.996 33.5209 15.268C33.3609 15.54 33.1449 15.756 32.8729 15.916C32.6089 16.076 32.3129 16.156 31.9849 16.156L26.9929 16.168V19H25.1329ZM26.9929 14.284L31.8889 14.284V12.232L26.9929 12.232V14.284ZM34.9251 19V10.36H36.7611V19H34.9251ZM40.1675 19C39.8395 19 39.5395 18.92 39.2675 18.76C39.0035 18.6 38.7915 18.388 38.6315 18.124C38.4715 17.852 38.3915 17.552 38.3915 17.224V12.136C38.3915 11.808 38.4715 11.512 38.6315 11.248C38.7915 10.976 39.0035 10.76 39.2675 10.6C39.5395 10.44 39.8395 10.36 40.1675 10.36L47.0075 10.36V12.232L40.6475 12.232C40.5195 12.232 40.4195 12.264 40.3475 12.328C40.2835 12.392 40.2515 12.492 40.2515 12.628V16.732C40.2515 16.86 40.2835 16.96 40.3475 17.032C40.4195 17.096 40.5195 17.128 40.6475 17.128L47.0075 17.128V19L40.1675 19ZM48.8707 19V10.36H50.7427V13.744L52.4347 13.744L55.2667 10.36H57.2107V11.008L54.1267 14.68L57.2107 18.352V19H55.2667L52.4347 15.616H50.7427V19H48.8707ZM63.5124 19V12.136C63.5124 11.808 63.5924 11.512 63.7524 11.248C63.9124 10.976 64.1284 10.76 64.4004 10.6C64.6724 10.44 64.9684 10.36 65.2884 10.36L70.3644 10.36C70.6924 10.36 70.9884 10.44 71.2524 10.6C71.5244 10.76 71.7404 10.976 71.9004 11.248C72.0684 11.512 72.1524 11.808 72.1524 12.136V19H70.2684V16.216H65.3724V19H63.5124ZM65.3724 14.344L70.2684 14.344V12.232L65.3724 12.232V14.344ZM77.0717 19V12.232H73.6877V10.36L82.3277 10.36V12.232H78.9437V19H77.0717ZM86.7771 19V12.232H83.3931V10.36L92.0331 10.36V12.232L88.6491 12.232V19L86.7771 19ZM93.5546 19V12.136C93.5546 11.808 93.6346 11.512 93.7946 11.248C93.9546 10.976 94.1706 10.76 94.4426 10.6C94.7146 10.44 95.0106 10.36 95.3306 10.36L100.407 10.36C100.735 10.36 101.031 10.44 101.295 10.6C101.567 10.76 101.783 10.976 101.943 11.248C102.111 11.512 102.195 11.808 102.195 12.136V19H100.311V16.216H95.4146V19H93.5546ZM95.4146 14.344H100.311V12.232H95.4146V14.344ZM105.938 19C105.61 19 105.31 18.92 105.038 18.76C104.774 18.6 104.562 18.388 104.402 18.124C104.242 17.852 104.162 17.552 104.162 17.224V12.136C104.162 11.808 104.242 11.512 104.402 11.248C104.562 10.976 104.774 10.76 105.038 10.6C105.31 10.44 105.61 10.36 105.938 10.36L112.778 10.36V12.232L106.418 12.232C106.29 12.232 106.19 12.264 106.118 12.328C106.054 12.392 106.022 12.492 106.022 12.628V16.732C106.022 16.86 106.054 16.96 106.118 17.032C106.19 17.096 106.29 17.128 106.418 17.128H112.778V19H105.938ZM114.641 19V10.36H116.513V13.744L118.205 13.744L121.037 10.36H122.981V11.008L119.897 14.68L122.981 18.352V19H121.037L118.205 15.616H116.513V19H114.641ZM129.283 19V12.136C129.283 11.808 129.363 11.512 129.523 11.248C129.683 10.976 129.899 10.76 130.171 10.6C130.443 10.44 130.739 10.36 131.059 10.36L136.135 10.36C136.463 10.36 136.759 10.44 137.023 10.6C137.295 10.76 137.511 10.976 137.671 11.248C137.839 11.512 137.923 11.808 137.923 12.136V19H136.039V16.216H131.143V19L129.283 19ZM131.143 14.344L136.039 14.344V12.232L131.143 12.232V14.344ZM146.598 19L144.09 16.012H146.526L148.518 18.364V19H146.598ZM139.89 19V10.372L146.742 10.372C147.07 10.372 147.366 10.452 147.63 10.612C147.902 10.772 148.118 10.988 148.278 11.26C148.446 11.532 148.53 11.828 148.53 12.148V14.38C148.53 14.7 148.446 14.996 148.278 15.268C148.118 15.54 147.902 15.756 147.63 15.916C147.366 16.076 147.07 16.156 146.742 16.156L141.75 16.168V19H139.89ZM141.75 14.284H146.646V12.232H141.75V14.284ZM150.416 19V10.36L158.396 10.36V12.232L152.3 12.232V13.744L157.208 13.744V15.616L152.3 15.616V17.128H158.396V19H150.416ZM160.204 19V12.136C160.204 11.808 160.284 11.512 160.444 11.248C160.604 10.976 160.82 10.76 161.092 10.6C161.364 10.44 161.66 10.36 161.98 10.36L167.056 10.36C167.384 10.36 167.68 10.44 167.944 10.6C168.216 10.76 168.432 10.976 168.592 11.248C168.76 11.512 168.844 11.808 168.844 12.136V19H166.96V16.216L162.064 16.216V19H160.204ZM162.064 14.344H166.96V12.232H162.064V14.344Z" fill="black"/>
<path d="M88 1H102" stroke="#FFFB00" stroke-width="2"/>
<path d="M85 4H105" stroke="#FFFB00" stroke-width="2"/>
</svg>
