<svg width="351" height="223" viewBox="0 0 351 223" fill="none" xmlns="http://www.w3.org/2000/svg">
<g clip-path="url(#clip0_205_173)">
<rect width="351" height="158" transform="translate(0 63)" fill="black" fill-opacity="0.44"/>
<path d="M3 63.5H347" stroke="#FFFB00" stroke-opacity="0.2"/>
<path opacity="0.4" fill-rule="evenodd" clip-rule="evenodd" d="M16 66H3V67.1609H16V66ZM16 117.08H3V118.241H16V117.08ZM3 68.3218H16V71.8046H3V68.3218ZM16 119.402H3V122.885H16V119.402ZM3 72.9655H16V75.2874H3V72.9655ZM16 125.207H3V127.529H16V125.207ZM3 78.7701H16V83.4138H3V78.7701ZM16 129.851H3V134.494H16V129.851ZM3 84.5747H16V85.7356H3V84.5747ZM16 135.655H3V136.816H16V135.655ZM3 88.0575H16V89.2184H3V88.0575ZM16 139.138H3V140.299H16V139.138ZM3 90.3793H16V92.7011H3V90.3793ZM16 141.46H3V143.782H16V141.46ZM3 93.8621H16V95.023H3V93.8621ZM16 144.943H3V146.103H16V144.943ZM3 96.1839H16V97.3448H3V96.1839ZM16 147.264H3V148.425H16V147.264ZM3 100.828H16V104.31H3V100.828ZM16 151.908H3V155.391H16V151.908ZM3 111.276H16V112.437H3V111.276ZM16 162.356H3V163.517H16V162.356ZM3 114.759H16V115.92H3V114.759ZM16 165.839H3V167H16V165.839ZM3 105.471H16V107.793H3V105.471ZM16 156.552H3V158.874H16V156.552Z" fill="white"/>
<rect x="190" y="91" width="1" height="1" fill="#D9D9D9" fill-opacity="0.15"/>
<rect x="82" y="91" width="1" height="1" fill="#D9D9D9" fill-opacity="0.15"/>
<rect x="298" y="91" width="1" height="1" fill="#D9D9D9" fill-opacity="0.15"/>
<rect x="1" y="91" width="1" height="1" fill="#D9D9D9" fill-opacity="0.15"/>
<rect x="217" y="91" width="1" height="1" fill="#D9D9D9" fill-opacity="0.15"/>
<rect x="109" y="91" width="1" height="1" fill="#D9D9D9" fill-opacity="0.15"/>
<rect x="325" y="91" width="1" height="1" fill="#D9D9D9" fill-opacity="0.15"/>
<rect x="199" y="91" width="1" height="1" fill="#D9D9D9" fill-opacity="0.15"/>
<rect x="91" y="91" width="1" height="1" fill="#D9D9D9" fill-opacity="0.15"/>
<rect x="307" y="91" width="1" height="1" fill="#D9D9D9" fill-opacity="0.15"/>
<rect x="10" y="91" width="1" height="1" fill="#D9D9D9" fill-opacity="0.15"/>
<rect x="226" y="91" width="1" height="1" fill="#D9D9D9" fill-opacity="0.15"/>
<rect x="118" y="91" width="1" height="1" fill="#D9D9D9" fill-opacity="0.15"/>
<rect x="334" y="91" width="1" height="1" fill="#D9D9D9" fill-opacity="0.15"/>
<rect x="208" y="91" width="1" height="1" fill="#D9D9D9" fill-opacity="0.15"/>
<rect x="100" y="91" width="1" height="1" fill="#D9D9D9" fill-opacity="0.15"/>
<rect x="316" y="91" width="1" height="1" fill="#D9D9D9" fill-opacity="0.15"/>
<rect x="19" y="91" width="1" height="1" fill="#D9D9D9" fill-opacity="0.15"/>
<rect x="235" y="91" width="1" height="1" fill="#D9D9D9" fill-opacity="0.15"/>
<rect x="127" y="91" width="1" height="1" fill="#D9D9D9" fill-opacity="0.15"/>
<rect x="343" y="91" width="1" height="1" fill="#D9D9D9" fill-opacity="0.15"/>
<rect x="28" y="91" width="1" height="1" fill="#D9D9D9" fill-opacity="0.15"/>
<rect x="244" y="91" width="1" height="1" fill="#D9D9D9" fill-opacity="0.15"/>
<rect x="136" y="91" width="1" height="1" fill="#D9D9D9" fill-opacity="0.15"/>
<rect x="55" y="91" width="1" height="1" fill="#D9D9D9" fill-opacity="0.15"/>
<rect x="271" y="91" width="1" height="1" fill="#D9D9D9" fill-opacity="0.15"/>
<rect x="163" y="91" width="1" height="1" fill="#D9D9D9" fill-opacity="0.15"/>
<rect x="37" y="91" width="1" height="1" fill="#D9D9D9" fill-opacity="0.15"/>
<rect x="253" y="91" width="1" height="1" fill="#D9D9D9" fill-opacity="0.15"/>
<rect x="145" y="91" width="1" height="1" fill="#D9D9D9" fill-opacity="0.15"/>
<rect x="64" y="91" width="1" height="1" fill="#D9D9D9" fill-opacity="0.15"/>
<rect x="280" y="91" width="1" height="1" fill="#D9D9D9" fill-opacity="0.15"/>
<rect x="172" y="91" width="1" height="1" fill="#D9D9D9" fill-opacity="0.15"/>
<rect x="46" y="91" width="1" height="1" fill="#D9D9D9" fill-opacity="0.15"/>
<rect x="262" y="91" width="1" height="1" fill="#D9D9D9" fill-opacity="0.15"/>
<rect x="154" y="91" width="1" height="1" fill="#D9D9D9" fill-opacity="0.15"/>
<rect x="73" y="91" width="1" height="1" fill="#D9D9D9" fill-opacity="0.15"/>
<rect x="289" y="91" width="1" height="1" fill="#D9D9D9" fill-opacity="0.15"/>
<rect x="181" y="91" width="1" height="1" fill="#D9D9D9" fill-opacity="0.15"/>
<rect x="190" y="82" width="1" height="1" fill="#D9D9D9" fill-opacity="0.15"/>
<rect x="82" y="82" width="1" height="1" fill="#D9D9D9" fill-opacity="0.15"/>
<rect x="298" y="82" width="1" height="1" fill="#D9D9D9" fill-opacity="0.15"/>
<rect x="1" y="82" width="1" height="1" fill="#D9D9D9" fill-opacity="0.15"/>
<rect x="217" y="82" width="1" height="1" fill="#D9D9D9" fill-opacity="0.15"/>
<rect x="109" y="82" width="1" height="1" fill="#D9D9D9" fill-opacity="0.15"/>
<rect x="325" y="82" width="1" height="1" fill="#D9D9D9" fill-opacity="0.15"/>
<rect x="199" y="82" width="1" height="1" fill="#D9D9D9" fill-opacity="0.15"/>
<rect x="91" y="82" width="1" height="1" fill="#D9D9D9" fill-opacity="0.15"/>
<rect x="307" y="82" width="1" height="1" fill="#D9D9D9" fill-opacity="0.15"/>
<rect x="10" y="82" width="1" height="1" fill="#D9D9D9" fill-opacity="0.15"/>
<rect x="226" y="82" width="1" height="1" fill="#D9D9D9" fill-opacity="0.15"/>
<rect x="118" y="82" width="1" height="1" fill="#D9D9D9" fill-opacity="0.15"/>
<rect x="334" y="82" width="1" height="1" fill="#D9D9D9" fill-opacity="0.15"/>
<rect x="208" y="82" width="1" height="1" fill="#D9D9D9" fill-opacity="0.15"/>
<rect x="100" y="82" width="1" height="1" fill="#D9D9D9" fill-opacity="0.15"/>
<rect x="316" y="82" width="1" height="1" fill="#D9D9D9" fill-opacity="0.15"/>
<rect x="19" y="82" width="1" height="1" fill="#D9D9D9" fill-opacity="0.15"/>
<rect x="235" y="82" width="1" height="1" fill="#D9D9D9" fill-opacity="0.15"/>
<rect x="127" y="82" width="1" height="1" fill="#D9D9D9" fill-opacity="0.15"/>
<rect x="343" y="82" width="1" height="1" fill="#D9D9D9" fill-opacity="0.15"/>
<rect x="28" y="82" width="1" height="1" fill="#D9D9D9" fill-opacity="0.15"/>
<rect x="244" y="82" width="1" height="1" fill="#D9D9D9" fill-opacity="0.15"/>
<rect x="136" y="82" width="1" height="1" fill="#D9D9D9" fill-opacity="0.15"/>
<rect x="55" y="82" width="1" height="1" fill="#D9D9D9" fill-opacity="0.15"/>
<rect x="271" y="82" width="1" height="1" fill="#D9D9D9" fill-opacity="0.15"/>
<rect x="163" y="82" width="1" height="1" fill="#D9D9D9" fill-opacity="0.15"/>
<rect x="37" y="82" width="1" height="1" fill="#D9D9D9" fill-opacity="0.15"/>
<rect x="253" y="82" width="1" height="1" fill="#D9D9D9" fill-opacity="0.15"/>
<rect x="145" y="82" width="1" height="1" fill="#D9D9D9" fill-opacity="0.15"/>
<rect x="64" y="82" width="1" height="1" fill="#D9D9D9" fill-opacity="0.15"/>
<rect x="280" y="82" width="1" height="1" fill="#D9D9D9" fill-opacity="0.15"/>
<rect x="172" y="82" width="1" height="1" fill="#D9D9D9" fill-opacity="0.15"/>
<rect x="46" y="82" width="1" height="1" fill="#D9D9D9" fill-opacity="0.15"/>
<rect x="262" y="82" width="1" height="1" fill="#D9D9D9" fill-opacity="0.15"/>
<rect x="154" y="82" width="1" height="1" fill="#D9D9D9" fill-opacity="0.15"/>
<rect x="73" y="82" width="1" height="1" fill="#D9D9D9" fill-opacity="0.15"/>
<rect x="289" y="82" width="1" height="1" fill="#D9D9D9" fill-opacity="0.15"/>
<rect x="181" y="82" width="1" height="1" fill="#D9D9D9" fill-opacity="0.15"/>
<rect x="190" y="109" width="1" height="1" fill="#D9D9D9" fill-opacity="0.15"/>
<rect x="82" y="109" width="1" height="1" fill="#D9D9D9" fill-opacity="0.15"/>
<rect x="298" y="109" width="1" height="1" fill="#D9D9D9" fill-opacity="0.15"/>
<rect x="190" y="73" width="1" height="1" fill="#D9D9D9" fill-opacity="0.15"/>
<rect x="82" y="73" width="1" height="1" fill="#D9D9D9" fill-opacity="0.15"/>
<rect x="298" y="73" width="1" height="1" fill="#D9D9D9" fill-opacity="0.15"/>
<rect x="1" y="109" width="1" height="1" fill="#D9D9D9" fill-opacity="0.15"/>
<rect x="217" y="109" width="1" height="1" fill="#D9D9D9" fill-opacity="0.15"/>
<rect x="109" y="109" width="1" height="1" fill="#D9D9D9" fill-opacity="0.15"/>
<rect x="325" y="109" width="1" height="1" fill="#D9D9D9" fill-opacity="0.15"/>
<rect x="1" y="73" width="1" height="1" fill="#D9D9D9" fill-opacity="0.15"/>
<rect x="217" y="73" width="1" height="1" fill="#D9D9D9" fill-opacity="0.15"/>
<rect x="109" y="73" width="1" height="1" fill="#D9D9D9" fill-opacity="0.15"/>
<rect x="325" y="73" width="1" height="1" fill="#D9D9D9" fill-opacity="0.15"/>
<rect x="199" y="109" width="1" height="1" fill="#D9D9D9" fill-opacity="0.15"/>
<rect x="91" y="109" width="1" height="1" fill="#D9D9D9" fill-opacity="0.15"/>
<rect x="307" y="109" width="1" height="1" fill="#D9D9D9" fill-opacity="0.15"/>
<rect x="199" y="73" width="1" height="1" fill="#D9D9D9" fill-opacity="0.15"/>
<rect x="91" y="73" width="1" height="1" fill="#D9D9D9" fill-opacity="0.15"/>
<rect x="307" y="73" width="1" height="1" fill="#D9D9D9" fill-opacity="0.15"/>
<rect x="10" y="109" width="1" height="1" fill="#D9D9D9" fill-opacity="0.15"/>
<rect x="226" y="109" width="1" height="1" fill="#D9D9D9" fill-opacity="0.15"/>
<rect x="118" y="109" width="1" height="1" fill="#D9D9D9" fill-opacity="0.15"/>
<rect x="334" y="109" width="1" height="1" fill="#D9D9D9" fill-opacity="0.15"/>
<rect x="10" y="73" width="1" height="1" fill="#D9D9D9" fill-opacity="0.15"/>
<rect x="226" y="73" width="1" height="1" fill="#D9D9D9" fill-opacity="0.15"/>
<rect x="118" y="73" width="1" height="1" fill="#D9D9D9" fill-opacity="0.15"/>
<rect x="334" y="73" width="1" height="1" fill="#D9D9D9" fill-opacity="0.15"/>
<rect x="208" y="109" width="1" height="1" fill="#D9D9D9" fill-opacity="0.15"/>
<rect x="100" y="109" width="1" height="1" fill="#D9D9D9" fill-opacity="0.15"/>
<rect x="316" y="109" width="1" height="1" fill="#D9D9D9" fill-opacity="0.15"/>
<rect x="208" y="73" width="1" height="1" fill="#D9D9D9" fill-opacity="0.15"/>
<rect x="100" y="73" width="1" height="1" fill="#D9D9D9" fill-opacity="0.15"/>
<rect x="316" y="73" width="1" height="1" fill="#D9D9D9" fill-opacity="0.15"/>
<rect x="19" y="109" width="1" height="1" fill="#D9D9D9" fill-opacity="0.15"/>
<rect x="235" y="109" width="1" height="1" fill="#D9D9D9" fill-opacity="0.15"/>
<rect x="127" y="109" width="1" height="1" fill="#D9D9D9" fill-opacity="0.15"/>
<rect x="343" y="109" width="1" height="1" fill="#D9D9D9" fill-opacity="0.15"/>
<rect x="19" y="73" width="1" height="1" fill="#D9D9D9" fill-opacity="0.15"/>
<rect x="235" y="73" width="1" height="1" fill="#D9D9D9" fill-opacity="0.15"/>
<rect x="127" y="73" width="1" height="1" fill="#D9D9D9" fill-opacity="0.15"/>
<rect x="343" y="73" width="1" height="1" fill="#D9D9D9" fill-opacity="0.15"/>
<rect x="28" y="109" width="1" height="1" fill="#D9D9D9" fill-opacity="0.15"/>
<rect x="244" y="109" width="1" height="1" fill="#D9D9D9" fill-opacity="0.15"/>
<rect x="136" y="109" width="1" height="1" fill="#D9D9D9" fill-opacity="0.15"/>
<rect x="28" y="73" width="1" height="1" fill="#D9D9D9" fill-opacity="0.15"/>
<rect x="244" y="73" width="1" height="1" fill="#D9D9D9" fill-opacity="0.15"/>
<rect x="136" y="73" width="1" height="1" fill="#D9D9D9" fill-opacity="0.15"/>
<rect x="55" y="109" width="1" height="1" fill="#D9D9D9" fill-opacity="0.15"/>
<rect x="271" y="109" width="1" height="1" fill="#D9D9D9" fill-opacity="0.15"/>
<rect x="163" y="109" width="1" height="1" fill="#D9D9D9" fill-opacity="0.15"/>
<rect x="55" y="73" width="1" height="1" fill="#D9D9D9" fill-opacity="0.15"/>
<rect x="271" y="73" width="1" height="1" fill="#D9D9D9" fill-opacity="0.15"/>
<rect x="163" y="73" width="1" height="1" fill="#D9D9D9" fill-opacity="0.15"/>
<rect x="37" y="109" width="1" height="1" fill="#D9D9D9" fill-opacity="0.15"/>
<rect x="253" y="109" width="1" height="1" fill="#D9D9D9" fill-opacity="0.15"/>
<rect x="145" y="109" width="1" height="1" fill="#D9D9D9" fill-opacity="0.15"/>
<rect x="37" y="73" width="1" height="1" fill="#D9D9D9" fill-opacity="0.15"/>
<rect x="253" y="73" width="1" height="1" fill="#D9D9D9" fill-opacity="0.15"/>
<rect x="145" y="73" width="1" height="1" fill="#D9D9D9" fill-opacity="0.15"/>
<rect x="64" y="109" width="1" height="1" fill="#D9D9D9" fill-opacity="0.15"/>
<rect x="280" y="109" width="1" height="1" fill="#D9D9D9" fill-opacity="0.15"/>
<rect x="172" y="109" width="1" height="1" fill="#D9D9D9" fill-opacity="0.15"/>
<rect x="64" y="73" width="1" height="1" fill="#D9D9D9" fill-opacity="0.15"/>
<rect x="280" y="73" width="1" height="1" fill="#D9D9D9" fill-opacity="0.15"/>
<rect x="172" y="73" width="1" height="1" fill="#D9D9D9" fill-opacity="0.15"/>
<rect x="46" y="109" width="1" height="1" fill="#D9D9D9" fill-opacity="0.15"/>
<rect x="262" y="109" width="1" height="1" fill="#D9D9D9" fill-opacity="0.15"/>
<rect x="154" y="109" width="1" height="1" fill="#D9D9D9" fill-opacity="0.15"/>
<rect x="46" y="73" width="1" height="1" fill="#D9D9D9" fill-opacity="0.15"/>
<rect x="262" y="73" width="1" height="1" fill="#D9D9D9" fill-opacity="0.15"/>
<rect x="154" y="73" width="1" height="1" fill="#D9D9D9" fill-opacity="0.15"/>
<rect x="73" y="109" width="1" height="1" fill="#D9D9D9" fill-opacity="0.15"/>
<rect x="289" y="109" width="1" height="1" fill="#D9D9D9" fill-opacity="0.15"/>
<rect x="181" y="109" width="1" height="1" fill="#D9D9D9" fill-opacity="0.15"/>
<rect x="73" y="73" width="1" height="1" fill="#D9D9D9" fill-opacity="0.15"/>
<rect x="289" y="73" width="1" height="1" fill="#D9D9D9" fill-opacity="0.15"/>
<rect x="181" y="73" width="1" height="1" fill="#D9D9D9" fill-opacity="0.15"/>
<rect x="190" y="100" width="1" height="1" fill="#D9D9D9" fill-opacity="0.15"/>
<rect x="82" y="100" width="1" height="1" fill="#D9D9D9" fill-opacity="0.15"/>
<rect x="298" y="100" width="1" height="1" fill="#D9D9D9" fill-opacity="0.15"/>
<rect x="190" y="64" width="1" height="1" fill="#D9D9D9" fill-opacity="0.15"/>
<rect x="82" y="64" width="1" height="1" fill="#D9D9D9" fill-opacity="0.15"/>
<rect x="298" y="64" width="1" height="1" fill="#D9D9D9" fill-opacity="0.15"/>
<rect x="1" y="100" width="1" height="1" fill="#D9D9D9" fill-opacity="0.15"/>
<rect x="217" y="100" width="1" height="1" fill="#D9D9D9" fill-opacity="0.15"/>
<rect x="109" y="100" width="1" height="1" fill="#D9D9D9" fill-opacity="0.15"/>
<rect x="325" y="100" width="1" height="1" fill="#D9D9D9" fill-opacity="0.15"/>
<rect x="1" y="64" width="1" height="1" fill="#D9D9D9" fill-opacity="0.15"/>
<rect x="217" y="64" width="1" height="1" fill="#D9D9D9" fill-opacity="0.15"/>
<rect x="109" y="64" width="1" height="1" fill="#D9D9D9" fill-opacity="0.15"/>
<rect x="325" y="64" width="1" height="1" fill="#D9D9D9" fill-opacity="0.15"/>
<rect x="199" y="100" width="1" height="1" fill="#D9D9D9" fill-opacity="0.15"/>
<rect x="91" y="100" width="1" height="1" fill="#D9D9D9" fill-opacity="0.15"/>
<rect x="307" y="100" width="1" height="1" fill="#D9D9D9" fill-opacity="0.15"/>
<rect x="199" y="64" width="1" height="1" fill="#D9D9D9" fill-opacity="0.15"/>
<rect x="91" y="64" width="1" height="1" fill="#D9D9D9" fill-opacity="0.15"/>
<rect x="307" y="64" width="1" height="1" fill="#D9D9D9" fill-opacity="0.15"/>
<rect x="10" y="100" width="1" height="1" fill="#D9D9D9" fill-opacity="0.15"/>
<rect x="226" y="100" width="1" height="1" fill="#D9D9D9" fill-opacity="0.15"/>
<rect x="118" y="100" width="1" height="1" fill="#D9D9D9" fill-opacity="0.15"/>
<rect x="334" y="100" width="1" height="1" fill="#D9D9D9" fill-opacity="0.15"/>
<rect x="10" y="64" width="1" height="1" fill="#D9D9D9" fill-opacity="0.15"/>
<rect x="226" y="64" width="1" height="1" fill="#D9D9D9" fill-opacity="0.15"/>
<rect x="118" y="64" width="1" height="1" fill="#D9D9D9" fill-opacity="0.15"/>
<rect x="334" y="64" width="1" height="1" fill="#D9D9D9" fill-opacity="0.15"/>
<rect x="208" y="100" width="1" height="1" fill="#D9D9D9" fill-opacity="0.15"/>
<rect x="100" y="100" width="1" height="1" fill="#D9D9D9" fill-opacity="0.15"/>
<rect x="316" y="100" width="1" height="1" fill="#D9D9D9" fill-opacity="0.15"/>
<rect x="208" y="64" width="1" height="1" fill="#D9D9D9" fill-opacity="0.15"/>
<rect x="100" y="64" width="1" height="1" fill="#D9D9D9" fill-opacity="0.15"/>
<rect x="316" y="64" width="1" height="1" fill="#D9D9D9" fill-opacity="0.15"/>
<rect x="19" y="100" width="1" height="1" fill="#D9D9D9" fill-opacity="0.15"/>
<rect x="235" y="100" width="1" height="1" fill="#D9D9D9" fill-opacity="0.15"/>
<rect x="127" y="100" width="1" height="1" fill="#D9D9D9" fill-opacity="0.15"/>
<rect x="343" y="100" width="1" height="1" fill="#D9D9D9" fill-opacity="0.15"/>
<rect x="19" y="64" width="1" height="1" fill="#D9D9D9" fill-opacity="0.15"/>
<rect x="235" y="64" width="1" height="1" fill="#D9D9D9" fill-opacity="0.15"/>
<rect x="127" y="64" width="1" height="1" fill="#D9D9D9" fill-opacity="0.15"/>
<rect x="343" y="64" width="1" height="1" fill="#D9D9D9" fill-opacity="0.15"/>
<rect x="28" y="100" width="1" height="1" fill="#D9D9D9" fill-opacity="0.15"/>
<rect x="244" y="100" width="1" height="1" fill="#D9D9D9" fill-opacity="0.15"/>
<rect x="136" y="100" width="1" height="1" fill="#D9D9D9" fill-opacity="0.15"/>
<rect x="28" y="64" width="1" height="1" fill="#D9D9D9" fill-opacity="0.15"/>
<rect x="244" y="64" width="1" height="1" fill="#D9D9D9" fill-opacity="0.15"/>
<rect x="136" y="64" width="1" height="1" fill="#D9D9D9" fill-opacity="0.15"/>
<rect x="55" y="100" width="1" height="1" fill="#D9D9D9" fill-opacity="0.15"/>
<rect x="271" y="100" width="1" height="1" fill="#D9D9D9" fill-opacity="0.15"/>
<rect x="163" y="100" width="1" height="1" fill="#D9D9D9" fill-opacity="0.15"/>
<rect x="55" y="64" width="1" height="1" fill="#D9D9D9" fill-opacity="0.15"/>
<rect x="271" y="64" width="1" height="1" fill="#D9D9D9" fill-opacity="0.15"/>
<rect x="163" y="64" width="1" height="1" fill="#D9D9D9" fill-opacity="0.15"/>
<rect x="37" y="100" width="1" height="1" fill="#D9D9D9" fill-opacity="0.15"/>
<rect x="253" y="100" width="1" height="1" fill="#D9D9D9" fill-opacity="0.15"/>
<rect x="145" y="100" width="1" height="1" fill="#D9D9D9" fill-opacity="0.15"/>
<rect x="37" y="64" width="1" height="1" fill="#D9D9D9" fill-opacity="0.15"/>
<rect x="253" y="64" width="1" height="1" fill="#D9D9D9" fill-opacity="0.15"/>
<rect x="145" y="64" width="1" height="1" fill="#D9D9D9" fill-opacity="0.15"/>
<rect x="64" y="100" width="1" height="1" fill="#D9D9D9" fill-opacity="0.15"/>
<rect x="280" y="100" width="1" height="1" fill="#D9D9D9" fill-opacity="0.15"/>
<rect x="172" y="100" width="1" height="1" fill="#D9D9D9" fill-opacity="0.15"/>
<rect x="64" y="64" width="1" height="1" fill="#D9D9D9" fill-opacity="0.15"/>
<rect x="280" y="64" width="1" height="1" fill="#D9D9D9" fill-opacity="0.15"/>
<rect x="172" y="64" width="1" height="1" fill="#D9D9D9" fill-opacity="0.15"/>
<rect x="46" y="100" width="1" height="1" fill="#D9D9D9" fill-opacity="0.15"/>
<rect x="262" y="100" width="1" height="1" fill="#D9D9D9" fill-opacity="0.15"/>
<rect x="154" y="100" width="1" height="1" fill="#D9D9D9" fill-opacity="0.15"/>
<rect x="46" y="64" width="1" height="1" fill="#D9D9D9" fill-opacity="0.15"/>
<rect x="262" y="64" width="1" height="1" fill="#D9D9D9" fill-opacity="0.15"/>
<rect x="154" y="64" width="1" height="1" fill="#D9D9D9" fill-opacity="0.15"/>
<rect x="73" y="100" width="1" height="1" fill="#D9D9D9" fill-opacity="0.15"/>
<rect x="289" y="100" width="1" height="1" fill="#D9D9D9" fill-opacity="0.15"/>
<rect x="181" y="100" width="1" height="1" fill="#D9D9D9" fill-opacity="0.15"/>
<rect x="73" y="64" width="1" height="1" fill="#D9D9D9" fill-opacity="0.15"/>
<rect x="289" y="64" width="1" height="1" fill="#D9D9D9" fill-opacity="0.15"/>
<rect x="181" y="64" width="1" height="1" fill="#D9D9D9" fill-opacity="0.15"/>
<path opacity="0.4" d="M351 126L351 139L347 142L347 123L351 126Z" fill="white"/>
<path d="M351 126L351 127L347 124L347 123L351 126Z" fill="#FFFB00"/>
<path d="M351 124L351 125L347 122L347 121L351 124Z" fill="#FFFB00"/>
<path d="M351 122L351 123L347 120L347 119L351 122Z" fill="#FFFB00"/>
<path d="M351 120L351 121L347 118L347 117L351 120Z" fill="#FFFB00"/>
</g>
<path d="M166 53H186" stroke="#FFFB00" stroke-width="2"/>
<path d="M169 55H183" stroke="#FFFB00" stroke-width="2"/>
<path fill-rule="evenodd" clip-rule="evenodd" d="M158.686 52L82 52.176V72.0601L88.6542 76H91.1707V75H93.4634V76H96.9024V75H98.0488V76H99.1951V75H108.366V76H109.512V75H112.951V76H263.363V75.805L263.506 75.8977L270 72.0601V52.176L193.314 52L187.288 56.5278H164.712L158.686 52Z" fill="#9AA011"/>
<path d="M82 52.176L81.9989 51.676L81.5 51.6771V52.176H82ZM158.686 52L158.986 51.6003L158.852 51.4996L158.685 51.5L158.686 52ZM82 72.0601H81.5V72.3451L81.7453 72.4903L82 72.0601ZM88.6542 76L88.3995 76.4302L88.5173 76.5H88.6542V76ZM91.1707 76V76.5H91.6707V76H91.1707ZM91.1707 75V74.5H90.6707V75H91.1707ZM93.4634 75H93.9634V74.5H93.4634V75ZM93.4634 76H92.9634V76.5H93.4634V76ZM96.9024 76V76.5H97.4024V76H96.9024ZM96.9024 75V74.5H96.4024V75H96.9024ZM98.0488 75H98.5488V74.5H98.0488V75ZM98.0488 76H97.5488V76.5H98.0488V76ZM99.1951 76V76.5H99.6951V76H99.1951ZM99.1951 75V74.5H98.6951V75H99.1951ZM108.366 75H108.866V74.5H108.366V75ZM108.366 76H107.866V76.5H108.366V76ZM109.512 76V76.5H110.012V76H109.512ZM109.512 75V74.5H109.012V75H109.512ZM112.951 75H113.451V74.5H112.951V75ZM112.951 76H112.451V76.5H112.951V76ZM263.363 76V76.5H263.863V76H263.363ZM263.363 75.805L263.635 75.3854L262.863 74.8853V75.805H263.363ZM263.506 75.8977L263.235 76.3174L263.494 76.4857L263.761 76.3282L263.506 75.8977ZM270 72.0601L270.254 72.4905L270.5 72.3454V72.0601H270ZM270 52.176H270.5V51.6771L270.001 51.676L270 52.176ZM193.314 52L193.315 51.5L193.148 51.4996L193.014 51.6003L193.314 52ZM187.288 56.5278V57.0278H187.455L187.588 56.9275L187.288 56.5278ZM164.712 56.5278L164.412 56.9275L164.545 57.0278H164.712V56.5278ZM82.0011 52.676L158.687 52.5L158.685 51.5L81.9989 51.676L82.0011 52.676ZM82.5 72.0601V52.176H81.5V72.0601H82.5ZM88.909 75.5698L82.2547 71.6299L81.7453 72.4903L88.3995 76.4302L88.909 75.5698ZM91.1707 75.5H88.6542V76.5H91.1707V75.5ZM90.6707 75V76H91.6707V75H90.6707ZM93.4634 74.5H91.1707V75.5H93.4634V74.5ZM93.9634 76V75H92.9634V76H93.9634ZM96.9024 75.5H93.4634V76.5H96.9024V75.5ZM96.4024 75V76H97.4024V75H96.4024ZM98.0488 74.5H96.9024V75.5H98.0488V74.5ZM98.5488 76V75H97.5488V76H98.5488ZM99.1951 75.5H98.0488V76.5H99.1951V75.5ZM98.6951 75V76H99.6951V75H98.6951ZM108.366 74.5H99.1951V75.5H108.366V74.5ZM108.866 76V75H107.866V76H108.866ZM109.512 75.5H108.366V76.5H109.512V75.5ZM109.012 75V76H110.012V75H109.012ZM112.951 74.5H109.512V75.5H112.951V74.5ZM113.451 76V75H112.451V76H113.451ZM263.363 75.5H112.951V76.5H263.363V75.5ZM262.863 75.805V76H263.863V75.805H262.863ZM263.778 75.4781L263.635 75.3854L263.091 76.2246L263.235 76.3174L263.778 75.4781ZM269.746 71.6296L263.252 75.4673L263.761 76.3282L270.254 72.4905L269.746 71.6296ZM269.5 52.176V72.0601H270.5V52.176H269.5ZM193.313 52.5L269.999 52.676L270.001 51.676L193.315 51.5L193.313 52.5ZM187.588 56.9275L193.615 52.3997L193.014 51.6003L186.988 56.128L187.588 56.9275ZM164.712 57.0278H187.288V56.0278H164.712V57.0278ZM158.385 52.3997L164.412 56.9275L165.012 56.128L158.986 51.6003L158.385 52.3997Z" fill="#FFFB00"/>
<path d="M351 67L351 102L347 99L347 64L351 67Z" fill="#FFFB00"/>
<path d="M1 70V64H7" stroke="#FFFB00" stroke-width="2"/>
<path d="M58.5 221.5H78" stroke="#60F4FF" stroke-opacity="0.7" stroke-width="3"/>
<path d="M83.5 221.5H88" stroke="#60F4FF" stroke-opacity="0.7" stroke-width="3"/>
<path d="M92 221.5H94" stroke="#60F4FF" stroke-opacity="0.7" stroke-width="3"/>
<path d="M95 221.5H96.5" stroke="#60F4FF" stroke-opacity="0.7" stroke-width="3"/>
<path d="M263.5 219.5H283" stroke="#60F4FF" stroke-opacity="0.5" stroke-width="2"/>
<path d="M297 219.5H299" stroke="#60F4FF" stroke-opacity="0.5" stroke-width="2"/>
<path d="M300 219.5H301.5" stroke="#60F4FF" stroke-opacity="0.5" stroke-width="2"/>
<path d="M7.55787e-05 211L0 213.707L7.43941 220.854H344.5L350.939 214.707V212L344.086 218.854L7.85363 218.854L7.55787e-05 211Z" fill="#FFFB00"/>
<path d="M149 20.3478L176 0L203 20.5263L192.2 52H159.8L149 20.3478Z" fill="black" fill-opacity="0.4"/>
<path fill-rule="evenodd" clip-rule="evenodd" d="M159.999 11.4706L176 0L192.001 11.4706L181.838 19.1146H180.377C180.147 18.5823 179.617 18.2098 179 18.2098C178.172 18.2098 177.5 18.8813 177.5 19.7098C177.5 20.5382 178.172 21.2098 179 21.2098C179.688 21.2098 180.268 20.7464 180.445 20.1146H182.162L192.851 12.08L204 20.0721L197.494 39.6654L184.762 30.0952H184.045C183.868 29.4634 183.288 29 182.6 29C181.772 29 181.1 29.6716 181.1 30.5C181.1 31.3284 181.772 32 182.6 32C183.217 32 183.747 31.6275 183.977 31.0952H184.438L197.162 40.6653L193.233 52.5H158.767L154.838 40.6653L167.562 31.0952H168.023C168.253 31.6275 168.783 32 169.4 32C170.228 32 170.9 31.3284 170.9 30.5C170.9 29.6716 170.228 29 169.4 29C168.712 29 168.132 29.4634 167.955 30.0952H167.238L154.506 39.6654L148 20.0721L159.149 12.08L169.838 20.1146H171.555C171.732 20.7464 172.312 21.2098 173 21.2098C173.828 21.2098 174.5 20.5382 174.5 19.7098C174.5 18.8813 173.828 18.2098 173 18.2098C172.383 18.2098 171.853 18.5823 171.623 19.1146H170.162L159.999 11.4706ZM191.87 51.5L176.05 40.0861L176 40.1281L175.95 40.0861L160.13 51.5H191.87ZM176 38.8171L191.5 50L189.55 36.1812L188.42 35.3314L190.182 47.8159L176.578 38.0011L187.243 34.4461L186.272 33.7157L176 37.1396L165.728 33.7157L164.757 34.4461L175.422 38.0011L161.818 47.8159L163.58 35.3314L162.45 36.1812L160.5 50L176 38.8171ZM176 5.11987L182.537 17.3378L183.345 16.7295L176 3L168.655 16.7295L169.463 17.3378L176 5.11987ZM168.21 20.1417L164.946 30.5563L163.576 31.5868L167.362 19.5042L168.21 20.1417ZM153.226 22.3704L162.769 32.1928L161.964 32.7985L150.5 21L166.002 18.4825L167.111 19.3157L153.733 21.4881L160.492 23.8359C160.767 23.4924 161.19 23.2723 161.664 23.2723C162.492 23.2723 163.164 23.9438 163.164 24.7723C163.164 25.6007 162.492 26.2723 161.664 26.2723C160.838 26.2723 160.168 25.6052 160.164 24.7806L153.226 22.3704ZM149.479 21.3839L161.158 33.4041L155.015 38.0214L149.479 21.3839ZM159.344 51.0323L156.014 41.0221L161.32 37.0309L159.344 51.0323ZM167.846 16.1214L175.696 1.44824L161.688 11.4899L167.846 16.1214ZM159.135 13.3204L164.894 17.6494L149.641 20.1264L159.135 13.3204ZM183.79 20.1417L187.054 30.5563L188.424 31.5868L184.638 19.5042L183.79 20.1417ZM198.774 22.3704L189.231 32.1928L190.036 32.7985L201.5 21L185.998 18.4825L184.889 19.3157L198.267 21.4881L191.508 23.8359C191.233 23.4924 190.81 23.2723 190.336 23.2723C189.508 23.2723 188.836 23.9438 188.836 24.7723C188.836 25.6007 189.508 26.2723 190.336 26.2723C191.162 26.2723 191.832 25.6052 191.836 24.7806L198.774 22.3704ZM202.521 21.3839L190.842 33.4041L196.985 38.0214L202.521 21.3839ZM192.656 51.0323L195.986 41.0221L190.68 37.0309L192.656 51.0323ZM184.154 16.1214L176.304 1.44824L190.312 11.4899L184.154 16.1214ZM192.865 13.3204L187.106 17.6494L202.359 20.1264L192.865 13.3204Z" fill="#FFFB00"/>
<defs>
<clipPath id="clip0_205_173">
<rect width="351" height="158" fill="white" transform="translate(0 63)"/>
</clipPath>
</defs>
</svg>
