<svg width="393" height="156" viewBox="0 0 393 156" fill="none" xmlns="http://www.w3.org/2000/svg">
<path d="M397 37L336.476 37L329.759 47L64.1126 47L57.3955 37L-3 37" stroke="white" stroke-opacity="0.2" stroke-width="2"/>
<path d="M362 150L367.5 155.5" stroke="white" stroke-opacity="0.2"/>
<path d="M367.5 150L362 155.5" stroke="white" stroke-opacity="0.2"/>
<path d="M372 150L377.5 155.5" stroke="white" stroke-opacity="0.2"/>
<path d="M377.5 150L372 155.5" stroke="white" stroke-opacity="0.2"/>
<path d="M382 150L387.5 155.5" stroke="white" stroke-opacity="0.2"/>
<path d="M387.5 150L382 155.5" stroke="white" stroke-opacity="0.2"/>
<path fill-rule="evenodd" clip-rule="evenodd" d="M337.418 28.2654L342.418 20.2654L341.57 19.7354L336.57 27.7354L337.418 28.2654ZM347.424 20.2654L342.424 28.2654L341.576 27.7354L346.576 19.7354L347.424 20.2654ZM357.424 20.2654L352.424 28.2654L351.576 27.7354L356.576 19.7354L357.424 20.2654ZM362.424 28.2654L367.424 20.2654L366.576 19.7354L361.576 27.7354L362.424 28.2654ZM377.424 20.2654L372.424 28.2654L371.576 27.7354L376.576 19.7354L377.424 20.2654ZM352.424 20.2654L347.424 28.2654L346.576 27.7354L351.576 19.7354L352.424 20.2654ZM357.424 28.2654L362.424 20.2654L361.576 19.7354L356.576 27.7354L357.424 28.2654ZM372.424 20.2654L367.424 28.2654L366.576 27.7354L371.576 19.7354L372.424 20.2654Z" fill="white" fill-opacity="0.2"/>
<path d="M388 95.0119L386.18 95.0119L386.18 99.6619L385.02 99.6619L380.8 94.9819L380.8 93.8219L384.98 93.8219L384.98 92.7819L386.18 92.7819L386.18 93.8219L388 93.8219L388 95.0119ZM384.98 97.8519L384.98 95.0119L382.58 95.0119L384.98 97.8519ZM388 90.1072C388 90.3539 387.94 90.5805 387.82 90.7872C387.693 90.9872 387.53 91.1472 387.33 91.2672C387.13 91.3872 386.907 91.4472 386.66 91.4472L386.23 91.4472L386.23 90.2572L386.62 90.2572C386.673 90.2572 386.72 90.2405 386.76 90.2072C386.793 90.1672 386.81 90.1205 386.81 90.0672L386.81 85.6572C386.81 85.6105 386.793 85.5705 386.76 85.5372C386.72 85.4972 386.673 85.4772 386.62 85.4772L385.11 85.4772C385.057 85.4772 385.013 85.4972 384.98 85.5372C384.94 85.5705 384.92 85.6105 384.92 85.6572L384.92 91.4472L380.8 91.4472L380.8 84.2872L381.99 84.2872L381.99 90.0672C381.99 90.1205 382.01 90.1672 382.05 90.2072C382.083 90.2405 382.127 90.2572 382.18 90.2572L383.53 90.2572C383.583 90.2572 383.63 90.2405 383.67 90.2072C383.703 90.1672 383.72 90.1205 383.72 90.0672L383.72 85.6272C383.72 85.3805 383.78 85.1572 383.9 84.9572C384.02 84.7505 384.183 84.5872 384.39 84.4672C384.59 84.3472 384.813 84.2872 385.06 84.2872L386.66 84.2872C386.907 84.2872 387.13 84.3472 387.33 84.4672C387.53 84.5872 387.693 84.7505 387.82 84.9572C387.94 85.1572 388 85.3805 388 85.6272L388 90.1072ZM388 81.4064C388 81.6531 387.937 81.8797 387.81 82.0864C387.677 82.2864 387.503 82.4464 387.29 82.5664C387.077 82.6864 386.85 82.7464 386.61 82.7464L382.16 82.7464C381.913 82.7464 381.687 82.6864 381.48 82.5664C381.273 82.4464 381.11 82.2864 380.99 82.0864C380.863 81.8797 380.8 81.6531 380.8 81.4064L380.8 76.9264C380.8 76.6797 380.863 76.4564 380.99 76.2564C381.11 76.0497 381.273 75.8864 381.48 75.7664C381.687 75.6464 381.913 75.5864 382.16 75.5864L386.61 75.5864C386.85 75.5864 387.077 75.6464 387.29 75.7664C387.503 75.8864 387.677 76.0497 387.81 76.2564C387.937 76.4564 388 76.6797 388 76.9264L388 81.4064ZM386.75 81.0764L386.75 76.9564C386.75 76.9097 386.733 76.8697 386.7 76.8364C386.66 76.7964 386.617 76.7764 386.57 76.7764L383.18 76.7764L386.75 81.0764ZM385.59 81.5564L382.02 77.2564L382.02 81.3664C382.02 81.4197 382.04 81.4664 382.08 81.5064C382.113 81.5397 382.153 81.5564 382.2 81.5564L385.59 81.5564ZM388 70.618L382.15 70.618C381.903 70.618 381.677 70.558 381.47 70.438C381.263 70.318 381.1 70.1547 380.98 69.948C380.86 69.7414 380.8 69.5147 380.8 69.268L380.8 64.768C380.8 64.5214 380.86 64.298 380.98 64.098C381.1 63.8914 381.263 63.728 381.47 63.608C381.677 63.4814 381.903 63.418 382.15 63.418L388 63.418L388 64.628L385.53 64.628L385.53 69.418L388 69.418L388 70.618ZM384.33 69.418L384.33 64.628L382.19 64.628C382.137 64.628 382.093 64.648 382.06 64.688C382.027 64.7214 382.01 64.7614 382.01 64.808L382.01 69.238C382.01 69.2847 382.027 69.328 382.06 69.368C382.093 69.4014 382.137 69.418 382.19 69.418L384.33 69.418ZM388 61.8587L382.15 61.8587C381.903 61.8587 381.677 61.7987 381.47 61.6787C381.263 61.5587 381.1 61.3953 380.98 61.1887C380.86 60.982 380.8 60.7553 380.8 60.5087L380.8 56.0087C380.8 55.762 380.86 55.5387 380.98 55.3387C381.1 55.132 381.263 54.9687 381.47 54.8487C381.677 54.722 381.903 54.6587 382.15 54.6587L388 54.6587L388 55.8687L385.53 55.8687L385.53 60.6587L388 60.6587L388 61.8587ZM384.33 60.6587L384.33 55.8687L382.19 55.8687C382.137 55.8687 382.093 55.8887 382.06 55.9287C382.027 55.962 382.01 56.002 382.01 56.0487L382.01 60.4787C382.01 60.5253 382.027 60.5687 382.06 60.6087C382.093 60.642 382.137 60.6587 382.19 60.6587L384.33 60.6587ZM388 49.7308L385.25 49.7308C385.003 49.7308 384.78 49.6708 384.58 49.5508C384.373 49.4308 384.213 49.2708 384.1 49.0708C383.98 48.8641 383.92 48.6374 383.92 48.3908L383.92 43.9408C383.92 43.8941 383.903 43.8541 383.87 43.8208C383.83 43.7808 383.783 43.7608 383.73 43.7608L382.18 43.7608C382.127 43.7608 382.083 43.7808 382.05 43.8208C382.01 43.8541 381.99 43.8941 381.99 43.9408L381.99 48.3508C381.99 48.4041 382.01 48.4508 382.05 48.4908C382.083 48.5241 382.127 48.5408 382.18 48.5408L382.62 48.5408L382.62 49.7308L382.14 49.7308C381.887 49.7308 381.66 49.6708 381.46 49.5508C381.26 49.4308 381.1 49.2708 380.98 49.0708C380.86 48.8641 380.8 48.6374 380.8 48.3908L380.8 43.9108C380.8 43.6641 380.86 43.4408 380.98 43.2408C381.1 43.0341 381.26 42.8708 381.46 42.7508C381.66 42.6308 381.887 42.5708 382.14 42.5708L383.77 42.5708C384.017 42.5708 384.243 42.6308 384.45 42.7508C384.65 42.8708 384.813 43.0341 384.94 43.2408C385.06 43.4408 385.12 43.6641 385.12 43.9108L385.12 48.3508C385.12 48.4041 385.137 48.4508 385.17 48.4908C385.203 48.5241 385.247 48.5408 385.3 48.5408L386.62 48.5408C386.673 48.5408 386.72 48.5241 386.76 48.4908C386.793 48.4508 386.81 48.4041 386.81 48.3508L386.81 42.5708L388 42.5708L388 49.7308Z" fill="white" fill-opacity="0.2"/>
</svg>
