<svg width="342" height="45" viewBox="0 0 342 45" fill="none" xmlns="http://www.w3.org/2000/svg">
<path d="M274.5 32H294" stroke="#FFFB00" stroke-opacity="0.4"/>
<path d="M299.5 32H304" stroke="#FFFB00" stroke-opacity="0.4"/>
<path d="M308 32H310" stroke="#FFFB00" stroke-opacity="0.4"/>
<path d="M311 32H312.5" stroke="#FFFB00" stroke-opacity="0.4"/>
<path d="M86 32H0" stroke="#FFFB00" stroke-opacity="0.3"/>
<path d="M342 32H256" stroke="#FFFB00" stroke-opacity="0.3"/>
<path fill-rule="evenodd" clip-rule="evenodd" d="M156.686 20L80 20.176V40.0601L86.6542 44H89.1707V43H91.4634V44H94.9024V43H96.0488V44H97.1951V43H106.366V44H107.512V43H110.951V44H261.363V43.805L261.506 43.8977L268 40.0601V20.176L191.314 20L185.288 24.5278H162.712L156.686 20Z" fill="#FFFB00" fill-opacity="0.6"/>
<path d="M80 20.176L79.9989 19.676L79.5 19.6771V20.176H80ZM156.686 20L156.986 19.6003L156.852 19.4996L156.685 19.5L156.686 20ZM80 40.0601H79.5V40.3451L79.7453 40.4903L80 40.0601ZM86.6542 44L86.3995 44.4302L86.5173 44.5H86.6542V44ZM89.1707 44V44.5H89.6707V44H89.1707ZM89.1707 43V42.5H88.6707V43H89.1707ZM91.4634 43H91.9634V42.5H91.4634V43ZM91.4634 44H90.9634V44.5H91.4634V44ZM94.9024 44V44.5H95.4024V44H94.9024ZM94.9024 43V42.5H94.4024V43H94.9024ZM96.0488 43H96.5488V42.5H96.0488V43ZM96.0488 44H95.5488V44.5H96.0488V44ZM97.1951 44V44.5H97.6951V44H97.1951ZM97.1951 43V42.5H96.6951V43H97.1951ZM106.366 43H106.866V42.5H106.366V43ZM106.366 44H105.866V44.5H106.366V44ZM107.512 44V44.5H108.012V44H107.512ZM107.512 43V42.5H107.012V43H107.512ZM110.951 43H111.451V42.5H110.951V43ZM110.951 44H110.451V44.5H110.951V44ZM261.363 44V44.5H261.863V44H261.363ZM261.363 43.805L261.635 43.3854L260.863 42.8853V43.805H261.363ZM261.506 43.8977L261.235 44.3174L261.494 44.4857L261.761 44.3282L261.506 43.8977ZM268 40.0601L268.254 40.4905L268.5 40.3454V40.0601H268ZM268 20.176H268.5V19.6771L268.001 19.676L268 20.176ZM191.314 20L191.315 19.5L191.148 19.4996L191.014 19.6003L191.314 20ZM185.288 24.5278V25.0278H185.455L185.588 24.9275L185.288 24.5278ZM162.712 24.5278L162.412 24.9275L162.545 25.0278H162.712V24.5278ZM80.0011 20.676L156.687 20.5L156.685 19.5L79.9989 19.676L80.0011 20.676ZM80.5 40.0601V20.176H79.5V40.0601H80.5ZM86.909 43.5698L80.2547 39.6299L79.7453 40.4903L86.3995 44.4302L86.909 43.5698ZM89.1707 43.5H86.6542V44.5H89.1707V43.5ZM88.6707 43V44H89.6707V43H88.6707ZM91.4634 42.5H89.1707V43.5H91.4634V42.5ZM91.9634 44V43H90.9634V44H91.9634ZM94.9024 43.5H91.4634V44.5H94.9024V43.5ZM94.4024 43V44H95.4024V43H94.4024ZM96.0488 42.5H94.9024V43.5H96.0488V42.5ZM96.5488 44V43H95.5488V44H96.5488ZM97.1951 43.5H96.0488V44.5H97.1951V43.5ZM96.6951 43V44H97.6951V43H96.6951ZM106.366 42.5H97.1951V43.5H106.366V42.5ZM106.866 44V43H105.866V44H106.866ZM107.512 43.5H106.366V44.5H107.512V43.5ZM107.012 43V44H108.012V43H107.012ZM110.951 42.5H107.512V43.5H110.951V42.5ZM111.451 44V43H110.451V44H111.451ZM261.363 43.5H110.951V44.5H261.363V43.5ZM260.863 43.805V44H261.863V43.805H260.863ZM261.778 43.4781L261.635 43.3854L261.091 44.2246L261.235 44.3174L261.778 43.4781ZM267.746 39.6296L261.252 43.4673L261.761 44.3282L268.254 40.4905L267.746 39.6296ZM267.5 20.176V40.0601H268.5V20.176H267.5ZM191.313 20.5L267.999 20.676L268.001 19.676L191.315 19.5L191.313 20.5ZM185.588 24.9275L191.615 20.3997L191.014 19.6003L184.988 24.128L185.588 24.9275ZM162.712 25.0278H185.288V24.0278H162.712V25.0278ZM156.385 20.3997L162.412 24.9275L163.012 24.128L156.986 19.6003L156.385 20.3997Z" fill="#FFFB00"/>
<path d="M118.713 38V34.772L114.717 29.36H116.937L119.649 32.768L122.349 29.36L124.593 29.36L120.585 34.784V38L118.713 38ZM127.517 38C127.197 38 126.901 37.92 126.629 37.76C126.357 37.6 126.141 37.384 125.981 37.112C125.821 36.84 125.741 36.544 125.741 36.224V31.136C125.741 30.808 125.821 30.512 125.981 30.248C126.141 29.976 126.357 29.76 126.629 29.6C126.901 29.44 127.197 29.36 127.517 29.36H132.605C132.925 29.36 133.217 29.44 133.481 29.6C133.753 29.76 133.969 29.976 134.129 30.248C134.297 30.512 134.381 30.808 134.381 31.136V36.224C134.381 36.544 134.297 36.84 134.129 37.112C133.969 37.384 133.753 37.6 133.481 37.76C133.217 37.92 132.925 38 132.605 38H127.517ZM127.601 36.128H132.497V31.232H127.601V36.128ZM138.054 38C137.734 38 137.438 37.92 137.166 37.76C136.894 37.6 136.678 37.384 136.518 37.112C136.358 36.84 136.278 36.544 136.278 36.224V29.36H138.138V36.128H143.034V29.36H144.918V36.224C144.918 36.544 144.834 36.84 144.666 37.112C144.506 37.384 144.29 37.6 144.018 37.76C143.754 37.92 143.462 38 143.142 38H138.054ZM153.548 38L151.04 35.012L153.476 35.012L155.468 37.364V38H153.548ZM146.84 38V29.372L153.692 29.372C154.02 29.372 154.316 29.452 154.58 29.612C154.852 29.772 155.068 29.988 155.228 30.26C155.396 30.532 155.48 30.828 155.48 31.148V33.38C155.48 33.7 155.396 33.996 155.228 34.268C155.068 34.54 154.852 34.756 154.58 34.916C154.316 35.076 154.02 35.156 153.692 35.156L148.7 35.168V38H146.84ZM148.7 33.284H153.596V31.232L148.7 31.232V33.284ZM161.845 38V29.36L168.373 29.36C168.693 29.36 168.985 29.44 169.249 29.6C169.521 29.76 169.737 29.976 169.897 30.248C170.065 30.512 170.149 30.808 170.149 31.136V32.756C170.149 32.86 170.141 32.96 170.125 33.056C170.117 33.144 170.097 33.228 170.065 33.308C170.185 33.46 170.285 33.636 170.365 33.836C170.445 34.036 170.485 34.236 170.485 34.436V36.224C170.485 36.544 170.401 36.84 170.233 37.112C170.073 37.384 169.857 37.6 169.585 37.76C169.321 37.92 169.025 38 168.697 38H161.845ZM163.705 36.128H168.601V34.544H163.705V36.128ZM163.705 32.672H168.265V31.232L163.705 31.232V32.672ZM172.418 38V31.136C172.418 30.808 172.498 30.512 172.658 30.248C172.818 29.976 173.034 29.76 173.306 29.6C173.578 29.44 173.874 29.36 174.194 29.36H179.27C179.598 29.36 179.894 29.44 180.158 29.6C180.43 29.76 180.646 29.976 180.806 30.248C180.974 30.512 181.058 30.808 181.058 31.136V38H179.174V35.216H174.278V38H172.418ZM174.278 33.344H179.174V31.232H174.278V33.344ZM183.037 38V29.348H184.897V36.128H191.677V38H183.037ZM193.001 38V31.136C193.001 30.808 193.081 30.512 193.241 30.248C193.401 29.976 193.617 29.76 193.889 29.6C194.161 29.44 194.457 29.36 194.777 29.36H199.853C200.181 29.36 200.477 29.44 200.741 29.6C201.013 29.76 201.229 29.976 201.389 30.248C201.557 30.512 201.641 30.808 201.641 31.136V38H199.757V35.216H194.861V38H193.001ZM194.861 33.344H199.757V31.232H194.861V33.344ZM203.608 38V29.36H205.528L210.364 35.12V29.36L212.248 29.36V38H210.328L205.468 32.216V38H203.608ZM215.968 38C215.64 38 215.34 37.92 215.068 37.76C214.804 37.6 214.592 37.388 214.432 37.124C214.272 36.852 214.192 36.552 214.192 36.224V31.136C214.192 30.808 214.272 30.512 214.432 30.248C214.592 29.976 214.804 29.76 215.068 29.6C215.34 29.44 215.64 29.36 215.968 29.36H222.808V31.232H216.448C216.32 31.232 216.22 31.264 216.148 31.328C216.084 31.392 216.052 31.492 216.052 31.628V35.732C216.052 35.86 216.084 35.96 216.148 36.032C216.22 36.096 216.32 36.128 216.448 36.128H222.808V38H215.968ZM224.684 38V29.36H232.664V31.232H226.568V32.744H231.476V34.616H226.568V36.128H232.664V38H224.684Z" fill="black"/>
<path fill-rule="evenodd" clip-rule="evenodd" d="M162.238 13L162.762 14L157.411 20.2846L156.589 19.7154L162.238 13Z" fill="#FFFB00"/>
<path fill-rule="evenodd" clip-rule="evenodd" d="M185.762 13L185.238 14L190.589 20.2846L191.411 19.7154L185.762 13Z" fill="#FFFB00"/>
<path d="M160 10.5652L174 0L188 10.6579L182.4 27H165.6L160 10.5652Z" fill="#FFFB00" fill-opacity="0.24"/>
<path fill-rule="evenodd" clip-rule="evenodd" d="M165.999 5.89918L174 0L182.001 5.89918L176.919 9.83038H176.189C176.073 9.5566 175.808 9.36503 175.5 9.36503C175.086 9.36503 174.75 9.71041 174.75 10.1365C174.75 10.5625 175.086 10.9079 175.5 10.9079C175.844 10.9079 176.134 10.6696 176.222 10.3447H177.081L182.426 6.21256L188 10.3228L184.747 20.3994L178.381 15.4775H178.022C177.934 15.1526 177.644 14.9143 177.3 14.9143C176.886 14.9143 176.55 15.2597 176.55 15.6857C176.55 16.1118 176.886 16.4571 177.3 16.4571C177.609 16.4571 177.873 16.2656 177.989 15.9918H178.219L184.581 20.9136L182.616 27H165.384L163.419 20.9136L169.781 15.9918H170.011C170.127 16.2656 170.391 16.4571 170.7 16.4571C171.114 16.4571 171.45 16.1118 171.45 15.6857C171.45 15.2597 171.114 14.9143 170.7 14.9143C170.356 14.9143 170.066 15.1526 169.978 15.4775H169.619L163.253 20.3994L160 10.3228L165.574 6.21256L170.919 10.3447H171.778C171.866 10.6696 172.156 10.9079 172.5 10.9079C172.914 10.9079 173.25 10.5625 173.25 10.1365C173.25 9.71041 172.914 9.36503 172.5 9.36503C172.192 9.36503 171.927 9.5566 171.811 9.83038H171.081L165.999 5.89918ZM181.935 26.4857L174.025 20.6157L174 20.6373L173.975 20.6157L166.065 26.4857H181.935ZM174 19.9631L181.75 25.7143L180.775 18.6075L180.21 18.1704L181.091 24.591L174.289 19.5434L179.622 17.7151L179.136 17.3395L174 19.1004L168.864 17.3395L168.378 17.7151L173.711 19.5434L166.909 24.591L167.79 18.1704L167.225 18.6075L166.25 25.7143L174 19.9631ZM174 2.63308L177.268 8.91659L177.673 8.60374L174 1.54286L170.327 8.60374L170.732 8.91659L174 2.63308ZM170.105 10.3586L168.473 15.7147L167.788 16.2446L169.681 10.0307L170.105 10.3586ZM162.613 11.5048L167.385 16.5563L166.982 16.8678L161.25 10.8L169.001 9.50529L169.555 9.93377L162.867 11.051L166.246 12.2585C166.384 12.0818 166.595 11.9686 166.832 11.9686C167.246 11.9686 167.582 12.314 167.582 12.74C167.582 13.1661 167.246 13.5115 166.832 13.5115C166.419 13.5115 166.084 13.1684 166.082 12.7443L162.613 11.5048ZM160.739 10.9974L166.579 17.1793L163.508 19.5539L160.739 10.9974ZM165.672 26.2452L164.007 21.0971L166.66 19.0445L165.672 26.2452ZM169.923 8.291L173.848 0.74481L166.844 5.9091L169.923 8.291ZM165.567 6.85049L168.447 9.07686L160.82 10.3507L165.567 6.85049ZM177.895 10.3586L179.527 15.7147L180.212 16.2446L178.319 10.0307L177.895 10.3586ZM185.387 11.5048L180.615 16.5563L181.018 16.8678L186.75 10.8L178.999 9.50529L178.445 9.93377L185.133 11.051L181.754 12.2585C181.616 12.0818 181.405 11.9686 181.168 11.9686C180.754 11.9686 180.418 12.314 180.418 12.74C180.418 13.1661 180.754 13.5115 181.168 13.5115C181.581 13.5115 181.916 13.1684 181.918 12.7443L185.387 11.5048ZM187.261 10.9974L181.421 17.1793L184.492 19.5539L187.261 10.9974ZM182.328 26.2452L183.993 21.0971L181.34 19.0445L182.328 26.2452ZM178.077 8.291L174.152 0.74481L181.156 5.9091L178.077 8.291ZM182.433 6.85049L179.553 9.07686L187.18 10.3507L182.433 6.85049Z" fill="#FFFB00"/>
</svg>
