<svg width="197" height="18" viewBox="0 0 197 18" fill="none" xmlns="http://www.w3.org/2000/svg">
<rect x="90" y="17" width="16" height="1" fill="black"/>
<rect x="70" y="12" width="10" height="1" fill="black"/>
<rect x="84" y="5" width="8" height="1" fill="black"/>
<rect x="120" y="11" width="8" height="1" fill="black"/>
<rect x="110" y="7" width="8" height="1" fill="black"/>
<rect x="111" y="1" width="8" height="1" fill="black"/>
<rect x="129" y="17" width="6" height="1" fill="black"/>
<rect x="147" y="8" width="6" height="1" fill="black"/>
<rect x="164" y="12" width="6" height="1" fill="black"/>
<rect x="177" y="17" width="6" height="1" fill="black"/>
<rect x="170" y="7" width="6" height="1" fill="black"/>
<rect x="161" y="1" width="6" height="1" fill="black"/>
<rect x="185" y="15" width="6" height="1" fill="black"/>
<rect x="189" y="4" width="6" height="1" fill="black"/>
<rect x="79" y="1" width="5" height="1" fill="black"/>
<rect x="40" y="13" width="5" height="1" fill="black"/>
<rect x="53" y="17" width="5" height="1" fill="black"/>
<rect x="22" y="17" width="5" height="1" fill="black"/>
<rect x="20" y="15" width="5" height="1" fill="black"/>
<rect x="31" y="4" width="5" height="1" fill="black"/>
<rect x="4" y="1" width="5" height="1" fill="black"/>
<path d="M0 5H6V6H0V5Z" fill="black"/>
<path d="M11 12H17V13H11V12Z" fill="#4BFFF6"/>
<path d="M25 9H31V10H25V9Z" fill="#4BFFF6"/>
<path d="M47 7H53V8H47V7Z" fill="#4BFFF6"/>
<path d="M40 5H46V6H40V5Z" fill="#4BFFF6"/>
<path d="M62 17H68V18H62V17Z" fill="#4BFFF6"/>
<path d="M68 15H74V16H68V15Z" fill="#4BFFF6"/>
<path d="M96 3H102V4H96V3Z" fill="#4BFFF6"/>
<path d="M124 0H130V1H124V0Z" fill="#4BFFF6"/>
<path d="M98 17H104V18H98V17Z" fill="#4BFFF6"/>
<path d="M115 17H121V18H115V17Z" fill="#4BFFF6"/>
<path d="M136 16H142V17H136V16Z" fill="#4BFFF6"/>
<path d="M133 4H139V5H133V4Z" fill="#4BFFF6"/>
<path d="M163 13H169V14H163V13Z" fill="#4BFFF6"/>
<path d="M171 16H177V17H171V16Z" fill="#4BFFF6"/>
<path d="M170 6H176V7H170V6Z" fill="#4BFFF6"/>
<path d="M191 3H197V4H191V3Z" fill="#4BFFF6"/>
<path d="M185 16H187V17H185V16Z" fill="#4BFFF6"/>
<path d="M186 17H188V18H186V17Z" fill="#4BFFF6"/>
<path d="M121 8H127V9H121V8Z" fill="#4BFFF6"/>
</svg>
