<svg width="344" height="44" viewBox="0 0 344 44" fill="none" xmlns="http://www.w3.org/2000/svg">
<path d="M10.5 20.5H30" stroke="#60F4FF" stroke-opacity="0.7" stroke-width="3"/>
<path d="M35.5 20.5H40" stroke="#60F4FF" stroke-opacity="0.7" stroke-width="3"/>
<path d="M44 20.5H46" stroke="#60F4FF" stroke-opacity="0.7" stroke-width="3"/>
<path d="M47 20.5H48.5" stroke="#60F4FF" stroke-opacity="0.7" stroke-width="3"/>
<path d="M295.5 18.5H315" stroke="#60F4FF" stroke-opacity="0.5" stroke-width="2"/>
<path d="M329 18.5H331" stroke="#60F4FF" stroke-opacity="0.5" stroke-width="2"/>
<path d="M332 18.5H333.5" stroke="#60F4FF" stroke-opacity="0.5" stroke-width="2"/>
<path fill-rule="evenodd" clip-rule="evenodd" d="M55.4151 18.8536L54 20L55.0536 20.8536H7.43941L0 13.7071L7.55787e-05 11L7.85363 18.8536H55.4151ZM291.585 18.8536L293 20L291.946 20.8536H337.5L343.646 14.7071L341.939 14L337.086 18.8536H291.585Z" fill="#60F4FF"/>
<path opacity="0.7" d="M271.428 38L276 33.5H71.9998L76.5718 38H271.428Z" fill="url(#paint0_linear_127_167)"/>
<path d="M276 33L271.428 37.5H75.5718L71.5078 33.5" stroke="black"/>
<path opacity="0.1" d="M270.86 4L275 8.5H71L75.14 4H270.86Z" fill="url(#paint1_linear_127_167)"/>
<path opacity="0.3" d="M276 9L271.86 4.5H75.14L71.46 8.5" stroke="#60F4FF"/>
<path d="M54 20L74.875 0H271.125L292 20L270.125 40H74.875L54 20Z" fill="#60F4FF" fill-opacity="0.3"/>
<path d="M54 20L74.875 0H271.125L292 20L270.125 40H74.875L54 20Z" fill="url(#paint2_linear_127_167)" fill-opacity="0.45"/>
<path fill-rule="evenodd" clip-rule="evenodd" d="M273.095 0H73.7895L53 20L73.7895 40H162V38H74.5953L55.8848 20L74.5953 2H272.289L291 20L272.289 38H176V40H273.095L293.885 20L273.095 0Z" fill="#60F4FF"/>
<path fill-rule="evenodd" clip-rule="evenodd" d="M167.95 40.05V44H170.05V40.05H174V37.95L170.05 37.95V34H167.95V37.95L164 37.95V40.05H167.95Z" fill="#60F4FF"/>
<defs>
<linearGradient id="paint0_linear_127_167" x1="169.5" y1="33.5" x2="169.5" y2="38" gradientUnits="userSpaceOnUse">
<stop stop-opacity="0"/>
<stop offset="1"/>
</linearGradient>
<linearGradient id="paint1_linear_127_167" x1="169.5" y1="8.5" x2="169.5" y2="4" gradientUnits="userSpaceOnUse">
<stop stop-color="white" stop-opacity="0"/>
<stop offset="1" stop-color="white"/>
</linearGradient>
<linearGradient id="paint2_linear_127_167" x1="176.5" y1="3.15789" x2="176.5" y2="36.8421" gradientUnits="userSpaceOnUse">
<stop stop-opacity="0"/>
<stop offset="1"/>
</linearGradient>
</defs>
</svg>
