<svg width="393" height="105" viewBox="0 0 393 105" fill="none" xmlns="http://www.w3.org/2000/svg">
<path d="M270.586 0L295.587 25H297.68L298.048 24.6319L273.415 0H288.256L313.257 25H315.35L315.718 24.6319L291.084 0H305.926L330.926 25H333.019L333.387 24.6319L308.754 0H323.596L348.596 25H350.688L351.057 24.6319L326.424 0H341.266L366.267 25H368.359L368.728 24.6319L344.094 0H358.936L383.936 25H386.028L386.396 24.6319L361.764 0H376.606L393 16.3941V69H390V77H393V105L5 105V100H0V54H14V53H0V52H4V51H0V31.8907L31.7847 0.106079L31.6787 6.10352e-05L140 0V5H143V0H144V2H145V0H146V5H149V0H211V8H238V0H270.586Z" fill="#FFFB00"/>
<path d="M393 13.5656V0H379.434L393 13.5656Z" fill="#FFFB00"/>
<path d="M0 26.2339L26.2339 6.10352e-05H20L0 19.5V26.2339Z" fill="#FFFB00"/>
<path d="M0 101V102H3V105H4V101H0Z" fill="#FFFB00"/>
<path d="M393 74V72H391V74H393Z" fill="#FFFB00"/>
<rect x="237" y="58" width="16" height="1" fill="black"/>
<rect x="227" y="43" width="16" height="1" fill="#FFFB00"/>
<rect x="269" y="36" width="5" height="1" fill="#FFFB00"/>
<rect x="118" y="51" width="16" height="1" fill="black"/>
<rect x="132" y="35.6" width="16" height="1" fill="black"/>
<rect x="187" y="33" width="6" height="1" fill="black"/>
<rect x="165" y="44" width="6" height="1" fill="#FFFB00"/>
<rect x="13" y="51" width="1" height="1" fill="black" fill-opacity="0.55"/>
<rect x="121" y="51" width="1" height="1" fill="black" fill-opacity="0.55"/>
<rect x="13" y="15" width="1" height="1" fill="black" fill-opacity="0.55"/>
<rect x="121" y="15" width="1" height="1" fill="black" fill-opacity="0.55"/>
<rect x="40" y="51" width="1" height="1" fill="black" fill-opacity="0.55"/>
<rect x="148" y="51" width="1" height="1" fill="black" fill-opacity="0.55"/>
<rect x="40" y="15" width="1" height="1" fill="black" fill-opacity="0.55"/>
<rect x="148" y="15" width="1" height="1" fill="black" fill-opacity="0.55"/>
<rect x="22" y="51" width="1" height="1" fill="black" fill-opacity="0.55"/>
<rect x="130" y="51" width="1" height="1" fill="black" fill-opacity="0.55"/>
<rect x="22" y="15" width="1" height="1" fill="black" fill-opacity="0.55"/>
<rect x="130" y="15" width="1" height="1" fill="black" fill-opacity="0.55"/>
<rect x="49" y="51" width="1" height="1" fill="black" fill-opacity="0.55"/>
<rect x="157" y="51" width="1" height="1" fill="black" fill-opacity="0.55"/>
<rect x="49" y="15" width="1" height="1" fill="black" fill-opacity="0.55"/>
<rect x="157" y="15" width="1" height="1" fill="black" fill-opacity="0.55"/>
<rect x="31" y="51" width="1" height="1" fill="black" fill-opacity="0.55"/>
<rect x="139" y="51" width="1" height="1" fill="black" fill-opacity="0.55"/>
<rect x="31" y="15" width="1" height="1" fill="black" fill-opacity="0.55"/>
<rect x="139" y="15" width="1" height="1" fill="black" fill-opacity="0.55"/>
<rect x="58" y="51" width="1" height="1" fill="black" fill-opacity="0.55"/>
<rect x="166" y="51" width="1" height="1" fill="black" fill-opacity="0.55"/>
<rect x="58" y="15" width="1" height="1" fill="black" fill-opacity="0.55"/>
<rect x="166" y="15" width="1" height="1" fill="black" fill-opacity="0.55"/>
<rect x="67" y="51" width="1" height="1" fill="black" fill-opacity="0.55"/>
<rect x="175" y="51" width="1" height="1" fill="black" fill-opacity="0.55"/>
<rect x="67" y="15" width="1" height="1" fill="black" fill-opacity="0.55"/>
<rect x="175" y="15" width="1" height="1" fill="black" fill-opacity="0.55"/>
<rect x="94" y="51" width="1" height="1" fill="black" fill-opacity="0.55"/>
<rect x="202" y="51" width="1" height="1" fill="black" fill-opacity="0.55"/>
<rect x="94" y="15" width="1" height="1" fill="black" fill-opacity="0.55"/>
<rect x="202" y="15" width="1" height="1" fill="black" fill-opacity="0.55"/>
<rect x="76" y="51" width="1" height="1" fill="black" fill-opacity="0.55"/>
<rect x="184" y="51" width="1" height="1" fill="black" fill-opacity="0.55"/>
<rect x="76" y="15" width="1" height="1" fill="black" fill-opacity="0.55"/>
<rect x="184" y="15" width="1" height="1" fill="black" fill-opacity="0.55"/>
<rect x="103" y="51" width="1" height="1" fill="black" fill-opacity="0.55"/>
<rect x="211" y="51" width="1" height="1" fill="black" fill-opacity="0.55"/>
<rect x="103" y="15" width="1" height="1" fill="black" fill-opacity="0.55"/>
<rect x="211" y="15" width="1" height="1" fill="black" fill-opacity="0.55"/>
<rect x="85" y="51" width="1" height="1" fill="black" fill-opacity="0.55"/>
<rect x="193" y="51" width="1" height="1" fill="black" fill-opacity="0.55"/>
<rect x="85" y="15" width="1" height="1" fill="black" fill-opacity="0.55"/>
<rect x="193" y="15" width="1" height="1" fill="black" fill-opacity="0.55"/>
<rect x="112" y="51" width="1" height="1" fill="black" fill-opacity="0.55"/>
<rect x="4" y="51" width="1" height="1" fill="black" fill-opacity="0.55"/>
<rect x="220" y="51" width="1" height="1" fill="black" fill-opacity="0.55"/>
<rect x="112" y="15" width="1" height="1" fill="black" fill-opacity="0.55"/>
<rect x="4" y="15" width="1" height="1" fill="black" fill-opacity="0.55"/>
<rect x="220" y="15" width="1" height="1" fill="black" fill-opacity="0.55"/>
<rect x="13" y="42" width="1" height="1" fill="black" fill-opacity="0.55"/>
<rect x="121" y="42" width="1" height="1" fill="black" fill-opacity="0.55"/>
<rect x="13" y="6" width="1" height="1" fill="black" fill-opacity="0.55"/>
<rect x="121" y="6" width="1" height="1" fill="black" fill-opacity="0.55"/>
<rect x="40" y="42" width="1" height="1" fill="black" fill-opacity="0.55"/>
<rect x="148" y="42" width="1" height="1" fill="black" fill-opacity="0.55"/>
<rect x="40" y="6" width="1" height="1" fill="black" fill-opacity="0.55"/>
<rect x="148" y="6" width="1" height="1" fill="black" fill-opacity="0.55"/>
<rect x="22" y="42" width="1" height="1" fill="black" fill-opacity="0.55"/>
<rect x="130" y="42" width="1" height="1" fill="black" fill-opacity="0.55"/>
<rect x="22" y="6" width="1" height="1" fill="black" fill-opacity="0.55"/>
<rect x="130" y="6" width="1" height="1" fill="black" fill-opacity="0.55"/>
<rect x="49" y="42" width="1" height="1" fill="black" fill-opacity="0.55"/>
<rect x="157" y="42" width="1" height="1" fill="black" fill-opacity="0.55"/>
<rect x="49" y="6" width="1" height="1" fill="black" fill-opacity="0.55"/>
<rect x="157" y="6" width="1" height="1" fill="black" fill-opacity="0.55"/>
<rect x="31" y="42" width="1" height="1" fill="black" fill-opacity="0.55"/>
<rect x="139" y="42" width="1" height="1" fill="black" fill-opacity="0.55"/>
<rect x="31" y="6" width="1" height="1" fill="black" fill-opacity="0.55"/>
<rect x="139" y="6" width="1" height="1" fill="black" fill-opacity="0.55"/>
<rect x="58" y="42" width="1" height="1" fill="black" fill-opacity="0.55"/>
<rect x="166" y="42" width="1" height="1" fill="black" fill-opacity="0.55"/>
<rect x="58" y="6" width="1" height="1" fill="black" fill-opacity="0.55"/>
<rect x="166" y="6" width="1" height="1" fill="black" fill-opacity="0.55"/>
<rect x="67" y="42" width="1" height="1" fill="black" fill-opacity="0.55"/>
<rect x="175" y="42" width="1" height="1" fill="black" fill-opacity="0.55"/>
<rect x="67" y="6" width="1" height="1" fill="black" fill-opacity="0.55"/>
<rect x="175" y="6" width="1" height="1" fill="black" fill-opacity="0.55"/>
<rect x="94" y="42" width="1" height="1" fill="black" fill-opacity="0.55"/>
<rect x="202" y="42" width="1" height="1" fill="black" fill-opacity="0.55"/>
<rect x="94" y="6" width="1" height="1" fill="black" fill-opacity="0.55"/>
<rect x="202" y="6" width="1" height="1" fill="black" fill-opacity="0.55"/>
<rect x="76" y="42" width="1" height="1" fill="black" fill-opacity="0.55"/>
<rect x="184" y="42" width="1" height="1" fill="black" fill-opacity="0.55"/>
<rect x="76" y="6" width="1" height="1" fill="black" fill-opacity="0.55"/>
<rect x="184" y="6" width="1" height="1" fill="black" fill-opacity="0.55"/>
<rect x="103" y="42" width="1" height="1" fill="black" fill-opacity="0.55"/>
<rect x="211" y="42" width="1" height="1" fill="black" fill-opacity="0.55"/>
<rect x="103" y="6" width="1" height="1" fill="black" fill-opacity="0.55"/>
<rect x="211" y="6" width="1" height="1" fill="black" fill-opacity="0.55"/>
<rect x="85" y="42" width="1" height="1" fill="black" fill-opacity="0.55"/>
<rect x="193" y="42" width="1" height="1" fill="black" fill-opacity="0.55"/>
<rect x="85" y="6" width="1" height="1" fill="black" fill-opacity="0.55"/>
<rect x="193" y="6" width="1" height="1" fill="black" fill-opacity="0.55"/>
<rect x="112" y="42" width="1" height="1" fill="black" fill-opacity="0.55"/>
<rect x="4" y="42" width="1" height="1" fill="black" fill-opacity="0.55"/>
<rect x="220" y="42" width="1" height="1" fill="black" fill-opacity="0.55"/>
<rect x="112" y="6" width="1" height="1" fill="black" fill-opacity="0.55"/>
<rect x="4" y="6" width="1" height="1" fill="black" fill-opacity="0.55"/>
<rect x="220" y="6" width="1" height="1" fill="black" fill-opacity="0.55"/>
<rect x="13" y="69" width="1" height="1" fill="black" fill-opacity="0.55"/>
<rect x="121" y="69" width="1" height="1" fill="black" fill-opacity="0.55"/>
<rect x="13" y="33" width="1" height="1" fill="black" fill-opacity="0.55"/>
<rect x="121" y="33" width="1" height="1" fill="black" fill-opacity="0.55"/>
<rect x="40" y="69" width="1" height="1" fill="black" fill-opacity="0.55"/>
<rect x="148" y="69" width="1" height="1" fill="black" fill-opacity="0.55"/>
<rect x="40" y="33" width="1" height="1" fill="black" fill-opacity="0.55"/>
<rect x="148" y="33" width="1" height="1" fill="black" fill-opacity="0.55"/>
<rect x="22" y="69" width="1" height="1" fill="black" fill-opacity="0.55"/>
<rect x="130" y="69" width="1" height="1" fill="black" fill-opacity="0.55"/>
<rect x="22" y="33" width="1" height="1" fill="black" fill-opacity="0.55"/>
<rect x="130" y="33" width="1" height="1" fill="black" fill-opacity="0.55"/>
<rect x="49" y="69" width="1" height="1" fill="black" fill-opacity="0.55"/>
<rect x="157" y="69" width="1" height="1" fill="black" fill-opacity="0.55"/>
<rect x="49" y="33" width="1" height="1" fill="black" fill-opacity="0.55"/>
<rect x="157" y="33" width="1" height="1" fill="black" fill-opacity="0.55"/>
<rect x="31" y="69" width="1" height="1" fill="black" fill-opacity="0.55"/>
<rect x="139" y="69" width="1" height="1" fill="black" fill-opacity="0.55"/>
<rect x="31" y="33" width="1" height="1" fill="black" fill-opacity="0.55"/>
<rect x="139" y="33" width="1" height="1" fill="black" fill-opacity="0.55"/>
<rect x="58" y="69" width="1" height="1" fill="black" fill-opacity="0.55"/>
<rect x="166" y="69" width="1" height="1" fill="black" fill-opacity="0.55"/>
<rect x="58" y="33" width="1" height="1" fill="black" fill-opacity="0.55"/>
<rect x="166" y="33" width="1" height="1" fill="black" fill-opacity="0.55"/>
<rect x="67" y="69" width="1" height="1" fill="black" fill-opacity="0.55"/>
<rect x="175" y="69" width="1" height="1" fill="black" fill-opacity="0.55"/>
<rect x="67" y="33" width="1" height="1" fill="black" fill-opacity="0.55"/>
<rect x="175" y="33" width="1" height="1" fill="black" fill-opacity="0.55"/>
<rect x="94" y="69" width="1" height="1" fill="black" fill-opacity="0.55"/>
<rect x="202" y="69" width="1" height="1" fill="black" fill-opacity="0.55"/>
<rect x="94" y="33" width="1" height="1" fill="black" fill-opacity="0.55"/>
<rect x="202" y="33" width="1" height="1" fill="black" fill-opacity="0.55"/>
<rect x="76" y="69" width="1" height="1" fill="black" fill-opacity="0.55"/>
<rect x="184" y="69" width="1" height="1" fill="black" fill-opacity="0.55"/>
<rect x="76" y="33" width="1" height="1" fill="black" fill-opacity="0.55"/>
<rect x="184" y="33" width="1" height="1" fill="black" fill-opacity="0.55"/>
<rect x="103" y="69" width="1" height="1" fill="black" fill-opacity="0.55"/>
<rect x="211" y="69" width="1" height="1" fill="black" fill-opacity="0.55"/>
<rect x="103" y="33" width="1" height="1" fill="black" fill-opacity="0.55"/>
<rect x="211" y="33" width="1" height="1" fill="black" fill-opacity="0.55"/>
<rect x="85" y="69" width="1" height="1" fill="black" fill-opacity="0.55"/>
<rect x="193" y="69" width="1" height="1" fill="black" fill-opacity="0.55"/>
<rect x="85" y="33" width="1" height="1" fill="black" fill-opacity="0.55"/>
<rect x="193" y="33" width="1" height="1" fill="black" fill-opacity="0.55"/>
<rect x="112" y="69" width="1" height="1" fill="black" fill-opacity="0.55"/>
<rect x="4" y="69" width="1" height="1" fill="black" fill-opacity="0.55"/>
<rect x="220" y="69" width="1" height="1" fill="black" fill-opacity="0.55"/>
<rect x="112" y="33" width="1" height="1" fill="black" fill-opacity="0.55"/>
<rect x="4" y="33" width="1" height="1" fill="black" fill-opacity="0.55"/>
<rect x="220" y="33" width="1" height="1" fill="black" fill-opacity="0.55"/>
<rect x="13" y="60" width="1" height="1" fill="black" fill-opacity="0.55"/>
<rect x="121" y="60" width="1" height="1" fill="black" fill-opacity="0.55"/>
<rect x="13" y="24" width="1" height="1" fill="black" fill-opacity="0.55"/>
<rect x="121" y="24" width="1" height="1" fill="black" fill-opacity="0.55"/>
<rect x="40" y="60" width="1" height="1" fill="black" fill-opacity="0.55"/>
<rect x="148" y="60" width="1" height="1" fill="black" fill-opacity="0.55"/>
<rect x="40" y="24" width="1" height="1" fill="black" fill-opacity="0.55"/>
<rect x="148" y="24" width="1" height="1" fill="black" fill-opacity="0.55"/>
<rect x="22" y="60" width="1" height="1" fill="black" fill-opacity="0.55"/>
<rect x="130" y="60" width="1" height="1" fill="black" fill-opacity="0.55"/>
<rect x="22" y="24" width="1" height="1" fill="black" fill-opacity="0.55"/>
<rect x="130" y="24" width="1" height="1" fill="black" fill-opacity="0.55"/>
<rect x="49" y="60" width="1" height="1" fill="black" fill-opacity="0.55"/>
<rect x="157" y="60" width="1" height="1" fill="black" fill-opacity="0.55"/>
<rect x="49" y="24" width="1" height="1" fill="black" fill-opacity="0.55"/>
<rect x="157" y="24" width="1" height="1" fill="black" fill-opacity="0.55"/>
<rect x="31" y="60" width="1" height="1" fill="black" fill-opacity="0.55"/>
<rect x="139" y="60" width="1" height="1" fill="black" fill-opacity="0.55"/>
<rect x="31" y="24" width="1" height="1" fill="black" fill-opacity="0.55"/>
<rect x="139" y="24" width="1" height="1" fill="black" fill-opacity="0.55"/>
<rect x="58" y="60" width="1" height="1" fill="black" fill-opacity="0.55"/>
<rect x="166" y="60" width="1" height="1" fill="black" fill-opacity="0.55"/>
<rect x="58" y="24" width="1" height="1" fill="black" fill-opacity="0.55"/>
<rect x="166" y="24" width="1" height="1" fill="black" fill-opacity="0.55"/>
<rect x="67" y="60" width="1" height="1" fill="black" fill-opacity="0.55"/>
<rect x="175" y="60" width="1" height="1" fill="black" fill-opacity="0.55"/>
<rect x="67" y="24" width="1" height="1" fill="black" fill-opacity="0.55"/>
<rect x="175" y="24" width="1" height="1" fill="black" fill-opacity="0.55"/>
<rect x="94" y="60" width="1" height="1" fill="black" fill-opacity="0.55"/>
<rect x="202" y="60" width="1" height="1" fill="black" fill-opacity="0.55"/>
<rect x="94" y="24" width="1" height="1" fill="black" fill-opacity="0.55"/>
<rect x="202" y="24" width="1" height="1" fill="black" fill-opacity="0.55"/>
<rect x="76" y="60" width="1" height="1" fill="black" fill-opacity="0.55"/>
<rect x="184" y="60" width="1" height="1" fill="black" fill-opacity="0.55"/>
<rect x="76" y="24" width="1" height="1" fill="black" fill-opacity="0.55"/>
<rect x="184" y="24" width="1" height="1" fill="black" fill-opacity="0.55"/>
<rect x="103" y="60" width="1" height="1" fill="black" fill-opacity="0.55"/>
<rect x="211" y="60" width="1" height="1" fill="black" fill-opacity="0.55"/>
<rect x="103" y="24" width="1" height="1" fill="black" fill-opacity="0.55"/>
<rect x="211" y="24" width="1" height="1" fill="black" fill-opacity="0.55"/>
<rect x="85" y="60" width="1" height="1" fill="black" fill-opacity="0.55"/>
<rect x="193" y="60" width="1" height="1" fill="black" fill-opacity="0.55"/>
<rect x="85" y="24" width="1" height="1" fill="black" fill-opacity="0.55"/>
<rect x="193" y="24" width="1" height="1" fill="black" fill-opacity="0.55"/>
<rect x="112" y="60" width="1" height="1" fill="black" fill-opacity="0.55"/>
<rect x="4" y="60" width="1" height="1" fill="black" fill-opacity="0.55"/>
<rect x="220" y="60" width="1" height="1" fill="black" fill-opacity="0.55"/>
<rect x="112" y="24" width="1" height="1" fill="black" fill-opacity="0.55"/>
<rect x="4" y="24" width="1" height="1" fill="black" fill-opacity="0.55"/>
<rect x="220" y="24" width="1" height="1" fill="black" fill-opacity="0.55"/>
</svg>
