<svg width="393" height="85" viewBox="0 0 393 85" fill="none" xmlns="http://www.w3.org/2000/svg">
<path fill-rule="evenodd" clip-rule="evenodd" d="M3.99988 85L4.99988 85L4.99988 81L0.999878 81L0.999877 80L5.99988 80L5.99988 81L5.99988 85L394 85L394 57L391 57L391 54L391 52L391 49L394 49L394 19.5L394 0L238 1.3638e-05L238 8.00001L211 8.00002L211 1.59984e-05L149 2.14186e-05L149 5.00002L146 5.00002L146 2.16809e-05L145 2.17683e-05L145 2.00002L144 2.00002L144 2.18557e-05L143 2.19431e-05L143 5.00002L140 5.00002L140 2.22054e-05L31.6784 3.16752e-05L31.7844 0.106088L1.10607 30.7845L-4.83637e-06 29.6784L0 85L0.999878 85L0.999878 82L3.99988 82L3.99988 85ZM394 52L392 52L392 54L394 54L394 52ZM-5.13752e-06 26.2337L26.2336 3.21512e-05L20 3.26961e-05L-5.72619e-06 19.5L-5.13752e-06 26.2337Z" fill="white"/>
</svg>
