<svg width="351" height="66" viewBox="0 0 351 66" fill="none" xmlns="http://www.w3.org/2000/svg">
<path fill-rule="evenodd" clip-rule="evenodd" d="M81 0V2H90V0H110V2H111V0H112V2H113V0H339.331L351 11.6689V55.3311L340.331 66H331V65H329V66H321V65H319V66H278V64H274V66H246V65H212V66H205V65H204V66H11L0 55V53H1V49H0V48H1V47H0V12L12 0H81ZM289 12H290.414L281.414 3H280L289 12ZM335 3H336.414L345.414 12H344L335 3ZM295.414 12H294L285 3H286.414L295.414 12ZM299 12H300.414L291.414 3H290L299 12ZM305.414 12H304L295 3H296.414L305.414 12ZM309 12H310.414L301.414 3H300L309 12ZM315.414 12H314L305 3H306.414L315.414 12ZM319 12H320.414L311.414 3H310L319 12ZM325.414 12H324L315 3H316.414L325.414 12ZM329 12H330.414L321.414 3H320L329 12ZM335.414 12H334L325 3H326.414L335.414 12ZM339 12H340.414L331.414 3H330L339 12ZM14 63H15.4142L6.41422 54H5L14 63ZM60 54H61.4142L70.4142 63H69L60 54ZM20.4142 63H19L10 54H11.4142L20.4142 63ZM24 63H25.4142L16.4142 54H15L24 63ZM30.4142 63H29L20 54H21.4142L30.4142 63ZM34 63H35.4142L26.4142 54H25L34 63ZM40.4142 63H39L30 54H31.4142L40.4142 63ZM44 63H45.4142L36.4142 54H35L44 63ZM50.4142 63H49L40 54H41.4142L50.4142 63ZM54 63H55.4142L46.4142 54H45L54 63ZM60.4142 63H59L50 54H51.4142L60.4142 63ZM64 63H65.4142L56.4142 54H55L64 63ZM350 27.1543L345 29.9043V27.1543L333.462 33.4999L345 39.8456V37.0956L350 39.8456V27.1543ZM349 28.8456L345 31.0456V35.9543L349 38.1543V28.8456ZM338.462 33.4999L344 36.5456V38.1543L335.538 33.4999L344 28.8456V30.4543L338.462 33.4999ZM6 27.1543V29.9043L1 27.1543V39.8456L6 37.0956V39.8456L17.5375 33.4999L6 27.1543ZM12.5375 33.4999L7 30.4543V28.8456L15.4625 33.4999L7 38.1543V36.5456L12.5375 33.4999ZM2 28.8456L6 31.0456V35.9543L2 38.1543V28.8456Z" fill="#4BFFF6" fill-opacity="0.8"/>
<path fill-rule="evenodd" clip-rule="evenodd" d="M0 0H9L8 1H1V8L0 9V0Z" fill="#BAFCFF" fill-opacity="0.4"/>
<path fill-rule="evenodd" clip-rule="evenodd" d="M351 0H342L343 1H350V8L351 9V0Z" fill="#BAFCFF" fill-opacity="0.4"/>
<path fill-rule="evenodd" clip-rule="evenodd" d="M351 66H342L343 65H350V58L351 57V66Z" fill="#BAFCFF" fill-opacity="0.4"/>
<path fill-rule="evenodd" clip-rule="evenodd" d="M0 66H9L8 65H1V58L0 57V66Z" fill="#BAFCFF" fill-opacity="0.4"/>
<mask id="path-6-inside-1_77_107321" fill="white">
<path fill-rule="evenodd" clip-rule="evenodd" d="M81 0V2H90V0H110V2H111V0H112V2H113V0H339.331L351 11.6689V55.3311L340.331 66H331V65H329V66H321V65H319V66H278V64H274V66H246V65H212V66H205V65H204V66H11L0 55V53H1V49H0V48H1V47H0V12L12 0H81Z"/>
</mask>
<path d="M81 0H82V-1H81V0ZM81 2H80V3H81V2ZM90 2V3H91V2H90ZM90 0V-1H89V0H90ZM110 0H111V-1H110V0ZM110 2H109V3H110V2ZM111 2V3H112V2H111ZM111 0V-1H110V0H111ZM112 0H113V-1H112V0ZM112 2H111V3H112V2ZM113 2V3H114V2H113ZM113 0V-1H112V0H113ZM339.331 0L340.038 -0.707107L339.745 -1H339.331V0ZM351 11.6689H352V11.2547L351.707 10.9618L351 11.6689ZM351 55.3311L351.707 56.0382L352 55.7453V55.3311H351ZM340.331 66V67H340.745L341.038 66.7071L340.331 66ZM331 66H330V67H331V66ZM331 65H332V64H331V65ZM329 65V64H328V65H329ZM329 66V67H330V66H329ZM321 66H320V67H321V66ZM321 65H322V64H321V65ZM319 65V64H318V65H319ZM319 66V67H320V66H319ZM278 66H277V67H278V66ZM278 64H279V63H278V64ZM274 64V63H273V64H274ZM274 66V67H275V66H274ZM246 66H245V67H246V66ZM246 65H247V64H246V65ZM212 65V64H211V65H212ZM212 66V67H213V66H212ZM205 66H204V67H205V66ZM205 65H206V64H205V65ZM204 65V64H203V65H204ZM204 66V67H205V66H204ZM11 66L10.2929 66.7071L10.5858 67H11V66ZM0 55H-1V55.4142L-0.707107 55.7071L0 55ZM0 53V52H-1V53H0ZM1 53V54H2V53H1ZM1 49H2V48H1V49ZM0 49H-1V50H0V49ZM0 48V47H-1V48H0ZM1 48V49H2V48H1ZM1 47H2V46H1V47ZM0 47H-1V48H0V47ZM0 12L-0.707107 11.2929L-1 11.5858V12H0ZM12 0V-1H11.5858L11.2929 -0.707107L12 0ZM80 0V2H82V0H80ZM81 3H90V1H81V3ZM91 2V0H89V2H91ZM90 1H110V-1H90V1ZM109 0V2H111V0H109ZM110 3H111V1H110V3ZM112 2V0H110V2H112ZM111 1H112V-1H111V1ZM111 0V2H113V0H111ZM112 3H113V1H112V3ZM114 2V0H112V2H114ZM113 1H339.331V-1H113V1ZM338.624 0.707107L350.293 12.3761L351.707 10.9618L340.038 -0.707107L338.624 0.707107ZM350 11.6689V55.3311H352V11.6689H350ZM350.293 54.6239L339.624 65.2929L341.038 66.7071L351.707 56.0382L350.293 54.6239ZM340.331 65H331V67H340.331V65ZM332 66V65H330V66H332ZM331 64H329V66H331V64ZM328 65V66H330V65H328ZM329 65H321V67H329V65ZM322 66V65H320V66H322ZM321 64H319V66H321V64ZM318 65V66H320V65H318ZM319 65H278V67H319V65ZM279 66V64H277V66H279ZM278 63H274V65H278V63ZM273 64V66H275V64H273ZM274 65H246V67H274V65ZM247 66V65H245V66H247ZM246 64H212V66H246V64ZM211 65V66H213V65H211ZM212 65H205V67H212V65ZM206 66V65H204V66H206ZM205 64H204V66H205V64ZM203 65V66H205V65H203ZM204 65H11V67H204V65ZM11.7071 65.2929L0.707107 54.2929L-0.707107 55.7071L10.2929 66.7071L11.7071 65.2929ZM1 55V53H-1V55H1ZM0 54H1V52H0V54ZM2 53V49H0V53H2ZM1 48H0V50H1V48ZM1 49V48H-1V49H1ZM0 49H1V47H0V49ZM2 48V47H0V48H2ZM1 46H0V48H1V46ZM1 47V12H-1V47H1ZM0.707107 12.7071L12.7071 0.707107L11.2929 -0.707107L-0.707107 11.2929L0.707107 12.7071ZM12 1H81V-1H12V1Z" fill="#BAFCFF" mask="url(#path-6-inside-1_77_107321)"/>
<path fill-rule="evenodd" clip-rule="evenodd" d="M79 2V4H92V2H108V4H111V3H112V4H115V2H338.331L349 12.6689V27.55L345 29.75V27L333.462 33.3456L345 39.6913V36.9413L349 39.1413V54.3311L339.331 64H331V63H329V64H321V63H319V64H278V62H274V64H248V63H210V64H207V63H202V64H12L3 55V49H2V48H3V45H2V39.1413L6 36.9413V39.6913L17.5375 33.3456L6 27V29.75L2 27.55V13L13 2H79ZM289 12H290.414L281.414 3H280L289 12ZM335 3H336.414L345.414 12H344L335 3ZM294 12H295.414L286.414 3H285L294 12ZM299 12H300.414L291.414 3H290L299 12ZM304 12H305.414L296.414 3H295L304 12ZM309 12H310.414L301.414 3H300L309 12ZM314 12H315.414L306.414 3H305L314 12ZM319 12H320.414L311.414 3H310L319 12ZM324 12H325.414L316.414 3H315L324 12ZM329 12H330.414L321.414 3H320L329 12ZM334 12H335.414L326.414 3H325L334 12ZM339 12H340.414L331.414 3H330L339 12ZM15.4142 63H14L5 54H6.41421L15.4142 63ZM60 54H61.4142L70.4142 63H69L60 54ZM19 63H20.4142L11.4142 54H10L19 63ZM24 63H25.4142L16.4142 54H15L24 63ZM29 63H30.4142L21.4142 54H20L29 63ZM34 63H35.4142L26.4142 54H25L34 63ZM39 63H40.4142L31.4142 54H30L39 63ZM44 63H45.4142L36.4142 54H35L44 63ZM49 63H50.4142L41.4142 54H40L49 63ZM54 63H55.4142L46.4142 54H45L54 63ZM59 63H60.4142L51.4142 54H50L59 63ZM64 63H65.4142L56.4142 54H55L64 63Z" fill="url(#paint0_linear_77_107321)" fill-opacity="0.2"/>
<path d="M2 28.6913V38L6 35.8V30.8913L2 28.6913Z" fill="url(#paint1_linear_77_107321)" fill-opacity="0.2"/>
<path d="M349 38V28.6913L345 30.8913V35.8L349 38Z" fill="url(#paint2_linear_77_107321)" fill-opacity="0.2"/>
<path d="M12.5375 33.3456L7 30.3V28.6913L15.4625 33.3456L7 38V36.3913L12.5375 33.3456Z" fill="url(#paint3_linear_77_107321)" fill-opacity="0.2"/>
<path d="M338.462 33.3456L344 36.3913V38L335.538 33.3456L344 28.6913V30.3L338.462 33.3456Z" fill="url(#paint4_linear_77_107321)" fill-opacity="0.2"/>
<path fill-rule="evenodd" clip-rule="evenodd" d="M79 2V4H92V2H108V4H111V3H112V4H115V2H338.331L349 12.6689V27.55L345 29.75V27L333.462 33.3456L345 39.6913V36.9413L349 39.1413V54.3311L339.331 64H331V63H329V64H321V63H319V64H278V62H274V64H248V63H210V64H207V63H202V64H12L3 55V49H2V48H3V45H2V39.1413L6 36.9413V39.6913L17.5375 33.3456L6 27V29.75L2 27.55V13L13 2H79ZM289 12H290.414L281.414 3H280L289 12ZM335 3H336.414L345.414 12H344L335 3ZM294 12H295.414L286.414 3H285L294 12ZM299 12H300.414L291.414 3H290L299 12ZM304 12H305.414L296.414 3H295L304 12ZM309 12H310.414L301.414 3H300L309 12ZM314 12H315.414L306.414 3H305L314 12ZM319 12H320.414L311.414 3H310L319 12ZM324 12H325.414L316.414 3H315L324 12ZM329 12H330.414L321.414 3H320L329 12ZM334 12H335.414L326.414 3H325L334 12ZM339 12H340.414L331.414 3H330L339 12ZM15.4142 63H14L5 54H6.41421L15.4142 63ZM60 54H61.4142L70.4142 63H69L60 54ZM19 63H20.4142L11.4142 54H10L19 63ZM24 63H25.4142L16.4142 54H15L24 63ZM29 63H30.4142L21.4142 54H20L29 63ZM34 63H35.4142L26.4142 54H25L34 63ZM39 63H40.4142L31.4142 54H30L39 63ZM44 63H45.4142L36.4142 54H35L44 63ZM49 63H50.4142L41.4142 54H40L49 63ZM54 63H55.4142L46.4142 54H45L54 63ZM59 63H60.4142L51.4142 54H50L59 63ZM64 63H65.4142L56.4142 54H55L64 63Z" fill="url(#paint5_linear_77_107321)" fill-opacity="0.4"/>
<path d="M2 28.6913V38L6 35.8V30.8913L2 28.6913Z" fill="url(#paint6_linear_77_107321)" fill-opacity="0.4"/>
<path d="M349 38V28.6913L345 30.8913V35.8L349 38Z" fill="url(#paint7_linear_77_107321)" fill-opacity="0.4"/>
<path d="M12.5375 33.3456L7 30.3V28.6913L15.4625 33.3456L7 38V36.3913L12.5375 33.3456Z" fill="url(#paint8_linear_77_107321)" fill-opacity="0.4"/>
<path d="M338.462 33.3456L344 36.3913V38L335.538 33.3456L344 28.6913V30.3L338.462 33.3456Z" fill="url(#paint9_linear_77_107321)" fill-opacity="0.4"/>
<defs>
<linearGradient id="paint0_linear_77_107321" x1="176.497" y1="64" x2="176.497" y2="2" gradientUnits="userSpaceOnUse">
<stop stop-color="white" stop-opacity="0"/>
<stop offset="1" stop-color="#A2FFFE"/>
</linearGradient>
<linearGradient id="paint1_linear_77_107321" x1="176.497" y1="64" x2="176.497" y2="2" gradientUnits="userSpaceOnUse">
<stop stop-color="white" stop-opacity="0"/>
<stop offset="1" stop-color="#A2FFFE"/>
</linearGradient>
<linearGradient id="paint2_linear_77_107321" x1="176.497" y1="64" x2="176.497" y2="2" gradientUnits="userSpaceOnUse">
<stop stop-color="white" stop-opacity="0"/>
<stop offset="1" stop-color="#A2FFFE"/>
</linearGradient>
<linearGradient id="paint3_linear_77_107321" x1="176.497" y1="64" x2="176.497" y2="2" gradientUnits="userSpaceOnUse">
<stop stop-color="white" stop-opacity="0"/>
<stop offset="1" stop-color="#A2FFFE"/>
</linearGradient>
<linearGradient id="paint4_linear_77_107321" x1="176.497" y1="64" x2="176.497" y2="2" gradientUnits="userSpaceOnUse">
<stop stop-color="white" stop-opacity="0"/>
<stop offset="1" stop-color="#A2FFFE"/>
</linearGradient>
<linearGradient id="paint5_linear_77_107321" x1="176.497" y1="64" x2="176.497" y2="2" gradientUnits="userSpaceOnUse">
<stop stop-color="white" stop-opacity="0"/>
<stop offset="1" stop-color="#A2FFFE"/>
</linearGradient>
<linearGradient id="paint6_linear_77_107321" x1="176.497" y1="64" x2="176.497" y2="2" gradientUnits="userSpaceOnUse">
<stop stop-color="white" stop-opacity="0"/>
<stop offset="1" stop-color="#A2FFFE"/>
</linearGradient>
<linearGradient id="paint7_linear_77_107321" x1="176.497" y1="64" x2="176.497" y2="2" gradientUnits="userSpaceOnUse">
<stop stop-color="white" stop-opacity="0"/>
<stop offset="1" stop-color="#A2FFFE"/>
</linearGradient>
<linearGradient id="paint8_linear_77_107321" x1="176.497" y1="64" x2="176.497" y2="2" gradientUnits="userSpaceOnUse">
<stop stop-color="white" stop-opacity="0"/>
<stop offset="1" stop-color="#A2FFFE"/>
</linearGradient>
<linearGradient id="paint9_linear_77_107321" x1="176.497" y1="64" x2="176.497" y2="2" gradientUnits="userSpaceOnUse">
<stop stop-color="white" stop-opacity="0"/>
<stop offset="1" stop-color="#A2FFFE"/>
</linearGradient>
</defs>
</svg>
