<svg width="190" height="26" viewBox="0 0 190 26" fill="none" xmlns="http://www.w3.org/2000/svg">
<path fill-rule="evenodd" clip-rule="evenodd" d="M77.6858 1L1 1.176V21.0601L7.65423 25H10.1707V24H12.4634V25H15.9024V24H17.0488V25H18.1951V24H27.3659V25H28.5122V24H31.9512V25H182.363V24.805L182.506 24.8977L189 21.0601V1.176L112.314 1L106.288 5.52776H83.7121L77.6858 1Z" fill="#FFFB00" fill-opacity="0.6"/>
<path d="M1 1.176L0.998852 0.675997L0.5 0.677141V1.176H1ZM77.6858 1L77.9861 0.600256L77.8522 0.499617L77.6846 0.500001L77.6858 1ZM1 21.0601H0.5V21.3451L0.745259 21.4903L1 21.0601ZM7.65423 25L7.39949 25.4302L7.51731 25.5H7.65423V25ZM10.1707 25V25.5H10.6707V25H10.1707ZM10.1707 24V23.5H9.67073V24H10.1707ZM12.4634 24H12.9634V23.5H12.4634V24ZM12.4634 25H11.9634V25.5H12.4634V25ZM15.9024 25V25.5H16.4024V25H15.9024ZM15.9024 24V23.5H15.4024V24H15.9024ZM17.0488 24H17.5488V23.5H17.0488V24ZM17.0488 25H16.5488V25.5H17.0488V25ZM18.1951 25V25.5H18.6951V25H18.1951ZM18.1951 24V23.5H17.6951V24H18.1951ZM27.3659 24H27.8659V23.5H27.3659V24ZM27.3659 25H26.8659V25.5H27.3659V25ZM28.5122 25V25.5H29.0122V25H28.5122ZM28.5122 24V23.5H28.0122V24H28.5122ZM31.9512 24H32.4512V23.5H31.9512V24ZM31.9512 25H31.4512V25.5H31.9512V25ZM182.363 25V25.5H182.863V25H182.363ZM182.363 24.805L182.635 24.3854L181.863 23.8853V24.805H182.363ZM182.506 24.8977L182.235 25.3174L182.494 25.4857L182.761 25.3282L182.506 24.8977ZM189 21.0601L189.254 21.4905L189.5 21.3454V21.0601H189ZM189 1.176H189.5V0.677141L189.001 0.675997L189 1.176ZM112.314 1L112.315 0.500001L112.148 0.499617L112.014 0.600256L112.314 1ZM106.288 5.52776V6.02776H106.455L106.588 5.9275L106.288 5.52776ZM83.7121 5.52776L83.4117 5.9275L83.5452 6.02776H83.7121V5.52776ZM1.00115 1.67599L77.6869 1.5L77.6846 0.500001L0.998852 0.675997L1.00115 1.67599ZM1.5 21.0601V1.176H0.5V21.0601H1.5ZM7.90897 24.5698L1.25474 20.6299L0.745259 21.4903L7.39949 25.4302L7.90897 24.5698ZM10.1707 24.5H7.65423V25.5H10.1707V24.5ZM9.67073 24V25H10.6707V24H9.67073ZM12.4634 23.5H10.1707V24.5H12.4634V23.5ZM12.9634 25V24H11.9634V25H12.9634ZM15.9024 24.5H12.4634V25.5H15.9024V24.5ZM15.4024 24V25H16.4024V24H15.4024ZM17.0488 23.5H15.9024V24.5H17.0488V23.5ZM17.5488 25V24H16.5488V25H17.5488ZM18.1951 24.5H17.0488V25.5H18.1951V24.5ZM17.6951 24V25H18.6951V24H17.6951ZM27.3659 23.5H18.1951V24.5H27.3659V23.5ZM27.8659 25V24H26.8659V25H27.8659ZM28.5122 24.5H27.3659V25.5H28.5122V24.5ZM28.0122 24V25H29.0122V24H28.0122ZM31.9512 23.5H28.5122V24.5H31.9512V23.5ZM32.4512 25V24H31.4512V25H32.4512ZM182.363 24.5H31.9512V25.5H182.363V24.5ZM181.863 24.805V25H182.863V24.805H181.863ZM182.778 24.4781L182.635 24.3854L182.091 25.2246L182.235 25.3174L182.778 24.4781ZM188.746 20.6296L182.252 24.4673L182.761 25.3282L189.254 21.4905L188.746 20.6296ZM188.5 1.176V21.0601H189.5V1.176H188.5ZM112.313 1.5L188.999 1.67599L189.001 0.675997L112.315 0.500001L112.313 1.5ZM106.588 5.9275L112.615 1.39974L112.014 0.600256L105.988 5.12802L106.588 5.9275ZM83.7121 6.02776H106.288V5.02776H83.7121V6.02776ZM77.3854 1.39974L83.4117 5.9275L84.0124 5.12802L77.9861 0.600256L77.3854 1.39974Z" fill="#FFFB00"/>
<path d="M85 2H105" stroke="#FFFB00" stroke-width="2"/>
<path d="M88 4H102" stroke="#FFFB00" stroke-width="2"/>
<path d="M134 2H153.5" stroke="#FFFB00"/>
<path d="M71.808 19C71.488 19 71.192 18.92 70.92 18.76C70.648 18.6 70.432 18.384 70.272 18.112C70.112 17.84 70.032 17.544 70.032 17.224V16.42H71.892V17.128L76.788 17.128V15.616L71.808 15.616C71.488 15.616 71.192 15.536 70.92 15.376C70.648 15.216 70.432 15.004 70.272 14.74C70.112 14.468 70.032 14.168 70.032 13.84V12.136C70.032 11.808 70.112 11.512 70.272 11.248C70.432 10.976 70.648 10.76 70.92 10.6C71.192 10.44 71.488 10.36 71.808 10.36L76.896 10.36C77.216 10.36 77.508 10.44 77.772 10.6C78.044 10.76 78.26 10.976 78.42 11.248C78.588 11.512 78.672 11.808 78.672 12.136V12.94H76.788V12.232H71.892V13.744H76.896C77.216 13.744 77.508 13.824 77.772 13.984C78.044 14.144 78.26 14.36 78.42 14.632C78.588 14.896 78.672 15.192 78.672 15.52V17.224C78.672 17.544 78.588 17.84 78.42 18.112C78.26 18.384 78.044 18.6 77.772 18.76C77.508 18.92 77.216 19 76.896 19L71.808 19ZM82.3695 19C82.0415 19 81.7415 18.92 81.4695 18.76C81.2055 18.6 80.9935 18.388 80.8335 18.124C80.6735 17.852 80.5935 17.552 80.5935 17.224V12.136C80.5935 11.808 80.6735 11.512 80.8335 11.248C80.9935 10.976 81.2055 10.76 81.4695 10.6C81.7415 10.44 82.0415 10.36 82.3695 10.36L89.2095 10.36V12.232L82.8495 12.232C82.7215 12.232 82.6215 12.264 82.5495 12.328C82.4855 12.392 82.4535 12.492 82.4535 12.628V16.732C82.4535 16.86 82.4855 16.96 82.5495 17.032C82.6215 17.096 82.7215 17.128 82.8495 17.128L89.2095 17.128V19L82.3695 19ZM92.8127 19C92.4927 19 92.1967 18.92 91.9247 18.76C91.6527 18.6 91.4367 18.384 91.2767 18.112C91.1167 17.84 91.0367 17.544 91.0367 17.224V12.136C91.0367 11.808 91.1167 11.512 91.2767 11.248C91.4367 10.976 91.6527 10.76 91.9247 10.6C92.1967 10.44 92.4927 10.36 92.8127 10.36L97.9007 10.36C98.2207 10.36 98.5127 10.44 98.7767 10.6C99.0487 10.76 99.2647 10.976 99.4247 11.248C99.5927 11.512 99.6767 11.808 99.6767 12.136V17.224C99.6767 17.544 99.5927 17.84 99.4247 18.112C99.2647 18.384 99.0487 18.6 98.7767 18.76C98.5127 18.92 98.2207 19 97.9007 19H92.8127ZM92.8967 17.128H97.7927V12.232L92.8967 12.232V17.128ZM108.306 19L105.798 16.012H108.234L110.226 18.364V19H108.306ZM101.598 19V10.372L108.45 10.372C108.778 10.372 109.074 10.452 109.338 10.612C109.61 10.772 109.826 10.988 109.986 11.26C110.154 11.532 110.238 11.828 110.238 12.148V14.38C110.238 14.7 110.154 14.996 109.986 15.268C109.826 15.54 109.61 15.756 109.338 15.916C109.074 16.076 108.778 16.156 108.45 16.156L103.458 16.168V19H101.598ZM103.458 14.284H108.354V12.232H103.458V14.284ZM112.125 19V10.36L120.105 10.36V12.232L114.009 12.232V13.744L118.917 13.744V15.616L114.009 15.616V17.128L120.105 17.128V19L112.125 19Z" fill="black"/>
</svg>
