<svg width="100%" height="auto" viewBox="0 0 334 18" fill="none" xmlns="http://www.w3.org/2000/svg">
<rect y="1" width="334" height="16" fill="#4BFFF6" fill-opacity="0.7"/>
<rect width="2" height="18" transform="matrix(-1 0 0 1 162 0)" fill="#4BFFF6"/>
<rect width="2" height="18" transform="matrix(-1 0 0 1 158 0)" fill="#4BFFF6"/>
<rect width="2" height="18" transform="matrix(-1 0 0 1 154 0)" fill="#4BFFF6"/>
<rect width="2" height="18" transform="matrix(-1 0 0 1 150 0)" fill="#4BFFF6"/>
<rect width="2" height="18" transform="matrix(-1 0 0 1 142 0)" fill="#4BFFF6"/>
<rect width="2" height="18" transform="matrix(-1 0 0 1 134 0)" fill="#4BFFF6"/>
<rect width="2" height="18" transform="matrix(-1 0 0 1 126 0)" fill="#4BFFF6"/>
<rect width="2" height="18" transform="matrix(-1 0 0 1 118 0)" fill="#4BFFF6"/>
<rect width="2" height="18" transform="matrix(-1 0 0 1 110 0)" fill="#4BFFF6"/>
<rect width="2" height="18" transform="matrix(-1 0 0 1 102 0)" fill="#4BFFF6"/>
<rect width="2" height="18" transform="matrix(-1 0 0 1 146 0)" fill="#4BFFF6"/>
<rect width="2" height="18" transform="matrix(-1 0 0 1 138 0)" fill="#4BFFF6"/>
<rect width="2" height="18" transform="matrix(-1 0 0 1 130 0)" fill="#4BFFF6"/>
<rect width="2" height="18" transform="matrix(-1 0 0 1 122 0)" fill="#4BFFF6"/>
<rect width="2" height="18" transform="matrix(-1 0 0 1 114 0)" fill="#4BFFF6"/>
<rect width="2" height="18" transform="matrix(-1 0 0 1 106 0)" fill="#4BFFF6"/>
<rect width="2" height="18" transform="matrix(-1 0 0 1 98 0)" fill="#4BFFF6"/>
<rect width="2" height="18" transform="matrix(-1 0 0 1 94 0)" fill="#4BFFF6"/>
<rect width="2" height="18" transform="matrix(-1 0 0 1 86 0)" fill="#4BFFF6"/>
<rect width="2" height="18" transform="matrix(-1 0 0 1 78 0)" fill="#4BFFF6"/>
<rect width="2" height="18" transform="matrix(-1 0 0 1 90 0)" fill="#4BFFF6"/>
<rect width="2" height="18" transform="matrix(-1 0 0 1 82 0)" fill="#4BFFF6"/>
<rect width="2" height="18" transform="matrix(-1 0 0 1 74 0)" fill="#4BFFF6"/>
<rect width="2" height="18" transform="matrix(-1 0 0 1 70 0)" fill="#4BFFF6"/>
<rect width="2" height="18" transform="matrix(-1 0 0 1 46 0)" fill="#4BFFF6"/>
<rect width="2" height="18" transform="matrix(-1 0 0 1 22 0)" fill="#4BFFF6"/>
<rect width="2" height="18" transform="matrix(-1 0 0 1 62 0)" fill="#4BFFF6"/>
<rect width="2" height="18" transform="matrix(-1 0 0 1 38 0)" fill="#4BFFF6"/>
<rect width="2" height="18" transform="matrix(-1 0 0 1 14 0)" fill="#4BFFF6"/>
<rect width="2" height="18" transform="matrix(-1 0 0 1 54 0)" fill="#4BFFF6"/>
<rect width="2" height="18" transform="matrix(-1 0 0 1 30 0)" fill="#4BFFF6"/>
<rect width="2" height="18" transform="matrix(-1 0 0 1 6 0)" fill="#4BFFF6"/>
<rect width="2" height="18" transform="matrix(-1 0 0 1 66 0)" fill="#4BFFF6"/>
<rect width="2" height="18" transform="matrix(-1 0 0 1 42 0)" fill="#4BFFF6"/>
<rect width="2" height="18" transform="matrix(-1 0 0 1 18 0)" fill="#4BFFF6"/>
<rect width="2" height="18" transform="matrix(-1 0 0 1 58 0)" fill="#4BFFF6"/>
<rect width="2" height="18" transform="matrix(-1 0 0 1 34 0)" fill="#4BFFF6"/>
<rect width="2" height="18" transform="matrix(-1 0 0 1 10 0)" fill="#4BFFF6"/>
<rect width="2" height="18" transform="matrix(-1 0 0 1 50 0)" fill="#4BFFF6"/>
<rect width="2" height="18" transform="matrix(-1 0 0 1 26 0)" fill="#4BFFF6"/>
<rect width="2" height="18" transform="matrix(-1 0 0 1 2 0)" fill="#4BFFF6"/>
<rect width="2" height="18" transform="matrix(-1 0 0 1 326 0)" fill="#4BFFF6"/>
<rect width="2" height="18" transform="matrix(-1 0 0 1 330 0)" fill="#4BFFF6"/>
<rect width="2" height="18" transform="matrix(-1 0 0 1 334 0)" fill="#4BFFF6"/>
<rect width="2" height="18" transform="matrix(-1 0 0 1 322 0)" fill="#4BFFF6"/>
<rect width="2" height="18" transform="matrix(-1 0 0 1 318 0)" fill="#4BFFF6"/>
<rect width="2" height="18" transform="matrix(-1 0 0 1 314 0)" fill="#4BFFF6"/>
<rect width="2" height="18" transform="matrix(-1 0 0 1 306 0)" fill="#4BFFF6"/>
<rect width="2" height="18" transform="matrix(-1 0 0 1 298 0)" fill="#4BFFF6"/>
<rect width="2" height="18" transform="matrix(-1 0 0 1 290 0)" fill="#4BFFF6"/>
<rect width="2" height="18" transform="matrix(-1 0 0 1 282 0)" fill="#4BFFF6"/>
<rect width="2" height="18" transform="matrix(-1 0 0 1 274 0)" fill="#4BFFF6"/>
<rect width="2" height="18" transform="matrix(-1 0 0 1 266 0)" fill="#4BFFF6"/>
<rect width="2" height="18" transform="matrix(-1 0 0 1 310 0)" fill="#4BFFF6"/>
<rect width="2" height="18" transform="matrix(-1 0 0 1 302 0)" fill="#4BFFF6"/>
<rect width="2" height="18" transform="matrix(-1 0 0 1 294 0)" fill="#4BFFF6"/>
<rect width="2" height="18" transform="matrix(-1 0 0 1 286 0)" fill="#4BFFF6"/>
<rect width="2" height="18" transform="matrix(-1 0 0 1 278 0)" fill="#4BFFF6"/>
<rect width="2" height="18" transform="matrix(-1 0 0 1 270 0)" fill="#4BFFF6"/>
<rect width="2" height="18" transform="matrix(-1 0 0 1 262 0)" fill="#4BFFF6"/>
<rect width="2" height="18" transform="matrix(-1 0 0 1 258 0)" fill="#4BFFF6"/>
<rect width="2" height="18" transform="matrix(-1 0 0 1 250 0)" fill="#4BFFF6"/>
<rect width="2" height="18" transform="matrix(-1 0 0 1 242 0)" fill="#4BFFF6"/>
<rect width="2" height="18" transform="matrix(-1 0 0 1 254 0)" fill="#4BFFF6"/>
<rect width="2" height="18" transform="matrix(-1 0 0 1 246 0)" fill="#4BFFF6"/>
<rect width="2" height="18" transform="matrix(-1 0 0 1 238 0)" fill="#4BFFF6"/>
<rect width="2" height="18" transform="matrix(-1 0 0 1 234 0)" fill="#4BFFF6"/>
<rect width="2" height="18" transform="matrix(-1 0 0 1 210 0)" fill="#4BFFF6"/>
<rect width="2" height="18" transform="matrix(-1 0 0 1 186 0)" fill="#4BFFF6"/>
<rect width="2" height="18" transform="matrix(-1 0 0 1 226 0)" fill="#4BFFF6"/>
<rect width="2" height="18" transform="matrix(-1 0 0 1 202 0)" fill="#4BFFF6"/>
<rect width="2" height="18" transform="matrix(-1 0 0 1 178 0)" fill="#4BFFF6"/>
<rect width="2" height="18" transform="matrix(-1 0 0 1 218 0)" fill="#4BFFF6"/>
<rect width="2" height="18" transform="matrix(-1 0 0 1 194 0)" fill="#4BFFF6"/>
<rect width="2" height="18" transform="matrix(-1 0 0 1 170 0)" fill="#4BFFF6"/>
<rect width="2" height="18" transform="matrix(-1 0 0 1 230 0)" fill="#4BFFF6"/>
<rect width="2" height="18" transform="matrix(-1 0 0 1 206 0)" fill="#4BFFF6"/>
<rect width="2" height="18" transform="matrix(-1 0 0 1 182 0)" fill="#4BFFF6"/>
<rect width="2" height="18" transform="matrix(-1 0 0 1 222 0)" fill="#4BFFF6"/>
<rect width="2" height="18" transform="matrix(-1 0 0 1 198 0)" fill="#4BFFF6"/>
<rect width="2" height="18" transform="matrix(-1 0 0 1 174 0)" fill="#4BFFF6"/>
<rect width="2" height="18" transform="matrix(-1 0 0 1 214 0)" fill="#4BFFF6"/>
<rect width="2" height="18" transform="matrix(-1 0 0 1 190 0)" fill="#4BFFF6"/>
<rect width="2" height="18" transform="matrix(-1 0 0 1 166 0)" fill="#4BFFF6"/>
</svg>
