<svg width="345" height="59" viewBox="0 0 345 59" fill="none" xmlns="http://www.w3.org/2000/svg">
<rect width="2" height="18" transform="matrix(-1 0 0 1 330 29)" fill="#FFFB00" fill-opacity="0.2"/>
<rect width="2" height="18" transform="matrix(-1 0 0 1 326 29)" fill="#FFFB00" fill-opacity="0.2"/>
<rect width="2" height="18" transform="matrix(-1 0 0 1 322 29)" fill="#FFFB00" fill-opacity="0.2"/>
<rect width="2" height="18" transform="matrix(-1 0 0 1 318 29)" fill="#FFFB00" fill-opacity="0.2"/>
<rect width="2" height="18" transform="matrix(-1 0 0 1 310 29)" fill="#FFFB00" fill-opacity="0.2"/>
<rect width="2" height="18" transform="matrix(-1 0 0 1 302 29)" fill="#FFFB00" fill-opacity="0.2"/>
<rect width="2" height="18" transform="matrix(-1 0 0 1 294 29)" fill="#FFFB00" fill-opacity="0.2"/>
<rect width="2" height="18" transform="matrix(-1 0 0 1 286 29)" fill="#FFFB00" fill-opacity="0.2"/>
<rect width="2" height="18" transform="matrix(-1 0 0 1 278 29)" fill="#FFFB00" fill-opacity="0.2"/>
<rect width="2" height="18" transform="matrix(-1 0 0 1 270 29)" fill="#FFFB00" fill-opacity="0.2"/>
<rect width="2" height="18" transform="matrix(-1 0 0 1 314 29)" fill="#FFFB00" fill-opacity="0.2"/>
<rect width="2" height="18" transform="matrix(-1 0 0 1 306 29)" fill="#FFFB00" fill-opacity="0.2"/>
<rect width="2" height="18" transform="matrix(-1 0 0 1 298 29)" fill="#FFFB00" fill-opacity="0.2"/>
<rect width="2" height="18" transform="matrix(-1 0 0 1 290 29)" fill="#FFFB00" fill-opacity="0.2"/>
<rect width="2" height="18" transform="matrix(-1 0 0 1 282 29)" fill="#FFFB00" fill-opacity="0.2"/>
<rect width="2" height="18" transform="matrix(-1 0 0 1 274 29)" fill="#FFFB00" fill-opacity="0.2"/>
<rect width="2" height="18" transform="matrix(-1 0 0 1 266 29)" fill="#FFFB00" fill-opacity="0.2"/>
<rect width="2" height="18" transform="matrix(-1 0 0 1 262 29)" fill="#FFFB00" fill-opacity="0.2"/>
<rect width="2" height="18" transform="matrix(-1 0 0 1 254 29)" fill="#FFFB00" fill-opacity="0.2"/>
<rect width="2" height="18" transform="matrix(-1 0 0 1 246 29)" fill="#FFFB00" fill-opacity="0.2"/>
<rect width="2" height="18" transform="matrix(-1 0 0 1 258 29)" fill="#FFFB00" fill-opacity="0.2"/>
<rect width="2" height="18" transform="matrix(-1 0 0 1 250 29)" fill="#FFFB00" fill-opacity="0.2"/>
<rect width="2" height="18" transform="matrix(-1 0 0 1 242 29)" fill="#FFFB00" fill-opacity="0.2"/>
<rect width="2" height="18" transform="matrix(-1 0 0 1 238 29)" fill="#FFFB00" fill-opacity="0.2"/>
<rect width="2" height="18" transform="matrix(-1 0 0 1 214 29)" fill="#FFFB00" fill-opacity="0.2"/>
<rect width="2" height="18" transform="matrix(-1 0 0 1 190 29)" fill="#FFFB00" fill-opacity="0.2"/>
<rect width="2" height="18" transform="matrix(-1 0 0 1 230 29)" fill="#FFFB00" fill-opacity="0.2"/>
<rect width="2" height="18" transform="matrix(-1 0 0 1 206 29)" fill="#FFFB00" fill-opacity="0.2"/>
<rect width="2" height="18" transform="matrix(-1 0 0 1 182 29)" fill="#FFFB00" fill-opacity="0.2"/>
<rect width="2" height="18" transform="matrix(-1 0 0 1 222 29)" fill="#FFFB00" fill-opacity="0.2"/>
<rect width="2" height="18" transform="matrix(-1 0 0 1 198 29)" fill="#FFFB00" fill-opacity="0.2"/>
<rect width="2" height="18" transform="matrix(-1 0 0 1 174 29)" fill="#FFFB00" fill-opacity="0.2"/>
<rect width="2" height="18" transform="matrix(-1 0 0 1 234 29)" fill="#FFFB00" fill-opacity="0.2"/>
<rect width="2" height="18" transform="matrix(-1 0 0 1 210 29)" fill="#FFFB00" fill-opacity="0.2"/>
<rect width="2" height="18" transform="matrix(-1 0 0 1 186 29)" fill="#FFFB00" fill-opacity="0.2"/>
<rect width="2" height="18" transform="matrix(-1 0 0 1 226 29)" fill="#FFFB00" fill-opacity="0.2"/>
<rect width="2" height="18" transform="matrix(-1 0 0 1 202 29)" fill="#FFFB00" fill-opacity="0.2"/>
<rect width="2" height="18" transform="matrix(-1 0 0 1 178 29)" fill="#FFFB00" fill-opacity="0.2"/>
<rect width="2" height="18" transform="matrix(-1 0 0 1 218 29)" fill="#FFFB00" fill-opacity="0.2"/>
<rect width="2" height="18" transform="matrix(-1 0 0 1 194 29)" fill="#FFFB00" fill-opacity="0.2"/>
<rect width="2" height="18" transform="matrix(-1 0 0 1 170 29)" fill="#FFFB00" fill-opacity="0.2"/>
<mask id="mask0_35_173" style="mask-type:alpha" maskUnits="userSpaceOnUse" x="0" y="13" width="345" height="44">
<rect x="0.00390625" y="13" width="343.997" height="44" fill="url(#paint0_linear_35_173)"/>
<rect x="0.503906" y="13.5" width="342.997" height="43" stroke="white" stroke-opacity="0.05"/>
</mask>
<g mask="url(#mask0_35_173)">
<g filter="url(#filter0_b_35_173)">
<rect x="0.00390625" y="-6.22339" width="343.997" height="63.2233" fill="black" fill-opacity="0.3"/>
<rect x="0.503906" y="-5.72339" width="342.997" height="62.2233" stroke="white" stroke-opacity="0.05"/>
</g>
</g>
<mask id="mask1_35_173" style="mask-type:alpha" maskUnits="userSpaceOnUse" x="0" y="13" width="344" height="44">
<rect width="343.997" height="44" transform="matrix(-1 0 0 1 343.997 13)" fill="url(#paint1_linear_35_173)"/>
<rect x="-0.5" y="0.5" width="342.997" height="43" transform="matrix(-1 0 0 1 342.997 13)" stroke="white" stroke-opacity="0.05"/>
</mask>
<g mask="url(#mask1_35_173)">
<g filter="url(#filter1_b_35_173)">
<rect width="344" height="61" transform="matrix(-1 0 0 1 344 -6)" fill="black" fill-opacity="0.3"/>
<rect x="-0.5" y="0.5" width="343" height="60" transform="matrix(-1 0 0 1 343 -6)" stroke="white" stroke-opacity="0.05"/>
</g>
</g>
<path fill-rule="evenodd" clip-rule="evenodd" d="M343 38.0555V19.7222H344V38.0555H343Z" fill="#FFFB00" fill-opacity="0.5"/>
<path fill-rule="evenodd" clip-rule="evenodd" d="M0.000488281 28V21H1.00049V28H0.000488281Z" fill="#FFFB00" fill-opacity="0.3"/>
<path fill-rule="evenodd" clip-rule="evenodd" d="M0 50V17H1V50H0Z" fill="#FFFB00" fill-opacity="0.5"/>
<path fill-rule="evenodd" clip-rule="evenodd" d="M0.000488281 33V25H1.00049V33H0.000488281Z" fill="#FFFB00" fill-opacity="0.8"/>
<path d="M50 57H69.5" stroke="#FFFB00" stroke-width="3"/>
<path d="M75.5 54.5H80" stroke="#FFFB00" stroke-width="3"/>
<path d="M84 56.5H86" stroke="#FFFB00" stroke-width="3"/>
<path d="M87 56.5H88.5" stroke="#FFFB00" stroke-width="3"/>
<path d="M264.5 13H284" stroke="#FFFB00" stroke-opacity="0.4"/>
<path d="M289.5 13H294" stroke="#FFFB00" stroke-opacity="0.4"/>
<path d="M298 13H300" stroke="#FFFB00" stroke-opacity="0.4"/>
<path d="M301 13H302.5" stroke="#FFFB00" stroke-opacity="0.4"/>
<path d="M325.5 56.5H345" stroke="#FFFB00" stroke-width="2"/>
<path d="M343 41H345" stroke="#FFFB00" stroke-width="2"/>
<path d="M343 54H344.5" stroke="#FFFB00" stroke-width="2"/>
<path d="M1.00049 19V13H7.00049" stroke="#FFFB00" stroke-width="2"/>
<path d="M344 19V13H338" stroke="#FFFB00" stroke-width="2"/>
<mask id="mask2_35_173" style="mask-type:alpha" maskUnits="userSpaceOnUse" x="3" y="16" width="32" height="7">
<path d="M3.00049 16H34.0005V23H3.00049V16Z" fill="#FFFB00"/>
</mask>
<g mask="url(#mask2_35_173)">
<path fill-rule="evenodd" clip-rule="evenodd" d="M32.0922 14.8295L18.8065 28.1152L17.7627 27.0714L31.0484 13.7856L32.0922 14.8295Z" fill="#FFFB00"/>
<path fill-rule="evenodd" clip-rule="evenodd" d="M36.5205 14.8295L23.2347 28.1152L22.1909 27.0714L35.4766 13.7856L36.5205 14.8295Z" fill="#FFFB00"/>
<path fill-rule="evenodd" clip-rule="evenodd" d="M40.9492 14.8295L27.6635 28.1152L26.6196 27.0714L39.9053 13.7856L40.9492 14.8295Z" fill="#FFFB00"/>
<path fill-rule="evenodd" clip-rule="evenodd" d="M45.3776 14.8295L32.0919 28.1152L31.0481 27.0714L44.3338 13.7856L45.3776 14.8295Z" fill="#FFFB00"/>
<path fill-rule="evenodd" clip-rule="evenodd" d="M27.6633 14.8295L14.3776 28.1152L13.3337 27.0714L26.6195 13.7856L27.6633 14.8295Z" fill="#FFFB00"/>
<path fill-rule="evenodd" clip-rule="evenodd" d="M23.2346 14.8295L9.94885 28.1152L8.90503 27.0714L22.1907 13.7856L23.2346 14.8295Z" fill="#FFFB00"/>
<path fill-rule="evenodd" clip-rule="evenodd" d="M18.8063 14.8295L5.52063 28.1152L4.47681 27.0714L17.7625 13.7856L18.8063 14.8295Z" fill="#FFFB00"/>
<path fill-rule="evenodd" clip-rule="evenodd" d="M14.3776 14.8295L1.09192 28.1152L0.0480957 27.0714L13.3338 13.7856L14.3776 14.8295Z" fill="#FFFB00"/>
<path fill-rule="evenodd" clip-rule="evenodd" d="M9.94917 14.8295L-3.33655 28.1152L-4.38037 27.0714L8.90534 13.7856L9.94917 14.8295Z" fill="#FFFB00"/>
<path fill-rule="evenodd" clip-rule="evenodd" d="M5.52046 14.8295L-7.76526 28.1152L-8.80908 27.0714L4.47663 13.7856L5.52046 14.8295Z" fill="#FFFB00"/>
</g>
<mask id="mask3_35_173" style="mask-type:alpha" maskUnits="userSpaceOnUse" x="310" y="16" width="32" height="7">
<path d="M310 16H341V23H310V16Z" fill="#FFFB00"/>
</mask>
<g mask="url(#mask3_35_173)">
<path fill-rule="evenodd" clip-rule="evenodd" d="M339.092 14.8295L325.807 28.1152L324.763 27.0714L338.048 13.7856L339.092 14.8295Z" fill="#FFFB00"/>
<path fill-rule="evenodd" clip-rule="evenodd" d="M343.52 14.8295L330.235 28.1152L329.191 27.0714L342.477 13.7856L343.52 14.8295Z" fill="#FFFB00"/>
<path fill-rule="evenodd" clip-rule="evenodd" d="M347.949 14.8295L334.663 28.1152L333.62 27.0714L346.905 13.7856L347.949 14.8295Z" fill="#FFFB00"/>
<path fill-rule="evenodd" clip-rule="evenodd" d="M352.378 14.8295L339.092 28.1152L338.048 27.0714L351.334 13.7856L352.378 14.8295Z" fill="#FFFB00"/>
<path fill-rule="evenodd" clip-rule="evenodd" d="M334.663 14.8295L321.378 28.1152L320.334 27.0714L333.619 13.7856L334.663 14.8295Z" fill="#FFFB00"/>
<path fill-rule="evenodd" clip-rule="evenodd" d="M330.235 14.8295L316.949 28.1152L315.905 27.0714L329.191 13.7856L330.235 14.8295Z" fill="#FFFB00"/>
<path fill-rule="evenodd" clip-rule="evenodd" d="M325.806 14.8295L312.521 28.1152L311.477 27.0714L324.763 13.7856L325.806 14.8295Z" fill="#FFFB00"/>
<path fill-rule="evenodd" clip-rule="evenodd" d="M321.378 14.8295L308.092 28.1152L307.048 27.0714L320.334 13.7856L321.378 14.8295Z" fill="#FFFB00"/>
<path fill-rule="evenodd" clip-rule="evenodd" d="M316.949 14.8295L303.663 28.1152L302.62 27.0714L315.905 13.7856L316.949 14.8295Z" fill="#FFFB00"/>
<path fill-rule="evenodd" clip-rule="evenodd" d="M312.52 14.8295L299.235 28.1152L298.191 27.0714L311.477 13.7856L312.52 14.8295Z" fill="#FFFB00"/>
</g>
<path d="M7.55787e-05 47L0 49.7071L7.43941 56.8536H336.5L342.646 50.7071L340.939 50L336.086 54.8536L7.85363 54.8536L7.55787e-05 47Z" fill="#FFFB00"/>
<path d="M0 50H21L14.1628 57H0V50Z" fill="#FFFB00"/>
<mask id="mask4_35_173" style="mask-type:alpha" maskUnits="userSpaceOnUse" x="14" y="50" width="21" height="7">
<path d="M14 50H35L28.1628 57H14V50Z" fill="#FFFB00"/>
</mask>
<g mask="url(#mask4_35_173)">
<path fill-rule="evenodd" clip-rule="evenodd" d="M33.7071 49.2071L24.7071 58.2071L24 57.5L33 48.5L33.7071 49.2071Z" fill="#FFFB00"/>
<path fill-rule="evenodd" clip-rule="evenodd" d="M30.7071 49.2071L21.7071 58.2071L21 57.5L30 48.5L30.7071 49.2071Z" fill="#FFFB00"/>
<path fill-rule="evenodd" clip-rule="evenodd" d="M27.7071 49.2071L18.7071 58.2071L18 57.5L27 48.5L27.7071 49.2071Z" fill="#FFFB00"/>
<path fill-rule="evenodd" clip-rule="evenodd" d="M24.7071 49.2071L15.7071 58.2071L15 57.5L24 48.5L24.7071 49.2071Z" fill="#FFFB00"/>
</g>
<path d="M93.0005 13H7.00049" stroke="#FFFB00" stroke-opacity="0.3"/>
<path d="M343 13H257" stroke="#FFFB00" stroke-opacity="0.3"/>
<path d="M211 1H231" stroke="#FFFB00" stroke-width="2"/>
<path d="M241 1H255" stroke="#FFFB00" stroke-width="2"/>
<g filter="url(#filter2_b_35_173)">
<path fill-rule="evenodd" clip-rule="evenodd" d="M154.923 2L66 2.176V22.0601L73.7161 26H76.6343V25H79.2929V26H83.2807V25H84.6099V26H85.9392V25H96.5734V26H97.9026V25H101.89V26H276.304V25.805L276.47 25.8977L284 22.0601V2.176L195.077 2L188.089 6.52776H161.911L154.923 2Z" fill="#FFFB00"/>
<path d="M66 2.176L65.999 1.676L65.5 1.67698V2.176H66ZM154.923 2L155.195 1.58038L155.07 1.49971L154.922 1.5L154.923 2ZM66 22.0601H65.5V22.3662L65.7726 22.5054L66 22.0601ZM73.7161 26L73.4887 26.4453L73.5958 26.5H73.7161V26ZM76.6343 26V26.5H77.1343V26H76.6343ZM76.6343 25V24.5H76.1343V25H76.6343ZM79.2929 25H79.7929V24.5H79.2929V25ZM79.2929 26H78.7929V26.5H79.2929V26ZM83.2807 26V26.5H83.7807V26H83.2807ZM83.2807 25V24.5H82.7807V25H83.2807ZM84.6099 25H85.1099V24.5H84.6099V25ZM84.6099 26H84.1099V26.5H84.6099V26ZM85.9392 26V26.5H86.4392V26H85.9392ZM85.9392 25V24.5H85.4392V25H85.9392ZM96.5734 25H97.0734V24.5H96.5734V25ZM96.5734 26H96.0734V26.5H96.5734V26ZM97.9026 26V26.5H98.4026V26H97.9026ZM97.9026 25V24.5H97.4026V25H97.9026ZM101.89 25H102.39V24.5H101.89V25ZM101.89 26H101.39V26.5H101.89V26ZM276.304 26V26.5H276.804V26H276.304ZM276.304 25.805L276.548 25.3685L275.804 24.9529V25.805H276.304ZM276.47 25.8977L276.226 26.3342L276.459 26.4645L276.697 26.3432L276.47 25.8977ZM284 22.0601L284.227 22.5056L284.5 22.3665V22.0601H284ZM284 2.176H284.5V1.67698L284.001 1.676L284 2.176ZM195.077 2L195.078 1.5L194.93 1.49971L194.805 1.58038L195.077 2ZM188.089 6.52776V7.02776H188.237L188.361 6.94738L188.089 6.52776ZM161.911 6.52776L161.639 6.94738L161.763 7.02776H161.911V6.52776ZM66.001 2.67599L154.924 2.5L154.922 1.5L65.999 1.676L66.001 2.67599ZM66.5 22.0601V2.176H65.5V22.0601H66.5ZM73.9435 25.5547L66.2274 21.6148L65.7726 22.5054L73.4887 26.4453L73.9435 25.5547ZM76.6343 25.5H73.7161V26.5H76.6343V25.5ZM76.1343 25V26H77.1343V25H76.1343ZM79.2929 24.5H76.6343V25.5H79.2929V24.5ZM79.7929 26V25H78.7929V26H79.7929ZM83.2807 25.5H79.2929V26.5H83.2807V25.5ZM82.7807 25V26H83.7807V25H82.7807ZM84.6099 24.5H83.2807V25.5H84.6099V24.5ZM85.1099 26V25H84.1099V26H85.1099ZM85.9392 25.5H84.6099V26.5H85.9392V25.5ZM85.4392 25V26H86.4392V25H85.4392ZM96.5734 24.5H85.9392V25.5H96.5734V24.5ZM97.0734 26V25H96.0734V26H97.0734ZM97.9026 25.5H96.5734V26.5H97.9026V25.5ZM97.4026 25V26H98.4026V25H97.4026ZM101.89 24.5H97.9026V25.5H101.89V24.5ZM102.39 26V25H101.39V26H102.39ZM276.304 25.5H101.89V26.5H276.304V25.5ZM275.804 25.805V26H276.804V25.805H275.804ZM276.714 25.4613L276.548 25.3685L276.06 26.2415L276.226 26.3342L276.714 25.4613ZM283.773 21.6146L276.243 25.4523L276.697 26.3432L284.227 22.5056L283.773 21.6146ZM283.5 2.176V22.0601H284.5V2.176H283.5ZM195.076 2.5L283.999 2.67599L284.001 1.676L195.078 1.5L195.076 2.5ZM188.361 6.94738L195.349 2.41962L194.805 1.58038L187.817 6.10814L188.361 6.94738ZM161.911 7.02776H188.089V6.02776H161.911V7.02776ZM154.651 2.41962L161.639 6.94738L162.183 6.10814L155.195 1.58038L154.651 2.41962Z" fill="#FFFB00"/>
</g>
<rect width="2" height="18" transform="matrix(-1 0 0 1 171 29)" fill="#FFFB00" fill-opacity="0.2"/>
<rect width="2" height="18" transform="matrix(-1 0 0 1 167 29)" fill="#FFFB00" fill-opacity="0.2"/>
<rect width="2" height="18" transform="matrix(-1 0 0 1 163 29)" fill="#FFFB00" fill-opacity="0.2"/>
<rect width="2" height="18" transform="matrix(-1 0 0 1 159 29)" fill="#FFFB00" fill-opacity="0.2"/>
<rect width="2" height="18" transform="matrix(-1 0 0 1 151 29)" fill="#FFFB00" fill-opacity="0.2"/>
<rect width="2" height="18" transform="matrix(-1 0 0 1 143 29)" fill="#FFFB00" fill-opacity="0.2"/>
<rect width="2" height="18" transform="matrix(-1 0 0 1 135 29)" fill="#FFFB00" fill-opacity="0.2"/>
<rect width="2" height="18" transform="matrix(-1 0 0 1 127 29)" fill="#FFFB00" fill-opacity="0.2"/>
<rect width="2" height="18" transform="matrix(-1 0 0 1 119 29)" fill="#FFFB00" fill-opacity="0.2"/>
<rect width="2" height="18" transform="matrix(-1 0 0 1 111 29)" fill="#FFFB00" fill-opacity="0.2"/>
<rect width="2" height="18" transform="matrix(-1 0 0 1 155 29)" fill="#FFFB00" fill-opacity="0.2"/>
<rect width="2" height="18" transform="matrix(-1 0 0 1 147 29)" fill="#FFFB00" fill-opacity="0.2"/>
<rect width="2" height="18" transform="matrix(-1 0 0 1 139 29)" fill="#FFFB00" fill-opacity="0.2"/>
<rect width="2" height="18" transform="matrix(-1 0 0 1 131 29)" fill="#FFFB00" fill-opacity="0.2"/>
<rect width="2" height="18" transform="matrix(-1 0 0 1 123 29)" fill="#FFFB00" fill-opacity="0.2"/>
<rect width="2" height="18" transform="matrix(-1 0 0 1 115 29)" fill="#FFFB00" fill-opacity="0.2"/>
<rect width="2" height="18" transform="matrix(-1 0 0 1 107 29)" fill="#FFFB00" fill-opacity="0.2"/>
<rect width="2" height="18" transform="matrix(-1 0 0 1 103 29)" fill="#FFFB00" fill-opacity="0.2"/>
<rect width="2" height="18" transform="matrix(-1 0 0 1 95 29)" fill="#FFFB00" fill-opacity="0.2"/>
<rect width="2" height="18" transform="matrix(-1 0 0 1 87 29)" fill="#FFFB00" fill-opacity="0.2"/>
<rect width="2" height="18" transform="matrix(-1 0 0 1 99 29)" fill="#FFFB00" fill-opacity="0.2"/>
<rect width="2" height="18" transform="matrix(-1 0 0 1 91 29)" fill="#FFFB00" fill-opacity="0.2"/>
<rect width="2" height="18" transform="matrix(-1 0 0 1 83 29)" fill="#FFFB00" fill-opacity="0.2"/>
<rect width="2" height="18" transform="matrix(-1 0 0 1 79 29)" fill="#FFFB00" fill-opacity="0.2"/>
<rect width="2" height="18" transform="matrix(-1 0 0 1 55 29)" fill="#FFFB00" fill-opacity="0.2"/>
<rect width="2" height="18" transform="matrix(-1 0 0 1 31 29)" fill="#FFFB00" fill-opacity="0.2"/>
<rect width="2" height="18" transform="matrix(-1 0 0 1 71 29)" fill="#FFFB00" fill-opacity="0.2"/>
<rect width="2" height="18" transform="matrix(-1 0 0 1 47 29)" fill="#FFFB00" fill-opacity="0.2"/>
<rect width="2" height="18" transform="matrix(-1 0 0 1 23 29)" fill="#FFFB00" fill-opacity="0.2"/>
<rect width="2" height="18" transform="matrix(-1 0 0 1 63 29)" fill="#FFFB00" fill-opacity="0.2"/>
<rect width="2" height="18" transform="matrix(-1 0 0 1 39 29)" fill="#FFFB00" fill-opacity="0.2"/>
<rect width="2" height="18" transform="matrix(-1 0 0 1 15 29)" fill="#FFFB00" fill-opacity="0.2"/>
<rect width="2" height="18" transform="matrix(-1 0 0 1 75 29)" fill="#FFFB00" fill-opacity="0.2"/>
<rect width="2" height="18" transform="matrix(-1 0 0 1 51 29)" fill="#FFFB00" fill-opacity="0.2"/>
<rect width="2" height="18" transform="matrix(-1 0 0 1 27 29)" fill="#FFFB00" fill-opacity="0.2"/>
<rect width="2" height="18" transform="matrix(-1 0 0 1 67 29)" fill="#FFFB00" fill-opacity="0.2"/>
<rect width="2" height="18" transform="matrix(-1 0 0 1 43 29)" fill="#FFFB00" fill-opacity="0.2"/>
<rect width="2" height="18" transform="matrix(-1 0 0 1 19 29)" fill="#FFFB00" fill-opacity="0.2"/>
<rect width="2" height="18" transform="matrix(-1 0 0 1 59 29)" fill="#FFFB00" fill-opacity="0.2"/>
<rect width="2" height="18" transform="matrix(-1 0 0 1 35 29)" fill="#FFFB00" fill-opacity="0.2"/>
<rect width="2" height="18" transform="matrix(-1 0 0 1 11 29)" fill="#FFFB00" fill-opacity="0.2"/>
<rect width="2" height="18" transform="matrix(-1 0 0 1 335 29)" fill="#FFFB00" fill-opacity="0.2"/>
<rect width="2" height="18" transform="matrix(-1 0 0 1 331 29)" fill="#FFFB00" fill-opacity="0.2"/>
<rect width="2" height="18" transform="matrix(-1 0 0 1 327 29)" fill="#FFFB00" fill-opacity="0.2"/>
<rect width="2" height="18" transform="matrix(-1 0 0 1 323 29)" fill="#FFFB00" fill-opacity="0.2"/>
<rect width="2" height="18" transform="matrix(-1 0 0 1 315 29)" fill="#FFFB00" fill-opacity="0.2"/>
<rect width="2" height="18" transform="matrix(-1 0 0 1 307 29)" fill="#FFFB00" fill-opacity="0.2"/>
<rect width="2" height="18" transform="matrix(-1 0 0 1 299 29)" fill="#FFFB00" fill-opacity="0.2"/>
<rect width="2" height="18" transform="matrix(-1 0 0 1 291 29)" fill="#FFFB00" fill-opacity="0.2"/>
<rect width="2" height="18" transform="matrix(-1 0 0 1 283 29)" fill="#FFFB00" fill-opacity="0.2"/>
<rect width="2" height="18" transform="matrix(-1 0 0 1 275 29)" fill="#FFFB00" fill-opacity="0.2"/>
<rect width="2" height="18" transform="matrix(-1 0 0 1 319 29)" fill="#FFFB00" fill-opacity="0.2"/>
<rect width="2" height="18" transform="matrix(-1 0 0 1 311 29)" fill="#FFFB00" fill-opacity="0.2"/>
<rect width="2" height="18" transform="matrix(-1 0 0 1 303 29)" fill="#FFFB00" fill-opacity="0.2"/>
<rect width="2" height="18" transform="matrix(-1 0 0 1 295 29)" fill="#FFFB00" fill-opacity="0.2"/>
<rect width="2" height="18" transform="matrix(-1 0 0 1 287 29)" fill="#FFFB00" fill-opacity="0.2"/>
<rect width="2" height="18" transform="matrix(-1 0 0 1 279 29)" fill="#FFFB00" fill-opacity="0.2"/>
<rect width="2" height="18" transform="matrix(-1 0 0 1 271 29)" fill="#FFFB00" fill-opacity="0.2"/>
<rect width="2" height="18" transform="matrix(-1 0 0 1 267 29)" fill="#FFFB00" fill-opacity="0.2"/>
<rect width="2" height="18" transform="matrix(-1 0 0 1 259 29)" fill="#FFFB00" fill-opacity="0.2"/>
<rect width="2" height="18" transform="matrix(-1 0 0 1 251 29)" fill="#FFFB00" fill-opacity="0.2"/>
<rect width="2" height="18" transform="matrix(-1 0 0 1 263 29)" fill="#FFFB00" fill-opacity="0.2"/>
<rect width="2" height="18" transform="matrix(-1 0 0 1 255 29)" fill="#FFFB00" fill-opacity="0.2"/>
<rect width="2" height="18" transform="matrix(-1 0 0 1 247 29)" fill="#FFFB00" fill-opacity="0.2"/>
<rect width="2" height="18" transform="matrix(-1 0 0 1 243 29)" fill="#FFFB00" fill-opacity="0.2"/>
<rect width="2" height="18" transform="matrix(-1 0 0 1 219 29)" fill="#FFFB00" fill-opacity="0.2"/>
<rect width="2" height="18" transform="matrix(-1 0 0 1 195 29)" fill="#FFFB00" fill-opacity="0.2"/>
<rect width="2" height="18" transform="matrix(-1 0 0 1 235 29)" fill="#FFFB00" fill-opacity="0.2"/>
<rect width="2" height="18" transform="matrix(-1 0 0 1 211 29)" fill="#FFFB00" fill-opacity="0.2"/>
<rect width="2" height="18" transform="matrix(-1 0 0 1 187 29)" fill="#FFFB00" fill-opacity="0.2"/>
<rect width="2" height="18" transform="matrix(-1 0 0 1 227 29)" fill="#FFFB00" fill-opacity="0.2"/>
<rect width="2" height="18" transform="matrix(-1 0 0 1 203 29)" fill="#FFFB00" fill-opacity="0.2"/>
<rect width="2" height="18" transform="matrix(-1 0 0 1 179 29)" fill="#FFFB00" fill-opacity="0.2"/>
<rect width="2" height="18" transform="matrix(-1 0 0 1 239 29)" fill="#FFFB00" fill-opacity="0.2"/>
<rect width="2" height="18" transform="matrix(-1 0 0 1 215 29)" fill="#FFFB00" fill-opacity="0.2"/>
<rect width="2" height="18" transform="matrix(-1 0 0 1 191 29)" fill="#FFFB00" fill-opacity="0.2"/>
<rect width="2" height="18" transform="matrix(-1 0 0 1 231 29)" fill="#FFFB00" fill-opacity="0.2"/>
<rect width="2" height="18" transform="matrix(-1 0 0 1 207 29)" fill="#FFFB00" fill-opacity="0.2"/>
<rect width="2" height="18" transform="matrix(-1 0 0 1 183 29)" fill="#FFFB00" fill-opacity="0.2"/>
<rect width="2" height="18" transform="matrix(-1 0 0 1 223 29)" fill="#FFFB00" fill-opacity="0.2"/>
<rect width="2" height="18" transform="matrix(-1 0 0 1 199 29)" fill="#FFFB00" fill-opacity="0.2"/>
<rect width="2" height="18" transform="matrix(-1 0 0 1 175 29)" fill="#FFFB00" fill-opacity="0.2"/>
<defs>
<filter id="filter0_b_35_173" x="-43.9961" y="-50.2234" width="431.997" height="151.223" filterUnits="userSpaceOnUse" color-interpolation-filters="sRGB">
<feFlood flood-opacity="0" result="BackgroundImageFix"/>
<feGaussianBlur in="BackgroundImageFix" stdDeviation="22"/>
<feComposite in2="SourceAlpha" operator="in" result="effect1_backgroundBlur_35_173"/>
<feBlend mode="normal" in="SourceGraphic" in2="effect1_backgroundBlur_35_173" result="shape"/>
</filter>
<filter id="filter1_b_35_173" x="-44.0002" y="-50" width="432" height="149" filterUnits="userSpaceOnUse" color-interpolation-filters="sRGB">
<feFlood flood-opacity="0" result="BackgroundImageFix"/>
<feGaussianBlur in="BackgroundImageFix" stdDeviation="22"/>
<feComposite in2="SourceAlpha" operator="in" result="effect1_backgroundBlur_35_173"/>
<feBlend mode="normal" in="SourceGraphic" in2="effect1_backgroundBlur_35_173" result="shape"/>
</filter>
<filter id="filter2_b_35_173" x="55.5" y="-8.50024" width="239" height="45.0002" filterUnits="userSpaceOnUse" color-interpolation-filters="sRGB">
<feFlood flood-opacity="0" result="BackgroundImageFix"/>
<feGaussianBlur in="BackgroundImageFix" stdDeviation="5"/>
<feComposite in2="SourceAlpha" operator="in" result="effect1_backgroundBlur_35_173"/>
<feBlend mode="normal" in="SourceGraphic" in2="effect1_backgroundBlur_35_173" result="shape"/>
</filter>
<linearGradient id="paint0_linear_35_173" x1="172.002" y1="13" x2="172.002" y2="57" gradientUnits="userSpaceOnUse">
<stop stop-opacity="0"/>
<stop offset="0.505703" stop-opacity="0.81"/>
<stop offset="1"/>
</linearGradient>
<linearGradient id="paint1_linear_35_173" x1="171.998" y1="0" x2="171.998" y2="44" gradientUnits="userSpaceOnUse">
<stop stop-opacity="0"/>
<stop offset="0.505703" stop-opacity="0.81"/>
<stop offset="1"/>
</linearGradient>
</defs>
</svg>
