<svg width="50" height="34" viewBox="0 0 50 34" fill="none" xmlns="http://www.w3.org/2000/svg">
<path d="M12.7036 16.247H14.3316V14.421H12.7036C12.6669 14.421 12.6339 14.4357 12.6046 14.465C12.5826 14.487 12.5716 14.5163 12.5716 14.553V16.115C12.5716 16.1517 12.5826 16.1847 12.6046 16.214C12.6339 16.236 12.6669 16.247 12.7036 16.247Z" fill="#FFFB00"/>
<path d="M15.7726 19.459H17.4006C17.4299 19.459 17.4593 19.448 17.4886 19.426C17.5179 19.3967 17.5326 19.3637 17.5326 19.327V17.82C17.5326 17.7833 17.5179 17.754 17.4886 17.732C17.4593 17.7027 17.4263 17.688 17.3896 17.688H15.7726V19.459Z" fill="#FFFB00"/>
<path d="M21.8126 16.247H23.4406V14.421H21.8126C21.7759 14.421 21.7429 14.4357 21.7136 14.465C21.6916 14.487 21.6806 14.5163 21.6806 14.553V16.115C21.6806 16.1517 21.6916 16.1847 21.7136 16.214C21.7429 16.236 21.7759 16.247 21.8126 16.247Z" fill="#FFFB00"/>
<path d="M24.8816 19.459H26.5096C26.5389 19.459 26.5682 19.448 26.5976 19.426C26.6269 19.3967 26.6416 19.3637 26.6416 19.327V17.82C26.6416 17.7833 26.6269 17.754 26.5976 17.732C26.5682 17.7027 26.5352 17.688 26.4986 17.688H24.8816V19.459Z" fill="#FFFB00"/>
<path d="M32.5495 16.247H30.9215C30.8848 16.247 30.8518 16.236 30.8225 16.214C30.8005 16.1847 30.7895 16.1517 30.7895 16.115V14.553C30.7895 14.5163 30.8005 14.487 30.8225 14.465C30.8518 14.4357 30.8848 14.421 30.9215 14.421H32.5495V16.247Z" fill="#FFFB00"/>
<path d="M35.6185 19.459H33.9905V17.688H35.6075C35.6442 17.688 35.6772 17.7027 35.7065 17.732C35.7358 17.754 35.7505 17.7833 35.7505 17.82V19.327C35.7505 19.3637 35.7358 19.3967 35.7065 19.426C35.6772 19.448 35.6478 19.459 35.6185 19.459Z" fill="#FFFB00"/>
<path fill-rule="evenodd" clip-rule="evenodd" d="M49.0471 0H0V2.19998H17.2778L20.7386 5.66078C20.954 5.5577 21.1953 5.49998 21.45 5.49998C22.3613 5.49998 23.1 6.23871 23.1 7.14998C23.1 8.06124 22.3613 8.79998 21.45 8.79998C20.5387 8.79998 19.8 8.06124 19.8 7.14998C19.8 6.89525 19.8577 6.654 19.9608 6.4386L16.8222 3.29998H0V5.49998H8.89389C9.1204 4.85912 9.73158 4.39998 10.45 4.39998C11.3613 4.39998 12.1 5.13871 12.1 6.04998C12.1 6.96125 11.3613 7.69998 10.45 7.69998C9.73158 7.69998 9.1204 7.24083 8.89389 6.59998H0V20.9H1.1V28.6H0V33.3208H4.95L4.95001 16.6762L3.20691 14.2359C3.06181 14.2776 2.90852 14.3 2.75 14.3C1.83873 14.3 1.1 13.5612 1.1 12.65C1.1 11.7387 1.83873 11 2.75 11C3.66127 11 4.4 11.7387 4.4 12.65C4.4 13.0021 4.28973 13.3284 4.10184 13.5963L6.05001 16.3237V26.95H28.3722L29.8609 25.4612C29.7579 25.2459 29.7002 25.0047 29.7002 24.75C29.7002 23.8387 30.4389 23.1 31.3502 23.1C32.2615 23.1 33.0002 23.8387 33.0002 24.75C33.0002 25.6612 32.2615 26.4 31.3502 26.4C31.0954 26.4 30.8541 26.3422 30.6387 26.2391L28.8278 28.05H6.05001V29.7H37.6833L40.7 26.4637V4.30609C40.0591 4.07958 39.6 3.4684 39.6 2.74998C39.6 1.83871 40.3387 1.09998 41.25 1.09998C42.1613 1.09998 42.9 1.83871 42.9 2.74998C42.9 3.4684 42.4409 4.07958 41.8 4.30609V25.2836L44.55 22.3334V18.6061C43.9091 18.3796 43.45 17.7684 43.45 17.05C43.45 16.1387 44.1887 15.4 45.1 15.4C46.0113 15.4 46.75 16.1387 46.75 17.05C46.75 17.7684 46.2909 18.3796 45.65 18.6061V22.7666L41.8 26.8968V26.95H41.7505L38.1617 30.8H6.05V33.3208H41.0405L49.0471 25.3143V12.1H48.4V4.4H49.0471V3.3H48.4V1.1H49.0471V0ZM25.85 5.5L22 1.65V0.55H35.75V5.5H25.85ZM14.3316 22.033V20.9H12.6596C12.3663 20.9 12.1023 20.8303 11.8676 20.691C11.6403 20.5517 11.4606 20.3683 11.3286 20.141C11.1966 19.9063 11.1306 19.6497 11.1306 19.371V18.799H12.5716V19.327C12.5716 19.3637 12.5826 19.3967 12.6046 19.426C12.6339 19.448 12.6669 19.459 12.7036 19.459H14.3316V17.688H12.6596C12.3736 17.688 12.1133 17.622 11.8786 17.49C11.6513 17.3507 11.4679 17.1637 11.3286 16.929C11.1966 16.6943 11.1306 16.4303 11.1306 16.137V14.509C11.1306 14.223 11.1966 13.9663 11.3286 13.739C11.4606 13.5043 11.6403 13.321 11.8676 13.189C12.1023 13.0497 12.3663 12.98 12.6596 12.98H14.3316V11.847H15.7726V12.98H17.4336C17.7269 12.98 17.9873 13.0497 18.2146 13.189C18.4493 13.321 18.6326 13.5043 18.7646 13.739C18.9039 13.9663 18.9736 14.223 18.9736 14.509L18.9626 15.092H17.5326V14.553C17.5326 14.5163 17.5179 14.487 17.4886 14.465C17.4593 14.4357 17.4263 14.421 17.3896 14.421H15.7726V16.247H17.4336C17.7269 16.247 17.9873 16.3167 18.2146 16.456C18.4493 16.588 18.6326 16.7677 18.7646 16.995C18.9039 17.2223 18.9736 17.4717 18.9736 17.743V19.371C18.9736 19.6497 18.9039 19.9063 18.7646 20.141C18.6326 20.3683 18.4493 20.5517 18.2146 20.691C17.9873 20.8303 17.7306 20.9 17.4446 20.9H15.7726V22.033H14.3316ZM23.4406 22.033V20.9H21.7686C21.4752 20.9 21.2112 20.8303 20.9766 20.691C20.7492 20.5517 20.5696 20.3683 20.4376 20.141C20.3056 19.9063 20.2396 19.6497 20.2396 19.371V18.799H21.6806V19.327C21.6806 19.3637 21.6916 19.3967 21.7136 19.426C21.7429 19.448 21.7759 19.459 21.8126 19.459H23.4406V17.688H21.7686C21.4826 17.688 21.2222 17.622 20.9876 17.49C20.7602 17.3507 20.5769 17.1637 20.4376 16.929C20.3056 16.6943 20.2396 16.4303 20.2396 16.137V14.509C20.2396 14.223 20.3056 13.9663 20.4376 13.739C20.5696 13.5043 20.7492 13.321 20.9766 13.189C21.2112 13.0497 21.4752 12.98 21.7686 12.98H23.4406V11.847H24.8816V12.98H26.5426C26.8359 12.98 27.0962 13.0497 27.3236 13.189C27.5582 13.321 27.7416 13.5043 27.8736 13.739C28.0129 13.9663 28.0826 14.223 28.0826 14.509L28.0716 15.092H26.6416V14.553C26.6416 14.5163 26.6269 14.487 26.5976 14.465C26.5682 14.4357 26.5352 14.421 26.4986 14.421H24.8816V16.247H26.5426C26.8359 16.247 27.0962 16.3167 27.3236 16.456C27.5582 16.588 27.7416 16.7677 27.8736 16.995C28.0129 17.2223 28.0826 17.4717 28.0826 17.743V19.371C28.0826 19.6497 28.0129 19.9063 27.8736 20.141C27.7416 20.3683 27.5582 20.5517 27.3236 20.691C27.0962 20.8303 26.8396 20.9 26.5536 20.9H24.8816V22.033H23.4406ZM32.5495 20.9V22.033H33.9905V20.9H35.6625C35.9485 20.9 36.2052 20.8303 36.4325 20.691C36.6672 20.5517 36.8505 20.3683 36.9825 20.141C37.1218 19.9063 37.1915 19.6497 37.1915 19.371V17.743C37.1915 17.4717 37.1218 17.2223 36.9825 16.995C36.8505 16.7677 36.6672 16.588 36.4325 16.456C36.2052 16.3167 35.9448 16.247 35.6515 16.247H33.9905V14.421H35.6075C35.6442 14.421 35.6772 14.4357 35.7065 14.465C35.7358 14.487 35.7505 14.5163 35.7505 14.553V15.092H37.1805L37.1915 14.509C37.1915 14.223 37.1218 13.9663 36.9825 13.739C36.8505 13.5043 36.6672 13.321 36.4325 13.189C36.2052 13.0497 35.9448 12.98 35.6515 12.98H33.9905V11.847H32.5495V12.98H30.8775C30.5842 12.98 30.3202 13.0497 30.0855 13.189C29.8582 13.321 29.6785 13.5043 29.5465 13.739C29.4145 13.9663 29.3485 14.223 29.3485 14.509V16.137C29.3485 16.4303 29.4145 16.6943 29.5465 16.929C29.6858 17.1637 29.8692 17.3507 30.0965 17.49C30.3312 17.622 30.5915 17.688 30.8775 17.688H32.5495V19.459H30.9215C30.8848 19.459 30.8518 19.448 30.8225 19.426C30.8005 19.3967 30.7895 19.3637 30.7895 19.327V18.799H29.3485V19.371C29.3485 19.6497 29.4145 19.9063 29.5465 20.141C29.6785 20.3683 29.8582 20.5517 30.0855 20.691C30.3202 20.8303 30.5842 20.9 30.8775 20.9H32.5495Z" fill="#FFFB00"/>
</svg>
