<svg width="169" height="131" viewBox="0 0 169 131" fill="none" xmlns="http://www.w3.org/2000/svg">
<path d="M46.7251 30.9655C47.4708 31.7734 45.2338 31.7112 45.6688 32.2083C46.7251 32.5812 44.861 33.8861 44.3017 33.8861C44.0532 33.8239 43.991 33.8239 43.991 34.0104C43.991 34.4453 43.1211 34.3832 42.8725 34.6939C42.9347 34.8182 42.0647 35.6881 42.4375 35.626C42.624 35.626 42.7482 35.6881 42.7482 35.8124C42.6861 36.061 42.3133 35.9988 42.9347 36.1852C43.7425 36.2474 42.5618 37.1173 42.9968 37.1795C43.8667 38.1737 42.8104 38.0494 36.845 38.1737C32.7438 38.298 29.5747 38.0494 26.0949 38.3601C25.5978 39.665 24.7279 41.902 24.5414 43.3934C24.6657 44.0148 23.9822 45.3818 23.8579 45.8168C24.4793 45.8789 27.897 45.6304 28.5805 45.5061C30.6311 45.2576 35.2915 45.5061 37.0314 45.3818C39.2063 45.0711 38.3364 46.3139 37.3421 47.0596C36.5343 47.8053 35.6644 47.681 34.7944 48.3024C33.2409 48.7373 34.8566 49.7937 31.5632 50.6637C31.2525 50.9122 30.2583 50.8501 30.7554 51.1608C30.8175 51.2229 30.8796 51.2851 30.8796 51.3472C30.7554 51.9686 31.501 51.8443 31.3768 52.4657C31.2525 52.5278 30.5068 52.7764 31.0039 52.8385C31.1282 52.8385 31.1903 52.9007 31.1903 53.025C29.9476 53.4599 25.3493 53.1492 24.2308 53.2114C23.3608 53.2114 21.7452 53.3978 20.9374 53.4599C20.1917 54.827 19.6946 56.4426 19.446 57.9961C19.3839 58.4932 16.9605 58.2446 15.6555 58.2446C15.1584 58.2446 14.7856 58.3068 14.8477 58.4311C13.8535 58.7418 25.4114 58.4311 20.1917 58.866C19.0111 58.9903 19.0111 58.4932 18.7004 59.7981C18.6382 59.8603 18.2032 61.4759 18.0168 61.3516C17.9547 61.3516 17.8926 61.3516 17.9547 61.538C18.079 62.0351 17.4576 62.2216 17.5197 62.7187C17.5197 63.2158 17.3333 64.0236 17.209 64.0236C16.8983 64.7693 9.56213 85.2149 9.43786 85.7742C9.56213 86.2713 9.00288 85.7121 9.12716 86.147C9.12716 86.2713 9.12716 86.3956 9.06502 86.3956C8.38149 87.2034 8.07079 89.8132 6.82801 90.1239C5.89592 90.2482 5.77164 89.7511 5.58523 89.7511C5.46095 89.7511 5.33667 90.0618 4.77742 90.9939C4.96383 91.3667 3.47249 91.6774 3.53463 92.2988C3.53463 92.9202 2.60254 92.9202 2.5404 93.6037C2.41613 94.598 1.35976 94.8465 0.800507 95.5301C0.551951 95.7165 0.303394 95.7786 0.179116 95.7786C-0.504416 95.7786 0.986925 93.1688 0.862647 92.5474C0.924786 91.8638 0.986924 91.6774 1.29762 91.1803C1.85687 90.1239 1.73259 88.7569 2.22971 87.7005C2.29185 86.3956 9.44162 66.6956 9.8766 65.6392C9.8766 65.3285 9.75232 64.4586 10.1873 64.2721C10.3737 64.3343 10.2494 63.1536 10.5601 63.4022C10.9951 62.2215 11.4922 60.4195 11.9893 58.9903C11.9893 58.866 11.9893 58.866 12.0515 59.0525C12.1757 59.1767 12.1757 59.1767 12.1757 58.9282C12.1136 58.5553 12.2379 58.1825 12.3622 58.1825C12.4864 57.934 12.3622 57.6233 12.6107 57.064C14.1021 53.1492 14.2885 53.5221 13.4807 53.5221C13.0457 53.5221 12.3 53.3978 11.2437 52.4036C11.4301 52.4036 11.8651 52.6521 11.7408 52.3414C11.7408 52.0307 11.2437 52.0929 11.6165 51.9064C11.7408 51.9686 11.9893 51.6579 11.9893 51.4715C11.9893 51.2229 12.6729 51.4715 12.6729 51.0986C11.3058 50.9744 10.8708 51.0365 11.3058 49.3587C11.3679 48.8616 12.2379 49.2966 12.1757 48.7374C12.1757 48.6131 12.2379 48.5509 12.4243 48.5509C12.735 48.3645 12.9214 48.3024 13.0457 48.3024C13.2321 48.3024 13.17 48.4888 13.2321 48.4888C13.2943 48.4888 13.3564 48.4888 13.4185 48.3645C13.9156 47.9295 13.6671 48.3645 13.8535 48.4267C13.9778 48.3645 14.1642 47.9917 14.3506 48.3024C14.4128 48.3645 14.5992 47.9917 14.9099 48.116C15.2206 48.2402 15.4691 47.8053 15.4691 48.0538C15.0963 48.7995 15.842 47.9295 15.9041 47.5567C14.6613 47.7431 15.1584 47.3081 14.4749 47.1839C10.933 46.5003 15.0342 46.1896 16.4634 46.0654C16.4634 45.5061 16.9605 45.1333 16.8983 44.5119C16.9605 44.3255 17.5197 43.5798 17.4576 43.2691C17.4576 42.8341 17.8304 42.2749 17.9547 41.8399C17.9547 41.0942 18.6382 40.1621 18.7004 39.3543C12.8593 39.2301 21.683 39.1679 23.6715 39.1679H21.3723C19.2596 39.1058 18.8868 39.0436 18.8868 38.9194C18.8868 38.6708 19.1975 38.9194 19.0111 38.6087C18.8246 37.9873 19.6325 38.3601 18.5139 37.6144C18.3275 37.428 18.3897 37.1795 18.6382 37.3659C18.8868 37.3037 18.7004 36.993 18.3275 37.0552C17.8926 36.6823 18.4518 36.7445 18.8246 36.6823C19.3839 36.5581 18.079 36.1231 19.3218 36.1231C20.5645 35.9988 18.1411 35.9988 17.8304 35.8124C17.209 35.5638 17.7683 35.0046 17.644 34.4453C17.5819 33.4511 17.8304 34.3211 18.079 33.9482C18.079 33.7618 18.0168 33.6375 17.7683 33.389C16.774 32.4569 18.079 32.6433 18.7004 32.7676C18.3897 32.7054 18.1411 32.5812 17.8926 32.3326C17.2712 31.8355 17.209 32.519 16.2148 32.084C14.537 31.7112 14.9099 30.9655 15.7798 30.9655C15.9662 30.9655 16.2148 31.0277 16.4012 31.0898C16.7119 31.2141 16.8983 31.2141 17.0847 31.2141C17.5197 31.2141 17.5197 30.8413 18.7625 30.9655C19.7567 30.9655 20.2538 30.9655 20.9374 30.9034C21.3723 29.4121 21.9937 28.2936 22.4909 26.9265C22.8015 26.4294 22.6773 25.373 23.2987 25.373C23.6715 25.373 23.8579 25.6837 23.8579 26.4915C23.7336 28.1693 25.1007 27.4857 24.9764 29.1014C26.5299 28.6042 25.7842 30.2199 26.6542 30.2199C26.9649 30.2199 27.3377 30.4684 27.3999 30.717C28.5184 30.8413 29.8233 30.8413 31.3146 30.8413C34.4216 30.8413 38.1499 30.717 41.4433 30.717C43.4318 30.717 45.2959 30.7791 46.7251 30.9655ZM16.4012 53.8949C16.5876 53.5221 16.5876 53.4599 16.4634 53.4599C16.3391 53.4599 15.9041 54.7649 16.4012 53.8949ZM19.446 36.6823C19.6946 36.6823 19.6946 36.4959 19.446 36.4959C19.1975 36.4959 19.1975 36.6823 19.446 36.6823ZM24.1065 46.7489C22.6773 47.1217 22.3666 47.8053 25.4735 47.4324C29.264 47.4946 28.6426 46.2518 26.6542 46.6868C26.5299 46.8732 25.7842 46.8732 25.7842 46.6868C25.7842 46.5625 25.7221 46.5625 25.7221 46.6868C25.3493 47.1217 24.4793 46.3761 24.5414 46.811C24.5414 47.0596 24.4172 46.5625 24.1065 46.7489ZM23.9201 28.48C23.7958 28.3557 23.7958 28.8528 23.9201 28.7907C24.1065 28.7907 24.0443 28.48 23.9201 28.48ZM25.7842 32.2705C26.0949 32.084 25.5978 32.0219 24.9764 32.0219C24.1686 32.0219 23.0501 32.1462 23.4229 32.2083C23.6094 32.3947 24.4172 32.4569 24.4793 32.3326C24.79 32.3326 25.4735 32.7676 25.7842 32.2705ZM33.738 32.2705C35.4158 32.2083 34.8566 31.8355 33.6138 31.9598C32.806 32.1462 30.8175 31.8976 29.3883 31.8976C28.5805 31.8976 27.897 31.9598 27.7105 32.2705C27.7105 32.519 28.5805 32.5812 28.5805 32.3947C28.5184 32.2705 28.7669 32.2083 29.0155 32.3326C29.264 32.4569 33.5516 32.519 33.5516 32.3947C33.5516 32.3326 33.6138 32.2705 33.738 32.2705ZM40.3248 32.3947C40.8841 32.1462 39.8277 31.5869 39.4549 31.8355C39.1442 31.9598 38.3985 31.7734 38.0878 31.9598C37.8392 32.2083 37.715 31.6491 37.5907 31.8355C37.1557 31.9598 35.1672 31.8976 34.9808 32.1462C35.1051 32.2083 35.4779 32.2705 35.6022 32.3326C35.7886 32.4569 35.5401 32.1462 35.7265 32.2083C35.9129 32.1462 35.9751 32.3947 36.0993 32.3947C36.0993 32.2083 37.1557 32.2083 37.4664 32.3947C37.6528 32.4569 37.715 32.4569 37.7771 32.3326C37.9635 32.084 38.2121 32.5812 38.5849 32.3326C38.7713 32.2083 38.8956 32.2083 38.9577 32.3326C39.1442 32.5812 40.0762 32.3326 40.3248 32.3947ZM41.8783 32.3947C42.4375 32.3326 40.6976 31.7733 40.6976 32.084C40.9462 32.2083 41.6297 32.2705 41.8783 32.3947ZM41.8161 36.1852C41.9404 36.1852 42.0026 36.1231 42.0026 36.061C41.8783 35.9367 41.3812 36.1852 41.8161 36.1852Z" fill="black"/>
<path d="M55.0363 29.6606C55.5334 29.2878 56.4655 30.6548 56.3412 31.0898C56.3412 31.9598 56.0926 32.3326 55.8441 32.8919C55.7198 32.8919 55.6576 32.954 55.7198 33.2647C55.6576 33.4511 55.4712 33.5132 55.5334 33.8239C55.5334 34.2589 55.347 34.0725 55.2848 34.2589C55.1605 34.5075 55.0363 35.5017 54.6634 35.5638C54.6013 35.5017 54.6013 35.5638 54.6634 35.626C54.9741 36.1852 54.2285 35.5638 54.4149 36.061C54.8498 37.1173 53.9178 38.4222 53.8556 39.4165C53.6692 40.0379 53.0478 40.97 52.8614 41.7778C52.5507 42.0885 52.7371 43.2691 52.3021 43.4555C51.9293 43.4555 51.8672 45.444 51.5565 45.444C50.6244 48.1781 49.9408 50.7258 48.9466 52.7764L48.8223 53.2114H46.2746C43.7891 53.2114 43.7269 53.2114 43.7269 53.4599C43.7269 53.6463 43.7269 53.6463 47.9524 53.5842C51.9293 53.5221 52.1779 53.5221 52.1157 53.6463C52.0536 54.1435 51.4943 53.8328 50.3758 53.957C47.8281 53.8949 49.0088 53.7085 47.766 56.5669C47.4553 57.7475 47.1446 58.3689 46.7096 59.1767C46.896 59.6739 46.3368 60.1088 46.2746 60.3574C46.0882 61.973 44.8454 63.8993 44.7212 65.7013C44.9076 67.1927 43.292 67.1927 43.4162 69.119C43.3541 70.1754 43.3541 70.1754 42.9191 70.8589C41.6763 72.226 42.2977 75.0222 40.4335 74.8358C40.2471 74.6494 40.2471 74.7115 40.5578 73.4066C41.2414 71.2317 39.1286 72.9095 39.9364 70.4239C40.2471 69.7404 39.8122 69.3054 39.3772 69.119C39.3772 68.9947 39.315 68.9326 39.2529 69.0569C39.1286 69.3054 38.8179 68.5598 38.6936 68.684C38.5072 68.684 38.5072 68.4976 38.5072 68.0626C38.5072 67.7519 38.1344 67.1927 38.0101 67.0063C37.6373 66.7577 38.1344 64.8935 38.1344 64.3964C38.0101 64.2721 38.0101 64.2721 38.1344 64.3343C38.3208 64.3964 38.5072 63.9615 38.3208 63.8372C38.1344 63.7129 38.6315 63.8372 38.4451 63.4643C38.383 62.843 38.6936 62.6565 38.8179 62.6565C38.6315 62.0351 39.4393 60.7924 39.5636 60.2952C39.4393 59.9845 40.0607 59.9845 39.8743 59.6738C39.6257 59.5496 40.1228 58.866 40.0607 58.6796C40.0607 58.2446 40.4335 57.9961 40.4957 57.6233C40.6821 56.8776 41.0549 55.6969 41.3656 55.0134C41.4278 54.5784 42.0492 52.9007 42.1734 52.9007C42.3599 52.9007 42.422 52.6521 42.2977 52.5278C42.1113 52.3414 42.4841 52.4657 42.422 52.0929C42.3599 51.5336 42.7948 51.2851 42.857 50.9122C42.7948 50.6637 43.1677 49.5452 43.292 49.7316C43.3541 49.9801 43.3541 49.3587 43.3541 49.3587C43.8512 47.7431 44.7212 45.0711 45.4668 43.4555C45.6532 43.207 45.4047 43.207 45.5911 43.0827C45.7775 42.9584 45.4668 43.0205 45.5911 42.7098C45.7154 42.2749 45.7775 43.0827 45.9639 41.9642C45.9639 41.4671 46.2746 41.7778 46.1504 41.4671C46.1504 40.5971 46.8339 39.8514 46.7717 38.9815C46.3989 39.0436 45.2183 39.0436 45.9639 38.6087H49.1952C52.1779 38.6087 52.24 38.6087 52.24 38.3601C52.24 38.1737 52.1779 38.1737 49.6923 38.1737H47.1446C47.4553 37.6144 47.5174 37.2416 47.8281 36.6823C47.8281 36.3095 48.2631 36.1852 48.2009 35.9367C48.0767 35.6881 48.3874 35.6881 48.2631 35.4396C48.5116 34.5075 49.0709 33.7618 49.133 32.5812C49.1952 31.4627 49.5059 31.7112 49.6301 30.8413C49.3816 30.6548 50.9972 28.6042 50.6865 28.48C50.3758 27.4236 51.8672 25.373 52.0536 24.3166C52.24 24.1302 52.6128 24.1302 52.9235 24.3788C53.3585 24.5652 52.8614 25.3109 53.2342 25.4973C53.7313 25.6837 53.9178 26.1808 53.6692 26.8644C53.3585 27.5479 54.8498 28.1693 54.042 28.9149C53.7935 29.2256 53.4828 29.9713 53.4828 30.0334C53.6071 30.1577 54.6013 31.0898 54.477 30.282C54.6013 29.3499 54.8498 29.9092 55.0363 29.6606ZM40.5578 68.6219C40.62 68.684 40.8064 68.5598 40.8064 68.4355C40.7442 68.0626 40.3093 68.3733 40.5578 68.6219ZM43.9133 66.012C43.4784 66.6334 44.0998 66.3227 44.0376 65.9499C44.0376 65.7635 44.0376 65.7635 43.9133 66.012Z" fill="black"/>
<path d="M84.1067 53.7085C83.4232 53.5221 83.2989 53.5842 83.361 53.8328C84.1067 54.1435 79.1977 54.0192 75.6558 54.0192C73.4809 54.0192 71.8032 54.0813 72.2381 54.2677C70.4982 54.6406 85.1631 54.3299 87.2137 54.392C87.2137 54.827 87.338 54.827 86.4059 54.827C85.8466 54.8891 85.5359 54.5784 85.4738 54.7027C85.6602 54.8891 83.796 54.7649 84.0446 54.9513C83.8582 56.5669 84.4174 56.3183 81.4969 56.4426C78.9492 56.4426 79.0734 56.4426 79.1977 56.5669C78.887 56.7533 78.3899 58.1825 78.4521 58.4311C78.4521 58.7418 78.1414 58.5553 78.0792 59.1767C77.8928 59.9224 77.7064 60.0467 77.52 60.7302C77.4578 60.9788 77.3957 61.103 77.3335 61.6002C77.3335 61.973 77.2093 62.2837 77.2093 61.973C76.65 62.0351 77.0229 63.2779 76.2772 64.4586C75.6558 65.7014 75.7801 65.8878 75.7801 66.882C74.9723 66.882 71.3061 66.8199 71.2439 67.0063C71.6167 67.1306 83.4232 67.1305 75.7179 67.3791C75.4694 68.7462 74.3509 69.6783 74.4752 71.2939C74.4752 72.4745 74.4751 72.4124 73.6673 73.4688C73.1081 73.9659 73.4188 76.7 72.7353 77.135C72.4867 77.5078 71.741 79.6205 71.6167 80.4283C71.5546 80.9876 71.3682 81.174 71.1818 81.174C70.6847 81.174 70.0633 79.9934 70.4982 79.4341C70.8089 78.937 70.1875 78.8127 70.1875 78.2535C69.5662 77.135 69.3797 77.0728 69.939 75.7679C65.03 75.4572 67.8884 69.8025 68.5719 67.1306C68.9448 66.0742 69.3797 65.5149 68.8826 65.5149C68.6341 65.5149 68.2612 65.6392 67.5777 65.8878C64.6572 66.6956 62.7308 67.1305 59.686 67.7519C58.8161 67.8141 57.5733 68.0005 56.3926 68.0005C54.342 68.0005 52.2915 67.5655 51.6701 65.9499C51.2972 65.7014 50.6137 62.6565 50.9865 62.6565H51.0487C51.1729 62.7808 51.2351 62.7808 51.2351 62.7187C51.3594 61.6002 51.6701 60.8545 52.105 60.171C52.2915 60.1088 52.105 59.9224 52.2293 59.7981C52.3536 59.6739 52.3536 59.6117 52.2293 59.5496C52.105 59.0525 52.7886 58.3689 53.0993 57.934C53.9692 57.1883 52.54 57.3747 51.7322 57.3747C51.3594 57.3747 51.0487 57.3747 51.1729 57.1883C51.1729 57.0019 51.2351 57.0019 55.647 57.0019C60.121 57.0019 60.1831 57.0019 60.1831 56.7533C60.8045 56.5047 57.8218 56.5669 55.7091 56.5669C54.4663 56.5669 53.5964 56.5669 53.9692 56.3805C54.1556 56.3183 54.7149 55.262 54.8392 55.1377C55.212 54.6406 59.3753 48.9859 59.686 48.7995C59.9967 48.6131 60.121 48.4888 60.121 48.3024C60.121 48.0538 60.2453 47.8674 60.9909 47.1839C61.3016 46.7489 61.0531 46.811 61.5502 46.3139C62.1094 45.8789 61.5502 46.0032 62.0473 45.7547C62.6066 45.3818 62.4823 44.8847 63.1658 44.5119C63.9115 43.8284 64.5329 42.6477 65.4028 41.902C65.5892 41.7778 58.3962 41.9642 58.8933 41.6535C58.9554 41.5292 64.4707 41.5292 69.3797 41.5292C74.3509 41.5292 75.0344 41.5292 75.0344 41.4049C75.7179 41.1564 67.3291 41.2185 66.0242 41.1564C69.5661 37.5523 72.3003 34.3211 76.5879 31.5248C77.8307 30.5927 79.4463 29.7849 81.0619 29.1014C82.6154 27.6722 83.2989 28.48 84.5417 27.7343C84.7281 27.5479 84.9145 27.4236 85.2252 27.4236C85.8466 27.4236 86.7166 27.9829 87.2758 27.9829C88.0836 27.9829 88.0215 28.7907 86.9651 28.9771C85.9088 29.2256 85.9088 29.2256 86.0952 29.3499C86.5302 29.7849 85.1009 30.7791 85.1009 31.3384C85.1009 32.084 83.796 32.6433 83.2989 33.0161C84.0446 33.9482 83.0504 34.4453 82.3668 34.8803C82.1804 35.0046 85.8466 34.9425 85.6602 35.0667C85.9088 35.4396 84.1689 35.3774 84.0446 35.4396C84.231 35.626 83.8582 35.9367 83.1125 36.4338C81.994 36.993 81.7454 38.3601 80.6891 38.4222C79.3841 38.298 79.2599 39.2301 78.2035 39.6029C77.7685 39.8514 77.2714 40.6593 76.65 40.9078C75.6558 41.7778 74.6616 42.8963 73.7916 43.5177C73.7916 43.9526 73.0459 44.0769 72.8595 44.5119C72.6731 44.8847 72.4246 44.6983 72.3003 45.009C71.3682 46.1896 70.0633 47.4324 69.1312 48.5509C68.9448 48.6752 68.8826 48.7995 68.9448 48.8616C72.3624 48.9238 77.5821 48.8616 80.2541 48.9238C81.3726 48.9238 82.8639 48.6752 84.0446 48.6752C84.6038 48.6752 85.101 48.7374 85.4738 48.8616C86.2195 49.8559 83.9203 49.7316 83.7339 50.1665C83.1746 51.2851 85.6602 50.6637 86.1573 51.0986C86.3437 51.4715 87.5244 50.5394 87.7729 50.7879C88.5186 51.1608 87.6487 52.0929 86.0952 52.5278C85.2252 52.7143 85.1631 54.1435 84.1067 53.7085ZM71.1818 58.9903C71.4303 59.0525 71.3682 59.1146 71.1818 59.1767C70.9954 59.2389 70.9954 58.9903 71.1818 58.9903ZM54.0935 65.8878C54.1556 65.8878 52.975 65.8256 53.2857 65.9499C53.4721 66.0121 54.0935 66.012 54.0935 65.8878ZM71.9274 57.7475C72.4246 57.3747 71.1818 57.9339 71.0575 57.8718C70.8711 57.8718 70.8711 57.934 70.9332 58.0582C71.1196 58.2446 70.8711 58.3689 70.7468 58.1825C70.5604 57.9961 69.939 58.1825 69.939 58.3689C69.8147 58.8039 68.6962 58.1825 68.6341 58.7418C68.6962 58.866 68.5098 58.866 68.3234 58.7418C68.1991 58.5553 67.2049 58.9282 67.702 59.0525C67.0184 59.4874 66.0242 59.1146 65.1543 59.6117C64.2843 59.9845 64.0979 59.6738 63.7872 60.4817C63.4144 60.7302 63.9115 59.9845 63.5386 60.3574C63.0415 60.6681 62.6066 60.4195 62.2959 60.4195C62.0473 60.4817 60.8045 60.6059 60.556 60.7924C59.8103 60.9788 59.3132 61.103 58.8161 61.6002C58.319 61.9109 58.8782 62.0973 59.3753 62.0973C59.686 62.0973 59.9967 62.0351 59.9967 61.9109C59.9967 61.7866 60.0588 61.7866 60.0588 61.8487C60.121 62.0351 60.4938 62.0351 60.4938 61.8487C60.7424 61.8487 61.9852 61.2273 62.2959 61.4759C62.2959 61.6623 63.0415 60.7924 63.2279 61.2273C63.4144 61.4137 63.4144 61.4137 63.3522 61.2273C63.3522 61.0409 63.9115 60.8545 63.9115 60.8545C64.16 60.8545 64.0358 61.1652 64.2222 60.9788C64.2843 60.8545 64.595 61.0409 64.595 60.8545C64.5329 60.6059 65.0921 60.7924 65.0921 60.6059C65.0921 60.6059 65.1543 60.5438 65.2785 60.6059C65.3407 60.6059 65.4028 60.6059 65.4028 60.5438C65.465 60.3574 65.8378 60.5438 65.8999 60.4195C66.1485 60.2331 65.8378 60.5438 66.0242 60.5438C66.2106 60.4817 66.2106 60.171 66.397 60.5438C66.397 60.6681 66.397 60.6681 66.4592 60.4817C66.397 60.2331 66.7699 60.171 66.7077 60.4195C66.5835 60.6059 66.9563 60.4195 66.8942 60.3574C66.832 60.2331 67.0806 60.1088 67.0806 60.2952C66.9563 60.6059 67.5777 60.1088 67.5156 60.0467C67.4534 59.9224 67.8262 60.1088 67.7641 59.9845C67.7641 59.7981 68.137 60.0467 68.0127 59.8603C68.0127 59.4253 68.3234 60.2952 68.3855 59.736C68.3855 59.6117 68.3855 59.6117 68.5098 59.736C68.6341 60.0467 68.5098 59.4253 68.6962 59.6117C69.069 59.9845 68.9448 59.1767 69.504 59.5496C69.6283 59.6117 69.6283 59.6117 69.5661 59.5496C69.4419 59.2389 70.1254 59.301 70.2497 59.2389C70.2497 59.1146 70.9954 59.1146 70.8711 59.3632C70.9954 59.736 71.4925 58.9903 71.5546 58.8039C71.6789 58.5553 71.5546 57.7475 71.9274 57.7475ZM72.3003 56.5047C71.6167 56.0698 70.4982 56.6912 69.6904 56.4426C69.069 56.4426 68.4476 56.1319 67.8884 56.0076C67.5156 56.0076 65.7135 55.8212 66.0242 55.0134C66.4592 54.5784 66.2106 54.4542 66.1485 53.7085C66.0864 53.5842 65.4028 53.1492 65.2164 53.025C65.03 53.5221 64.4707 53.5842 64.4086 54.0192C64.4086 54.2056 64.3465 54.3299 64.2843 54.3299C63.4765 54.827 61.5502 57.5611 60.9909 58.4311C60.8667 58.4932 60.9288 58.7418 60.556 58.866C60.121 59.0525 60.1831 59.5496 59.8724 59.736C59.3132 60.2331 60.121 59.9845 60.556 59.9224C63.9736 58.9282 69.8768 57.6233 72.3003 56.5047ZM74.413 50.353C74.9723 49.7316 74.0402 50.1044 73.9159 49.9801C73.8538 49.8559 73.4188 49.9801 73.2945 49.8559C73.1081 49.7316 72.7974 50.4151 72.6731 50.0423C72.6731 49.8559 72.176 50.2287 72.176 50.0423C70.6847 50.2908 68.5098 49.483 67.2049 50.5394C66.5213 51.2229 67.3913 51.0365 67.9505 50.8501C68.7583 50.6637 68.7583 51.0365 69.939 50.9744C71.1818 51.0986 70.8711 50.8501 71.3682 50.8501C71.8653 51.0986 71.6167 50.6015 71.9896 50.6637C72.176 50.7879 72.4867 50.5394 72.611 50.6015C72.7352 50.7258 73.1081 50.7258 73.1081 50.6015C73.2945 50.4772 74.2266 50.7258 74.413 50.353ZM76.5257 50.2908C77.0229 49.6694 75.9665 49.9801 76.0286 50.2908C76.1529 50.6015 76.3393 50.7879 76.5257 50.2908ZM78.7628 50.6637C78.9492 50.5394 79.757 50.8501 79.6327 50.353C79.6327 50.1044 79.5084 49.9801 79.322 49.9801C78.7627 49.9801 77.8928 50.6637 78.7006 50.6637H78.7628ZM82.2425 50.5394C82.7397 50.1666 81.3726 50.4151 81.3105 50.2287C80.9998 50.1044 80.8133 50.0423 80.6891 50.0423C80.192 50.0423 80.8755 50.7879 81.6212 50.7879C81.8076 50.7879 82.0561 50.7258 82.2425 50.5394ZM74.5373 34.5075C74.7858 34.2589 74.7237 34.2589 74.413 34.3211C73.978 34.3832 74.2887 34.756 74.5373 34.5075ZM75.5315 34.5696C75.2208 34.5696 74.9101 34.9424 75.0965 35.1289C75.2208 35.2531 75.283 35.191 75.1587 35.0667C75.0965 34.8803 76.215 34.6318 75.5315 34.5696ZM77.7685 35.0046C76.1529 35.0046 76.0286 35.0046 76.0286 35.191C76.0286 35.3774 76.1529 35.3774 77.7685 35.3774C79.4463 35.3774 79.5084 35.3774 79.5084 35.191C79.5084 35.0046 79.4463 35.0046 77.7685 35.0046ZM78.7628 30.6548C78.7006 30.8413 79.0734 30.7791 79.0734 30.6548C79.1356 30.5306 78.8249 30.5927 78.7628 30.6548ZM77.1471 33.4511C76.65 33.5754 77.4578 34.0104 77.5821 34.0725C77.5821 34.0725 79.0113 33.4511 78.887 33.2647C78.8249 33.1404 79.1356 33.1404 79.1356 33.2647C79.4463 33.2026 79.5084 32.7054 80.192 32.954C81.124 33.3268 80.5026 32.3326 81.3726 32.2705C81.6212 32.3326 81.124 32.0219 81.9318 31.8976C83.8582 31.5248 83.5475 30.5306 81.7454 30.9034C81.4969 31.0277 80.7512 31.8355 80.5026 32.1462C78.5142 32.084 78.3899 32.084 77.1471 33.4511ZM70.6847 74.0901C70.7468 73.9659 70.7468 73.9659 70.6847 73.9659C70.2497 74.2144 70.9953 73.2823 70.5604 73.4688C70.4982 73.5309 70.2497 73.593 70.0633 73.593C69.5661 73.7173 69.8768 73.2823 69.6283 73.1581C69.2555 73.0338 69.8147 73.2823 69.6904 73.3445C69.3797 73.2823 69.069 73.8416 69.3176 74.028C69.3797 73.9037 69.5661 74.2766 69.3797 74.2766C69.1933 74.4008 69.6283 74.6494 70.0633 74.6494C70.374 74.6494 70.6847 74.5251 70.6847 74.0901Z" fill="black"/>
<path d="M126.204 27.9829C126.639 28.4178 126.452 29.2256 126.141 29.4742C126.079 29.4121 126.079 29.4742 126.079 29.5985C126.204 29.9713 125.582 30.4063 125.706 30.7791C125.831 31.0277 125.769 31.152 125.582 31.8355C125.52 32.2083 125.147 31.3384 125.085 31.5248C125.147 31.7734 125.334 31.7733 125.272 32.1462C125.209 32.5812 125.334 32.7054 124.961 33.0161C124.712 33.389 124.65 34.2589 124.402 34.6318C124.029 36.4338 123.035 38.298 122.537 40.0379C122.475 40.3486 122.165 39.9757 122.289 40.4728C122.351 40.9078 121.792 41.0942 121.916 41.8399C122.102 42.2127 120.735 44.9469 121.481 44.9469H121.543C122.102 45.009 121.481 45.2576 121.543 45.444C122.165 45.6304 125.582 45.0711 122.972 46.4382C122.289 46.811 122.165 46.8732 122.102 47.1217C121.916 47.8053 123.221 47.3703 123.159 48.116C123.097 48.9238 121.357 48.6131 121.046 49.1723C119.741 49.8559 120.86 49.7316 114.273 49.7937C107.003 49.7316 106.443 49.9801 113.776 49.9801C119.12 49.9801 122.91 50.1044 120.922 50.2908C119.306 50.353 121.046 50.7879 120.673 51.6579C120.549 51.8443 120.735 52.2171 120.797 52.4036C118.436 52.7143 117.753 52.2171 117.318 54.8891C117.38 55.262 117.069 54.827 117.131 55.262C117.069 55.4484 116.945 56.1941 116.758 56.0698C116.696 56.0698 116.634 56.1319 116.634 56.3805C116.696 57.064 115.951 58.2446 116.013 59.1146C115.205 59.1146 109.737 58.9282 110.358 59.301C110.358 59.4874 110.482 59.4874 113.962 59.4253C116.137 59.3632 117.566 59.4253 117.566 59.4874C117.442 59.9224 116.821 59.7981 116.261 59.7981C115.826 59.7981 115.516 59.8603 115.516 60.3574C115.454 60.4195 115.391 60.5438 115.391 60.6681C115.391 61.1031 114.956 60.9166 114.956 61.3516C114.832 61.8487 114.521 63.775 114.086 64.21C113.9 64.2721 113.962 64.8314 113.776 64.9557C113.589 65.1421 113.776 65.3285 113.589 65.5149C113.527 65.5771 113.527 65.6392 113.589 65.6392C113.838 65.9499 113.217 66.5713 113.217 67.0684C112.657 69.6161 111.663 71.8531 110.793 74.2766C110.545 75.1465 110.42 76.7621 109.426 76.7621C109.24 76.7621 108.991 76.7 108.742 76.5757C108.308 76.2029 109.115 74.7737 108.991 74.1523C108.929 73.8416 108.805 71.5424 108.494 71.4182C108.245 71.1075 108.432 71.5424 108.183 71.791C107.873 72.1638 108.183 72.4124 107.81 72.6609C107.438 72.9095 107.873 73.4688 107.313 73.3445C106.505 73.4066 107.065 72.5988 106.63 72.6609C106.133 72.7852 106.505 71.9774 106.257 71.791C105.573 71.6667 105.698 69.3676 105.884 69.0569C106.008 69.0569 105.946 68.3112 106.07 68.3112C106.133 68.3733 106.133 68.3112 106.133 68.1869C106.071 67.9384 106.257 68.0626 106.257 67.7519C106.133 67.6277 106.319 67.0684 106.505 66.9441C106.568 65.7635 107.189 64.9557 107.438 63.775C107.5 63.4022 107.686 63.4643 107.624 63.2158C107.5 62.7808 108.183 61.9109 108.308 61.6002C108.432 61.4759 108.308 60.6681 108.556 60.6059C108.867 60.2952 108.556 60.5438 108.556 60.4195C108.805 59.3632 109.426 57.8097 109.737 56.6912C109.737 56.5047 109.799 56.5047 109.861 56.629C109.985 56.9397 110.234 56.1319 110.11 56.1319C109.737 55.6348 110.545 55.5105 110.42 55.0134C110.358 54.827 110.607 54.9513 110.607 54.7649C110.545 54.5784 110.234 54.9513 110.482 54.6406C110.669 54.392 110.482 54.0192 110.855 53.8328C111.042 53.5842 111.166 52.8385 111.228 52.5278C111.166 52.4036 107.624 52.4657 107.5 52.59C106.381 52.4036 106.257 52.59 104.579 52.59C100.167 52.6521 100.229 52.6521 100.043 52.8385C99.4216 53.957 99.173 55.6348 98.7381 56.629C98.7381 56.7533 98.6759 56.8154 98.5517 56.8154C98.1788 57.0019 98.241 57.9961 98.0545 58.4311C97.9924 58.9903 97.4953 59.4874 97.3089 60.2952C96.5632 62.8429 95.7554 65.2042 95.0097 67.7519C94.9476 68.6219 94.8854 68.7462 94.2641 69.6783C93.4562 70.6725 94.5748 71.1075 93.3941 71.9153C92.7727 72.5367 92.7727 72.5367 92.7106 73.3445C92.3999 75.0222 91.9649 75.6436 91.6542 75.6436C91.1571 75.6436 90.8464 74.4008 91.1571 72.9095C89.1065 71.2317 91.1571 70.0511 89.79 68.8705C88.9822 68.4976 88.7958 65.7635 89.0444 64.8935C89.1065 64.7693 89.0444 64.7071 88.8579 64.7071C88.4851 64.7693 88.6094 64.3343 88.6094 64.0857H92.3999V63.4643H89.4172C89.6657 62.9672 89.4793 62.2837 90.0386 61.538C90.1629 61.538 89.9764 61.2273 90.1007 61.2273C90.2871 61.1652 90.1007 60.7924 90.3493 60.6681C90.4736 60.5438 90.4736 60.4817 90.4114 60.4195C90.1629 60.2952 90.7221 59.9224 90.5978 59.7981C90.1007 59.5496 95.5068 59.736 95.0097 59.4253C94.3262 59.1767 88.6094 59.2389 88.9822 59.0525C90.0386 58.866 91.0328 59.301 91.2192 57.9961C91.4678 57.6233 91.3435 57.499 91.5921 57.3126C91.8406 57.3126 91.5299 56.5669 91.7785 56.629C92.2756 56.3805 91.7785 55.6348 92.2756 55.3241C92.6484 54.9513 92.5863 54.5784 92.6484 54.1435C92.6484 54.0192 93.4562 52.4657 93.0213 52.4657C92.5863 52.2793 90.3493 52.3414 89.9143 52.0929C89.2308 51.6579 89.4172 51.0986 90.225 51.0986C90.7221 51.1608 91.7163 50.8501 90.8464 50.6637C90.66 50.5394 90.2871 49.6073 90.0386 49.5452C89.3551 49.1102 88.9822 47.7431 90.1007 47.6188C90.5978 47.4946 91.2192 47.1839 91.8406 47.1839C92.0892 47.1839 92.2756 47.246 92.5242 47.3703C92.7727 47.7431 92.5863 46.9975 92.7727 47.3081C92.8348 47.3703 92.8349 47.4946 92.8349 47.5567C92.7727 47.7431 93.0213 47.4946 92.9591 47.3703C92.897 47.0596 94.699 47.4324 94.8233 47.3081C94.8233 46.9353 95.134 46.5003 94.5747 46.3761C94.1398 46.1896 94.0776 46.1896 94.1398 46.3139C94.3883 46.5625 92.897 46.0032 92.7727 46.0654C92.5863 45.9411 91.7163 46.0654 91.5299 45.7547C91.4056 45.444 91.0328 45.6304 91.2192 45.444C91.9028 44.7604 94.8233 45.5061 95.569 45.1333C96.6253 43.9526 96.8739 41.7156 97.4953 40.2243C97.8681 38.9815 98.5517 37.1173 98.9866 35.8124C99.0488 35.6881 98.9866 35.6881 98.3652 35.6881C96.6875 35.5017 99.2352 35.4396 101.224 35.4396C105.076 35.5017 105.884 35.2531 101.907 35.2531C99.2973 35.2531 99.1109 35.2531 99.4837 34.8803C99.8566 34.1346 99.7323 32.519 100.354 32.0219C100.664 31.6491 109.164 5.67865 109.351 5.18154C110.283 4.12517 109.475 4.0009 110.034 3.25522C110.345 2.82025 111.091 0.70752 111.526 0.70752C111.65 0.70752 111.774 1.01822 111.774 1.76388C111.588 2.88239 112.582 3.25522 112.085 4.0009C111.588 4.80871 112.955 5.4301 112.52 6.42433C112.458 6.79716 112.458 6.79716 112.768 6.79716C113.141 6.8593 113.141 6.30005 113.39 6.17577C113.949 5.61652 114.198 5.61652 114.819 6.30005C115.689 6.67288 106.692 34.1968 106.692 33.3268C106.692 33.2025 106.692 33.2026 106.568 33.389C106.381 33.7618 106.816 34.6318 106.133 34.4453C105.636 34.2589 106.195 34.8182 106.07 35.0046C106.257 35.626 105.76 36.1231 105.573 37.0552C103.958 42.0885 104.89 40.8457 99.173 41.0321C100.229 41.0321 104.703 41.0942 105.014 41.2185C104.952 41.3428 103.833 41.1564 103.958 41.5292C103.833 41.8399 103.585 41.7156 103.709 42.0263C103.896 42.0263 103.336 43.5798 103.15 43.5798C103.026 43.7041 103.088 44.2633 102.901 44.6362C102.653 45.2576 102.591 45.0711 103.274 45.1333C104.952 45.0711 111.912 44.9469 113.9 44.9469C114.521 43.8905 114.646 42.5856 115.081 41.4049C114.956 41.1564 115.578 41.0942 116.075 41.0321C114.584 41.0321 115.826 40.1 116.137 39.2922C116.137 39.1679 116.51 38.3601 116.323 38.298C116.013 38.1737 116.696 38.298 116.448 38.1115C116.386 37.3037 117.38 34.756 117.877 33.9482C118.374 33.4511 118.685 32.3326 118.685 32.084C118.436 31.4627 118.933 30.9034 118.933 30.3441C118.809 29.5985 119.244 30.7791 119.182 29.6606C119.679 28.2314 120.549 26.1808 121.17 24.5652C121.419 23.2603 121.978 22.5767 122.413 22.5767C122.786 22.5767 122.972 23.136 122.662 24.3788C122.413 24.7516 122.475 24.938 122.724 25.2487C122.972 25.6216 123.035 26.1187 122.972 26.6779C123.469 27.4857 124.712 27.61 123.967 28.9771C123.532 29.5363 123.967 30.3441 124.029 29.7228C123.967 29.5985 124.215 29.6606 124.153 29.4742C124.091 29.3499 124.153 29.3499 124.215 29.4121C124.464 29.4742 123.967 28.3557 124.402 28.48C124.712 28.48 124.588 27.175 124.837 27.3615C125.085 27.4236 124.961 27.175 125.147 27.175C125.458 27.1129 125.023 26.8022 125.52 26.9886C126.39 27.175 125.893 27.61 126.204 27.9829ZM91.2814 68.5598C91.4056 68.2491 90.8464 68.4976 91.0328 68.6219C91.095 68.7462 91.2192 68.684 91.2814 68.5598ZM91.5299 67.6277C91.9028 67.0063 91.5921 66.3849 91.5299 67.0063C91.5299 67.1306 91.5299 67.317 91.4057 67.3791C91.095 67.7519 91.3435 68.1248 91.5299 67.6277ZM90.66 48.9238C90.9085 48.7373 90.4736 48.4888 90.3493 48.6131C90.2871 48.6752 90.5357 48.9859 90.66 48.9238ZM92.8349 50.6015C93.3941 50.2287 92.7106 50.4151 92.5242 50.4151C92.2135 50.4151 92.3999 50.8501 92.8349 50.6015ZM113.279 46.5625C115.578 45.3818 106.692 46.3139 106.008 46.0654C105.325 46.0654 104.331 46.0654 103.896 46.3139C103.709 46.2518 103.15 46.1275 102.777 46.1275C102.404 46.1275 102.156 46.2518 102.218 46.6868C102.964 46.8732 108.929 46.5625 110.545 46.6868C111.166 46.4382 110.545 46.811 111.042 46.9353C111.042 46.3761 113.03 46.7489 113.279 46.5625Z" fill="black"/>
<path d="M168.165 30.5927C168.538 31.152 168.041 31.4627 167.296 31.4627C165.928 31.4627 166.301 32.7054 164.996 32.7054C164.561 33.1404 161.889 33.1404 160.522 33.0783C160.46 33.5754 161.33 33.7618 162.449 33.7618C164.064 33.7618 166.177 33.4511 166.985 33.5754C166.923 34.3211 164.251 33.9482 164.002 34.2589C164.064 34.756 163.816 34.2589 163.567 34.3832C162.697 34.4453 163.008 34.6318 163.816 34.6318C164.81 34.4453 164.437 35.3774 163.691 35.3774C163.319 35.3774 163.256 35.3774 163.381 35.5017C165.928 36.8066 151.853 36.3095 148.311 36.3095C146.323 36.3095 144.769 36.4959 144.956 37.1795C144.769 38.1737 144.21 40.5971 143.775 41.2185C143.837 41.5292 143.278 41.902 143.278 42.2749C143.154 42.772 143.278 43.0827 142.967 43.4555C142.719 43.5798 142.967 44.2012 142.781 43.9526C142.719 43.8284 142.719 43.8284 142.719 44.0769C142.843 44.5119 142.408 44.2012 142.532 44.6983C142.719 45.1333 142.346 44.8226 142.346 44.9469C142.408 45.1954 142.035 45.6925 142.159 45.9411C142.221 46.1275 142.159 46.1896 142.035 46.1896C141.849 46.1275 141.849 46.6868 141.973 46.3761C142.221 46.1275 142.097 46.4382 141.911 46.7489C141.6 47.1217 141.849 47.1839 141.662 47.4946C141.414 48.3645 140.854 48.9238 140.73 49.8559L140.668 50.2908H137.375V51.0365H152.009C151.947 51.1608 151.761 51.5336 151.699 51.72C151.264 51.72 140.171 51.6579 140.109 51.8443C139.922 52.5278 139.736 53.025 139.425 53.7706C138.679 55.8212 137.934 57.7475 137.312 59.8603C137.002 61.0409 136.256 62.2837 136.008 63.4022C135.635 64.4586 135.075 65.3907 135.262 66.7577C134.951 66.8199 132.341 66.5092 132.403 67.0063C132.155 67.5034 134.454 67.0063 134.578 67.1927C136.753 67.0063 137.623 67.3791 135.448 67.6277H134.454C134.205 69.0569 133.087 70.2996 133.025 71.6667C133.149 72.7852 132.279 73.2823 131.968 74.2766C131.596 75.3329 131.099 77.135 130.539 77.135C130.477 77.135 130.353 77.0728 130.291 77.0107C130.042 76.7 130.291 76.0786 129.794 75.8922C129.296 75.0844 128.613 74.4008 129.545 73.4066C129.794 73.0338 129.794 72.9716 129.669 72.7231C129.421 72.3503 129.731 71.2317 129.483 70.7968C129.172 70.2997 129.669 69.4918 129.11 69.0569C128.364 68.0005 128.613 65.3285 128.799 64.5207C128.799 64.0236 129.048 64.2721 129.048 63.8993C128.986 63.775 129.048 63.7129 129.11 63.7129C129.421 63.6508 128.986 62.7187 129.607 62.1594C129.794 61.973 129.794 61.973 129.669 62.0351C129.296 62.3458 129.669 61.7866 129.669 61.6002C130.912 60.9166 126.314 61.4137 126.438 61.103C126.19 60.9788 141.227 61.0409 132.59 60.8545C128.675 60.8545 130.166 61.0409 131.223 57.499C131.285 57.1883 131.533 56.8776 131.533 56.629C131.782 56.629 131.782 55.6969 131.844 55.7591C132.093 56.0076 131.906 54.827 132.217 54.7649C132.466 54.6406 132.341 53.957 132.466 53.8949C132.528 53.8949 132.59 53.8328 132.528 53.7706C132.466 53.5842 132.838 53.5842 132.776 53.2735C132.838 52.2793 133.46 51.4715 133.646 50.4772C133.646 50.2908 133.957 49.483 133.833 49.9801C133.833 50.2287 133.833 50.2287 133.895 50.0423C134.205 49.6694 134.143 49.048 134.33 48.6752C134.578 48.4267 134.889 47.1839 134.889 46.9353C135.448 46.3139 135.635 44.3255 136.194 43.3312C136.815 42.9584 133.522 43.2691 133.708 43.0205C133.584 42.8963 134.827 42.8963 136.318 42.8963C137.81 42.8963 139.487 42.8963 140.233 42.772C140.295 42.3992 135.386 43.1448 136.567 42.0885C136.753 41.8399 136.567 41.4049 136.815 41.4671C137.312 41.5913 136.691 40.535 137.064 40.6593C137.375 40.5971 137.126 39.4786 137.375 39.2922C137.685 38.5465 137.934 37.6144 138.245 36.8688C138.679 36.5581 137.561 36.7445 137.561 36.5581C137.561 36.4959 135.945 36.4959 132.838 36.4338C128.551 36.4338 128.054 36.4338 127.805 36.2474C127.681 36.1231 127.494 35.9367 127.494 35.8124C127.37 35.5638 127.37 35.5638 125.941 35.5638C124.636 35.5638 124.512 35.5638 124.574 35.3774C124.201 35.0667 133.087 35.4396 132.59 35.1289C132.963 34.8803 128.427 34.9424 127.743 34.9424C127.867 34.8182 128.24 34.5075 128.364 34.3211C127.929 34.1346 125.568 34.3211 126.19 33.389C126.5 33.0161 129.359 33.6375 128.986 32.4569C128.861 31.0277 129.856 31.5248 130.539 31.5248C130.788 31.5248 130.974 31.4627 131.036 31.2762C131.471 30.5306 132.963 30.7791 134.33 30.7791C134.33 30.2199 134.33 30.2199 133.708 30.2199C132.341 30.0956 132.403 29.9713 131.533 29.7849C131.099 29.7228 130.415 29.3499 130.726 29.3499C130.601 28.9771 133.087 28.4178 134.143 28.4178C134.454 28.4178 134.64 28.48 134.64 28.5421C134.889 28.7907 134.889 28.9771 134.64 29.0392C134.454 29.1014 135.324 28.9771 135.262 29.1014C135.324 29.1635 138.617 29.1635 143.651 29.1014C146.323 29.0392 146.82 29.1635 147.814 29.1014C148.932 29.1014 162.573 28.6664 163.008 29.7228L163.194 30.1577C164.686 30.0334 167.793 30.2199 168.165 30.5927ZM134.578 66.5713C134.703 66.447 134.827 66.012 134.578 66.2606C134.454 66.3227 134.33 66.8199 134.578 66.5713ZM132.901 34.756C133.273 35.0667 133.336 34.3211 132.963 34.6318C132.776 34.6318 132.776 34.6939 132.901 34.756ZM138.617 30.6548C138.866 30.8413 139.177 30.6548 138.928 30.5306C138.866 30.5306 138.866 30.4684 138.866 30.4063C138.928 30.0334 138.058 30.4063 138.617 30.6548ZM140.606 30.5306C140.668 30.3442 140.357 30.5306 140.544 30.282C140.73 30.0956 140.606 30.0956 139.922 30.282L139.612 30.4063C139.86 30.4684 140.606 30.7791 140.606 30.5306ZM141.662 30.5306C142.097 30.0335 140.606 30.0335 140.854 30.2199C141.414 30.0335 141.227 30.717 141.414 30.717C141.476 30.717 141.538 30.6548 141.662 30.5306ZM147.006 30.4063C146.758 30.282 147.255 30.3442 147.255 30.2199C146.944 30.0335 144.893 30.2199 144.334 30.282C143.899 30.5306 142.781 29.9092 142.284 30.282C142.097 30.5927 143.029 30.4684 143.216 30.6548C143.464 30.8413 143.837 30.7791 143.837 30.5927C143.837 30.4684 143.899 30.4684 144.023 30.4684C144.334 30.4684 144.769 30.5927 145.08 30.5927C145.204 30.5927 145.266 30.5927 145.266 30.4684C145.328 30.2199 147.13 30.6548 147.006 30.4063ZM160.647 30.5927C161.082 29.847 148.808 30.282 148.56 30.0956C148.56 30.0335 147.193 30.3441 147.876 30.3441C149.057 30.282 159.839 30.717 160.647 30.5927ZM162.759 30.2199C160.709 30.3442 159.715 30.1577 162.822 30.717C162.822 30.717 162.759 30.282 162.759 30.2199Z" fill="black"/>
<path d="M58.2094 79.3908C58.5201 79.2665 58.7687 79.2665 58.9551 79.2665C59.825 79.2665 58.2094 80.6336 56.9045 81.1307C55.4753 81.7521 56.0345 82.5599 54.4811 83.1813C53.9218 83.4298 53.549 83.8027 53.549 84.1134C53.6111 84.6105 51.6227 85.5426 51.1255 85.9775C50.442 86.2261 50.1935 86.7232 49.5099 86.8475C49.1371 86.9096 48.4536 87.6553 48.1429 87.8417C47.8322 87.9039 47.2729 88.5253 47.0244 88.5874C46.5272 88.6495 46.1544 89.3331 45.7816 89.5195C45.533 89.4573 45.2845 90.0787 45.098 89.9545C45.0359 89.9545 44.9116 90.0166 44.9116 90.1409C44.6009 90.3894 43.8553 90.8244 43.6067 91.1351C41.6182 92.7507 40.2512 93.4964 38.5113 95.2363C37.0821 96.5412 35.8393 97.6597 34.2858 99.0889C34.2237 99.0889 33.6644 99.586 33.1673 100.021C32.4216 100.394 36.2743 100.083 35.7772 100.394C34.348 101.077 35.5907 100.829 30.8682 100.829L26.767 100.767V101.388C27.6369 101.388 31.9245 101.326 31.9867 101.45C31.9867 101.512 31.5517 102.009 31.0546 102.507C30.2468 103.377 29.8118 103.936 29.7497 104.184C29.7497 104.433 29.6254 104.619 29.439 104.681C29.004 104.93 28.8797 105.676 28.6312 106.111C28.3205 106.918 28.3205 109.839 30.2468 109.653C32.9188 109.963 36.6471 109.342 39.8162 108.969C40.9347 109.093 42.1775 108.348 43.0475 108.348C43.4824 108.348 43.8553 108.534 44.0417 109.28C43.6067 109.715 43.4203 108.969 42.3018 109.528C41.8668 109.528 42.4261 109.715 42.2396 109.777C41.8668 109.466 41.8047 110.025 41.4318 110.025C41.3076 109.901 40.4997 110.46 40.624 110.212C39.7541 110.088 37.4549 110.647 36.7093 110.709C36.5228 110.833 36.4607 110.523 36.3364 110.647C36.2121 110.833 35.9014 110.709 35.6529 110.833C35.4665 110.833 35.3422 110.833 35.3422 110.771C35.4665 110.709 34.0373 110.895 34.1615 111.206C35.0315 111.082 36.8335 110.958 37.6413 111.082C37.6413 110.958 38.2006 110.647 38.2006 110.895C38.4492 110.958 39.1948 110.709 39.4434 110.958C39.9405 110.647 40.6862 110.523 41.3697 110.46C42.1775 110.15 43.7931 110.398 44.4145 110.15C44.6009 110.274 44.8495 110.523 45.1602 110.274C46.1544 110.025 47.8322 109.901 48.9507 109.653C51.2498 109.59 47.77 111.082 47.5836 111.455C47.2108 111.641 47.1486 112.138 46.6515 112.325C45.1602 112.697 46.0301 113.195 45.5952 113.94C45.4087 114.251 45.4087 114.313 45.533 114.437C45.7816 114.624 46.5894 114.375 47.2108 114.375C47.5836 114.375 47.8943 114.437 47.9564 114.872C45.9059 116.736 42.6746 116.736 39.9405 117.109C38.0763 117.42 35.3422 117.793 32.6081 117.793C29.5011 117.793 26.3941 117.296 24.4057 115.867C23.9707 115.556 22.2308 114.313 22.6658 114.002C22.8522 113.443 21.9823 112.884 22.0444 112.138C21.5473 109.963 21.1745 106.732 22.1687 104.744C22.2308 104.744 22.2308 104.806 22.2308 104.868C22.1065 105.054 22.4172 104.806 22.3551 104.744C22.4172 104.433 23.0386 104.246 22.1065 104.246C19.621 103.874 28.134 104.122 27.5748 103.936C27.8855 103.812 22.7279 103.874 22.8522 103.749C23.1629 103.066 23.3493 101.947 23.7843 101.264C24.4678 99.9589 28.6312 93.9314 29.9982 93.1857C31.1789 92.3779 30.1225 92.6264 31.241 91.6944C32.3595 90.5759 34.0373 89.1467 35.0315 88.0281C35.2801 87.9039 20.956 88.0903 21.7017 87.8417C21.5774 87.5932 36.2743 87.6553 40.1269 87.6553C42.3639 87.6553 44.166 87.6553 43.9795 87.531C43.9795 87.3446 43.4203 87.3446 39.9405 87.3446C35.1558 87.0961 35.4043 87.966 37.3306 86.1018C37.952 85.729 47.8322 77.6509 50.3177 77.6509C50.8148 77.6509 51.0013 77.9616 50.8148 78.6451C50.6284 78.2102 50.1313 79.2665 49.8828 79.2044C49.5099 79.2665 50.3177 79.7015 49.3235 79.6394C48.7643 79.4529 49.1992 79.9501 48.8885 80.0122C48.7643 80.0122 48.5157 80.2607 48.205 80.5093C47.1486 81.4414 47.5836 81.255 47.0865 81.5657C46.9622 81.7521 47.7079 81.8764 47.7079 81.7521C47.9564 81.5657 47.9564 81.0686 48.2671 81.0064C48.4536 81.0686 48.5778 81.1307 48.7643 81.1307C49.6963 81.1307 50.9391 80.0743 51.8712 79.8879C52.679 79.8258 53.114 78.9558 53.8597 78.9558C54.6675 78.9558 54.7918 79.3908 55.4753 79.4529C56.1588 79.5151 56.5317 79.7015 56.9666 79.7015C57.2773 79.7015 57.6502 79.6394 58.2094 79.3908ZM47.7079 79.9501C47.4593 80.0743 47.0865 80.5093 47.2108 80.5093C47.2108 80.5714 48.0186 79.8258 47.7079 79.9501ZM43.3581 114.499C43.2339 114.499 43.1096 114.562 43.1096 114.562C43.1717 114.81 43.7931 114.499 43.3581 114.499ZM31.5517 111.89C31.1167 111.33 31.4274 112.2 31.6138 112.138C31.676 112.076 31.6138 111.952 31.5517 111.89ZM27.2641 111.827C27.0155 111.703 27.202 111.641 27.4505 111.641C27.8855 111.641 28.4447 111.703 27.8233 111.455C27.4505 111.392 27.1398 110.212 26.7048 110.274C26.4563 110.274 26.4563 110.274 26.5184 110.647C26.5806 111.144 26.9534 111.33 27.0155 111.827C27.0777 112.2 27.1398 112.262 27.4505 112.2C27.6369 112.2 27.6369 112.573 27.7612 112.325C27.6991 111.703 27.2641 112.387 27.3262 112.014C27.3884 111.89 27.3884 111.827 27.2641 111.827ZM28.5069 112.511C28.7554 112.325 28.134 112.387 28.0719 112.262C27.7612 112.014 28.0098 112.822 28.5069 112.511ZM28.7554 110.585C28.6312 110.585 28.6312 110.585 28.7554 110.771C29.0661 111.268 29.1283 110.647 28.7554 110.585ZM28.1962 110.771C27.8233 110.709 28.134 110.336 27.5127 110.212C26.9534 110.025 26.8913 109.963 27.2641 110.46C27.6991 111.082 28.1962 111.33 28.7554 111.703C28.9419 111.703 29.3147 112.325 29.439 112.014C29.5011 111.952 29.1283 111.703 29.3147 111.703C29.439 111.703 29.9361 112.511 29.8739 111.89C29.8739 111.765 29.8739 111.703 29.9361 111.703C30.3711 111.641 29.5011 111.02 29.5011 111.33C29.439 111.641 28.8797 111.827 28.8797 111.33C28.9419 111.206 28.569 110.958 28.6933 111.206C28.6933 111.268 28.6933 111.268 28.6312 111.268C28.4447 111.02 28.8176 110.647 28.1962 110.771ZM28.0098 108.596C27.9476 108.658 27.8233 109.031 27.7612 109.031C27.3262 108.161 27.3262 109.093 27.5127 109.218C27.8233 109.218 28.0719 108.907 28.0098 108.596ZM45.098 83.057C45.1602 82.622 44.4767 83.3056 44.9116 83.2434C45.0359 83.2434 45.098 83.1813 45.098 83.057Z" fill="black"/>
<path d="M75.8113 113.008C77.1162 112.822 77.4891 114.251 76.4327 114.375C76.122 114.375 76.0599 114.437 75.9356 114.686C75.3763 115.618 74.7549 114.748 73.9471 116.426C72.1451 116.612 68.6653 116.426 66.6768 116.488V117.047C68.3546 117.171 73.885 116.674 74.1957 117.358C73.9471 117.669 72.8908 117.358 73.0772 117.917C73.1393 118.104 73.0772 118.228 73.015 118.228C67.4847 118.29 58.3502 118.414 55.119 118.352C53.7519 118.228 52.1363 118.228 50.7692 118.104C50.3342 117.855 48.3458 118.041 48.2836 117.482C48.5943 116.799 49.1536 115.929 49.775 115.245C50.6449 115.245 51.1421 115.432 51.3906 114.686C51.7013 112.884 51.7634 113.505 53.1926 112.697C53.814 111.827 52.012 110.895 53.2548 110.833C53.6276 110.709 53.6898 110.647 53.6898 109.901C54.3733 108.596 54.6218 106.297 55.3675 105.054C55.7403 104.681 55.119 105.116 55.3054 104.806C55.6161 104.433 55.4297 103.998 55.7403 103.563C56.051 103.314 55.8646 102.32 56.1753 102.134C56.4239 101.699 56.5482 101.14 56.7346 100.705C56.7346 100.332 56.921 100.642 56.9831 100.394C56.9831 100.332 56.921 100.27 56.8589 100.27C56.4239 100.332 57.356 99.8346 57.0453 99.7725C56.8589 99.9589 57.0453 99.2753 57.2317 99.3375C57.4802 99.2753 57.1696 98.2811 57.4802 98.219C57.7288 97.9704 57.4802 97.6597 57.7288 97.4733C57.9774 97.349 57.7288 96.4791 58.1016 96.4791C58.2881 96.4169 58.0395 96.3548 57.2938 96.3548C52.7577 96.0441 64.3777 96.2305 63.632 96.0441C63.5699 95.9198 59.2823 95.982 58.4123 95.9198C58.5988 95.3606 57.9774 95.4227 57.4802 95.4227C57.1074 95.4227 56.8589 95.4227 57.1696 95.112C57.356 94.9256 57.6667 94.9256 59.593 94.9256H61.8921V94.4285C57.4181 94.3663 58.723 94.677 59.9037 91.2594C59.8415 91.5701 60.0901 91.3215 60.028 91.1351C59.9658 90.8244 60.1522 90.9487 60.2144 90.4516C60.3387 89.9545 60.0901 90.1409 60.2765 89.768C60.4008 89.5816 60.2765 89.0845 60.5251 89.0224C60.6493 89.0845 60.5251 88.7738 60.7115 88.6495C60.8979 88.5253 60.7736 88.0281 60.96 87.966C61.0222 87.966 61.0222 87.9039 60.96 87.8417C60.96 87.531 61.2707 87.6553 61.3329 87.0961C61.395 87.0961 61.395 85.9154 61.5814 85.8533C61.5814 85.5426 61.83 85.294 61.8921 84.859C62.5135 81.3171 63.8185 77.7752 65.1234 74.6061C65.3098 74.3575 65.6826 74.4197 66.1176 74.7304C67.2982 75.2896 66.4283 76.9052 66.739 77.6509C66.739 78.8315 67.3604 78.4587 67.4847 79.3908C67.2982 80.1986 69.0381 80.0122 69.411 80.7579C70.1566 81.8764 69.1624 84.0512 68.6653 84.9833C68.4167 85.2319 68.6032 86.2261 68.3546 86.6611C67.5468 86.7232 62.3892 86.6611 62.8242 86.9096C62.8242 87.0339 63.3213 87.0339 66.8011 87.0339C69.9702 87.0339 70.778 87.0961 70.778 87.1582C70.778 87.3446 68.4789 87.3446 68.0439 87.3446L67.9196 87.7174C67.5468 88.3388 67.4847 89.768 67.0497 90.203C66.6768 90.5759 66.8633 91.3837 66.5526 91.9429C66.1176 92.9371 65.7448 93.8071 65.4962 94.9256C65.3719 95.7955 64.6884 96.4791 64.6263 97.4112C64.6263 97.9704 64.1913 98.7161 64.1291 99.2132C64.067 99.8346 63.632 100.27 63.3835 100.705C63.1971 101.45 62.8242 102.009 62.7621 102.817C63.0728 102.817 64.2534 102.631 63.9427 103.004C64.5641 103.998 59.2823 103.314 58.1016 103.439V104.122H62.3892C61.6436 105.862 61.1465 108.037 60.6493 109.59C60.4629 109.466 60.6493 109.963 60.5251 109.963C60.4629 109.963 60.4629 110.025 60.4629 110.088C60.028 110.46 60.2144 110.771 60.028 111.082C62.1407 111.455 68.1682 111.082 71.213 111.206C74.7549 111.082 71.8965 112.2 72.8908 112.387C73.6986 112.946 74.6928 112.822 75.8113 113.008ZM52.3848 115.432C52.5091 114.997 52.012 115.121 51.9499 115.369C51.9499 115.494 52.3227 115.494 52.3848 115.432ZM71.2751 113.381C72.2694 113.195 70.5916 112.573 70.2809 112.511C70.2188 112.573 69.5974 111.952 69.4731 112.076C69.1624 112.387 68.7896 112.014 68.4167 112.076C67.9196 112.076 67.7332 111.89 67.4225 112.138C67.2982 112.076 66.3661 112.014 65.9933 112.014C65.5583 112.262 64.2534 111.89 63.8184 112.138C63.1349 112.2 61.8921 111.89 61.5193 112.2C61.1465 112.2 61.2086 112.697 60.8358 112.449C59.2823 112.822 64.9991 113.07 66.4904 112.946C68.1682 112.946 69.7838 113.008 71.2751 113.381ZM72.5801 112.946C72.7044 113.07 72.8286 113.008 72.8908 112.822C72.8908 112.635 72.2694 112.76 72.5801 112.946ZM67.1118 82.0628C67.0497 82.6842 67.6711 81.8764 67.2361 81.8142C67.1118 81.7521 67.1118 81.8142 67.1118 82.0628Z" fill="black"/>
<path d="M138.654 85.9776C139.71 87.2203 137.659 87.0339 137.535 87.966C137.038 89.0224 136.727 88.401 136.851 89.7681C136.665 90.0166 136.914 89.9545 136.727 90.0788C136.603 90.3894 137.038 90.9487 136.354 91.3837C134.987 92.8129 132.999 93.4343 131.383 94.6149C130.389 96.1684 122.559 95.3606 120.509 95.7334C120.509 95.7955 121.876 95.7956 124.548 95.8577C130.575 95.8577 132.315 95.8577 132.44 95.982C132.564 96.0441 128.214 95.982 128.463 96.1062C128.463 96.4791 127.655 96.6034 127.406 96.7276C127.158 97.1005 126.164 97.5354 125.791 97.7219C123.678 98.0947 129.83 100.207 130.203 100.642C132.44 102.072 135.733 103.314 136.851 105.8C136.789 106.421 135.112 107.105 135.112 107.788C135.174 108.41 134.428 108.41 134.614 108.969C134.49 109.031 134.49 109.466 134.677 109.653C135.049 110.212 133.869 109.093 134.304 109.839C134.925 110.585 133.372 111.082 132.875 111.33C132.191 111.703 131.197 112.138 130.451 112.449C129.271 113.008 127.593 113.692 126.474 114.127C126.35 114.251 118.272 114.189 116.594 114.251V114.748C118.023 114.872 130.016 114.375 127.468 115.059C126.164 115.245 122.808 115.245 121.876 115.991C119.204 116.861 116.718 118.29 113.798 118.041C113.052 117.731 112.99 119.719 112.182 119.408C111.437 118.911 112.12 119.471 111.499 119.533C111.064 119.533 110.567 121.21 110.069 121.273C109.821 121.21 109.759 121.21 109.759 120.838C109.759 120.216 109.386 119.906 109.635 119.346C109.075 119.781 108.019 120.527 108.267 120.838C108.392 121.894 107.149 122.018 106.714 123.199C106.403 123.696 106.279 124.504 105.844 124.504C105.782 124.504 105.658 124.504 105.533 124.38C106.155 121.459 107.522 117.296 108.33 114.499C108.392 114.127 108.702 113.63 108.454 113.319C108.392 113.132 108.64 113.132 108.578 112.884C109.075 112.138 109.324 110.709 109.697 109.901C109.945 109.155 110.38 107.913 110.504 107.167C110.567 106.981 110.753 106.981 113.176 106.981C115.413 106.981 115.786 106.918 115.786 106.794C116.159 106.546 111.499 106.67 110.753 106.67C110.753 106.546 110.877 106.173 110.939 106.173C111.064 106.049 110.815 105.676 111.126 105.676C111.437 105.551 111.064 104.93 111.499 104.495C111.809 103.749 112.058 102.879 112.306 102.134C112.431 102.009 112.431 101.947 112.431 101.885C112.369 101.823 112.617 101.885 112.555 101.637C112.369 101.512 112.99 101.015 112.928 100.953C112.679 100.705 113.114 100.021 113.239 99.7725C113.301 99.0268 113.611 98.4054 113.922 98.1568C114.109 97.8461 113.611 97.9704 113.984 97.7219C114.233 97.5354 113.86 96.7276 114.233 96.7898C114.357 96.8519 114.295 96.1684 114.419 96.2305C114.481 96.2305 114.481 96.1684 114.481 96.0441C114.481 95.7334 114.978 95.2363 114.978 94.9256C115.227 94.677 114.668 94.8635 114.978 94.677C115.289 94.4285 114.792 94.4906 115.227 94.1178C115.538 93.8071 115.289 93.6828 115.538 93.4343C115.911 93.31 115.724 91.6322 116.159 91.4458C116.221 91.5079 116.221 91.3215 116.221 91.1351C116.097 90.7001 116.532 90.5759 116.594 90.1409C116.532 89.2709 117.278 88.7738 117.153 87.9039C113.239 87.8417 122.311 87.6553 123.367 87.6553C122.622 87.5932 116.718 87.7796 117.526 87.4689C117.65 87.2825 117.65 87.2825 117.526 87.3446H117.464C117.402 87.3446 118.272 86.164 118.085 85.8533C118.023 85.5426 118.023 85.5426 118.21 85.729C118.334 85.9154 118.334 85.9154 118.272 85.729C118.21 85.4804 118.396 85.6047 118.458 85.4183C118.52 85.294 118.458 85.294 118.396 85.3562C118.272 85.4183 118.52 84.9833 118.52 84.7969C118.52 84.1755 118.831 84.1755 118.831 83.4298C118.831 83.2434 118.893 83.1813 118.893 83.2434C119.204 83.927 119.142 82.3113 119.39 82.3113C119.577 82.4978 119.39 81.255 119.515 81.5035C119.825 81.9385 119.639 81.255 119.763 81.1307C119.95 80.8821 119.453 81.255 119.763 80.4472C119.825 80.2607 119.825 80.2607 119.825 80.385C120.385 80.9443 119.825 78.4587 119.887 78.0237L120.447 78.0859C119.95 77.4645 115.366 72.0734 115.801 71.452C116.423 70.7685 113.751 69.1529 113.813 67.9723C113.875 67.6616 113.999 67.5373 114.186 67.5373C114.869 67.5373 116.485 69.5879 117.106 69.215C118.349 69.2772 123.864 75.4139 124.859 75.9731C126.909 77.0917 128.338 78.5209 130.389 79.7636C133.496 81.0064 128.028 80.3229 127.531 80.3229C127.22 80.1986 127.096 80.1365 126.971 80.1365C126.785 80.1365 127.033 80.5093 126.226 80.4472C124.486 80.7579 127.344 80.6957 127.468 81.0064C128.649 81.7521 130.203 82.5599 131.321 83.2434C131.508 83.2434 131.259 83.5541 131.445 83.492H131.508C132.005 83.492 132.626 84.3619 133.185 84.1755C132.937 83.6163 132.067 83.6163 131.88 83.1813C131.756 82.4978 130.265 82.622 130.078 82.1871C130.203 82.1249 130.513 82.2492 130.14 81.9385C129.892 81.8764 130.14 82.1249 130.016 82.1249C129.705 81.255 128.96 81.1928 128.214 80.7579C129.519 80.82 135.795 80.6957 135.671 80.9443C136.23 81.1928 133.185 81.0686 132.812 81.0686C134.801 82.622 137.473 83.5541 138.654 85.9776ZM127.282 107.353C127.779 107.353 126.474 106.67 126.288 106.856C126.039 106.856 127.096 107.353 126.599 107.229C126.164 107.105 126.847 107.602 126.536 107.54C126.474 107.54 126.474 107.54 126.412 107.54C126.039 107.54 125.418 107.975 125.045 107.975C124.921 107.975 124.796 107.913 124.734 107.726C124.734 107.602 124.734 107.602 124.548 107.602C124.175 107.726 124.175 107.788 124.486 107.975C125.045 108.348 123.927 108.658 123.305 108.658C122.994 108.658 122.808 108.596 122.808 108.472C122.559 108.472 121.441 108.845 120.571 109.218C119.825 109.653 119.95 109.59 120.136 109.59C120.26 109.59 120.509 109.59 120.509 109.901C120.571 110.212 120.385 110.274 120.198 110.088C120.074 109.839 119.639 110.15 119.639 109.901C119.701 109.653 119.204 109.715 119.204 109.901C119.266 110.025 119.204 110.025 119.08 110.025C118.893 109.901 119.018 110.398 119.204 110.274C119.328 110.212 119.018 110.523 118.831 110.336C118.707 110.212 118.645 110.15 118.707 110.088C119.018 109.839 117.464 110.398 118.148 110.336C118.21 110.336 118.645 110.771 118.272 110.585C118.023 110.46 118.334 111.206 117.961 110.958C117.899 110.895 117.775 110.895 117.713 110.895C117.526 111.02 117.153 110.523 117.029 110.647C116.905 110.709 117.029 110.771 117.215 110.895C117.899 111.144 117.464 111.455 117.215 111.082C117.091 110.709 115.973 110.709 116.159 111.082C116.283 111.206 116.283 111.268 116.221 111.268C115.973 111.268 115.103 112.2 115.848 111.765C115.973 111.641 115.973 111.641 115.911 111.765C115.848 111.89 115.973 111.89 116.532 111.765C116.905 111.703 116.718 111.517 116.905 111.517C117.961 111.33 119.39 110.895 120.198 110.46C120.385 110.274 120.882 110.274 120.82 109.963C120.82 109.777 121.317 109.839 121.13 109.528C120.944 109.093 121.69 109.715 121.876 109.777C121.69 109.653 121.317 109.093 121.752 109.404C122.124 109.528 122.062 108.721 122.559 109.59C122.684 109.777 122.746 109.777 122.746 109.59C122.746 109.404 123.181 109.218 122.746 109.218C122.622 109.28 122.497 109.28 122.497 109.218C122.746 108.907 123.429 109.342 123.616 108.907C123.678 108.783 124.175 108.907 124.175 108.72C124.424 108.472 124.61 108.783 124.61 109.031C124.796 108.41 125.791 107.975 126.288 107.726C126.412 108.037 126.909 107.602 127.096 107.602C127.282 107.602 127.033 107.353 127.282 107.353ZM122.684 104.806C120.695 103.812 119.887 103.377 118.893 102.879C118.458 104.433 117.775 106.173 117.34 107.54C117.278 108.037 117.402 108.037 117.029 108.41C116.656 108.783 116.718 109.342 116.594 109.839C119.39 108.907 121.752 107.851 124.672 106.608C126.536 106.049 124.362 105.924 122.684 104.806ZM124.237 109.342C124.486 109.404 124.486 108.534 124.362 108.969C124.299 109.093 124.237 109.155 124.175 109.155C123.802 109.155 124.051 109.404 124.237 109.342ZM123.181 91.6944C122.994 91.5079 122.808 91.5079 122.808 91.7565C122.808 92.0051 123.429 92.0672 123.305 92.3158C123.243 92.7507 123.802 92.0672 123.181 91.6944ZM122.746 99.4618C122.497 99.4618 122.311 99.586 122.497 99.586C122.684 99.6482 122.435 100.021 122.87 99.8346C123.119 99.7103 123.616 99.8967 123.492 100.021C123.429 100.145 123.74 100.021 123.678 100.27C123.678 100.456 123.678 100.456 123.74 100.332C123.864 100.145 123.927 100.207 124.486 100.456C125.356 101.077 125.045 100.394 125.48 100.518C125.666 100.705 125.418 100.394 125.666 100.394C126.039 100.27 124.921 100.083 125.169 99.8967C125.169 99.8346 124.548 99.6482 124.424 99.7103C124.299 99.7103 124.051 99.3375 123.927 99.3375C123.864 99.3375 123.243 99.0889 123.367 99.2753C123.554 99.3996 123.989 99.586 123.927 99.8967C123.74 99.8967 122.994 99.2753 122.746 99.4618ZM124.734 92.0051C124.921 92.0051 124.859 91.7565 124.61 91.7565C124.548 91.6944 124.486 91.7565 124.486 91.8808C124.486 92.0672 124.175 92.0672 124.175 92.2536C124.175 92.44 124.486 92.0672 124.299 92.3779C124.051 92.6265 124.548 92.44 124.548 92.3158C124.672 92.1915 124.486 92.0051 124.734 92.0051ZM125.977 101.077C125.977 100.829 125.107 100.642 125.542 100.891C125.853 100.953 125.604 101.202 125.853 101.202C125.915 101.202 125.977 101.202 125.977 101.077ZM125.977 100.394C125.666 100.456 126.412 100.642 126.536 100.58C126.412 100.518 126.164 100.394 125.977 100.394ZM126.288 100.829C125.915 100.518 126.039 101.015 126.288 100.953C126.412 100.891 126.412 100.891 126.288 100.829ZM126.723 108.286C126.909 108.099 126.909 108.099 126.723 108.037C126.288 107.975 126.164 108.845 126.723 108.286ZM123.492 92.9371C123.74 92.9993 122.994 92.44 123.181 92.875C123.181 92.9993 122.932 92.7507 122.87 93.0614C122.746 93.3721 123.305 93.2478 123.367 92.9993C123.367 92.875 123.367 92.875 123.492 92.9371ZM126.785 101.45C126.785 101.388 126.723 101.326 126.599 101.388C126.35 101.45 126.35 101.264 126.164 101.202C125.853 101.326 126.723 101.574 126.661 101.761C126.661 101.761 126.661 101.823 126.785 101.885C126.847 101.947 126.909 101.885 126.847 101.823C126.785 101.512 127.903 102.32 127.966 102.382C128.587 102.693 130.824 104.06 130.824 103.625C130.886 103.501 131.756 103.439 131.259 103.252C131.01 103.19 130.638 102.817 130.016 102.693C129.643 102.693 129.83 102.507 129.705 102.444C129.643 102.444 129.581 102.382 129.581 102.258C129.581 102.072 129.395 102.258 129.208 102.072C128.96 101.947 128.898 101.885 128.836 101.885C128.773 101.885 129.581 102.569 129.519 102.631C129.022 102.631 128.773 101.885 128.338 101.761C128.338 101.637 128.09 101.015 127.966 101.264C127.841 101.45 127.406 101.077 127.717 100.953C128.09 100.705 126.35 101.077 126.847 101.14H126.909C127.344 101.14 128.463 101.947 128.338 102.134C128.028 102.258 127.593 101.575 127.468 101.326C127.468 101.388 126.971 101.077 127.22 101.326C127.468 101.575 126.785 101.574 126.785 101.45ZM132.005 104.122C131.383 104.433 132.999 104.309 132.377 104.619C132.315 104.619 132.315 104.619 132.315 104.619C131.942 104.619 132.937 105.427 133.185 105.427C133.247 105.427 133.247 105.427 133.247 105.427C133.247 105.241 134.428 105.8 133.993 105.427C133.807 105.179 134.552 104.681 134.863 104.744C135.112 104.806 135.112 104.806 134.987 104.681C134.739 104.619 134.863 104.246 134.677 104.309C134.49 104.433 134.304 104.06 134.179 104.184C134.117 104.184 134.055 104.184 134.055 104.122C134.055 104.06 133.931 103.314 133.745 103.563C133.247 103.998 133.807 103.066 133.123 103.563C132.999 103.687 132.937 103.749 132.937 103.749C132.812 103.749 133.247 102.942 132.564 102.942C132.377 103.004 132.005 102.507 131.942 102.631C131.942 102.817 132.129 102.693 132.129 102.879C132.067 103.066 132.688 103.314 132.44 103.439C132.377 103.501 132.315 103.501 132.377 103.377C132.502 103.19 132.005 103.314 132.005 103.19C131.57 102.942 132.564 103.998 132.005 104.122ZM123.243 78.0237C123.74 78.2102 124.983 79.4529 125.231 79.4529C125.48 79.2044 124.796 78.4587 124.548 78.3966C124.299 78.3344 124.424 77.7752 124.113 77.8995C123.989 77.9616 123.305 77.5888 123.429 77.4645C123.429 77.4024 123.429 77.4024 123.367 77.4645C123.057 77.5266 122.746 76.8431 122.684 77.5266C122.622 78.0237 122.87 77.5266 123.243 78.0237ZM126.288 90.0166C126.599 89.6438 124.299 90.5759 125.294 90.7623C125.853 91.0108 125.418 90.638 125.418 90.4516C125.542 90.3894 125.853 90.9487 125.915 90.7001C125.977 90.638 125.977 90.5759 125.915 90.5759C125.48 90.4516 126.288 90.203 126.288 90.0166ZM125.045 85.1698C123.927 88.7117 123.243 90.0166 123.802 90.0166C124.237 90.0166 125.604 89.0224 128.338 87.5932C129.705 87.1582 127.779 86.7232 127.531 86.4125C127.096 86.2883 125.356 84.7348 125.045 85.1698ZM126.536 89.8302C126.847 90.2652 126.909 89.5195 126.599 89.5816C126.474 89.5816 126.412 89.7059 126.536 89.8302ZM127.158 89.7059C127.344 90.0787 127.531 89.2088 127.282 89.2709C127.033 89.2709 126.971 89.4574 127.22 89.4574C127.468 89.5195 127.096 89.5816 127.158 89.7059ZM128.587 90.3273C128.587 90.2652 128.587 90.1409 128.525 89.9545C128.09 89.2709 128.214 90.7623 128.587 90.3273ZM128.276 88.6496C127.903 89.0224 128.649 88.6496 128.711 89.1467C128.898 88.9602 128.711 88.0903 128.276 88.6496ZM128.836 89.8923C128.836 89.8923 128.836 89.7681 128.773 89.5816C128.711 88.836 128.401 89.8923 128.836 89.8923ZM129.208 89.6438C129.208 89.4574 129.395 89.1467 129.146 89.3331C128.96 89.4574 129.084 89.9545 129.208 89.6438ZM130.513 88.836C130.948 88.836 130.575 88.4631 130.327 88.7117C130.14 88.836 130.14 89.2088 130.265 89.0845C130.451 89.0224 130.203 88.836 130.513 88.836ZM130.824 82.1871C131.259 82.4978 131.197 81.9385 130.824 82.0628C130.7 82.1249 130.7 82.1249 130.824 82.1871ZM136.479 86.164C136.603 86.164 136.603 86.164 136.541 86.0397C136.292 85.729 136.354 86.2883 135.982 85.9154C135.484 85.6047 134.739 84.9833 134.055 84.7348C133.807 84.7348 133.807 84.7969 134.179 85.0455C134.366 85.3562 134.614 85.294 134.677 85.3562C134.739 85.6047 135.982 86.7232 136.23 86.7232C136.354 86.6611 136.23 86.0397 136.479 86.164ZM136.603 85.6047C136.976 85.4183 136.106 85.4804 136.417 84.9833C136.665 84.7969 136.23 84.8591 136.168 85.0455C136.106 85.3562 135.547 84.7348 135.422 84.6726C134.987 84.2998 135.982 84.1755 135.298 83.8648C135.112 83.7406 134.987 83.6784 134.987 83.7405C134.987 83.8648 134.739 83.7405 134.801 83.9891C134.925 84.4862 134.242 83.7405 134.179 83.927C134.428 84.2998 134.987 84.7969 135.36 85.0455C135.422 84.9833 135.671 85.5426 135.671 85.4183C135.857 85.294 136.354 86.0397 136.603 85.6047ZM136.976 85.6047C137.411 85.8533 137.1 85.294 136.914 85.294C136.789 85.294 136.789 85.5426 136.976 85.6047ZM128.587 81.255C128.587 81.255 128.525 81.255 128.525 81.1928C128.463 80.9443 128.773 81.1928 128.587 81.255ZM122.746 99.7725C122.559 99.7725 122.746 99.586 122.808 99.586C122.87 99.6482 122.808 99.8346 122.746 99.7725ZM132.564 104.309C132.44 104.309 132.44 104.122 132.564 104.122C132.688 104.122 132.688 104.309 132.564 104.309ZM123.057 108.783C123.057 108.721 123.181 108.783 123.243 108.845C123.554 109.155 122.994 108.907 123.057 108.783ZM121.752 109.031C121.814 109.031 121.876 109.031 121.876 109.093C122 109.342 121.379 108.969 121.752 109.031ZM116.718 111.02C116.781 111.082 116.843 111.144 116.718 111.144C116.594 111.144 116.532 110.895 116.718 111.02Z" fill="black"/>
<path fill-rule="evenodd" clip-rule="evenodd" d="M85.5228 119.064L85.5216 119.068C80.958 119.148 75.3244 118.859 74.9599 115.371C69.9902 115.515 67.4693 114.723 78.2731 114.939C85.7637 114.939 85.8357 114.939 85.8357 114.651C85.8357 114.434 85.7637 114.434 80.2178 114.434C79.4883 114.434 78.85 114.437 78.2917 114.44C75.5747 114.451 74.7534 114.455 74.5378 114.095C74.4444 113.939 74.4646 113.715 74.4937 113.394C74.5062 113.256 74.5204 113.099 74.5278 112.922C74.5872 112.625 74.5731 112.365 74.5613 112.146C74.5445 111.835 74.5322 111.608 74.7439 111.481C74.8159 111.481 74.7979 111.355 74.7799 111.229C74.7619 111.103 74.7439 110.977 74.8159 110.977C74.9072 110.947 74.9342 110.801 74.9675 110.62C75.0131 110.374 75.0705 110.063 75.3201 109.897C75.5304 109.729 75.5933 109.462 75.6523 109.212C75.6944 109.034 75.7344 108.864 75.8242 108.745C75.8603 108.672 75.8783 108.636 75.8693 108.627C75.8603 108.618 75.8242 108.636 75.7522 108.672C75.733 108.672 75.7497 108.647 75.7833 108.595C75.8752 108.454 76.0931 108.12 76.0403 107.592C76.0403 107.088 76.1123 106.728 76.1123 106.728C76.3284 106.872 76.6165 106.224 76.6165 105.647C76.6365 105.554 76.6559 105.463 76.6749 105.373C76.8617 104.491 77.0166 103.76 77.4088 102.91C77.6117 102.505 77.6774 102.099 77.7348 101.744C77.7792 101.47 77.8187 101.226 77.913 101.038C77.985 101.038 78.4171 100.102 78.4171 99.9575C78.4171 99.902 78.4599 99.8785 78.5042 99.8543C78.575 99.8155 78.6498 99.7745 78.5612 99.5973C78.4697 99.3687 78.6105 99.082 78.7256 98.8478C78.7917 98.7131 78.8493 98.5958 78.8493 98.517C79.0093 98.3036 79.0903 97.8534 79.1508 97.5171C79.172 97.3992 79.1907 97.2953 79.2094 97.2205C79.3207 97.2205 79.2983 97.0869 79.2799 96.9769C79.2625 96.8732 79.2486 96.7905 79.3535 96.8604C79.4026 96.8277 79.4433 96.7977 79.4805 96.7703C79.7709 96.5569 79.8479 96.5003 82.0184 96.5003H84.4672L84.5393 95.708C84.4015 95.708 84.1762 95.709 83.8873 95.7103C81.7594 95.7201 76.1813 95.7456 76.6885 95.4919C76.6165 95.4199 76.6165 95.3479 76.6885 95.4199C76.8002 95.4943 76.758 95.3765 76.711 95.2452C76.6671 95.1224 76.6189 94.9877 76.6885 94.9877C76.6524 94.9155 77.4672 94.8976 78.2888 94.8796C79.1059 94.8616 79.9297 94.8435 79.9297 94.7717C79.8576 94.5556 79.9297 94.4836 80.0017 94.6276C80.1052 94.7656 80.093 94.6393 80.076 94.4622C80.0575 94.2696 80.0331 94.0169 80.1457 93.9794C80.2538 93.7633 80.3258 93.5112 80.3978 93.2591C80.4699 93.007 80.5419 92.755 80.6499 92.5389C80.7047 92.4294 80.7595 92.1532 80.8221 91.8372C80.9243 91.322 81.0476 90.7008 81.2261 90.5222C81.2763 90.447 81.3002 90.3456 81.3253 90.2392C81.3724 90.0402 81.4235 89.8238 81.6583 89.7299C81.8593 89.4886 81.9481 89.1576 82.0375 88.8245C82.1082 88.5609 82.1792 88.296 82.3065 88.0733C82.2743 87.9766 82.343 87.7501 82.4159 87.5099C82.5059 87.2134 82.6021 86.8963 82.5226 86.7769C82.4505 86.7049 82.5226 86.2007 82.6666 86.2727C82.7386 86.4168 82.8827 85.8406 82.7386 85.8406C82.6666 85.8046 82.7927 85.5885 82.9187 85.3724C83.0447 85.1563 83.1708 84.9403 83.0988 84.9042C82.9556 84.7134 83.1286 84.5225 83.2826 84.3526C83.3611 84.266 83.4346 84.1849 83.4589 84.112C83.4589 84.042 83.4589 84.006 83.4506 84.004C83.4419 84.0019 83.4239 84.0379 83.3869 84.1119C83.0988 84.4 83.2428 83.7518 83.4589 83.6078C83.8608 83.1054 84.0174 82.533 84.1731 81.9638C84.2407 81.7169 84.3081 81.4706 84.3952 81.231C84.5149 81.2709 84.5462 80.891 84.5748 80.544C84.5978 80.2646 84.619 80.0065 84.6833 80.0065C84.7553 80.0786 84.8274 79.9345 84.9714 79.2143C85.1088 79.0425 84.6075 79.0346 84.0922 79.0264C83.5269 79.0174 82.9447 79.0082 83.1708 78.7821C82.8349 78.5022 84.3704 78.5269 85.9166 78.5518C86.3595 78.5589 86.8033 78.566 87.2042 78.566C88.3566 78.566 89.2209 78.494 89.0048 78.2779C89.2442 78.0385 88.3398 78.0478 87.3659 78.0578C87.1678 78.0598 86.9669 78.0619 86.772 78.0619C85.9798 78.0619 85.2595 77.9898 85.4756 77.7738C85.6154 77.4342 85.7774 77.0669 85.9462 76.6843C86.386 75.6871 86.8719 74.5853 87.1322 73.5963C87.1487 73.5798 87.2031 73.3927 87.2842 73.1141C87.5563 72.1785 88.1287 70.2112 88.5727 70.2112C88.8608 70.2112 89.0048 70.5713 88.9328 71.2195C88.869 71.7295 89.1579 71.9714 89.4249 72.1951C89.7612 72.4769 90.0629 72.7295 89.581 73.4523C89.3476 73.9191 89.2655 74.0833 89.315 74.1804C89.3419 74.233 89.4076 74.2659 89.509 74.3166C89.776 74.5073 89.6794 75.3041 89.5936 76.0115C89.5174 76.6398 89.4498 77.1976 89.653 77.1976C90.0852 78.1339 91.0215 78.35 91.0215 77.5577C90.9495 77.1976 92.1739 76.1892 92.39 76.6934C93.1823 78.7101 92.6781 80.2946 91.8138 81.7351C91.5257 83.2477 91.1656 85.0483 90.4453 86.4888C90.3357 86.3243 90.226 86.9109 90.1482 87.3275C90.1237 87.4583 90.1024 87.5724 90.0852 87.6412H87.6363C85.3315 87.6412 85.2595 87.6412 85.2595 87.9293C84.5918 88.2155 87.8404 88.1226 90.446 88.0482C91.7751 88.0102 92.937 87.977 93.3263 88.0013C93.3196 88.0616 93.3154 88.1144 93.3117 88.1607C93.3018 88.285 93.2957 88.362 93.2551 88.4097C93.189 88.4875 93.0315 88.4875 92.6173 88.4875C92.363 88.4875 92.0119 88.4875 91.5257 88.5055C91.1919 88.5055 90.9235 88.5027 90.707 88.5004C90.067 88.4936 89.8813 88.4916 89.8046 88.5821C89.7732 88.6191 89.76 88.6715 89.7415 88.7454C89.7114 88.8649 89.6673 89.0406 89.509 89.2978C89.4676 90.2082 89.1409 90.9998 88.8294 91.7544C88.5988 92.3132 88.3765 92.8517 88.2846 93.4032C88.0796 94.2916 87.8421 94.9206 87.6184 95.5133C87.3706 96.1699 87.1395 96.782 86.9881 97.6527C87.0234 97.8995 86.9723 97.8356 86.9026 97.7483C86.8299 97.6573 86.7368 97.5409 86.7 97.7247C86.7 97.9408 86.628 99.1652 86.2679 98.8771C86.1958 98.8051 86.1958 98.8771 86.1958 99.2372C86.1825 99.3442 86.1716 99.4934 86.159 99.6655C86.1039 100.42 86.0168 101.614 85.5476 101.614C85.35 101.416 85.391 101.674 85.4325 101.935C85.4666 102.15 85.5011 102.367 85.4036 102.334C85.299 102.369 85.2619 102.471 85.227 102.568C85.1897 102.671 85.155 102.766 85.0434 102.766C84.9902 102.899 84.996 103.16 85.0026 103.461C85.0139 103.976 85.0279 104.609 84.7553 104.927C84.6858 105.032 84.6498 105.086 84.6393 105.081C84.6281 105.076 84.6461 105.004 84.6833 104.855C84.8994 104.639 84.3952 104.351 84.4672 104.639C84.3147 104.975 84.2397 105.685 84.1656 106.387C84.0647 107.342 83.9656 108.282 83.675 108.24C83.6007 108.203 83.5839 108.338 83.5652 108.488C83.5477 108.628 83.5287 108.782 83.4589 108.817C83.0988 109.825 82.9547 110.473 84.6833 110.329C85.4365 110.329 86.4785 110.312 87.5226 110.286L87.5241 110.28C88.1861 110.263 89.2526 110.242 90.3586 110.221L90.3591 110.221C92.3798 110.183 94.5321 110.142 94.5903 110.113C95.0736 109.522 95.717 107.09 96.1922 105.294C96.3544 104.681 96.4971 104.141 96.607 103.775C96.6373 103.593 96.7443 103.347 96.8579 103.086C97.0142 102.727 97.1832 102.338 97.1832 102.046C97.0392 102.118 97.0392 101.974 97.1832 101.83C97.5031 101.19 97.736 100.29 97.9556 99.4405C98.082 98.9515 98.204 98.4797 98.3356 98.0848C98.7678 96.5003 98.9839 95.9241 99.6321 94.5556C99.7501 94.4376 99.6868 94.4525 99.6056 94.4716C99.4886 94.4993 99.3344 94.5356 99.6321 94.1955C99.6681 94.0514 99.7941 93.7093 99.9202 93.3672C100.046 93.0251 100.172 92.6829 100.208 92.5389C99.9434 92.3799 100.185 92.143 100.36 91.9715C100.423 91.9099 100.477 91.8567 100.496 91.8186C100.568 91.1704 100.857 89.0097 101.361 88.9376C101.361 88.8751 101.306 88.8533 101.251 88.831C101.178 88.8018 101.104 88.7718 101.145 88.6495L101.237 88.3601C101.76 86.7263 102.089 85.6965 102.225 85.6965C102.29 85.5334 102.326 85.2372 102.366 84.9085C102.413 84.5116 102.467 84.067 102.585 83.7518C102.412 83.7346 102.231 83.738 102.059 83.7413C101.512 83.7517 101.052 83.7605 101.217 83.1036C102.297 83.1756 104.314 83.2477 105.394 83.2477V82.6715C105.278 82.6483 104.947 82.6549 104.562 82.6626C103.75 82.6788 102.701 82.6998 102.945 82.4554C103.008 82.4241 103.043 82.2302 103.075 82.0559C103.116 81.8285 103.152 81.6345 103.233 81.8792C103.333 81.9788 103.356 81.7722 103.387 81.4922C103.424 81.1651 103.471 80.738 103.665 80.5827C103.891 80.1876 103.896 79.7371 103.9 79.3006C103.907 78.6235 103.914 77.9801 104.746 77.6297C104.917 77.4302 105.009 76.9259 105.107 76.3894C105.256 75.5706 105.42 74.6767 105.898 74.6767C105.97 74.6767 106.114 74.7487 106.258 74.8207C106.38 74.9724 106.412 75.2262 106.446 75.4962C106.492 75.8673 106.543 76.2688 106.835 76.4773C107.07 76.8309 107.177 77.313 107.285 77.7952C107.374 78.197 107.463 78.5988 107.627 78.9262C107.771 79.2143 108.779 80.0065 109.283 80.0065C109.427 80.0065 109.572 79.9345 109.572 79.7905C109.684 79.6775 109.812 79.5079 109.946 79.3282C110.241 78.9351 110.571 78.494 110.868 78.494C111.012 78.494 111.228 78.7101 111.3 79.3583C111.463 81.3179 111.215 82.0845 110.991 82.7773C110.919 83.0011 110.849 83.2176 110.796 83.4637C110.796 84.184 110.436 85.1923 110.004 85.4084C109.879 87.0852 109.702 87.4768 109.332 88.2916C109.273 88.4218 109.209 88.5628 109.139 88.7216C109.045 88.8479 108.964 89.2513 108.884 89.6463C108.783 90.1518 108.684 90.6435 108.563 90.5222C108.491 90.5222 108.275 91.0264 108.203 91.6026C108.16 91.718 108.126 91.8168 108.097 91.9013C108.023 92.1181 107.98 92.2408 107.895 92.3084C107.783 92.3965 107.598 92.3911 107.172 92.3789C106.779 92.3676 106.182 92.3505 105.25 92.3948C101.073 92.3948 101.937 92.827 106.763 92.755C111.084 92.6829 112.02 92.971 109.211 93.1151C107.571 93.0157 107.543 93.1907 107.423 93.9482C107.369 94.2882 107.296 94.7455 107.051 95.3479C106.993 95.3765 107.004 95.496 107.016 95.6207C107.033 95.8099 107.052 96.0109 106.835 95.9241C106.658 95.9241 106.707 95.9933 106.768 96.0809C106.832 96.172 106.909 96.2828 106.763 96.3562C106.454 96.8709 106.292 97.8638 106.172 98.5988C106.125 98.8923 106.083 99.1448 106.042 99.3092C105.932 99.3918 105.801 99.3692 105.689 99.35C105.508 99.3188 105.377 99.2962 105.466 99.7414C105.466 100.931 105.205 101.742 104.94 102.564C104.788 103.036 104.635 103.511 104.53 104.063C104.744 104.277 103.282 104.252 101.718 104.226C101.182 104.216 100.633 104.207 100.136 104.207C99.0559 104.207 98.2636 104.279 98.4797 104.495C98.7481 104.817 100.457 104.779 102.265 104.739L102.265 104.739C102.883 104.725 103.511 104.711 104.098 104.711C105.466 104.711 106.618 104.783 106.835 105.071C106.253 105.42 105.671 105.393 105.166 105.37C105.045 105.365 104.929 105.359 104.818 105.359C104.098 105.359 103.665 105.575 103.665 107.52C103.804 108.353 103.441 109.003 103.181 109.468C102.901 109.967 102.741 110.254 103.449 110.329C103.738 110.257 104.17 110.401 103.954 110.545C103.521 111.265 104.53 111.986 105.322 111.698C106.907 111.409 110.004 111.914 106.907 113.354C105.868 113.826 105.517 114.285 105.223 114.669C104.843 115.165 104.558 115.537 103.017 115.659C102.698 115.882 102.86 116.19 103.02 116.496C103.221 116.879 103.419 117.259 102.657 117.46C102.441 117.604 102.369 117.676 102.585 117.676C103.738 118.396 102.945 118.684 100.712 118.684C99.9686 119.469 98.6389 124.004 98.2662 125.645C97.9894 126.865 97.7212 128.046 97.3221 128.783C96.7459 129.935 96.2417 130.368 95.8816 130.368C95.3054 130.368 95.0893 129.143 95.5215 127.126C95.6999 126.725 95.3811 126.268 95.0954 125.859C94.9198 125.607 94.7566 125.374 94.7292 125.182C94.4411 124.822 93.5768 124.245 93.1447 124.029C92.4741 123.934 93.3184 120.472 93.2226 119.844C93.1743 119.527 93.1264 119.213 93.0058 118.972C92.3583 118.96 88.23 118.986 87.2888 119.015C86.7326 119.033 86.1386 119.051 85.5228 119.064ZM86.9692 112.464L86.9853 112.4C87.165 112.354 87.3574 112.322 87.5498 112.418C87.8859 112.466 91.5173 112.386 91.8534 112.306C92.0214 112.266 92.1895 112.226 92.3576 112.202C92.4488 112.141 92.6429 112.209 92.8474 112.28C93.1272 112.377 93.4267 112.482 93.51 112.274C93.5776 112.229 93.6523 112.219 93.7274 112.209C93.8923 112.187 94.0592 112.165 94.1582 111.77C94.4696 111.458 93.1113 111.47 92.0861 111.479L92.0852 111.479C91.9252 111.48 91.7734 111.481 91.6373 111.481C91.0611 111.481 87.4777 111.481 87.6938 111.337C87.7277 111.27 87.7456 111.234 87.7402 111.23C87.734 111.225 87.6981 111.261 87.6218 111.337C87.5511 111.443 87.4457 111.393 87.3482 111.34C87.3465 111.445 87.2574 111.427 87.1682 111.409C87.0781 111.391 86.9881 111.373 86.9881 111.481C86.9881 111.626 86.4119 111.698 86.3399 111.553C86.2194 111.523 86.061 111.544 85.8384 111.572C85.529 111.612 85.0956 111.667 84.4672 111.626C83.3148 111.626 82.1624 111.626 83.0988 112.202C83.1708 112.202 83.2428 112.274 83.2428 112.346C83.0988 112.49 84.3232 112.562 84.0351 112.346C83.891 112.13 83.891 112.13 84.4672 112.346C84.7553 112.49 84.8994 112.49 85.0434 112.49C85.1804 112.49 85.2016 112.403 85.2171 112.339C85.2261 112.303 85.2331 112.274 85.2595 112.274C85.3315 112.274 85.4756 112.346 85.6917 112.562L85.9077 112.346C86.0737 112.147 86.0867 112.253 86.1018 112.377C86.1195 112.522 86.14 112.69 86.4119 112.418C86.489 112.341 86.5249 112.305 86.5526 112.31C86.5766 112.315 86.5945 112.351 86.628 112.418C86.7267 112.492 86.8424 112.49 86.9692 112.464ZM89.509 79.2863C89.2929 79.7905 89.581 80.7268 89.7251 80.0786C89.9411 80.0065 89.8691 78.2779 89.509 79.2863ZM89.581 80.5107C89.437 80.3667 89.3649 80.4387 89.437 80.7268C89.509 81.6631 89.7971 80.7268 89.581 80.5107ZM76.9368 116.218C77.2773 116.285 77.6837 116.364 77.985 116.163C77.3156 116.079 77.3267 115.947 77.3406 115.78C77.3506 115.66 77.3622 115.522 77.1207 115.371C76.8314 115.407 76.9779 115.534 77.1134 115.651C77.2478 115.768 77.3714 115.875 77.0487 115.875C76.9168 115.974 76.7246 115.922 76.5618 115.878C76.3689 115.826 76.2173 115.785 76.2564 116.019C76.2564 116.117 76.2564 116.17 76.2828 116.193C76.315 116.22 76.3864 116.203 76.5445 116.163C76.6535 116.163 76.789 116.189 76.9368 116.218ZM105.898 80.2226C105.826 80.2946 105.97 80.5107 106.114 80.5107C106.402 80.5107 106.042 80.0786 105.898 80.2226ZM104.818 78.9982C105.034 78.9262 105.178 78.2059 104.818 78.494C104.674 78.566 104.53 79.2863 104.818 78.9982ZM95.8816 125.11C95.8816 125.038 95.8816 124.894 95.8096 124.822C95.5215 124.534 95.7375 125.47 95.8816 125.11ZM103.81 112.13C103.882 112.346 102.297 112.418 102.945 112.202C102.963 112.202 103.024 112.189 103.106 112.171C103.359 112.117 103.81 112.021 103.81 112.13ZM98.7678 109.609C98.6237 109.681 98.5517 110.257 98.7678 109.969C98.8398 109.825 98.9839 109.249 98.7678 109.609Z" fill="black"/>
<path d="M90.8794 71.4431L91.9886 71.341C91.9893 71.3022 91.9921 71.2618 91.9974 71.2195C92.0695 70.5713 91.9254 70.2112 91.6373 70.2112C91.3995 70.2112 91.125 70.7753 90.8794 71.4431Z" fill="black"/>
<path d="M99.1279 95.2038C98.9118 95.1318 99.344 94.8437 99.272 95.1318C99.1999 95.2038 99.1999 95.2038 99.1279 95.2038Z" fill="black"/>
</svg>
