<svg width="358" height="276" viewBox="0 0 358 276" fill="none" xmlns="http://www.w3.org/2000/svg">
<path d="M99.2586 64.276C100.843 65.992 96.0906 65.86 97.0146 66.916C99.2586 67.708 95.2986 70.48 94.1106 70.48C93.5826 70.348 93.4506 70.348 93.4506 70.744C93.4506 71.668 91.6026 71.536 91.0746 72.196C91.2066 72.46 89.3586 74.308 90.1506 74.176C90.5466 74.176 90.8106 74.308 90.8106 74.572C90.6786 75.1 89.8866 74.968 91.2066 75.364C92.9226 75.496 90.4146 77.344 91.3386 77.476C93.1866 79.588 90.9426 79.324 78.2706 79.588C69.5586 79.852 62.8266 79.324 55.4346 79.984C54.3786 82.756 52.5306 87.508 52.1346 90.676C52.3986 91.996 50.9466 94.9 50.6826 95.824C52.0026 95.956 59.2626 95.428 60.7146 95.164C65.0706 94.636 74.9706 95.164 78.6666 94.9C83.2866 94.24 81.4386 96.88 79.3266 98.464C77.6106 100.048 75.7626 99.784 73.9146 101.104C70.6146 102.028 74.0466 104.272 67.0506 106.12C66.3906 106.648 64.2786 106.516 65.3346 107.176C65.4666 107.308 65.5986 107.44 65.5986 107.572C65.3346 108.892 66.9186 108.628 66.6546 109.948C66.3906 110.08 64.8066 110.608 65.8626 110.74C66.1266 110.74 66.2586 110.872 66.2586 111.136C63.6186 112.06 53.8506 111.4 51.4746 111.532C49.6266 111.532 46.1946 111.928 44.4786 112.06C42.8946 114.964 41.8386 118.396 41.3106 121.696C41.1786 122.752 36.0306 122.224 33.2586 122.224C32.2026 122.224 31.4106 122.356 31.5426 122.62C29.4306 123.28 53.9826 122.62 42.8946 123.544C40.3866 123.808 40.3866 122.752 39.7266 125.524C39.5946 125.656 38.6706 129.088 38.2746 128.824C38.1426 128.824 38.0106 128.824 38.1426 129.22C38.4066 130.276 37.0866 130.672 37.2186 131.728C37.2186 132.784 36.8226 134.5 36.5586 134.5C35.8986 136.084 20.3146 179.516 20.0506 180.704C20.3146 181.76 19.1266 180.572 19.3906 181.496C19.3906 181.76 19.3906 182.024 19.2586 182.024C17.8066 183.74 17.1466 189.284 14.5066 189.944C12.5266 190.208 12.2626 189.152 11.8666 189.152C11.6026 189.152 11.3386 189.812 10.1506 191.792C10.5466 192.584 7.37856 193.244 7.51056 194.564C7.51056 195.884 5.53056 195.884 5.39856 197.336C5.13456 199.448 2.89056 199.976 1.70256 201.428C1.17456 201.824 0.646563 201.956 0.382563 201.956C-1.06944 201.956 2.09856 196.412 1.83456 195.092C1.96656 193.64 2.09856 193.244 2.75856 192.188C3.94656 189.944 3.68256 187.04 4.73856 184.796C4.87056 182.024 20.0586 140.176 20.9826 137.932C20.9826 137.272 20.7186 135.424 21.6426 135.028C22.0386 135.16 21.7746 132.652 22.4346 133.18C23.3586 130.672 24.4146 126.844 25.4706 123.808C25.4706 123.544 25.4706 123.544 25.6026 123.94C25.8666 124.204 25.8666 124.204 25.8666 123.676C25.7346 122.884 25.9986 122.092 26.2626 122.092C26.5266 121.564 26.2626 120.904 26.7906 119.716C29.9586 111.4 30.3546 112.192 28.6386 112.192C27.7146 112.192 26.1306 111.928 23.8866 109.816C24.2826 109.816 25.2066 110.344 24.9426 109.684C24.9426 109.024 23.8866 109.156 24.6786 108.76C24.9426 108.892 25.4706 108.232 25.4706 107.836C25.4706 107.308 26.9226 107.836 26.9226 107.044C24.0186 106.78 23.0946 106.912 24.0186 103.348C24.1506 102.292 25.9986 103.216 25.8666 102.028C25.8666 101.764 25.9986 101.632 26.3946 101.632C27.0546 101.236 27.4506 101.104 27.7146 101.104C28.1106 101.104 27.9786 101.5 28.1106 101.5C28.2426 101.5 28.3746 101.5 28.5066 101.236C29.5626 100.312 29.0346 101.236 29.4306 101.368C29.6946 101.236 30.0906 100.444 30.4866 101.104C30.6186 101.236 31.0146 100.444 31.6746 100.708C32.3346 100.972 32.8626 100.048 32.8626 100.576C32.0706 102.16 33.6546 100.312 33.7866 99.52C31.1466 99.916 32.2026 98.992 30.7506 98.728C23.2266 97.276 31.9386 96.616 34.9746 96.352C34.9746 95.164 36.0306 94.372 35.8986 93.052C36.0306 92.656 37.2186 91.072 37.0866 90.412C37.0866 89.488 37.8786 88.3 38.1426 87.376C38.1426 85.792 39.5946 83.812 39.7266 82.096C27.3186 81.832 46.0626 81.7 50.2866 81.7H45.4026C40.9146 81.568 40.1226 81.436 40.1226 81.172C40.1226 80.644 40.7826 81.172 40.3866 80.512C39.9906 79.192 41.7066 79.984 39.3306 78.4C38.9346 78.004 39.0666 77.476 39.5946 77.872C40.1226 77.74 39.7266 77.08 38.9346 77.212C38.0106 76.42 39.1986 76.552 39.9906 76.42C41.1786 76.156 38.4066 75.232 41.0466 75.232C43.6866 74.968 38.5386 74.968 37.8786 74.572C36.5586 74.044 37.7466 72.856 37.4826 71.668C37.3506 69.556 37.8786 71.404 38.4066 70.612C38.4066 70.216 38.2746 69.952 37.7466 69.424C35.6346 67.444 38.4066 67.84 39.7266 68.104C39.0666 67.972 38.5386 67.708 38.0106 67.18C36.6906 66.124 36.5586 67.576 34.4466 66.652C30.8826 65.86 31.6746 64.276 33.5226 64.276C33.9186 64.276 34.4466 64.408 34.8426 64.54C35.5026 64.804 35.8986 64.804 36.2946 64.804C37.2186 64.804 37.2186 64.012 39.8586 64.276C41.9706 64.276 43.0266 64.276 44.4786 64.144C45.4026 60.976 46.7226 58.6 47.7786 55.696C48.4386 54.64 48.1746 52.396 49.4946 52.396C50.2866 52.396 50.6826 53.056 50.6826 54.772C50.4186 58.336 53.3226 56.884 53.0586 60.316C56.3586 59.26 54.7746 62.692 56.6226 62.692C57.2826 62.692 58.0746 63.22 58.2066 63.748C60.5826 64.012 63.3546 64.012 66.5226 64.012C73.1226 64.012 81.0426 63.748 88.0386 63.748C92.2626 63.748 96.2226 63.88 99.2586 64.276ZM34.8426 112.984C35.2386 112.192 35.2386 112.06 34.9746 112.06C34.7106 112.06 33.7866 114.832 34.8426 112.984ZM41.3106 76.42C41.8386 76.42 41.8386 76.024 41.3106 76.024C40.7826 76.024 40.7826 76.42 41.3106 76.42ZM51.2106 97.804C48.1746 98.596 47.5146 100.048 54.1146 99.256C62.1666 99.388 60.8466 96.748 56.6226 97.672C56.3586 98.068 54.7746 98.068 54.7746 97.672C54.7746 97.408 54.6426 97.408 54.6426 97.672C53.8506 98.596 52.0026 97.012 52.1346 97.936C52.1346 98.464 51.8706 97.408 51.2106 97.804ZM50.8146 58.996C50.5506 58.732 50.5506 59.788 50.8146 59.656C51.2106 59.656 51.0786 58.996 50.8146 58.996ZM54.7746 67.048C55.4346 66.652 54.3786 66.52 53.0586 66.52C51.3426 66.52 48.9666 66.784 49.7586 66.916C50.1546 67.312 51.8706 67.444 52.0026 67.18C52.6626 67.18 54.1146 68.104 54.7746 67.048ZM71.6706 67.048C75.2346 66.916 74.0466 66.124 71.4066 66.388C69.6906 66.784 65.4666 66.256 62.4306 66.256C60.7146 66.256 59.2626 66.388 58.8666 67.048C58.8666 67.576 60.7146 67.708 60.7146 67.312C60.5826 67.048 61.1106 66.916 61.6386 67.18C62.1666 67.444 71.2746 67.576 71.2746 67.312C71.2746 67.18 71.4066 67.048 71.6706 67.048ZM85.6626 67.312C86.8506 66.784 84.6066 65.596 83.8146 66.124C83.1546 66.388 81.5706 65.992 80.9106 66.388C80.3826 66.916 80.1186 65.728 79.8546 66.124C78.9306 66.388 74.7066 66.256 74.3106 66.784C74.5746 66.916 75.3666 67.048 75.6306 67.18C76.0266 67.444 75.4986 66.784 75.8946 66.916C76.2906 66.784 76.4226 67.312 76.6866 67.312C76.6866 66.916 78.9306 66.916 79.5906 67.312C79.9866 67.444 80.1186 67.444 80.2506 67.18C80.6466 66.652 81.1746 67.708 81.9666 67.18C82.3626 66.916 82.6266 66.916 82.7586 67.18C83.1546 67.708 85.1346 67.18 85.6626 67.312ZM88.9626 67.312C90.1506 67.18 86.4546 65.992 86.4546 66.652C86.9826 66.916 88.4346 67.048 88.9626 67.312ZM88.8306 75.364C89.0946 75.364 89.2266 75.232 89.2266 75.1C88.9626 74.836 87.9066 75.364 88.8306 75.364Z" fill="#FFFB00"/>
<path d="M116.914 61.504C117.97 60.712 119.95 63.616 119.686 64.54C119.686 66.388 119.158 67.18 118.63 68.368C118.366 68.368 118.234 68.5 118.366 69.16C118.234 69.556 117.838 69.688 117.97 70.348C117.97 71.272 117.574 70.876 117.442 71.272C117.178 71.8 116.914 73.912 116.122 74.044C115.99 73.912 115.99 74.044 116.122 74.176C116.782 75.364 115.198 74.044 115.594 75.1C116.518 77.344 114.538 80.116 114.406 82.228C114.01 83.548 112.69 85.528 112.294 87.244C111.634 87.904 112.03 90.412 111.106 90.808C110.314 90.808 110.182 95.032 109.522 95.032C107.542 100.84 106.09 106.252 103.978 110.608L103.714 111.532H98.3016C93.0216 111.532 92.8896 111.532 92.8896 112.06C92.8896 112.456 92.8896 112.456 101.866 112.324C110.314 112.192 110.842 112.192 110.71 112.456C110.578 113.512 109.39 112.852 107.014 113.116C101.602 112.984 104.11 112.588 101.47 118.66C100.81 121.168 100.15 122.488 99.2256 124.204C99.6216 125.26 98.4336 126.184 98.3016 126.712C97.9056 130.144 95.2656 134.236 95.0016 138.064C95.3976 141.232 91.9656 141.232 92.2296 145.324C92.0976 147.568 92.0976 147.568 91.1736 149.02C88.5336 151.924 89.8536 157.864 85.8936 157.468C85.4976 157.072 85.4976 157.204 86.1576 154.432C87.6096 149.812 83.1216 153.376 84.8376 148.096C85.4976 146.644 84.5736 145.72 83.6496 145.324C83.6496 145.06 83.5176 144.928 83.3856 145.192C83.1216 145.72 82.4616 144.136 82.1976 144.4C81.8016 144.4 81.8016 144.004 81.8016 143.08C81.8016 142.42 81.0096 141.232 80.7456 140.836C79.9536 140.308 81.0096 136.348 81.0096 135.292C80.7456 135.028 80.7456 135.028 81.0096 135.16C81.4056 135.292 81.8016 134.368 81.4056 134.104C81.0096 133.84 82.0656 134.104 81.6696 133.312C81.5376 131.992 82.1976 131.596 82.4616 131.596C82.0656 130.276 83.7816 127.636 84.0456 126.58C83.7816 125.92 85.1016 125.92 84.7056 125.26C84.1776 124.996 85.2336 123.544 85.1016 123.148C85.1016 122.224 85.8936 121.696 86.0256 120.904C86.4216 119.32 87.2136 116.812 87.8736 115.36C88.0056 114.436 89.3256 110.872 89.5896 110.872C89.9856 110.872 90.1176 110.344 89.8536 110.08C89.4576 109.684 90.2496 109.948 90.1176 109.156C89.9856 107.968 90.9096 107.44 91.0416 106.648C90.9096 106.12 91.7016 103.744 91.9656 104.14C92.0976 104.668 92.0976 103.348 92.0976 103.348C93.1536 99.916 95.0016 94.24 96.5856 90.808C96.9816 90.28 96.4536 90.28 96.8496 90.016C97.2456 89.752 96.5856 89.884 96.8496 89.224C97.1136 88.3 97.2456 90.016 97.6416 87.64C97.6416 86.584 98.3016 87.244 98.0376 86.584C98.0376 84.736 99.4896 83.152 99.3576 81.304C98.5656 81.436 96.0576 81.436 97.6416 80.512H104.506C110.842 80.512 110.974 80.512 110.974 79.984C110.974 79.588 110.842 79.588 105.562 79.588H100.15C100.81 78.4 100.942 77.608 101.602 76.42C101.602 75.628 102.526 75.364 102.394 74.836C102.13 74.308 102.79 74.308 102.526 73.78C103.054 71.8 104.242 70.216 104.374 67.708C104.506 65.332 105.166 65.86 105.43 64.012C104.902 63.616 108.334 59.26 107.674 58.996C107.014 56.752 110.182 52.396 110.578 50.152C110.974 49.756 111.766 49.756 112.426 50.284C113.35 50.68 112.294 52.264 113.086 52.66C114.142 53.056 114.538 54.112 114.01 55.564C113.35 57.016 116.518 58.336 114.802 59.92C114.274 60.58 113.614 62.164 113.614 62.296C113.878 62.56 115.99 64.54 115.726 62.824C115.99 60.844 116.518 62.032 116.914 61.504ZM86.1576 144.268C86.2896 144.4 86.6856 144.136 86.6856 143.872C86.5536 143.08 85.6296 143.74 86.1576 144.268ZM93.2856 138.724C92.3616 140.044 93.6816 139.384 93.5496 138.592C93.5496 138.196 93.5496 138.196 93.2856 138.724Z" fill="#FFFB00"/>
<path d="M178.667 112.588C177.215 112.192 176.951 112.324 177.083 112.852C178.667 113.512 168.239 113.248 160.715 113.248C156.095 113.248 152.531 113.38 153.455 113.776C149.759 114.568 180.911 113.908 185.267 114.04C185.267 114.964 185.531 114.964 183.551 114.964C182.363 115.096 181.703 114.436 181.571 114.7C181.967 115.096 178.007 114.832 178.535 115.228C178.139 118.66 179.327 118.132 173.123 118.396C167.711 118.396 167.975 118.396 168.239 118.66C167.579 119.056 166.523 122.092 166.655 122.62C166.655 123.28 165.995 122.884 165.863 124.204C165.467 125.788 165.071 126.052 164.675 127.504C164.543 128.032 164.411 128.296 164.279 129.352C164.279 130.144 164.015 130.804 164.015 130.144C162.827 130.276 163.619 132.916 162.035 135.424C160.715 138.064 160.979 138.46 160.979 140.572C159.263 140.572 151.475 140.44 151.343 140.836C152.135 141.1 177.215 141.1 160.847 141.628C160.319 144.532 157.943 146.512 158.207 149.944C158.207 152.452 158.207 152.32 156.491 154.564C155.303 155.62 155.963 161.428 154.511 162.352C153.983 163.144 152.399 167.632 152.135 169.348C152.003 170.536 151.607 170.932 151.211 170.932C150.155 170.932 148.835 168.424 149.759 167.236C150.419 166.18 149.099 165.916 149.099 164.728C147.779 162.352 147.383 162.22 148.571 159.448C138.143 158.788 144.215 146.776 145.667 141.1C146.459 138.856 147.383 137.668 146.327 137.668C145.799 137.668 145.007 137.932 143.555 138.46C137.351 140.176 133.259 141.1 126.791 142.42C124.943 142.552 122.303 142.948 119.795 142.948C115.439 142.948 111.083 142.024 109.763 138.592C108.971 138.064 107.519 131.596 108.311 131.596H108.443C108.707 131.86 108.839 131.86 108.839 131.728C109.103 129.352 109.763 127.768 110.687 126.316C111.083 126.184 110.687 125.788 110.951 125.524C111.215 125.26 111.215 125.128 110.951 124.996C110.687 123.94 112.139 122.488 112.799 121.564C114.647 119.98 111.611 120.376 109.895 120.376C109.103 120.376 108.443 120.376 108.707 119.98C108.707 119.584 108.839 119.584 118.211 119.584C127.715 119.584 127.847 119.584 127.847 119.056C129.167 118.528 122.831 118.66 118.343 118.66C115.703 118.66 113.855 118.66 114.647 118.264C115.043 118.132 116.231 115.888 116.495 115.624C117.287 114.568 126.131 102.556 126.791 102.16C127.451 101.764 127.715 101.5 127.715 101.104C127.715 100.576 127.979 100.18 129.563 98.728C130.223 97.804 129.695 97.936 130.751 96.88C131.939 95.956 130.751 96.22 131.807 95.692C132.995 94.9 132.731 93.844 134.183 93.052C135.767 91.6 137.087 89.092 138.935 87.508C139.331 87.244 124.051 87.64 125.107 86.98C125.239 86.716 136.955 86.716 147.383 86.716C157.943 86.716 159.395 86.716 159.395 86.452C160.847 85.924 143.027 86.056 140.255 85.924C147.779 78.268 153.587 71.404 162.695 65.464C165.335 63.484 168.767 61.768 172.199 60.316C175.499 57.28 176.951 58.996 179.591 57.412C179.987 57.016 180.383 56.752 181.043 56.752C182.363 56.752 184.211 57.94 185.399 57.94C187.115 57.94 186.983 59.656 184.739 60.052C182.495 60.58 182.495 60.58 182.891 60.844C183.815 61.768 180.779 63.88 180.779 65.068C180.779 66.652 178.007 67.84 176.951 68.632C178.535 70.612 176.423 71.668 174.971 72.592C174.575 72.856 182.363 72.724 181.967 72.988C182.495 73.78 178.799 73.648 178.535 73.78C178.931 74.176 178.139 74.836 176.555 75.892C174.179 77.08 173.651 79.984 171.407 80.116C168.635 79.852 168.371 81.832 166.127 82.624C165.203 83.152 164.147 84.868 162.827 85.396C160.715 87.244 158.603 89.62 156.755 90.94C156.755 91.864 155.171 92.128 154.775 93.052C154.379 93.844 153.851 93.448 153.587 94.108C151.607 96.616 148.835 99.256 146.855 101.632C146.459 101.896 146.327 102.16 146.459 102.292C153.719 102.424 164.807 102.292 170.483 102.424C172.859 102.424 176.027 101.896 178.535 101.896C179.723 101.896 180.779 102.028 181.571 102.292C183.155 104.404 178.271 104.14 177.875 105.064C176.687 107.44 181.967 106.12 183.023 107.044C183.419 107.836 185.927 105.856 186.455 106.384C188.039 107.176 186.191 109.156 182.891 110.08C181.043 110.476 180.911 113.512 178.667 112.588ZM151.211 123.808C151.739 123.94 151.607 124.072 151.211 124.204C150.815 124.336 150.815 123.808 151.211 123.808ZM114.911 138.46C115.043 138.46 112.535 138.328 113.195 138.592C113.591 138.724 114.911 138.724 114.911 138.46ZM152.795 121.168C153.851 120.376 151.211 121.564 150.947 121.432C150.551 121.432 150.551 121.564 150.683 121.828C151.079 122.224 150.551 122.488 150.287 122.092C149.891 121.696 148.571 122.092 148.571 122.488C148.307 123.412 145.931 122.092 145.799 123.28C145.931 123.544 145.535 123.544 145.139 123.28C144.875 122.884 142.763 123.676 143.819 123.94C142.367 124.864 140.255 124.072 138.407 125.128C136.559 125.92 136.163 125.26 135.503 126.976C134.711 127.504 135.767 125.92 134.975 126.712C133.919 127.372 132.995 126.844 132.335 126.844C131.807 126.976 129.167 127.24 128.639 127.636C127.055 128.032 125.999 128.296 124.943 129.352C123.887 130.012 125.075 130.408 126.131 130.408C126.791 130.408 127.451 130.276 127.451 130.012C127.451 129.748 127.583 129.748 127.583 129.88C127.715 130.276 128.507 130.276 128.507 129.88C129.035 129.88 131.675 128.56 132.335 129.088C132.335 129.484 133.919 127.636 134.315 128.56C134.711 128.956 134.711 128.956 134.579 128.56C134.579 128.164 135.767 127.768 135.767 127.768C136.295 127.768 136.031 128.428 136.427 128.032C136.559 127.768 137.219 128.164 137.219 127.768C137.087 127.24 138.275 127.636 138.275 127.24C138.275 127.24 138.407 127.108 138.671 127.24C138.803 127.24 138.935 127.24 138.935 127.108C139.067 126.712 139.859 127.108 139.991 126.844C140.519 126.448 139.859 127.108 140.255 127.108C140.651 126.976 140.651 126.316 141.047 127.108C141.047 127.372 141.047 127.372 141.179 126.976C141.047 126.448 141.839 126.316 141.707 126.844C141.443 127.24 142.235 126.844 142.103 126.712C141.971 126.448 142.499 126.184 142.499 126.58C142.235 127.24 143.555 126.184 143.423 126.052C143.291 125.788 144.083 126.184 143.951 125.92C143.951 125.524 144.743 126.052 144.479 125.656C144.479 124.732 145.139 126.58 145.271 125.392C145.271 125.128 145.271 125.128 145.535 125.392C145.799 126.052 145.535 124.732 145.931 125.128C146.723 125.92 146.459 124.204 147.647 124.996C147.911 125.128 147.911 125.128 147.779 124.996C147.515 124.336 148.967 124.468 149.231 124.336C149.231 124.072 150.815 124.072 150.551 124.6C150.815 125.392 151.871 123.808 152.003 123.412C152.267 122.884 152.003 121.168 152.795 121.168ZM153.587 118.528C152.135 117.604 149.759 118.924 148.043 118.396C146.723 118.396 145.403 117.736 144.215 117.472C143.423 117.472 139.595 117.076 140.255 115.36C141.179 114.436 140.651 114.172 140.519 112.588C140.387 112.324 138.935 111.4 138.539 111.136C138.143 112.192 136.955 112.324 136.823 113.248C136.823 113.644 136.691 113.908 136.559 113.908C134.843 114.964 130.751 120.772 129.563 122.62C129.299 122.752 129.431 123.28 128.639 123.544C127.715 123.94 127.847 124.996 127.187 125.392C125.999 126.448 127.715 125.92 128.639 125.788C135.899 123.676 148.439 120.904 153.587 118.528ZM158.075 105.46C159.263 104.14 157.283 104.932 157.019 104.668C156.887 104.404 155.963 104.668 155.699 104.404C155.303 104.14 154.643 105.592 154.379 104.8C154.379 104.404 153.323 105.196 153.323 104.8C150.155 105.328 145.535 103.612 142.763 105.856C141.311 107.308 143.159 106.912 144.347 106.516C146.063 106.12 146.063 106.912 148.571 106.78C151.211 107.044 150.551 106.516 151.607 106.516C152.663 107.044 152.135 105.988 152.927 106.12C153.323 106.384 153.983 105.856 154.247 105.988C154.511 106.252 155.303 106.252 155.303 105.988C155.699 105.724 157.679 106.252 158.075 105.46ZM162.563 105.328C163.619 104.008 161.375 104.668 161.507 105.328C161.771 105.988 162.167 106.384 162.563 105.328ZM167.315 106.12C167.711 105.856 169.427 106.516 169.163 105.46C169.163 104.932 168.899 104.668 168.503 104.668C167.315 104.668 165.467 106.12 167.183 106.12H167.315ZM174.707 105.856C175.763 105.064 172.859 105.592 172.727 105.196C172.067 104.932 171.671 104.8 171.407 104.8C170.351 104.8 171.803 106.384 173.387 106.384C173.783 106.384 174.311 106.252 174.707 105.856ZM158.339 71.8C158.867 71.272 158.735 71.272 158.075 71.404C157.151 71.536 157.811 72.328 158.339 71.8ZM160.451 71.932C159.791 71.932 159.131 72.724 159.527 73.12C159.791 73.384 159.923 73.252 159.659 72.988C159.527 72.592 161.903 72.064 160.451 71.932ZM165.203 72.856C161.771 72.856 161.507 72.856 161.507 73.252C161.507 73.648 161.771 73.648 165.203 73.648C168.767 73.648 168.899 73.648 168.899 73.252C168.899 72.856 168.767 72.856 165.203 72.856ZM167.315 63.616C167.183 64.012 167.975 63.88 167.975 63.616C168.107 63.352 167.447 63.484 167.315 63.616ZM163.883 69.556C162.827 69.82 164.543 70.744 164.807 70.876C164.807 70.876 167.843 69.556 167.579 69.16C167.447 68.896 168.107 68.896 168.107 69.16C168.767 69.028 168.899 67.972 170.351 68.5C172.331 69.292 171.011 67.18 172.859 67.048C173.387 67.18 172.331 66.52 174.047 66.256C178.139 65.464 177.479 63.352 173.651 64.144C173.123 64.408 171.539 66.124 171.011 66.784C166.787 66.652 166.523 66.652 163.883 69.556ZM150.155 155.884C150.287 155.62 150.287 155.62 150.155 155.62C149.231 156.148 150.815 154.168 149.891 154.564C149.759 154.696 149.231 154.828 148.835 154.828C147.779 155.092 148.439 154.168 147.911 153.904C147.119 153.64 148.307 154.168 148.043 154.3C147.383 154.168 146.723 155.356 147.251 155.752C147.383 155.488 147.779 156.28 147.383 156.28C146.987 156.544 147.911 157.072 148.835 157.072C149.495 157.072 150.155 156.808 150.155 155.884Z" fill="#FFFB00"/>
<path d="M268.092 57.94C269.016 58.864 268.62 60.58 267.96 61.108C267.828 60.976 267.828 61.108 267.828 61.372C268.092 62.164 266.772 63.088 267.036 63.88C267.3 64.408 267.168 64.672 266.772 66.124C266.64 66.916 265.848 65.068 265.716 65.464C265.848 65.992 266.244 65.992 266.112 66.784C265.98 67.708 266.244 67.972 265.452 68.632C264.924 69.424 264.792 71.272 264.264 72.064C263.472 75.892 261.36 79.852 260.304 83.548C260.172 84.208 259.512 83.416 259.776 84.472C259.908 85.396 258.72 85.792 258.984 87.376C259.38 88.168 256.476 93.976 258.06 93.976H258.192C259.38 94.108 258.06 94.636 258.192 95.032C259.512 95.428 266.772 94.24 261.228 97.144C259.776 97.936 259.512 98.068 259.38 98.596C258.984 100.048 261.756 99.124 261.624 100.708C261.492 102.424 257.796 101.764 257.136 102.952C254.364 104.404 256.74 104.14 242.748 104.272C227.304 104.14 226.116 104.668 241.692 104.668C253.044 104.668 261.096 104.932 256.872 105.328C253.44 105.46 257.136 106.384 256.344 108.232C256.08 108.628 256.476 109.42 256.608 109.816C251.592 110.476 250.14 109.42 249.216 115.096C249.348 115.888 248.688 114.964 248.82 115.888C248.688 116.284 248.424 117.868 248.028 117.604C247.896 117.604 247.764 117.736 247.764 118.264C247.896 119.716 246.312 122.224 246.444 124.072C244.728 124.072 233.112 123.676 234.432 124.468C234.432 124.864 234.696 124.864 242.088 124.732C246.708 124.6 249.744 124.732 249.744 124.864C249.48 125.788 248.16 125.524 246.972 125.524C246.048 125.524 245.388 125.656 245.388 126.712C245.256 126.844 245.124 127.108 245.124 127.372C245.124 128.296 244.2 127.9 244.2 128.824C243.936 129.88 243.276 133.972 242.352 134.896C241.956 135.028 242.088 136.216 241.692 136.48C241.296 136.876 241.692 137.272 241.296 137.668C241.164 137.8 241.164 137.932 241.296 137.932C241.824 138.592 240.504 139.912 240.504 140.968C239.316 146.38 237.204 151.132 235.356 156.28C234.828 158.128 234.564 161.56 232.452 161.56C232.056 161.56 231.528 161.428 231 161.164C230.076 160.372 231.792 157.336 231.528 156.016C231.396 155.356 231.132 150.472 230.472 150.208C229.944 149.548 230.34 150.472 229.812 151C229.152 151.792 229.812 152.32 229.02 152.848C228.228 153.376 229.152 154.564 227.964 154.3C226.248 154.432 227.436 152.716 226.512 152.848C225.456 153.112 226.248 151.396 225.72 151C224.268 150.736 224.532 145.852 224.928 145.192C225.192 145.192 225.06 143.608 225.324 143.608C225.456 143.74 225.456 143.608 225.456 143.344C225.324 142.816 225.72 143.08 225.72 142.42C225.456 142.156 225.852 140.968 226.248 140.704C226.38 138.196 227.7 136.48 228.228 133.972C228.36 133.18 228.756 133.312 228.624 132.784C228.36 131.86 229.812 130.012 230.076 129.352C230.34 129.088 230.076 127.372 230.604 127.24C231.264 126.58 230.604 127.108 230.604 126.844C231.132 124.6 232.452 121.3 233.112 118.924C233.112 118.528 233.244 118.528 233.376 118.792C233.64 119.452 234.168 117.736 233.904 117.736C233.112 116.68 234.828 116.416 234.564 115.36C234.432 114.964 234.96 115.228 234.96 114.832C234.828 114.436 234.168 115.228 234.696 114.568C235.092 114.04 234.696 113.248 235.488 112.852C235.884 112.324 236.148 110.74 236.28 110.08C236.148 109.816 228.624 109.948 228.36 110.212C225.984 109.816 225.72 110.212 222.156 110.212C212.784 110.344 212.916 110.344 212.52 110.74C211.2 113.116 210.672 116.68 209.748 118.792C209.748 119.056 209.616 119.188 209.352 119.188C208.56 119.584 208.692 121.696 208.296 122.62C208.164 123.808 207.108 124.864 206.712 126.58C205.128 131.992 203.412 137.008 201.828 142.42C201.696 144.268 201.564 144.532 200.244 146.512C198.528 148.624 200.904 149.548 198.396 151.264C197.076 152.584 197.076 152.584 196.944 154.3C196.284 157.864 195.36 159.184 194.7 159.184C193.644 159.184 192.984 156.544 193.644 153.376C189.288 149.812 193.644 147.304 190.74 144.796C189.024 144.004 188.628 138.196 189.156 136.348C189.288 136.084 189.156 135.952 188.76 135.952C187.968 136.084 188.232 135.16 188.232 134.632H196.284V133.312H189.948C190.476 132.256 190.08 130.804 191.268 129.22C191.532 129.22 191.136 128.56 191.4 128.56C191.796 128.428 191.4 127.636 191.928 127.372C192.192 127.108 192.192 126.976 192.06 126.844C191.532 126.58 192.72 125.788 192.456 125.524C191.4 124.996 202.884 125.392 201.828 124.732C200.376 124.204 188.232 124.336 189.024 123.94C191.268 123.544 193.38 124.468 193.776 121.696C194.304 120.904 194.04 120.64 194.568 120.244C195.096 120.244 194.436 118.66 194.964 118.792C196.02 118.264 194.964 116.68 196.02 116.02C196.812 115.228 196.68 114.436 196.812 113.512C196.812 113.248 198.528 109.948 197.604 109.948C196.68 109.552 191.928 109.684 191.004 109.156C189.552 108.232 189.948 107.044 191.664 107.044C192.72 107.176 194.832 106.516 192.984 106.12C192.588 105.856 191.796 103.876 191.268 103.744C189.816 102.82 189.024 99.916 191.4 99.652C192.456 99.388 193.776 98.728 195.096 98.728C195.624 98.728 196.02 98.86 196.548 99.124C197.076 99.916 196.68 98.332 197.076 98.992C197.208 99.124 197.208 99.388 197.208 99.52C197.076 99.916 197.604 99.388 197.472 99.124C197.34 98.464 201.168 99.256 201.432 98.992C201.432 98.2 202.092 97.276 200.904 97.012C199.98 96.616 199.848 96.616 199.98 96.88C200.508 97.408 197.34 96.22 197.076 96.352C196.68 96.088 194.832 96.352 194.436 95.692C194.172 95.032 193.38 95.428 193.776 95.032C195.228 93.58 201.432 95.164 203.016 94.372C205.26 91.864 205.788 87.112 207.108 83.944C207.9 81.304 209.352 77.344 210.276 74.572C210.408 74.308 210.276 74.308 208.956 74.308C205.392 73.912 210.804 73.78 215.028 73.78C223.212 73.912 224.928 73.384 216.48 73.384C210.936 73.384 210.54 73.384 211.332 72.592C212.124 71.008 211.86 67.576 213.18 66.52C213.84 65.728 231.896 10.56 232.292 9.504C234.272 7.25999 232.556 6.996 233.744 5.41199C234.404 4.488 235.988 0 236.912 0C237.176 0 237.44 0.659999 237.44 2.24399C237.044 4.62 239.156 5.41199 238.1 6.996C237.044 8.712 239.948 10.032 239.024 12.144C238.892 12.936 238.892 12.936 239.552 12.936C240.344 13.068 240.344 11.88 240.872 11.616C242.06 10.428 242.588 10.428 243.908 11.88C245.756 12.672 226.644 71.14 226.644 69.292C226.644 69.028 226.644 69.028 226.38 69.424C225.984 70.216 226.908 72.064 225.456 71.668C224.4 71.272 225.588 72.46 225.324 72.856C225.72 74.176 224.664 75.232 224.268 77.212C220.836 87.904 222.816 85.264 210.672 85.66C212.916 85.66 222.42 85.792 223.08 86.056C222.948 86.32 220.572 85.924 220.836 86.716C220.572 87.376 220.044 87.112 220.308 87.772C220.704 87.772 219.516 91.072 219.12 91.072C218.856 91.336 218.988 92.524 218.592 93.316C218.064 94.636 217.932 94.24 219.384 94.372C222.948 94.24 237.732 93.976 241.956 93.976C243.276 91.732 243.54 88.96 244.464 86.452C244.2 85.924 245.52 85.792 246.576 85.66C243.408 85.66 246.048 83.68 246.708 81.964C246.708 81.7 247.5 79.984 247.104 79.852C246.444 79.588 247.896 79.852 247.368 79.456C247.236 77.74 249.348 72.328 250.404 70.612C251.46 69.556 252.12 67.18 252.12 66.652C251.592 65.332 252.648 64.144 252.648 62.956C252.384 61.372 253.308 63.88 253.176 61.504C254.232 58.468 256.08 54.112 257.4 50.68C257.928 47.908 259.116 46.456 260.04 46.456C260.832 46.456 261.228 47.644 260.568 50.284C260.04 51.076 260.172 51.472 260.7 52.132C261.228 52.924 261.36 53.98 261.228 55.168C262.284 56.884 264.924 57.148 263.34 60.052C262.416 61.24 263.34 62.956 263.472 61.636C263.34 61.372 263.868 61.504 263.736 61.108C263.604 60.844 263.736 60.844 263.868 60.976C264.396 61.108 263.34 58.732 264.264 58.996C264.924 58.996 264.66 56.224 265.188 56.62C265.716 56.752 265.452 56.224 265.848 56.224C266.508 56.092 265.584 55.432 266.64 55.828C268.488 56.224 267.432 57.148 268.092 57.94ZM193.908 144.136C194.172 143.476 192.984 144.004 193.38 144.268C193.512 144.532 193.776 144.4 193.908 144.136ZM194.436 142.156C195.228 140.836 194.568 139.516 194.436 140.836C194.436 141.1 194.436 141.496 194.172 141.628C193.512 142.42 194.04 143.212 194.436 142.156ZM192.588 102.424C193.116 102.028 192.192 101.5 191.928 101.764C191.796 101.896 192.324 102.556 192.588 102.424ZM197.208 105.988C198.396 105.196 196.944 105.592 196.548 105.592C195.888 105.592 196.284 106.516 197.208 105.988ZM240.636 97.408C245.52 94.9 226.644 96.88 225.192 96.352C223.74 96.352 221.628 96.352 220.704 96.88C220.308 96.748 219.12 96.484 218.328 96.484C217.536 96.484 217.008 96.748 217.14 97.672C218.724 98.068 231.396 97.408 234.828 97.672C236.148 97.144 234.828 97.936 235.884 98.2C235.884 97.012 240.108 97.804 240.636 97.408Z" fill="#FFFB00"/>
<path d="M357.23 63.484C358.022 64.672 356.966 65.332 355.382 65.332C352.478 65.332 353.27 67.972 350.498 67.972C349.574 68.896 343.898 68.896 340.994 68.764C340.862 69.82 342.71 70.216 345.086 70.216C348.518 70.216 353.006 69.556 354.722 69.82C354.59 71.404 348.914 70.612 348.386 71.272C348.518 72.328 347.99 71.272 347.462 71.536C345.614 71.668 346.274 72.064 347.99 72.064C350.102 71.668 349.31 73.648 347.726 73.648C346.934 73.648 346.802 73.648 347.066 73.912C352.478 76.684 322.578 75.628 315.054 75.628C310.83 75.628 307.53 76.024 307.926 77.476C307.53 79.588 306.342 84.736 305.418 86.056C305.55 86.716 304.362 87.508 304.362 88.3C304.098 89.356 304.362 90.016 303.702 90.808C303.174 91.072 303.702 92.392 303.306 91.864C303.174 91.6 303.174 91.6 303.174 92.128C303.438 93.052 302.514 92.392 302.778 93.448C303.174 94.372 302.382 93.712 302.382 93.976C302.514 94.504 301.722 95.56 301.986 96.088C302.118 96.484 301.986 96.616 301.722 96.616C301.326 96.484 301.326 97.672 301.59 97.012C302.118 96.484 301.854 97.144 301.458 97.804C300.798 98.596 301.326 98.728 300.93 99.388C300.402 101.236 299.214 102.424 298.95 104.404L298.818 105.328H291.822V106.912H322.91C322.778 107.176 322.382 107.968 322.25 108.364C321.326 108.364 297.762 108.232 297.63 108.628C297.234 110.08 296.838 111.136 296.178 112.72C294.594 117.076 293.01 121.168 291.69 125.656C291.03 128.164 289.446 130.804 288.918 133.18C288.126 135.424 286.938 137.404 287.334 140.308C286.674 140.44 281.13 139.78 281.262 140.836C280.734 141.892 285.618 140.836 285.882 141.232C290.502 140.836 292.35 141.628 287.73 142.156H285.618C285.09 145.192 282.714 147.832 282.582 150.736C282.846 153.112 280.998 154.168 280.338 156.28C279.546 158.524 278.49 162.352 277.302 162.352C277.17 162.352 276.906 162.22 276.774 162.088C276.246 161.428 276.774 160.108 275.718 159.712C274.662 157.996 273.21 156.544 275.19 154.432C275.718 153.64 275.718 153.508 275.454 152.98C274.926 152.188 275.586 149.812 275.058 148.888C274.398 147.832 275.454 146.116 274.266 145.192C272.682 142.948 273.21 137.272 273.606 135.556C273.606 134.5 274.134 135.028 274.134 134.236C274.002 133.972 274.134 133.84 274.266 133.84C274.926 133.708 274.002 131.728 275.322 130.54C275.718 130.144 275.718 130.144 275.454 130.276C274.662 130.936 275.454 129.748 275.454 129.352C278.094 127.9 268.326 128.956 268.59 128.296C268.062 128.032 300.006 128.164 281.658 127.768C273.342 127.768 276.51 128.164 278.754 120.64C278.886 119.98 279.414 119.32 279.414 118.792C279.942 118.792 279.942 116.812 280.074 116.944C280.602 117.472 280.206 114.964 280.866 114.832C281.394 114.568 281.13 113.116 281.394 112.984C281.526 112.984 281.658 112.852 281.526 112.72C281.394 112.324 282.186 112.324 282.054 111.664C282.186 109.552 283.506 107.836 283.902 105.724C283.902 105.328 284.562 103.612 284.298 104.668C284.298 105.196 284.298 105.196 284.43 104.8C285.09 104.008 284.958 102.688 285.354 101.896C285.882 101.368 286.542 98.728 286.542 98.2C287.73 96.88 288.126 92.656 289.314 90.544C290.634 89.752 283.638 90.412 284.034 89.884C283.77 89.62 286.41 89.62 289.578 89.62C292.746 89.62 296.31 89.62 297.894 89.356C298.026 88.564 287.598 90.148 290.106 87.904C290.502 87.376 290.106 86.452 290.634 86.584C291.69 86.848 290.37 84.604 291.162 84.868C291.822 84.736 291.294 82.36 291.822 81.964C292.482 80.38 293.01 78.4 293.67 76.816C294.594 76.156 292.218 76.552 292.218 76.156C292.218 76.024 288.786 76.024 282.186 75.892C273.078 75.892 272.022 75.892 271.494 75.496C271.23 75.232 270.834 74.836 270.834 74.572C270.57 74.044 270.57 74.044 267.534 74.044C264.762 74.044 264.498 74.044 264.63 73.648C263.838 72.988 282.714 73.78 281.658 73.12C282.45 72.592 272.814 72.724 271.362 72.724C271.626 72.46 272.418 71.8 272.682 71.404C271.758 71.008 266.742 71.404 268.062 69.424C268.722 68.632 274.794 69.952 274.002 67.444C273.738 64.408 275.85 65.464 277.302 65.464C277.83 65.464 278.226 65.332 278.358 64.936C279.282 63.352 282.45 63.88 285.354 63.88C285.354 62.692 285.354 62.692 284.034 62.692C281.13 62.428 281.262 62.164 279.414 61.768C278.49 61.636 277.038 60.844 277.698 60.844C277.434 60.052 282.714 58.864 284.958 58.864C285.618 58.864 286.014 58.996 286.014 59.128C286.542 59.656 286.542 60.052 286.014 60.184C285.618 60.316 287.466 60.052 287.334 60.316C287.466 60.448 294.462 60.448 305.154 60.316C310.83 60.184 311.886 60.448 313.998 60.316C316.374 60.316 345.35 59.392 346.274 61.636L346.67 62.56C349.838 62.296 356.438 62.692 357.23 63.484ZM285.882 139.912C286.146 139.648 286.41 138.724 285.882 139.252C285.618 139.384 285.354 140.44 285.882 139.912ZM282.318 72.328C283.11 72.988 283.242 71.404 282.45 72.064C282.054 72.064 282.054 72.196 282.318 72.328ZM294.462 63.616C294.99 64.012 295.65 63.616 295.122 63.352C294.99 63.352 294.99 63.22 294.99 63.088C295.122 62.296 293.274 63.088 294.462 63.616ZM298.686 63.352C298.818 62.956 298.158 63.352 298.554 62.824C298.95 62.428 298.686 62.428 297.234 62.824L296.574 63.088C297.102 63.22 298.686 63.88 298.686 63.352ZM300.93 63.352C301.854 62.296 298.686 62.296 299.214 62.692C300.402 62.296 300.006 63.748 300.402 63.748C300.534 63.748 300.666 63.616 300.93 63.352ZM312.282 63.088C311.754 62.824 312.81 62.956 312.81 62.692C312.15 62.296 307.794 62.692 306.606 62.824C305.682 63.352 303.306 62.032 302.25 62.824C301.854 63.484 303.834 63.22 304.23 63.616C304.758 64.012 305.55 63.88 305.55 63.484C305.55 63.22 305.682 63.22 305.946 63.22C306.606 63.22 307.53 63.484 308.19 63.484C308.454 63.484 308.586 63.484 308.586 63.22C308.718 62.692 312.546 63.616 312.282 63.088ZM341.258 63.484C342.182 61.9 316.11 62.824 315.582 62.428C315.582 62.296 312.678 62.956 314.13 62.956C316.638 62.824 339.542 63.748 341.258 63.484ZM345.746 62.692C341.39 62.956 339.278 62.56 345.878 63.748C345.878 63.748 345.746 62.824 345.746 62.692Z" fill="#FFFB00"/>
<path d="M123.654 167.144C124.314 166.88 124.842 166.88 125.238 166.88C127.086 166.88 123.654 169.784 120.882 170.84C117.846 172.16 119.034 173.876 115.734 175.196C114.546 175.724 113.754 176.516 113.754 177.176C113.886 178.232 109.662 180.212 108.606 181.136C107.154 181.664 106.626 182.72 105.174 182.984C104.382 183.116 102.93 184.7 102.27 185.096C101.61 185.228 100.422 186.548 99.8942 186.68C98.8382 186.812 98.0462 188.264 97.2542 188.66C96.7262 188.528 96.1982 189.848 95.8022 189.584C95.6702 189.584 95.4062 189.716 95.4062 189.98C94.7462 190.508 93.1622 191.432 92.6342 192.092C88.4102 195.524 85.5062 197.108 81.8102 200.804C78.7742 203.576 76.1342 205.952 72.8342 208.988C72.7022 208.988 71.5142 210.044 70.4582 210.968C68.8742 211.76 77.0582 211.1 76.0022 211.76C72.9662 213.212 75.6062 212.684 65.5742 212.684L56.8622 212.552V213.872C58.7102 213.872 67.8182 213.74 67.9502 214.004C67.9502 214.136 67.0262 215.192 65.9702 216.248C64.2542 218.096 63.3302 219.284 63.1982 219.812C63.1982 220.34 62.9342 220.736 62.5382 220.868C61.6142 221.396 61.3502 222.98 60.8222 223.904C60.1622 225.62 60.1622 231.824 64.2542 231.428C69.9302 232.088 77.8502 230.768 84.5822 229.976C86.9582 230.24 89.5982 228.656 91.4462 228.656C92.3702 228.656 93.1622 229.052 93.5582 230.636C92.6342 231.56 92.2382 229.976 89.8622 231.164C88.9382 231.164 90.1262 231.56 89.7302 231.692C88.9382 231.032 88.8062 232.22 88.0142 232.22C87.7502 231.956 86.0342 233.144 86.2982 232.616C84.4502 232.352 79.5662 233.54 77.9822 233.672C77.5862 233.936 77.4542 233.276 77.1902 233.54C76.9262 233.936 76.2662 233.672 75.7382 233.936C75.3422 233.936 75.0782 233.936 75.0782 233.804C75.3422 233.672 72.3062 234.068 72.5702 234.728C74.4182 234.464 78.2462 234.2 79.9622 234.464C79.9622 234.2 81.1502 233.54 81.1502 234.068C81.6782 234.2 83.2622 233.672 83.7902 234.2C84.8462 233.54 86.4302 233.276 87.8822 233.144C89.5982 232.484 93.0302 233.012 94.3502 232.484C94.7462 232.748 95.2742 233.276 95.9342 232.748C98.0462 232.22 101.61 231.956 103.986 231.428C108.87 231.296 101.478 234.464 101.082 235.256C100.29 235.652 100.158 236.708 99.1022 237.104C95.9342 237.896 97.7822 238.952 96.8582 240.536C96.4622 241.196 96.4622 241.328 96.7262 241.592C97.2542 241.988 98.9702 241.46 100.29 241.46C101.082 241.46 101.742 241.592 101.874 242.516C97.5182 246.476 90.6542 246.476 84.8462 247.268C80.8862 247.928 75.0782 248.72 69.2702 248.72C62.6702 248.72 56.0702 247.664 51.8462 244.628C50.9222 243.968 47.2262 241.328 48.1502 240.668C48.5462 239.48 46.6982 238.292 46.8302 236.708C45.7742 232.088 44.9822 225.224 47.0942 221C47.2262 221 47.2262 221.132 47.2262 221.264C46.9622 221.66 47.6222 221.132 47.4902 221C47.6222 220.34 48.9422 219.944 46.9622 219.944C41.6822 219.152 59.7662 219.68 58.5782 219.284C59.2382 219.02 48.2822 219.152 48.5462 218.888C49.2062 217.436 49.6022 215.06 50.5262 213.608C51.9782 210.836 60.8222 198.032 63.7262 196.448C66.2342 194.732 63.9902 195.26 66.3662 193.28C68.7422 190.904 72.3062 187.868 74.4182 185.492C74.9462 185.228 44.5182 185.624 46.1022 185.096C45.8382 184.568 77.0582 184.7 85.2422 184.7C89.9942 184.7 93.8222 184.7 93.4262 184.436C93.4262 184.04 92.2382 184.04 84.8462 184.04C74.6822 183.512 75.2102 185.36 79.3022 181.4C80.6222 180.608 101.61 163.448 106.89 163.448C107.946 163.448 108.342 164.108 107.946 165.56C107.55 164.636 106.494 166.88 105.966 166.748C105.174 166.88 106.89 167.804 104.778 167.672C103.59 167.276 104.514 168.332 103.854 168.464C103.59 168.464 103.062 168.992 102.402 169.52C100.158 171.5 101.082 171.104 100.026 171.764C99.7622 172.16 101.346 172.424 101.346 172.16C101.874 171.764 101.874 170.708 102.534 170.576C102.93 170.708 103.194 170.84 103.59 170.84C105.57 170.84 108.21 168.596 110.19 168.2C111.906 168.068 112.83 166.22 114.414 166.22C116.13 166.22 116.394 167.144 117.846 167.276C119.298 167.408 120.09 167.804 121.014 167.804C121.674 167.804 122.466 167.672 123.654 167.144ZM101.346 168.332C100.818 168.596 100.026 169.52 100.29 169.52C100.29 169.652 102.006 168.068 101.346 168.332ZM92.1062 241.724C91.8422 241.724 91.5782 241.856 91.5782 241.856C91.7102 242.384 93.0302 241.724 92.1062 241.724ZM67.0262 236.18C66.1022 234.992 66.7622 236.84 67.1582 236.708C67.2902 236.576 67.1582 236.312 67.0262 236.18ZM57.9182 236.048C57.3902 235.784 57.7862 235.652 58.3142 235.652C59.2382 235.652 60.4262 235.784 59.1062 235.256C58.3142 235.124 57.6542 232.616 56.7302 232.748C56.2022 232.748 56.2022 232.748 56.3342 233.54C56.4662 234.596 57.2582 234.992 57.3902 236.048C57.5222 236.84 57.6542 236.972 58.3142 236.84C58.7102 236.84 58.7102 237.632 58.9742 237.104C58.8422 235.784 57.9182 237.236 58.0502 236.444C58.1822 236.18 58.1822 236.048 57.9182 236.048ZM60.5582 237.5C61.0862 237.104 59.7662 237.236 59.6342 236.972C58.9742 236.444 59.5022 238.16 60.5582 237.5ZM61.0862 233.408C60.8222 233.408 60.8222 233.408 61.0862 233.804C61.7462 234.86 61.8782 233.54 61.0862 233.408ZM59.8982 233.804C59.1062 233.672 59.7662 232.88 58.4462 232.616C57.2582 232.22 57.1262 232.088 57.9182 233.144C58.8422 234.464 59.8982 234.992 61.0862 235.784C61.4822 235.784 62.2742 237.104 62.5382 236.444C62.6702 236.312 61.8782 235.784 62.2742 235.784C62.5382 235.784 63.5942 237.5 63.4622 236.18C63.4622 235.916 63.4622 235.784 63.5942 235.784C64.5182 235.652 62.6702 234.332 62.6702 234.992C62.5382 235.652 61.3502 236.048 61.3502 234.992C61.4822 234.728 60.6902 234.2 60.9542 234.728C60.9542 234.86 60.9542 234.86 60.8222 234.86C60.4262 234.332 61.2182 233.54 59.8982 233.804ZM59.5022 229.184C59.3702 229.316 59.1062 230.108 58.9742 230.108C58.0502 228.26 58.0502 230.24 58.4462 230.504C59.1062 230.504 59.6342 229.844 59.5022 229.184ZM95.8022 174.932C95.9342 174.008 94.4822 175.46 95.4062 175.328C95.6702 175.328 95.8022 175.196 95.8022 174.932Z" fill="#FFFB00"/>
<path d="M154.705 238.424C157.477 238.028 158.269 241.064 156.025 241.328C156.289 240.8 155.365 241.328 156.025 241.328C154.837 243.308 158.801 242.252 157.085 245.816C153.257 246.212 145.865 245.816 141.641 245.948V247.136C145.205 247.4 156.953 246.344 157.613 247.796C157.085 248.456 154.841 247.796 155.237 248.984C155.369 249.38 155.237 249.644 155.105 249.644C143.357 249.776 123.953 250.04 117.089 249.908C114.185 249.644 110.753 249.644 107.849 249.38C106.925 248.852 102.701 249.248 102.569 248.06C103.229 246.608 104.417 244.76 105.737 243.308C107.585 243.308 108.641 243.704 109.169 242.12C109.829 238.292 109.961 239.612 112.997 237.896C114.317 236.048 110.489 234.068 113.129 233.936C113.921 233.672 114.053 233.54 114.053 231.956C115.505 229.184 116.033 224.3 117.617 221.66C118.409 220.868 117.089 221.792 117.485 221.132C118.145 220.34 117.749 219.416 118.409 218.492C119.069 217.964 118.673 215.852 119.333 215.456C119.861 214.532 120.125 213.344 120.521 212.42C120.521 211.628 120.917 212.288 121.049 211.76C121.049 211.628 120.917 211.496 120.785 211.496C119.861 211.628 121.841 210.572 121.181 210.44C120.785 210.836 121.181 209.384 121.577 209.516C122.105 209.384 121.445 207.272 122.105 207.14C122.633 206.612 122.105 205.952 122.633 205.556C123.161 205.292 122.633 203.444 123.425 203.444C123.821 203.312 123.293 203.18 121.709 203.18C112.073 202.52 136.757 202.916 135.173 202.52C135.041 202.256 125.933 202.388 124.085 202.256C124.481 201.068 123.161 201.2 122.105 201.2C121.313 201.2 120.785 201.2 121.445 200.54C121.841 200.144 122.501 200.144 126.593 200.144H131.477V199.088C121.973 198.956 124.745 199.616 127.253 192.356C127.121 193.016 127.649 192.488 127.517 192.092C127.385 191.432 127.781 191.696 127.913 190.64C128.177 189.584 127.649 189.98 128.045 189.188C128.309 188.792 128.045 187.736 128.573 187.604C128.837 187.736 128.573 187.076 128.969 186.812C129.365 186.548 129.101 185.492 129.497 185.36C129.629 185.36 129.629 185.228 129.497 185.096C129.497 184.436 130.157 184.7 130.289 183.512C130.421 183.512 130.421 181.004 130.817 180.872C130.817 180.212 131.345 179.684 131.477 178.76C132.797 171.236 135.569 163.712 138.341 156.98C138.737 156.452 139.529 156.584 140.453 157.244C142.961 158.432 141.113 161.864 141.773 163.448C141.773 165.956 143.093 165.164 143.357 167.144C142.961 168.86 146.657 168.464 147.449 170.048C149.033 172.424 146.921 177.044 145.865 179.024C145.337 179.552 145.733 181.664 145.205 182.588C143.489 182.72 132.533 182.588 133.457 183.116C133.457 183.38 134.513 183.38 141.905 183.38C148.637 183.38 150.353 183.512 150.353 183.644C150.353 184.04 145.469 184.04 144.545 184.04L144.281 184.832C143.489 186.152 143.357 189.188 142.433 190.112C141.641 190.904 142.037 192.62 141.377 193.808C140.453 195.92 139.661 197.768 139.133 200.144C138.869 201.992 137.417 203.444 137.285 205.424C137.285 206.612 136.361 208.196 136.229 209.252C136.097 210.572 135.173 211.496 134.645 212.42C134.249 214.004 133.457 215.192 133.325 216.908C133.985 216.908 136.493 216.512 135.833 217.304C137.153 219.416 125.933 217.964 123.425 218.228V219.68H132.533C130.949 223.376 129.893 227.996 128.837 231.296C128.441 231.032 128.837 232.088 128.573 232.088C128.441 232.088 128.441 232.22 128.441 232.352C127.517 233.144 127.913 233.804 127.517 234.464C132.005 235.256 144.809 234.464 151.277 234.728C158.801 234.464 152.729 236.84 154.841 237.236C156.557 238.424 152.329 238.028 154.705 238.424ZM111.281 243.704C111.545 242.78 110.489 243.044 110.357 243.572C110.357 243.836 111.149 243.836 111.281 243.704ZM151.409 239.348C153.521 238.952 149.957 237.632 149.297 237.5C149.165 237.632 147.845 236.312 147.581 236.576C146.921 237.236 146.129 236.444 145.337 236.576C144.281 236.576 143.885 236.18 143.225 236.708C142.961 236.576 140.981 236.444 140.189 236.444C139.265 236.972 136.493 236.18 135.569 236.708C134.117 236.84 131.477 236.18 130.685 236.84C129.893 236.84 130.025 237.896 129.233 237.368C125.933 238.16 138.077 238.688 141.245 238.424C144.809 238.424 148.241 238.556 151.409 239.348ZM154.181 238.424C154.445 238.688 154.709 238.556 154.841 238.16C154.841 237.764 153.521 238.028 154.181 238.424ZM142.565 172.82C142.433 174.14 143.753 172.424 142.829 172.292C142.565 172.16 142.565 172.292 142.565 172.82Z" fill="#FFFB00"/>
<path d="M294.539 181.136C296.783 183.776 292.427 183.38 292.163 185.36C291.107 187.604 290.447 186.284 290.711 189.188C290.315 189.716 290.843 189.584 290.447 189.848C290.183 190.508 291.107 191.696 289.655 192.62C286.751 195.656 282.527 196.976 279.095 199.484C276.983 202.784 260.351 201.068 255.995 201.86C255.995 201.992 258.899 201.992 264.575 202.124C277.379 202.124 281.075 202.124 281.339 202.388C281.603 202.52 272.363 202.388 272.891 202.652C272.891 203.444 271.175 203.708 270.647 203.972C270.119 204.764 268.007 205.688 267.215 206.084C262.727 206.876 275.795 211.364 276.587 212.288C281.339 215.324 288.335 217.964 290.711 223.244C290.579 224.564 287.015 226.016 287.015 227.468C287.147 228.788 285.563 228.788 285.959 229.976C285.695 230.108 285.695 231.032 286.091 231.428C286.883 232.616 284.375 230.24 285.299 231.824C286.619 233.408 283.319 234.464 282.263 234.992C280.811 235.784 278.699 236.708 277.115 237.368C274.607 238.556 271.043 240.008 268.667 240.932C268.403 241.196 251.243 241.064 247.679 241.196V242.252C250.715 242.516 276.191 241.46 270.779 242.912C268.007 243.308 260.879 243.308 258.899 244.892C253.223 246.74 247.943 249.776 241.739 249.248C240.155 248.588 240.023 252.812 238.307 252.152C236.723 251.096 238.175 252.284 236.855 252.416C235.931 252.416 234.875 255.98 233.819 256.112C233.291 255.98 233.159 255.98 233.159 255.188C233.159 253.868 232.367 253.208 232.895 252.02C231.707 252.944 229.463 254.528 229.991 255.188C230.255 257.432 227.615 257.696 226.691 260.204C226.031 261.26 225.767 262.976 224.843 262.976C224.711 262.976 224.447 262.976 224.183 262.712C225.503 256.508 228.407 247.664 230.123 241.724C230.255 240.932 230.915 239.876 230.387 239.216C230.255 238.82 230.783 238.82 230.651 238.292C231.707 236.708 232.235 233.672 233.027 231.956C233.555 230.372 234.479 227.732 234.743 226.148C234.875 225.752 235.271 225.752 240.419 225.752C245.171 225.752 245.963 225.62 245.963 225.356C246.755 224.828 236.855 225.092 235.271 225.092C235.271 224.828 235.535 224.036 235.667 224.036C235.931 223.772 235.403 222.98 236.063 222.98C236.723 222.716 235.931 221.396 236.855 220.472C237.515 218.888 238.043 217.04 238.571 215.456C238.835 215.192 238.835 215.06 238.835 214.928C238.703 214.796 239.231 214.928 239.099 214.4C238.703 214.136 240.023 213.08 239.891 212.948C239.363 212.42 240.287 210.968 240.551 210.44C240.683 208.856 241.343 207.536 242.003 207.008C242.399 206.348 241.343 206.612 242.135 206.084C242.663 205.688 241.871 203.972 242.663 204.104C242.927 204.236 242.795 202.784 243.059 202.916C243.191 202.916 243.191 202.784 243.191 202.52C243.191 201.86 244.247 200.804 244.247 200.144C244.775 199.616 243.587 200.012 244.247 199.616C244.907 199.088 243.851 199.22 244.775 198.428C245.435 197.768 244.907 197.504 245.435 196.976C246.227 196.712 245.831 193.148 246.755 192.752C246.887 192.884 246.887 192.488 246.887 192.092C246.623 191.168 247.547 190.904 247.679 189.98C247.547 188.132 249.131 187.076 248.867 185.228C240.551 185.096 259.823 184.7 262.067 184.7C260.483 184.568 247.943 184.964 249.659 184.304C249.923 183.908 249.923 183.908 249.659 184.04H249.527C249.395 184.04 251.243 181.532 250.847 180.872C250.715 180.212 250.715 180.212 251.111 180.608C251.375 181.004 251.375 181.004 251.243 180.608C251.111 180.08 251.507 180.344 251.639 179.948C251.771 179.684 251.639 179.684 251.507 179.816C251.243 179.948 251.771 179.024 251.771 178.628C251.771 177.308 252.431 177.308 252.431 175.724C252.431 175.328 252.563 175.196 252.563 175.328C253.223 176.78 253.091 173.348 253.619 173.348C254.015 173.744 253.619 171.104 253.883 171.632C254.543 172.556 254.147 171.104 254.411 170.84C254.807 170.312 253.751 171.104 254.411 169.388C254.543 168.992 254.543 168.992 254.543 169.256C255.731 170.444 254.543 165.164 254.675 164.24L255.863 164.372C254.807 163.052 245.071 151.6 245.995 150.28C247.315 148.828 241.639 145.396 241.771 142.888C241.903 142.228 242.167 141.964 242.563 141.964C244.015 141.964 247.447 146.32 248.767 145.528C251.407 145.66 263.123 158.696 265.235 159.884C269.591 162.26 272.627 165.296 276.983 167.936C283.583 170.576 271.967 169.124 270.911 169.124C270.251 168.86 269.987 168.728 269.723 168.728C269.327 168.728 269.855 169.52 268.139 169.388C264.443 170.048 270.515 169.916 270.779 170.576C273.287 172.16 276.587 173.876 278.963 175.328C279.359 175.328 278.831 175.988 279.227 175.856H279.359C280.415 175.856 281.735 177.704 282.923 177.308C282.395 176.12 280.547 176.12 280.151 175.196C279.887 173.744 276.719 174.008 276.323 173.084C276.587 172.952 277.247 173.216 276.455 172.556C275.927 172.424 276.455 172.952 276.191 172.952C275.531 171.104 273.947 170.972 272.363 170.048C275.135 170.18 288.467 169.916 288.203 170.444C289.391 170.972 282.923 170.708 282.131 170.708C286.355 174.008 292.031 175.988 294.539 181.136ZM270.383 226.544C271.439 226.544 268.667 225.092 268.271 225.488C267.743 225.488 269.987 226.544 268.931 226.28C268.007 226.016 269.459 227.072 268.799 226.94C268.667 226.94 268.667 226.94 268.535 226.94C267.743 226.94 266.423 227.864 265.631 227.864C265.367 227.864 265.103 227.732 264.971 227.336C264.971 227.072 264.971 227.072 264.575 227.072C263.783 227.336 263.783 227.468 264.443 227.864C265.631 228.656 263.255 229.316 261.935 229.316C261.275 229.316 260.879 229.184 260.879 228.92C260.351 228.92 257.975 229.712 256.127 230.504C254.543 231.428 254.807 231.296 255.203 231.296C255.467 231.296 255.995 231.296 255.995 231.956C256.127 232.616 255.731 232.748 255.335 232.352C255.071 231.824 254.147 232.484 254.147 231.956C254.279 231.428 253.223 231.56 253.223 231.956C253.355 232.22 253.223 232.22 252.959 232.22C252.563 231.956 252.827 233.012 253.223 232.748C253.487 232.616 252.827 233.276 252.431 232.88C252.167 232.616 252.035 232.484 252.167 232.352C252.827 231.824 249.527 233.012 250.979 232.88C251.111 232.88 252.035 233.804 251.243 233.408C250.715 233.144 251.375 234.728 250.583 234.2C250.451 234.068 250.187 234.068 250.055 234.068C249.659 234.332 248.867 233.276 248.603 233.54C248.339 233.672 248.603 233.804 248.999 234.068C250.451 234.596 249.527 235.256 248.999 234.464C248.735 233.672 246.359 233.672 246.755 234.464C247.019 234.728 247.019 234.86 246.887 234.86C246.359 234.86 244.511 236.84 246.095 235.916C246.359 235.652 246.359 235.652 246.227 235.916C246.095 236.18 246.359 236.18 247.547 235.916C248.339 235.784 247.943 235.388 248.339 235.388C250.583 234.992 253.619 234.068 255.335 233.144C255.731 232.748 256.787 232.748 256.655 232.088C256.655 231.692 257.711 231.824 257.315 231.164C256.919 230.24 258.503 231.56 258.899 231.692C258.503 231.428 257.711 230.24 258.635 230.9C259.427 231.164 259.295 229.448 260.351 231.296C260.615 231.692 260.747 231.692 260.747 231.296C260.747 230.9 261.671 230.504 260.747 230.504C260.483 230.636 260.219 230.636 260.219 230.504C260.747 229.844 262.199 230.768 262.595 229.844C262.727 229.58 263.783 229.844 263.783 229.448C264.311 228.92 264.707 229.58 264.707 230.108C265.103 228.788 267.215 227.864 268.271 227.336C268.535 227.996 269.591 227.072 269.987 227.072C270.383 227.072 269.855 226.544 270.383 226.544ZM260.615 221.132C256.391 219.02 254.675 218.096 252.563 217.04C251.639 220.34 250.187 224.036 249.263 226.94C249.131 227.996 249.395 227.996 248.603 228.788C247.811 229.58 247.943 230.768 247.679 231.824C253.619 229.844 258.635 227.6 264.839 224.96C268.799 223.772 264.179 223.508 260.615 221.132ZM263.915 230.768C264.443 230.9 264.443 229.052 264.179 229.976C264.047 230.24 263.915 230.372 263.783 230.372C262.991 230.372 263.519 230.9 263.915 230.768ZM261.671 193.28C261.275 192.884 260.879 192.884 260.879 193.412C260.879 193.94 262.199 194.072 261.935 194.6C261.803 195.524 262.991 194.072 261.671 193.28ZM260.747 209.78C260.219 209.78 259.823 210.044 260.219 210.044C260.615 210.176 260.087 210.968 261.011 210.572C261.539 210.308 262.595 210.704 262.331 210.968C262.199 211.232 262.859 210.968 262.727 211.496C262.727 211.892 262.727 211.892 262.859 211.628C263.123 211.232 263.255 211.364 264.443 211.892C266.291 213.212 265.631 211.76 266.555 212.024C266.951 212.42 266.423 211.76 266.951 211.76C267.743 211.496 265.367 211.1 265.895 210.704C265.895 210.572 264.575 210.176 264.311 210.308C264.047 210.308 263.519 209.516 263.255 209.516C263.123 209.516 261.803 208.988 262.067 209.384C262.463 209.648 263.387 210.044 263.255 210.704C262.859 210.704 261.275 209.384 260.747 209.78ZM264.971 193.94C265.367 193.94 265.235 193.412 264.707 193.412C264.575 193.28 264.443 193.412 264.443 193.676C264.443 194.072 263.783 194.072 263.783 194.468C263.783 194.864 264.443 194.072 264.047 194.732C263.519 195.26 264.575 194.864 264.575 194.6C264.839 194.336 264.443 193.94 264.971 193.94ZM267.611 213.212C267.611 212.684 265.763 212.288 266.687 212.816C267.347 212.948 266.819 213.476 267.347 213.476C267.479 213.476 267.611 213.476 267.611 213.212ZM267.611 211.76C266.951 211.892 268.535 212.288 268.799 212.156C268.535 212.024 268.007 211.76 267.611 211.76ZM268.271 212.684C267.479 212.024 267.743 213.08 268.271 212.948C268.535 212.816 268.535 212.816 268.271 212.684ZM269.195 228.524C269.591 228.128 269.591 228.128 269.195 227.996C268.271 227.864 268.007 229.712 269.195 228.524ZM262.331 195.92C262.859 196.052 261.275 194.864 261.671 195.788C261.671 196.052 261.143 195.524 261.011 196.184C260.747 196.844 261.935 196.58 262.067 196.052C262.067 195.788 262.067 195.788 262.331 195.92ZM269.327 214.004C269.327 213.872 269.195 213.74 268.931 213.872C268.403 214.004 268.403 213.608 268.007 213.476C267.347 213.74 269.195 214.268 269.063 214.664C269.063 214.664 269.063 214.796 269.327 214.928C269.459 215.06 269.591 214.928 269.459 214.796C269.327 214.136 271.703 215.852 271.835 215.984C273.155 216.644 277.907 219.548 277.907 218.624C278.039 218.36 279.887 218.228 278.831 217.832C278.303 217.7 277.511 216.908 276.191 216.644C275.399 216.644 275.795 216.248 275.531 216.116C275.399 216.116 275.267 215.984 275.267 215.72C275.267 215.324 274.871 215.72 274.475 215.324C273.947 215.06 273.815 214.928 273.683 214.928C273.551 214.928 275.267 216.38 275.135 216.512C274.079 216.512 273.551 214.928 272.627 214.664C272.627 214.4 272.099 213.08 271.835 213.608C271.571 214.004 270.647 213.212 271.307 212.948C272.099 212.42 268.403 213.212 269.459 213.344H269.591C270.515 213.344 272.891 215.06 272.627 215.456C271.967 215.72 271.043 214.268 270.779 213.74C270.779 213.872 269.723 213.212 270.251 213.74C270.779 214.268 269.327 214.268 269.327 214.004ZM280.415 219.68C279.095 220.34 282.527 220.076 281.207 220.736C281.075 220.736 281.075 220.736 281.075 220.736C280.283 220.736 282.395 222.452 282.923 222.452C283.055 222.452 283.055 222.452 283.055 222.452C283.055 222.056 285.563 223.244 284.639 222.452C284.243 221.924 285.827 220.868 286.487 221C287.015 221.132 287.015 221.132 286.751 220.868C286.223 220.736 286.487 219.944 286.091 220.076C285.695 220.34 285.299 219.548 285.035 219.812C284.903 219.812 284.771 219.812 284.771 219.68C284.771 219.548 284.507 217.964 284.111 218.492C283.055 219.416 284.243 217.436 282.791 218.492C282.527 218.756 282.395 218.888 282.395 218.888C282.131 218.888 283.055 217.172 281.603 217.172C281.207 217.304 280.415 216.248 280.283 216.512C280.283 216.908 280.679 216.644 280.679 217.04C280.547 217.436 281.867 217.964 281.339 218.228C281.207 218.36 281.075 218.36 281.207 218.096C281.471 217.7 280.415 217.964 280.415 217.7C279.491 217.172 281.603 219.416 280.415 219.68ZM261.803 164.24C262.859 164.636 265.499 167.276 266.027 167.276C266.555 166.748 265.103 165.164 264.575 165.032C264.047 164.9 264.311 163.712 263.651 163.976C263.387 164.108 261.935 163.316 262.199 163.052C262.199 162.92 262.199 162.92 262.067 163.052C261.407 163.184 260.747 161.732 260.615 163.184C260.483 164.24 261.011 163.184 261.803 164.24ZM268.271 189.716C268.931 188.924 264.047 190.904 266.159 191.3C267.347 191.828 266.423 191.036 266.423 190.64C266.687 190.508 267.347 191.696 267.479 191.168C267.611 191.036 267.611 190.904 267.479 190.904C266.555 190.64 268.271 190.112 268.271 189.716ZM265.631 179.42C263.255 186.944 261.803 189.716 262.991 189.716C263.915 189.716 266.819 187.604 272.627 184.568C275.531 183.644 271.439 182.72 270.911 182.06C269.987 181.796 266.291 178.496 265.631 179.42ZM268.799 189.32C269.459 190.244 269.591 188.66 268.931 188.792C268.667 188.792 268.535 189.056 268.799 189.32ZM270.119 189.056C270.515 189.848 270.911 188 270.383 188.132C269.855 188.132 269.723 188.528 270.251 188.528C270.779 188.66 269.987 188.792 270.119 189.056ZM273.155 190.376C273.155 190.244 273.155 189.98 273.023 189.584C272.099 188.132 272.363 191.3 273.155 190.376ZM272.495 186.812C271.703 187.604 273.287 186.812 273.419 187.868C273.815 187.472 273.419 185.624 272.495 186.812ZM273.683 189.452C273.683 189.452 273.683 189.188 273.551 188.792C273.419 187.208 272.759 189.452 273.683 189.452ZM274.475 188.924C274.475 188.528 274.871 187.868 274.343 188.264C273.947 188.528 274.211 189.584 274.475 188.924ZM277.247 187.208C278.171 187.208 277.379 186.416 276.851 186.944C276.455 187.208 276.455 188 276.719 187.736C277.115 187.604 276.587 187.208 277.247 187.208ZM277.907 173.084C278.831 173.744 278.699 172.556 277.907 172.82C277.643 172.952 277.643 172.952 277.907 173.084ZM289.919 181.532C290.183 181.532 290.183 181.532 290.051 181.268C289.523 180.608 289.655 181.796 288.863 181.004C287.807 180.344 286.223 179.024 284.771 178.496C284.243 178.496 284.243 178.628 285.035 179.156C285.431 179.816 285.959 179.684 286.091 179.816C286.223 180.344 288.863 182.72 289.391 182.72C289.655 182.588 289.391 181.268 289.919 181.532ZM290.183 180.344C290.975 179.948 289.127 180.08 289.787 179.024C290.315 178.628 289.391 178.76 289.259 179.156C289.127 179.816 287.939 178.496 287.675 178.364C286.751 177.572 288.863 177.308 287.411 176.648C287.015 176.384 286.751 176.252 286.751 176.384C286.751 176.648 286.223 176.384 286.355 176.912C286.619 177.968 285.167 176.384 285.035 176.78C285.563 177.572 286.751 178.628 287.543 179.156C287.675 179.024 288.203 180.212 288.203 179.948C288.599 179.684 289.655 181.268 290.183 180.344ZM290.975 180.344C291.899 180.872 291.239 179.684 290.843 179.684C290.579 179.684 290.579 180.212 290.975 180.344ZM273.155 171.104C273.155 171.104 273.023 171.104 273.023 170.972C272.891 170.444 273.551 170.972 273.155 171.104ZM260.747 210.44C260.351 210.44 260.747 210.044 260.879 210.044C261.011 210.176 260.879 210.572 260.747 210.44ZM281.603 220.076C281.339 220.076 281.339 219.68 281.603 219.68C281.867 219.68 281.867 220.076 281.603 220.076ZM261.407 229.58C261.407 229.448 261.671 229.58 261.803 229.712C262.463 230.372 261.275 229.844 261.407 229.58ZM258.635 230.108C258.767 230.108 258.899 230.108 258.899 230.24C259.163 230.768 257.843 229.976 258.635 230.108ZM247.943 234.332C248.075 234.464 248.207 234.596 247.943 234.596C247.679 234.596 247.547 234.068 247.943 234.332Z" fill="#FFFB00"/>
<path fill-rule="evenodd" clip-rule="evenodd" d="M181.675 251.42L181.673 251.429C171.978 251.6 162.011 250.985 161.237 243.575C161.237 243.575 160.002 241.498 166.275 242.657C182.187 242.657 182.34 242.657 182.34 242.045C182.34 241.586 182.187 241.586 170.406 241.586C168.856 241.586 167.5 241.592 166.314 241.597C160.543 241.622 158.798 241.629 158.34 240.865C158.141 240.534 158.185 240.058 158.246 239.376C158.273 239.082 158.303 238.749 158.319 238.373C158.445 237.742 158.415 237.189 158.39 236.725C158.354 236.064 158.328 235.583 158.778 235.313C158.931 235.313 158.892 235.045 158.854 234.777C158.816 234.51 158.778 234.242 158.931 234.242C159.125 234.177 159.182 233.867 159.253 233.484C159.35 232.96 159.472 232.3 160.002 231.947C160.449 231.59 160.582 231.023 160.708 230.492C160.797 230.114 160.882 229.754 161.073 229.499C161.149 229.346 161.187 229.269 161.168 229.25C161.149 229.231 161.073 229.27 160.92 229.346C160.879 229.346 160.914 229.291 160.986 229.182C161.181 228.882 161.644 228.172 161.532 227.051C161.532 225.98 161.685 225.215 161.685 225.215C162.144 225.521 162.756 224.144 162.756 222.92C162.798 222.722 162.839 222.528 162.88 222.337C163.277 220.464 163.606 218.911 164.439 217.106C164.87 216.244 165.009 215.382 165.131 214.629C165.226 214.046 165.309 213.529 165.51 213.128C165.663 213.128 166.581 211.139 166.581 210.833C166.581 210.715 166.671 210.665 166.766 210.614C166.916 210.531 167.075 210.444 166.887 210.068C166.692 209.582 166.992 208.973 167.236 208.476C167.376 208.19 167.499 207.941 167.499 207.773C167.839 207.32 168.011 206.363 168.139 205.649C168.184 205.399 168.224 205.178 168.264 205.019C168.5 205.019 168.452 204.735 168.413 204.501C168.376 204.281 168.347 204.106 168.57 204.254C168.674 204.184 168.761 204.121 168.84 204.063C169.456 203.609 169.62 203.489 174.231 203.489H179.433L179.586 201.806C179.293 201.806 178.814 201.808 178.201 201.811C173.681 201.832 161.831 201.886 162.909 201.347C162.756 201.194 162.756 201.041 162.909 201.194C163.146 201.352 163.056 201.102 162.957 200.823C162.863 200.562 162.761 200.276 162.909 200.276C162.832 200.123 164.563 200.085 166.308 200.046C168.044 200.008 169.794 199.97 169.794 199.817C169.641 199.358 169.794 199.205 169.947 199.511C170.167 199.804 170.141 199.536 170.105 199.16C170.065 198.75 170.014 198.214 170.253 198.134C170.482 197.675 170.635 197.14 170.788 196.604C170.941 196.069 171.094 195.533 171.324 195.074C171.44 194.841 171.556 194.255 171.69 193.583C171.907 192.489 172.168 191.169 172.548 190.79C172.654 190.63 172.705 190.415 172.758 190.189C172.858 189.766 172.967 189.306 173.466 189.107C173.893 188.594 174.081 187.891 174.271 187.184C174.421 186.624 174.572 186.061 174.843 185.588C174.774 185.383 174.92 184.901 175.075 184.391C175.266 183.761 175.471 183.088 175.302 182.834C175.149 182.681 175.302 181.61 175.608 181.763C175.761 182.069 176.067 180.845 175.761 180.845C175.608 180.768 175.875 180.31 176.143 179.851C176.411 179.392 176.679 178.933 176.526 178.856C176.222 178.451 176.589 178.045 176.916 177.684C177.083 177.5 177.239 177.328 177.291 177.173C177.291 177.024 177.291 176.948 177.273 176.944C177.255 176.939 177.216 177.016 177.138 177.173C176.526 177.785 176.832 176.408 177.291 176.102C178.144 175.035 178.477 173.819 178.808 172.61C178.951 172.085 179.095 171.562 179.28 171.053C179.534 171.138 179.6 170.331 179.661 169.594C179.71 169 179.755 168.452 179.892 168.452C180.045 168.605 180.198 168.299 180.504 166.769C180.796 166.404 179.731 166.387 178.636 166.37C177.435 166.351 176.198 166.331 176.679 165.851C175.965 165.256 179.227 165.309 182.511 165.362C183.452 165.377 184.395 165.392 185.247 165.392C187.695 165.392 189.531 165.239 189.072 164.78C189.58 164.271 187.659 164.291 185.59 164.312C185.169 164.317 184.743 164.321 184.329 164.321C182.646 164.321 181.116 164.168 181.575 163.709C181.872 162.988 182.216 162.208 182.574 161.395C183.509 159.276 184.541 156.936 185.094 154.835C185.129 154.8 185.244 154.402 185.417 153.811C185.995 151.823 187.211 147.644 188.154 147.644C188.766 147.644 189.072 148.409 188.919 149.786C188.783 150.869 189.397 151.383 189.964 151.858C190.679 152.457 191.319 152.994 190.296 154.529C189.8 155.521 189.625 155.87 189.731 156.076C189.788 156.188 189.927 156.257 190.143 156.365C190.71 156.77 190.505 158.463 190.322 159.966C190.161 161.3 190.017 162.485 190.449 162.485C191.367 164.474 193.356 164.933 193.356 163.25C193.203 162.485 195.804 160.343 196.263 161.414C197.946 165.698 196.875 169.064 195.039 172.124C194.427 175.337 193.662 179.162 192.132 182.222C191.899 181.873 191.666 183.119 191.5 184.004C191.449 184.281 191.403 184.524 191.367 184.67H186.165C181.269 184.67 181.116 184.67 181.116 185.282C179.697 185.89 186.598 185.693 192.133 185.535C194.957 185.454 197.425 185.383 198.252 185.435C198.237 185.563 198.229 185.675 198.221 185.774C198.2 186.038 198.187 186.201 198.1 186.303C197.96 186.468 197.625 186.468 196.746 186.468C196.205 186.468 195.459 186.468 194.427 186.506C193.718 186.506 193.148 186.5 192.688 186.495C191.328 186.481 190.934 186.477 190.771 186.669C190.704 186.747 190.676 186.859 190.637 187.016C190.573 187.269 190.479 187.643 190.143 188.189C190.055 190.123 189.361 191.805 188.699 193.408C188.209 194.594 187.737 195.738 187.542 196.91C187.106 198.797 186.602 200.133 186.127 201.392C185.6 202.787 185.109 204.087 184.788 205.937C184.863 206.461 184.754 206.326 184.606 206.14C184.452 205.947 184.254 205.699 184.176 206.09C184.176 206.549 184.023 209.15 183.258 208.538C183.105 208.385 183.105 208.538 183.105 209.303C183.076 209.53 183.053 209.847 183.026 210.213C182.91 211.816 182.724 214.352 181.728 214.352C181.308 213.932 181.395 214.48 181.483 215.035C181.556 215.491 181.629 215.951 181.422 215.882C181.2 215.956 181.121 216.173 181.047 216.378C180.967 216.596 180.894 216.8 180.657 216.8C180.544 217.083 180.556 217.636 180.57 218.276C180.594 219.37 180.624 220.715 180.045 221.39C179.897 221.612 179.821 221.726 179.798 221.717C179.774 221.706 179.813 221.553 179.892 221.237C180.351 220.778 179.28 220.166 179.433 220.778C179.109 221.491 178.949 223 178.792 224.492C178.578 226.521 178.367 228.516 177.75 228.428C177.592 228.349 177.556 228.636 177.517 228.954C177.479 229.252 177.439 229.578 177.291 229.652C176.526 231.794 176.22 233.171 179.892 232.865C181.492 232.865 183.705 232.828 185.923 232.773L185.926 232.76C187.332 232.724 189.598 232.681 191.948 232.636L191.949 232.636C196.241 232.555 200.813 232.468 200.937 232.406C201.963 231.151 203.33 225.985 204.34 222.168C204.684 220.866 204.987 219.721 205.221 218.942C205.285 218.556 205.512 218.033 205.754 217.479C206.086 216.715 206.445 215.89 206.445 215.27C206.139 215.423 206.139 215.117 206.445 214.811C207.124 213.452 207.619 211.538 208.085 209.735C208.354 208.696 208.613 207.694 208.893 206.855C209.811 203.489 210.27 202.265 211.647 199.358C211.898 199.107 211.763 199.139 211.591 199.18C211.342 199.238 211.015 199.316 211.647 198.593C211.723 198.287 211.991 197.56 212.259 196.834C212.527 196.107 212.794 195.38 212.871 195.074C212.308 194.736 212.822 194.233 213.193 193.869C213.327 193.738 213.442 193.625 213.483 193.544C213.636 192.167 214.248 187.577 215.319 187.424C215.319 187.291 215.204 187.245 215.086 187.197C214.932 187.136 214.773 187.072 214.86 186.812L215.056 186.197C216.166 182.727 216.866 180.539 217.155 180.539C217.293 180.192 217.369 179.563 217.453 178.865C217.555 178.022 217.669 177.077 217.92 176.408C217.553 176.371 217.168 176.379 216.801 176.386C215.641 176.408 214.664 176.426 215.013 175.031C217.308 175.184 221.592 175.337 223.887 175.337V174.113C223.641 174.064 222.936 174.078 222.119 174.094C220.394 174.129 218.166 174.173 218.685 173.654C218.818 173.588 218.893 173.176 218.96 172.805C219.048 172.322 219.124 171.91 219.297 172.43C219.508 172.642 219.557 172.203 219.624 171.608C219.701 170.913 219.803 170.006 220.215 169.676C220.695 168.837 220.704 167.88 220.714 166.952C220.728 165.514 220.742 164.147 222.51 163.403C222.873 162.979 223.069 161.908 223.277 160.768C223.594 159.029 223.941 157.13 224.958 157.13C225.111 157.13 225.417 157.283 225.723 157.436C225.981 157.758 226.048 158.297 226.12 158.871C226.22 159.659 226.327 160.512 226.947 160.955C227.448 161.706 227.675 162.73 227.903 163.755C228.092 164.608 228.282 165.462 228.63 166.157C228.936 166.769 231.078 168.452 232.149 168.452C232.455 168.452 232.761 168.299 232.761 167.993C233.001 167.753 233.271 167.393 233.557 167.011C234.183 166.176 234.885 165.239 235.515 165.239C235.821 165.239 236.28 165.698 236.433 167.075C236.78 171.238 236.253 172.866 235.776 174.338C235.623 174.813 235.474 175.273 235.362 175.796C235.362 177.326 234.597 179.468 233.679 179.927C233.415 183.489 233.037 184.321 232.252 186.052C232.126 186.328 231.99 186.628 231.843 186.965C231.642 187.233 231.47 188.09 231.301 188.929C231.086 190.003 230.877 191.048 230.619 190.79C230.466 190.79 230.007 191.861 229.854 193.085C229.762 193.33 229.69 193.54 229.628 193.719C229.47 194.18 229.381 194.441 229.199 194.584C228.962 194.771 228.569 194.76 227.663 194.734C226.829 194.71 225.561 194.674 223.581 194.768C214.707 194.768 216.543 195.686 226.794 195.533C235.974 195.38 237.963 195.992 231.996 196.298C228.511 196.087 228.452 196.459 228.196 198.068C228.081 198.79 227.927 199.761 227.406 201.041C227.284 201.102 227.308 201.356 227.332 201.621C227.369 202.022 227.408 202.449 226.947 202.265C226.572 202.265 226.675 202.412 226.805 202.598C226.941 202.792 227.106 203.027 226.794 203.183C226.138 204.276 225.794 206.385 225.54 207.947C225.438 208.57 225.351 209.107 225.264 209.456C225.03 209.631 224.752 209.583 224.514 209.543C224.129 209.476 223.851 209.428 224.04 210.374C224.04 212.9 223.484 214.625 222.922 216.37C222.599 217.372 222.274 218.382 222.051 219.554C222.506 220.01 219.4 219.956 216.078 219.9C214.938 219.88 213.773 219.86 212.718 219.86C210.423 219.86 208.74 220.013 209.199 220.472C209.769 221.156 213.4 221.075 217.24 220.99L217.241 220.99C218.552 220.961 219.887 220.931 221.133 220.931C224.04 220.931 226.488 221.084 226.947 221.696C225.711 222.437 224.476 222.38 223.402 222.331C223.146 222.319 222.898 222.308 222.663 222.308C221.133 222.308 220.215 222.767 220.215 226.898C220.51 228.668 219.738 230.047 219.185 231.035C218.591 232.097 218.25 232.707 219.756 232.865C220.368 232.712 221.286 233.018 220.827 233.324C219.909 234.854 222.051 236.384 223.734 235.772C227.1 235.16 233.679 236.231 227.1 239.291C224.893 240.294 224.148 241.268 223.522 242.085C222.717 243.137 222.111 243.929 218.838 244.187C218.16 244.661 218.503 245.316 218.843 245.964C219.27 246.78 219.692 247.586 218.073 248.012C217.614 248.318 217.461 248.471 217.92 248.471C220.368 250.001 218.685 250.613 213.942 250.613C212.362 252.281 209.537 261.914 208.745 265.401C208.157 267.991 207.588 270.501 206.74 272.066C205.516 274.514 204.445 275.432 203.68 275.432C202.456 275.432 201.997 272.831 202.915 268.547C203.294 267.694 202.617 266.724 202.01 265.855C201.637 265.32 201.29 264.824 201.232 264.416C200.62 263.651 198.784 262.427 197.866 261.968C196.441 261.765 198.235 254.411 198.031 253.077C197.929 252.405 197.827 251.738 197.571 251.225C196.195 251.2 187.426 251.255 185.426 251.317C184.245 251.354 182.983 251.393 181.675 251.42ZM184.747 237.4L184.782 237.265C185.163 237.166 185.572 237.098 185.981 237.302C186.695 237.404 194.409 237.234 195.123 237.064C195.48 236.979 195.837 236.894 196.194 236.843C196.388 236.714 196.8 236.857 197.234 237.009C197.829 237.216 198.465 237.438 198.642 236.996C198.785 236.9 198.944 236.879 199.104 236.858C199.454 236.812 199.809 236.766 200.019 235.925C200.68 235.263 197.795 235.288 195.617 235.307L195.615 235.307C195.275 235.31 194.953 235.313 194.664 235.313C193.44 235.313 185.828 235.313 186.287 235.007C186.359 234.863 186.397 234.787 186.385 234.778C186.372 234.769 186.296 234.845 186.134 235.007C185.984 235.232 185.76 235.126 185.553 235.013C185.549 235.236 185.36 235.198 185.17 235.16C184.979 235.122 184.788 235.083 184.788 235.313C184.788 235.619 183.564 235.772 183.411 235.466C183.155 235.402 182.818 235.445 182.345 235.506C181.688 235.59 180.767 235.708 179.433 235.619C176.985 235.619 174.537 235.619 176.526 236.843C176.679 236.843 176.832 236.996 176.832 237.149C176.526 237.455 179.127 237.608 178.515 237.149C178.209 236.69 178.209 236.69 179.433 237.149C180.045 237.455 180.351 237.455 180.657 237.455C180.948 237.455 180.993 237.271 181.026 237.135C181.045 237.057 181.06 236.996 181.116 236.996C181.269 236.996 181.575 237.149 182.034 237.608L182.493 237.149C182.845 236.726 182.873 236.953 182.905 237.215C182.943 237.523 182.986 237.88 183.564 237.302C183.728 237.138 183.804 237.062 183.863 237.074C183.914 237.084 183.952 237.16 184.023 237.302C184.232 237.459 184.478 237.455 184.747 237.4ZM190.143 166.922C189.684 167.993 190.296 169.982 190.602 168.605C191.061 168.452 190.908 164.78 190.143 166.922ZM190.296 169.523C189.99 169.217 189.837 169.37 189.99 169.982C190.143 171.971 190.755 169.982 190.296 169.523ZM163.436 245.375C164.159 245.516 165.023 245.685 165.663 245.258C164.241 245.08 164.264 244.799 164.294 244.445C164.315 244.189 164.34 243.896 163.827 243.575C163.212 243.652 163.523 243.922 163.811 244.171C164.097 244.418 164.359 244.646 163.674 244.646C163.394 244.856 162.985 244.746 162.639 244.652C162.23 244.541 161.908 244.454 161.991 244.952C161.991 245.159 161.991 245.273 162.047 245.321C162.115 245.38 162.267 245.342 162.603 245.258C162.834 245.258 163.122 245.314 163.436 245.375ZM224.958 168.911C224.805 169.064 225.111 169.523 225.417 169.523C226.029 169.523 225.264 168.605 224.958 168.911ZM222.663 166.31C223.122 166.157 223.428 164.627 222.663 165.239C222.357 165.392 222.051 166.922 222.663 166.31ZM203.68 264.263C203.68 264.11 203.68 263.804 203.527 263.651C202.915 263.039 203.374 265.028 203.68 264.263ZM220.521 236.69C220.674 237.149 217.308 237.302 218.685 236.843C218.722 236.843 218.853 236.815 219.027 236.778C219.564 236.664 220.521 236.459 220.521 236.69ZM209.811 231.335C209.505 231.488 209.352 232.712 209.811 232.1C209.964 231.794 210.27 230.57 209.811 231.335Z" fill="#FFFB00"/>
<path d="M193.054 150.261L195.41 150.044C195.412 149.962 195.418 149.876 195.429 149.786C195.582 148.409 195.276 147.644 194.664 147.644C194.159 147.644 193.575 148.842 193.054 150.261Z" fill="#FFFB00"/>
<path d="M210.576 200.735C210.117 200.582 211.035 199.97 210.882 200.582C210.729 200.735 210.729 200.735 210.576 200.735Z" fill="#FFFB00"/>
</svg>
