<svg width="37" height="51" viewBox="0 0 37 51" fill="none" xmlns="http://www.w3.org/2000/svg">
<path fill-rule="evenodd" clip-rule="evenodd" d="M10.9821 1.37824L10.7129 1.40991L0.989823 8.9232L8.06102 11.4189H9.88066C10.068 10.8888 10.5736 10.509 11.1679 10.509C11.9217 10.509 12.5327 11.1201 12.5327 11.8739C12.5327 12.6277 11.9217 13.2387 11.1679 13.2387C10.5736 13.2387 10.068 12.8589 9.88066 12.3288H7.90516L0.752197 9.80425L1.07418 14.2047L2.63966 15.0586H13.5203C13.7077 14.5285 14.2132 14.1486 14.8075 14.1486C15.5613 14.1486 16.1724 14.7597 16.1724 15.5135C16.1724 16.2673 15.5613 16.8784 14.8075 16.8784C14.2132 16.8784 13.7077 16.4986 13.5203 15.9685H2.40764L1.15317 15.2842L1.30311 17.3333H11.8254L14.8075 20.518L14.8302 20.6024L16.1724 22.5653V26.6599L14.7725 28.7072H8.47313L7.07327 26.6599V22.5653L8.47313 18.6982L13.009 20.0086L11.4202 18.2432H1.36968L1.4652 19.5487L3.88858 20.518V28.7072H2.23937L2.49528 30.0721H14.0739L12.9047 33.5794L6.07231 36.9956L8.39437 38.6844L15.5139 35.1246L15.5434 35.1837L17.1733 30.527H19.721L21.416 35.3699L28.4562 38.89V38.7162L30.822 36.9956L23.9895 33.5794L22.8204 30.0721H34.399L34.6549 28.7072H33.4607V20.518L35.4154 19.7361L35.5246 18.2432H25.4871L24.0914 19.949L28.4212 18.6982L29.821 22.5653V26.6599L28.4212 28.7072H22.1218L20.7219 26.6599V22.5653L22.0704 20.5931L22.0868 20.518L25.0559 17.3333H35.5912L35.76 15.0258L34.0317 15.9685H22.4641C22.2767 16.4986 21.7711 16.8784 21.1769 16.8784C20.4231 16.8784 19.812 16.2673 19.812 15.5135C19.812 14.7597 20.4231 14.1486 21.1769 14.1486C21.7711 14.1486 22.2767 14.5285 22.4641 15.0586H33.7997L35.839 13.9462L36.1421 9.80425L28.9891 12.3288H27.0136C26.8263 12.8589 26.3207 13.2387 25.7264 13.2387C24.9726 13.2387 24.3616 12.6277 24.3616 11.8739C24.3616 11.1201 24.9726 10.509 25.7264 10.509C26.3207 10.509 26.8263 10.8888 27.0136 11.4189H28.8333L35.9045 8.9232L26.1814 1.40991L25.912 1.37822L18.4471 8.40404L10.9821 1.37824ZM24.7319 1.23938L18.4471 0.5L12.1623 1.2394L18.4471 7.15451L24.7319 1.23938ZM34.2284 30.982H24.0829L24.7336 32.9341L31.6509 36.3928L33.4607 35.0766L34.2284 30.982ZM28.4562 39.9073L28.3552 39.8568L25.4397 42.3558H25.2715V46.9054L28.4562 44.6306V39.9073ZM23.9066 42.3558H21.1769V50.545L23.9066 48.2703V42.3558ZM19.812 42.3558H17.0823V51H19.812V42.3558ZM15.7174 42.3558H12.9877V48.2703L15.7174 50.545V42.3558ZM11.6228 42.3558H11.4545L8.43813 39.7704V44.6306L11.6228 46.9054V42.3558ZM5.24339 36.3928L12.1607 32.9341L12.8114 30.982H2.66589L3.43363 35.0766L5.24339 36.3928ZM15.8248 35.9865H20.6145L27.4722 39.4153L25.1031 41.4459H11.7911L9.25443 39.2717L15.8248 35.9865Z" fill="#FFFB00"/>
</svg>
