<svg width="56" height="53" viewBox="0 0 56 53" fill="none" xmlns="http://www.w3.org/2000/svg">
<path fill-rule="evenodd" clip-rule="evenodd" d="M11.9988 11.4706L28 0L44.0012 11.4706L33.8379 19.1146H32.3772C32.1467 18.5823 31.6169 18.2098 31 18.2098C30.1716 18.2098 29.5 18.8813 29.5 19.7098C29.5 20.5382 30.1716 21.2098 31 21.2098C31.688 21.2098 32.2681 20.7464 32.4448 20.1146H34.1621L44.8512 12.08L56 20.0721L49.4943 39.6654L36.7622 30.0952H36.0449C35.8682 29.4634 35.2881 29 34.6001 29C33.7717 29 33.1001 29.6716 33.1001 30.5C33.1001 31.3284 33.7717 32 34.6001 32C35.217 32 35.7468 31.6275 35.9773 31.0952H36.438L49.1622 40.6653L45.2327 52.5H10.7673L6.83775 40.6653L19.562 31.0952H20.0227C20.2532 31.6275 20.783 32 21.3999 32C22.2283 32 22.8999 31.3284 22.8999 30.5C22.8999 29.6716 22.2283 29 21.3999 29C20.7119 29 20.1318 29.4634 19.9551 30.0952H19.2378L6.50575 39.6654L0 20.0721L11.1488 12.08L21.8379 20.1146H23.5552C23.7319 20.7464 24.312 21.2098 25 21.2098C25.8284 21.2098 26.5 20.5382 26.5 19.7098C26.5 18.8813 25.8284 18.2098 25 18.2098C24.3831 18.2098 23.8533 18.5823 23.6228 19.1146H22.1621L11.9988 11.4706ZM43.8699 51.5L28.0496 40.0861L28 40.1281L27.9504 40.0861L12.1301 51.5H43.8699ZM28 38.8171L43.5 50L41.5502 36.1812L40.4202 35.3314L42.1819 47.8159L28.5781 38.0011L39.2431 34.4461L38.272 33.7157L28 37.1396L17.728 33.7157L16.7568 34.4461L27.4219 38.0011L13.8181 47.8159L15.5798 35.3314L14.4498 36.1812L12.5 50L28 38.8171ZM28 5.11987L34.5366 17.3378L35.3454 16.7295L28 3L20.6546 16.7295L21.4634 17.3378L28 5.11987ZM20.2097 20.1417L16.9464 30.5563L15.5755 31.5868L19.3616 19.5042L20.2097 20.1417ZM5.22583 22.3704L14.7693 32.1928L13.9635 32.7985L2.5 21L18.0023 18.4825L19.1107 19.3157L5.73315 21.4881L12.4922 23.8359C12.7671 23.4924 13.1899 23.2723 13.6641 23.2723C14.4924 23.2723 15.1641 23.9438 15.1641 24.7723C15.1641 25.6007 14.4924 26.2723 13.6641 26.2723C12.8384 26.2723 12.1685 25.6052 12.1641 24.7806L5.22583 22.3704ZM1.47876 21.3839L13.1578 33.4041L7.01501 38.0214L1.47876 21.3839ZM11.3445 51.0323L8.0135 41.0221L13.3201 37.0309L11.3445 51.0323ZM19.8461 16.1214L27.696 1.44824L13.6882 11.4899L19.8461 16.1214ZM11.1348 13.3204L16.894 17.6494L1.64062 20.1264L11.1348 13.3204ZM35.7903 20.1417L39.0536 30.5563L40.4245 31.5868L36.6384 19.5042L35.7903 20.1417ZM50.7742 22.3704L41.2307 32.1928L42.0365 32.7985L53.5 21L37.9977 18.4825L36.8893 19.3157L50.2668 21.4881L43.5078 23.8359C43.2329 23.4924 42.8101 23.2723 42.3359 23.2723C41.5076 23.2723 40.8359 23.9438 40.8359 24.7723C40.8359 25.6007 41.5076 26.2723 42.3359 26.2723C43.1616 26.2723 43.8315 25.6052 43.8359 24.7806L50.7742 22.3704ZM54.5212 21.3839L42.8422 33.4041L48.985 38.0214L54.5212 21.3839ZM44.6555 51.0323L47.9865 41.0221L42.6799 37.0309L44.6555 51.0323ZM36.1539 16.1214L28.304 1.44824L42.3118 11.4899L36.1539 16.1214ZM44.8652 13.3204L39.1059 17.6494L54.3594 20.1264L44.8652 13.3204Z" fill="#FFFB00"/>
</svg>
