<svg width="190" height="26" viewBox="0 0 190 26" fill="none" xmlns="http://www.w3.org/2000/svg">
<path d="M85 2H105" stroke="#FFFB00" stroke-width="2"/>
<path d="M88 4H102" stroke="#FFFB00" stroke-width="2"/>
<g filter="url(#filter0_b_21_2262)">
<path fill-rule="evenodd" clip-rule="evenodd" d="M77.6858 1L1 1.176V21.0601L7.65423 25H10.1707V24H12.4634V25H15.9024V24H17.0488V25H18.1951V24H27.3659V25H28.5122V24H31.9512V25H182.363V24.805L182.506 24.8977L189 21.0601V1.176L112.314 1L106.288 5.52776H83.7121L77.6858 1Z" fill="#FFFB00"/>
<path d="M1 1.176L0.998852 0.675997L0.5 0.677141V1.176H1ZM77.6858 1L77.9861 0.600256L77.8522 0.499617L77.6846 0.500001L77.6858 1ZM1 21.0601H0.5V21.3451L0.745259 21.4903L1 21.0601ZM7.65423 25L7.39949 25.4302L7.51731 25.5H7.65423V25ZM10.1707 25V25.5H10.6707V25H10.1707ZM10.1707 24V23.5H9.67073V24H10.1707ZM12.4634 24H12.9634V23.5H12.4634V24ZM12.4634 25H11.9634V25.5H12.4634V25ZM15.9024 25V25.5H16.4024V25H15.9024ZM15.9024 24V23.5H15.4024V24H15.9024ZM17.0488 24H17.5488V23.5H17.0488V24ZM17.0488 25H16.5488V25.5H17.0488V25ZM18.1951 25V25.5H18.6951V25H18.1951ZM18.1951 24V23.5H17.6951V24H18.1951ZM27.3659 24H27.8659V23.5H27.3659V24ZM27.3659 25H26.8659V25.5H27.3659V25ZM28.5122 25V25.5H29.0122V25H28.5122ZM28.5122 24V23.5H28.0122V24H28.5122ZM31.9512 24H32.4512V23.5H31.9512V24ZM31.9512 25H31.4512V25.5H31.9512V25ZM182.363 25V25.5H182.863V25H182.363ZM182.363 24.805L182.635 24.3854L181.863 23.8853V24.805H182.363ZM182.506 24.8977L182.235 25.3174L182.494 25.4857L182.761 25.3282L182.506 24.8977ZM189 21.0601L189.254 21.4905L189.5 21.3454V21.0601H189ZM189 1.176H189.5V0.677141L189.001 0.675997L189 1.176ZM112.314 1L112.315 0.500001L112.148 0.499617L112.014 0.600256L112.314 1ZM106.288 5.52776V6.02776H106.455L106.588 5.9275L106.288 5.52776ZM83.7121 5.52776L83.4117 5.9275L83.5452 6.02776H83.7121V5.52776ZM1.00115 1.67599L77.6869 1.5L77.6846 0.500001L0.998852 0.675997L1.00115 1.67599ZM1.5 21.0601V1.176H0.5V21.0601H1.5ZM7.90897 24.5698L1.25474 20.6299L0.745259 21.4903L7.39949 25.4302L7.90897 24.5698ZM10.1707 24.5H7.65423V25.5H10.1707V24.5ZM9.67073 24V25H10.6707V24H9.67073ZM12.4634 23.5H10.1707V24.5H12.4634V23.5ZM12.9634 25V24H11.9634V25H12.9634ZM15.9024 24.5H12.4634V25.5H15.9024V24.5ZM15.4024 24V25H16.4024V24H15.4024ZM17.0488 23.5H15.9024V24.5H17.0488V23.5ZM17.5488 25V24H16.5488V25H17.5488ZM18.1951 24.5H17.0488V25.5H18.1951V24.5ZM17.6951 24V25H18.6951V24H17.6951ZM27.3659 23.5H18.1951V24.5H27.3659V23.5ZM27.8659 25V24H26.8659V25H27.8659ZM28.5122 24.5H27.3659V25.5H28.5122V24.5ZM28.0122 24V25H29.0122V24H28.0122ZM31.9512 23.5H28.5122V24.5H31.9512V23.5ZM32.4512 25V24H31.4512V25H32.4512ZM182.363 24.5H31.9512V25.5H182.363V24.5ZM181.863 24.805V25H182.863V24.805H181.863ZM182.778 24.4781L182.635 24.3854L182.091 25.2246L182.235 25.3174L182.778 24.4781ZM188.746 20.6296L182.252 24.4673L182.761 25.3282L189.254 21.4905L188.746 20.6296ZM188.5 1.176V21.0601H189.5V1.176H188.5ZM112.313 1.5L188.999 1.67599L189.001 0.675997L112.315 0.500001L112.313 1.5ZM106.588 5.9275L112.615 1.39974L112.014 0.600256L105.988 5.12802L106.588 5.9275ZM83.7121 6.02776H106.288V5.02776H83.7121V6.02776ZM77.3854 1.39974L83.4117 5.9275L84.0124 5.12802L77.9861 0.600256L77.3854 1.39974Z" fill="#FFFB00"/>
</g>
<defs>
<filter id="filter0_b_21_2262" x="-9.5" y="-9.50049" width="209" height="45.0005" filterUnits="userSpaceOnUse" color-interpolation-filters="sRGB">
<feFlood flood-opacity="0" result="BackgroundImageFix"/>
<feGaussianBlur in="BackgroundImageFix" stdDeviation="5"/>
<feComposite in2="SourceAlpha" operator="in" result="effect1_backgroundBlur_21_2262"/>
<feBlend mode="normal" in="SourceGraphic" in2="effect1_backgroundBlur_21_2262" result="shape"/>
</filter>
</defs>
</svg>
