<svg width="348" height="26" viewBox="0 0 348 26" fill="none" xmlns="http://www.w3.org/2000/svg">
<path d="M348 13H268" stroke="#FFFB00" stroke-opacity="0.3"/>
<path d="M163 2H183" stroke="#FFFB00" stroke-width="2"/>
<path d="M166 4H180" stroke="#FFFB00" stroke-width="2"/>
<path fill-rule="evenodd" clip-rule="evenodd" d="M155.686 1L79 1.17599V21.0601L85.6542 25H88.1707V24H90.4634V25H93.9024V24H95.0488V25H96.1951V24H105.366V25H106.512V24H109.951V25H260.363V24.805L260.506 24.8977L267 21.0601V1.17599L190.314 1L184.288 5.52776H161.712L155.686 1Z" fill="#FFFB00" fill-opacity="0.6"/>
<path d="M79 1.17599L78.9989 0.675996L78.5 0.677141V1.17599H79ZM155.686 1L155.986 0.600256L155.852 0.499617L155.685 0.500001L155.686 1ZM79 21.0601H78.5V21.3451L78.7453 21.4903L79 21.0601ZM85.6542 25L85.3995 25.4302L85.5173 25.5H85.6542V25ZM88.1707 25V25.5H88.6707V25H88.1707ZM88.1707 24V23.5H87.6707V24H88.1707ZM90.4634 24H90.9634V23.5H90.4634V24ZM90.4634 25H89.9634V25.5H90.4634V25ZM93.9024 25V25.5H94.4024V25H93.9024ZM93.9024 24V23.5H93.4024V24H93.9024ZM95.0488 24H95.5488V23.5H95.0488V24ZM95.0488 25H94.5488V25.5H95.0488V25ZM96.1951 25V25.5H96.6951V25H96.1951ZM96.1951 24V23.5H95.6951V24H96.1951ZM105.366 24H105.866V23.5H105.366V24ZM105.366 25H104.866V25.5H105.366V25ZM106.512 25V25.5H107.012V25H106.512ZM106.512 24V23.5H106.012V24H106.512ZM109.951 24H110.451V23.5H109.951V24ZM109.951 25H109.451V25.5H109.951V25ZM260.363 25V25.5H260.863V25H260.363ZM260.363 24.805L260.635 24.3854L259.863 23.8853V24.805H260.363ZM260.506 24.8977L260.235 25.3174L260.494 25.4857L260.761 25.3282L260.506 24.8977ZM267 21.0601L267.254 21.4905L267.5 21.3454V21.0601H267ZM267 1.17599H267.5V0.677141L267.001 0.675996L267 1.17599ZM190.314 1L190.315 0.500001L190.148 0.499617L190.014 0.600256L190.314 1ZM184.288 5.52776V6.02776H184.455L184.588 5.9275L184.288 5.52776ZM161.712 5.52776L161.412 5.9275L161.545 6.02776H161.712V5.52776ZM79.0011 1.67599L155.687 1.5L155.685 0.500001L78.9989 0.675996L79.0011 1.67599ZM79.5 21.0601V1.17599H78.5V21.0601H79.5ZM85.909 24.5698L79.2547 20.6299L78.7453 21.4903L85.3995 25.4302L85.909 24.5698ZM88.1707 24.5H85.6542V25.5H88.1707V24.5ZM87.6707 24V25H88.6707V24H87.6707ZM90.4634 23.5H88.1707V24.5H90.4634V23.5ZM90.9634 25V24H89.9634V25H90.9634ZM93.9024 24.5H90.4634V25.5H93.9024V24.5ZM93.4024 24V25H94.4024V24H93.4024ZM95.0488 23.5H93.9024V24.5H95.0488V23.5ZM95.5488 25V24H94.5488V25H95.5488ZM96.1951 24.5H95.0488V25.5H96.1951V24.5ZM95.6951 24V25H96.6951V24H95.6951ZM105.366 23.5H96.1951V24.5H105.366V23.5ZM105.866 25V24H104.866V25H105.866ZM106.512 24.5H105.366V25.5H106.512V24.5ZM106.012 24V25H107.012V24H106.012ZM109.951 23.5H106.512V24.5H109.951V23.5ZM110.451 25V24H109.451V25H110.451ZM260.363 24.5H109.951V25.5H260.363V24.5ZM259.863 24.805V25H260.863V24.805H259.863ZM260.778 24.4781L260.635 24.3854L260.091 25.2246L260.235 25.3174L260.778 24.4781ZM266.746 20.6296L260.252 24.4673L260.761 25.3282L267.254 21.4905L266.746 20.6296ZM266.5 1.17599V21.0601H267.5V1.17599H266.5ZM190.313 1.5L266.999 1.67599L267.001 0.675996L190.315 0.500001L190.313 1.5ZM184.588 5.9275L190.615 1.39974L190.014 0.600256L183.988 5.12802L184.588 5.9275ZM161.712 6.02776H184.288V5.02776H161.712V6.02776ZM155.385 1.39974L161.412 5.9275L162.012 5.12802L155.986 0.600256L155.385 1.39974Z" fill="#FFFB00"/>
<path d="M106.638 18V9.348H108.498V16.128H115.278V18L106.638 18ZM116.601 18V11.136C116.601 10.808 116.681 10.512 116.841 10.248C117.001 9.976 117.217 9.76 117.489 9.6C117.761 9.44 118.057 9.36 118.377 9.36L123.453 9.36C123.781 9.36 124.077 9.44 124.341 9.6C124.613 9.76 124.829 9.976 124.989 10.248C125.157 10.512 125.241 10.808 125.241 11.136V18H123.357V15.216L118.461 15.216V18H116.601ZM118.461 13.344L123.357 13.344V11.232L118.461 11.232V13.344ZM130.16 18V11.232L126.776 11.232V9.36L135.416 9.36V11.232H132.032V18H130.16ZM136.938 18V9.36L144.918 9.36V11.232L138.822 11.232V12.744L143.73 12.744V14.616L138.822 14.616V16.128H144.918V18H136.938ZM148.453 18C148.133 18 147.837 17.92 147.565 17.76C147.293 17.6 147.077 17.384 146.917 17.112C146.757 16.84 146.677 16.544 146.677 16.224V15.42H148.537V16.128L153.433 16.128V14.616L148.453 14.616C148.133 14.616 147.837 14.536 147.565 14.376C147.293 14.216 147.077 14.004 146.917 13.74C146.757 13.468 146.677 13.168 146.677 12.84V11.136C146.677 10.808 146.757 10.512 146.917 10.248C147.077 9.976 147.293 9.76 147.565 9.6C147.837 9.44 148.133 9.36 148.453 9.36L153.541 9.36C153.861 9.36 154.153 9.44 154.417 9.6C154.689 9.76 154.905 9.976 155.065 10.248C155.233 10.512 155.317 10.808 155.317 11.136V11.94H153.433V11.232L148.537 11.232V12.744L153.541 12.744C153.861 12.744 154.153 12.824 154.417 12.984C154.689 13.144 154.905 13.36 155.065 13.632C155.233 13.896 155.317 14.192 155.317 14.52V16.224C155.317 16.544 155.233 16.84 155.065 17.112C154.905 17.384 154.689 17.6 154.417 17.76C154.153 17.92 153.861 18 153.541 18L148.453 18ZM160.191 18V11.232H156.807V9.36L165.447 9.36V11.232H162.063V18H160.191ZM174.303 18L171.159 9.36L173.139 9.36L175.023 14.508L176.907 9.36H178.623L180.519 14.508L182.403 9.36H184.371L181.227 18H179.799L177.759 12.444L175.731 18H174.303ZM185.856 18V9.36L187.692 9.36V18H185.856ZM189.322 18V9.36H191.242L196.078 15.12V9.36H197.962V18H196.042L191.182 12.216V18H189.322ZM199.907 18V9.36H201.827L206.663 15.12V9.36L208.547 9.36V18L206.627 18L201.767 12.216V18H199.907ZM210.515 18V9.36L218.495 9.36V11.232L212.399 11.232V12.744L217.307 12.744V14.616H212.399V16.128H218.495V18H210.515ZM226.987 18L224.479 15.012H226.915L228.907 17.364V18H226.987ZM220.279 18V9.372H227.131C227.459 9.372 227.755 9.452 228.019 9.612C228.291 9.772 228.507 9.988 228.667 10.26C228.835 10.532 228.919 10.828 228.919 11.148V13.38C228.919 13.7 228.835 13.996 228.667 14.268C228.507 14.54 228.291 14.756 228.019 14.916C227.755 15.076 227.459 15.156 227.131 15.156L222.139 15.168V18H220.279ZM222.139 13.284H227.035V11.232H222.139V13.284ZM232.533 18C232.213 18 231.917 17.92 231.645 17.76C231.373 17.6 231.157 17.384 230.997 17.112C230.837 16.84 230.757 16.544 230.757 16.224V15.42H232.617V16.128H237.513V14.616H232.533C232.213 14.616 231.917 14.536 231.645 14.376C231.373 14.216 231.157 14.004 230.997 13.74C230.837 13.468 230.757 13.168 230.757 12.84V11.136C230.757 10.808 230.837 10.512 230.997 10.248C231.157 9.976 231.373 9.76 231.645 9.6C231.917 9.44 232.213 9.36 232.533 9.36H237.621C237.941 9.36 238.233 9.44 238.497 9.6C238.769 9.76 238.985 9.976 239.145 10.248C239.313 10.512 239.397 10.808 239.397 11.136V11.94H237.513V11.232L232.617 11.232V12.744L237.621 12.744C237.941 12.744 238.233 12.824 238.497 12.984C238.769 13.144 238.985 13.36 239.145 13.632C239.313 13.896 239.397 14.192 239.397 14.52V16.224C239.397 16.544 239.313 16.84 239.145 17.112C238.985 17.384 238.769 17.6 238.497 17.76C238.233 17.92 237.941 18 237.621 18H232.533Z" fill="black"/>
<path d="M80 13H0" stroke="#FFFB00" stroke-opacity="0.3"/>
</svg>
