<svg width="351" height="114" viewBox="0 0 351 114" fill="none" xmlns="http://www.w3.org/2000/svg">
<g clip-path="url(#clip0_21_2263)" filter="url(#filter0_b_21_2263)">
<path d="M3 1H347" stroke="#FFFB00" stroke-opacity="0.2"/>
<path opacity="0.2" fill-rule="evenodd" clip-rule="evenodd" d="M16 3H3V4.16092H16V3ZM16 54.0805H3V55.2414H16V54.0805ZM3 5.32184H16V8.8046H3V5.32184ZM16 56.4023H3V59.8851H16V56.4023ZM3 9.96552H16V12.2874H3V9.96552ZM16 62.2069H3V64.5287H16V62.2069ZM3 15.7701H16V20.4138H3V15.7701ZM16 66.8506H3V71.4943H16V66.8506ZM3 21.5747H16V22.7356H3V21.5747ZM16 72.6552H3V73.8161H16V72.6552ZM3 25.0575H16V26.2184H3V25.0575ZM16 76.1379H3V77.2989H16V76.1379ZM3 27.3793H16V29.7011H3V27.3793ZM16 78.4598H3V80.7816H16V78.4598ZM3 30.8621H16V32.023H3V30.8621ZM16 81.9425H3V83.1034H16V81.9425ZM3 33.1839H16V34.3448H3V33.1839ZM16 84.2644H3V85.4253H16V84.2644ZM3 37.8276H16V41.3103H3V37.8276ZM16 88.908H3V92.3908H16V88.908ZM3 48.2759H16V49.4368H3V48.2759ZM16 99.3563H3V100.517H16V99.3563ZM3 51.7586H16V52.9195H3V51.7586ZM16 102.839H3V104H16V102.839ZM3 42.4713H16V44.7931H3V42.4713ZM16 93.5517H3V95.8736H16V93.5517Z" fill="#FFFB00"/>
<path opacity="0.2" d="M3 104L53.1096 104L59.0038 114L292.109 114L298.003 104L351 104" stroke="#FFFB00" stroke-width="2"/>
<rect x="190" y="28" width="1" height="1" fill="#D9D9D9" fill-opacity="0.15"/>
<rect x="82" y="28" width="1" height="1" fill="#D9D9D9" fill-opacity="0.15"/>
<rect x="298" y="28" width="1" height="1" fill="#D9D9D9" fill-opacity="0.15"/>
<rect x="1" y="28" width="1" height="1" fill="#D9D9D9" fill-opacity="0.15"/>
<rect x="217" y="28" width="1" height="1" fill="#D9D9D9" fill-opacity="0.15"/>
<rect x="109" y="28" width="1" height="1" fill="#D9D9D9" fill-opacity="0.15"/>
<rect x="325" y="28" width="1" height="1" fill="#D9D9D9" fill-opacity="0.15"/>
<rect x="199" y="28" width="1" height="1" fill="#D9D9D9" fill-opacity="0.15"/>
<rect x="91" y="28" width="1" height="1" fill="#D9D9D9" fill-opacity="0.15"/>
<rect x="307" y="28" width="1" height="1" fill="#D9D9D9" fill-opacity="0.15"/>
<rect x="10" y="28" width="1" height="1" fill="#D9D9D9" fill-opacity="0.15"/>
<rect x="226" y="28" width="1" height="1" fill="#D9D9D9" fill-opacity="0.15"/>
<rect x="118" y="28" width="1" height="1" fill="#D9D9D9" fill-opacity="0.15"/>
<rect x="334" y="28" width="1" height="1" fill="#D9D9D9" fill-opacity="0.15"/>
<rect x="208" y="28" width="1" height="1" fill="#D9D9D9" fill-opacity="0.15"/>
<rect x="100" y="28" width="1" height="1" fill="#D9D9D9" fill-opacity="0.15"/>
<rect x="316" y="28" width="1" height="1" fill="#D9D9D9" fill-opacity="0.15"/>
<rect x="19" y="28" width="1" height="1" fill="#D9D9D9" fill-opacity="0.15"/>
<rect x="235" y="28" width="1" height="1" fill="#D9D9D9" fill-opacity="0.15"/>
<rect x="127" y="28" width="1" height="1" fill="#D9D9D9" fill-opacity="0.15"/>
<rect x="343" y="28" width="1" height="1" fill="#D9D9D9" fill-opacity="0.15"/>
<rect x="28" y="28" width="1" height="1" fill="#D9D9D9" fill-opacity="0.15"/>
<rect x="244" y="28" width="1" height="1" fill="#D9D9D9" fill-opacity="0.15"/>
<rect x="136" y="28" width="1" height="1" fill="#D9D9D9" fill-opacity="0.15"/>
<rect x="55" y="28" width="1" height="1" fill="#D9D9D9" fill-opacity="0.15"/>
<rect x="271" y="28" width="1" height="1" fill="#D9D9D9" fill-opacity="0.15"/>
<rect x="163" y="28" width="1" height="1" fill="#D9D9D9" fill-opacity="0.15"/>
<rect x="37" y="28" width="1" height="1" fill="#D9D9D9" fill-opacity="0.15"/>
<rect x="253" y="28" width="1" height="1" fill="#D9D9D9" fill-opacity="0.15"/>
<rect x="145" y="28" width="1" height="1" fill="#D9D9D9" fill-opacity="0.15"/>
<rect x="64" y="28" width="1" height="1" fill="#D9D9D9" fill-opacity="0.15"/>
<rect x="280" y="28" width="1" height="1" fill="#D9D9D9" fill-opacity="0.15"/>
<rect x="172" y="28" width="1" height="1" fill="#D9D9D9" fill-opacity="0.15"/>
<rect x="46" y="28" width="1" height="1" fill="#D9D9D9" fill-opacity="0.15"/>
<rect x="262" y="28" width="1" height="1" fill="#D9D9D9" fill-opacity="0.15"/>
<rect x="154" y="28" width="1" height="1" fill="#D9D9D9" fill-opacity="0.15"/>
<rect x="73" y="28" width="1" height="1" fill="#D9D9D9" fill-opacity="0.15"/>
<rect x="289" y="28" width="1" height="1" fill="#D9D9D9" fill-opacity="0.15"/>
<rect x="181" y="28" width="1" height="1" fill="#D9D9D9" fill-opacity="0.15"/>
<rect x="190" y="19" width="1" height="1" fill="#D9D9D9" fill-opacity="0.15"/>
<rect x="82" y="19" width="1" height="1" fill="#D9D9D9" fill-opacity="0.15"/>
<rect x="298" y="19" width="1" height="1" fill="#D9D9D9" fill-opacity="0.15"/>
<rect x="1" y="19" width="1" height="1" fill="#D9D9D9" fill-opacity="0.15"/>
<rect x="217" y="19" width="1" height="1" fill="#D9D9D9" fill-opacity="0.15"/>
<rect x="109" y="19" width="1" height="1" fill="#D9D9D9" fill-opacity="0.15"/>
<rect x="325" y="19" width="1" height="1" fill="#D9D9D9" fill-opacity="0.15"/>
<rect x="199" y="19" width="1" height="1" fill="#D9D9D9" fill-opacity="0.15"/>
<rect x="91" y="19" width="1" height="1" fill="#D9D9D9" fill-opacity="0.15"/>
<rect x="307" y="19" width="1" height="1" fill="#D9D9D9" fill-opacity="0.15"/>
<rect x="10" y="19" width="1" height="1" fill="#D9D9D9" fill-opacity="0.15"/>
<rect x="226" y="19" width="1" height="1" fill="#D9D9D9" fill-opacity="0.15"/>
<rect x="118" y="19" width="1" height="1" fill="#D9D9D9" fill-opacity="0.15"/>
<rect x="334" y="19" width="1" height="1" fill="#D9D9D9" fill-opacity="0.15"/>
<rect x="208" y="19" width="1" height="1" fill="#D9D9D9" fill-opacity="0.15"/>
<rect x="100" y="19" width="1" height="1" fill="#D9D9D9" fill-opacity="0.15"/>
<rect x="316" y="19" width="1" height="1" fill="#D9D9D9" fill-opacity="0.15"/>
<rect x="19" y="19" width="1" height="1" fill="#D9D9D9" fill-opacity="0.15"/>
<rect x="235" y="19" width="1" height="1" fill="#D9D9D9" fill-opacity="0.15"/>
<rect x="127" y="19" width="1" height="1" fill="#D9D9D9" fill-opacity="0.15"/>
<rect x="343" y="19" width="1" height="1" fill="#D9D9D9" fill-opacity="0.15"/>
<rect x="28" y="19" width="1" height="1" fill="#D9D9D9" fill-opacity="0.15"/>
<rect x="244" y="19" width="1" height="1" fill="#D9D9D9" fill-opacity="0.15"/>
<rect x="136" y="19" width="1" height="1" fill="#D9D9D9" fill-opacity="0.15"/>
<rect x="55" y="19" width="1" height="1" fill="#D9D9D9" fill-opacity="0.15"/>
<rect x="271" y="19" width="1" height="1" fill="#D9D9D9" fill-opacity="0.15"/>
<rect x="163" y="19" width="1" height="1" fill="#D9D9D9" fill-opacity="0.15"/>
<rect x="37" y="19" width="1" height="1" fill="#D9D9D9" fill-opacity="0.15"/>
<rect x="253" y="19" width="1" height="1" fill="#D9D9D9" fill-opacity="0.15"/>
<rect x="145" y="19" width="1" height="1" fill="#D9D9D9" fill-opacity="0.15"/>
<rect x="64" y="19" width="1" height="1" fill="#D9D9D9" fill-opacity="0.15"/>
<rect x="280" y="19" width="1" height="1" fill="#D9D9D9" fill-opacity="0.15"/>
<rect x="172" y="19" width="1" height="1" fill="#D9D9D9" fill-opacity="0.15"/>
<rect x="46" y="19" width="1" height="1" fill="#D9D9D9" fill-opacity="0.15"/>
<rect x="262" y="19" width="1" height="1" fill="#D9D9D9" fill-opacity="0.15"/>
<rect x="154" y="19" width="1" height="1" fill="#D9D9D9" fill-opacity="0.15"/>
<rect x="73" y="19" width="1" height="1" fill="#D9D9D9" fill-opacity="0.15"/>
<rect x="289" y="19" width="1" height="1" fill="#D9D9D9" fill-opacity="0.15"/>
<rect x="181" y="19" width="1" height="1" fill="#D9D9D9" fill-opacity="0.15"/>
<rect x="190" y="46" width="1" height="1" fill="#D9D9D9" fill-opacity="0.15"/>
<rect x="82" y="46" width="1" height="1" fill="#D9D9D9" fill-opacity="0.15"/>
<rect x="298" y="46" width="1" height="1" fill="#D9D9D9" fill-opacity="0.15"/>
<rect x="190" y="10" width="1" height="1" fill="#D9D9D9" fill-opacity="0.15"/>
<rect x="82" y="10" width="1" height="1" fill="#D9D9D9" fill-opacity="0.15"/>
<rect x="298" y="10" width="1" height="1" fill="#D9D9D9" fill-opacity="0.15"/>
<rect x="1" y="46" width="1" height="1" fill="#D9D9D9" fill-opacity="0.15"/>
<rect x="217" y="46" width="1" height="1" fill="#D9D9D9" fill-opacity="0.15"/>
<rect x="109" y="46" width="1" height="1" fill="#D9D9D9" fill-opacity="0.15"/>
<rect x="325" y="46" width="1" height="1" fill="#D9D9D9" fill-opacity="0.15"/>
<rect x="1" y="10" width="1" height="1" fill="#D9D9D9" fill-opacity="0.15"/>
<rect x="217" y="10" width="1" height="1" fill="#D9D9D9" fill-opacity="0.15"/>
<rect x="109" y="10" width="1" height="1" fill="#D9D9D9" fill-opacity="0.15"/>
<rect x="325" y="10" width="1" height="1" fill="#D9D9D9" fill-opacity="0.15"/>
<rect x="199" y="46" width="1" height="1" fill="#D9D9D9" fill-opacity="0.15"/>
<rect x="91" y="46" width="1" height="1" fill="#D9D9D9" fill-opacity="0.15"/>
<rect x="307" y="46" width="1" height="1" fill="#D9D9D9" fill-opacity="0.15"/>
<rect x="199" y="10" width="1" height="1" fill="#D9D9D9" fill-opacity="0.15"/>
<rect x="91" y="10" width="1" height="1" fill="#D9D9D9" fill-opacity="0.15"/>
<rect x="307" y="10" width="1" height="1" fill="#D9D9D9" fill-opacity="0.15"/>
<rect x="10" y="46" width="1" height="1" fill="#D9D9D9" fill-opacity="0.15"/>
<rect x="226" y="46" width="1" height="1" fill="#D9D9D9" fill-opacity="0.15"/>
<rect x="118" y="46" width="1" height="1" fill="#D9D9D9" fill-opacity="0.15"/>
<rect x="334" y="46" width="1" height="1" fill="#D9D9D9" fill-opacity="0.15"/>
<rect x="10" y="10" width="1" height="1" fill="#D9D9D9" fill-opacity="0.15"/>
<rect x="226" y="10" width="1" height="1" fill="#D9D9D9" fill-opacity="0.15"/>
<rect x="118" y="10" width="1" height="1" fill="#D9D9D9" fill-opacity="0.15"/>
<rect x="334" y="10" width="1" height="1" fill="#D9D9D9" fill-opacity="0.15"/>
<rect x="208" y="46" width="1" height="1" fill="#D9D9D9" fill-opacity="0.15"/>
<rect x="100" y="46" width="1" height="1" fill="#D9D9D9" fill-opacity="0.15"/>
<rect x="316" y="46" width="1" height="1" fill="#D9D9D9" fill-opacity="0.15"/>
<rect x="208" y="10" width="1" height="1" fill="#D9D9D9" fill-opacity="0.15"/>
<rect x="100" y="10" width="1" height="1" fill="#D9D9D9" fill-opacity="0.15"/>
<rect x="316" y="10" width="1" height="1" fill="#D9D9D9" fill-opacity="0.15"/>
<rect x="19" y="46" width="1" height="1" fill="#D9D9D9" fill-opacity="0.15"/>
<rect x="235" y="46" width="1" height="1" fill="#D9D9D9" fill-opacity="0.15"/>
<rect x="127" y="46" width="1" height="1" fill="#D9D9D9" fill-opacity="0.15"/>
<rect x="343" y="46" width="1" height="1" fill="#D9D9D9" fill-opacity="0.15"/>
<rect x="19" y="10" width="1" height="1" fill="#D9D9D9" fill-opacity="0.15"/>
<rect x="235" y="10" width="1" height="1" fill="#D9D9D9" fill-opacity="0.15"/>
<rect x="127" y="10" width="1" height="1" fill="#D9D9D9" fill-opacity="0.15"/>
<rect x="343" y="10" width="1" height="1" fill="#D9D9D9" fill-opacity="0.15"/>
<rect x="28" y="46" width="1" height="1" fill="#D9D9D9" fill-opacity="0.15"/>
<rect x="244" y="46" width="1" height="1" fill="#D9D9D9" fill-opacity="0.15"/>
<rect x="136" y="46" width="1" height="1" fill="#D9D9D9" fill-opacity="0.15"/>
<rect x="28" y="10" width="1" height="1" fill="#D9D9D9" fill-opacity="0.15"/>
<rect x="244" y="10" width="1" height="1" fill="#D9D9D9" fill-opacity="0.15"/>
<rect x="136" y="10" width="1" height="1" fill="#D9D9D9" fill-opacity="0.15"/>
<rect x="55" y="46" width="1" height="1" fill="#D9D9D9" fill-opacity="0.15"/>
<rect x="271" y="46" width="1" height="1" fill="#D9D9D9" fill-opacity="0.15"/>
<rect x="163" y="46" width="1" height="1" fill="#D9D9D9" fill-opacity="0.15"/>
<rect x="55" y="10" width="1" height="1" fill="#D9D9D9" fill-opacity="0.15"/>
<rect x="271" y="10" width="1" height="1" fill="#D9D9D9" fill-opacity="0.15"/>
<rect x="163" y="10" width="1" height="1" fill="#D9D9D9" fill-opacity="0.15"/>
<rect x="37" y="46" width="1" height="1" fill="#D9D9D9" fill-opacity="0.15"/>
<rect x="253" y="46" width="1" height="1" fill="#D9D9D9" fill-opacity="0.15"/>
<rect x="145" y="46" width="1" height="1" fill="#D9D9D9" fill-opacity="0.15"/>
<rect x="37" y="10" width="1" height="1" fill="#D9D9D9" fill-opacity="0.15"/>
<rect x="253" y="10" width="1" height="1" fill="#D9D9D9" fill-opacity="0.15"/>
<rect x="145" y="10" width="1" height="1" fill="#D9D9D9" fill-opacity="0.15"/>
<rect x="64" y="46" width="1" height="1" fill="#D9D9D9" fill-opacity="0.15"/>
<rect x="280" y="46" width="1" height="1" fill="#D9D9D9" fill-opacity="0.15"/>
<rect x="172" y="46" width="1" height="1" fill="#D9D9D9" fill-opacity="0.15"/>
<rect x="64" y="10" width="1" height="1" fill="#D9D9D9" fill-opacity="0.15"/>
<rect x="280" y="10" width="1" height="1" fill="#D9D9D9" fill-opacity="0.15"/>
<rect x="172" y="10" width="1" height="1" fill="#D9D9D9" fill-opacity="0.15"/>
<rect x="46" y="46" width="1" height="1" fill="#D9D9D9" fill-opacity="0.15"/>
<rect x="262" y="46" width="1" height="1" fill="#D9D9D9" fill-opacity="0.15"/>
<rect x="154" y="46" width="1" height="1" fill="#D9D9D9" fill-opacity="0.15"/>
<rect x="46" y="10" width="1" height="1" fill="#D9D9D9" fill-opacity="0.15"/>
<rect x="262" y="10" width="1" height="1" fill="#D9D9D9" fill-opacity="0.15"/>
<rect x="154" y="10" width="1" height="1" fill="#D9D9D9" fill-opacity="0.15"/>
<rect x="73" y="46" width="1" height="1" fill="#D9D9D9" fill-opacity="0.15"/>
<rect x="289" y="46" width="1" height="1" fill="#D9D9D9" fill-opacity="0.15"/>
<rect x="181" y="46" width="1" height="1" fill="#D9D9D9" fill-opacity="0.15"/>
<rect x="73" y="10" width="1" height="1" fill="#D9D9D9" fill-opacity="0.15"/>
<rect x="289" y="10" width="1" height="1" fill="#D9D9D9" fill-opacity="0.15"/>
<rect x="181" y="10" width="1" height="1" fill="#D9D9D9" fill-opacity="0.15"/>
<rect x="190" y="37" width="1" height="1" fill="#D9D9D9" fill-opacity="0.15"/>
<rect x="82" y="37" width="1" height="1" fill="#D9D9D9" fill-opacity="0.15"/>
<rect x="298" y="37" width="1" height="1" fill="#D9D9D9" fill-opacity="0.15"/>
<rect x="190" y="1" width="1" height="1" fill="#D9D9D9" fill-opacity="0.15"/>
<rect x="82" y="1" width="1" height="1" fill="#D9D9D9" fill-opacity="0.15"/>
<rect x="298" y="1" width="1" height="1" fill="#D9D9D9" fill-opacity="0.15"/>
<rect x="1" y="37" width="1" height="1" fill="#D9D9D9" fill-opacity="0.15"/>
<rect x="217" y="37" width="1" height="1" fill="#D9D9D9" fill-opacity="0.15"/>
<rect x="109" y="37" width="1" height="1" fill="#D9D9D9" fill-opacity="0.15"/>
<rect x="325" y="37" width="1" height="1" fill="#D9D9D9" fill-opacity="0.15"/>
<rect x="1" y="1" width="1" height="1" fill="#D9D9D9" fill-opacity="0.15"/>
<rect x="217" y="1" width="1" height="1" fill="#D9D9D9" fill-opacity="0.15"/>
<rect x="109" y="1" width="1" height="1" fill="#D9D9D9" fill-opacity="0.15"/>
<rect x="325" y="1" width="1" height="1" fill="#D9D9D9" fill-opacity="0.15"/>
<rect x="199" y="37" width="1" height="1" fill="#D9D9D9" fill-opacity="0.15"/>
<rect x="91" y="37" width="1" height="1" fill="#D9D9D9" fill-opacity="0.15"/>
<rect x="307" y="37" width="1" height="1" fill="#D9D9D9" fill-opacity="0.15"/>
<rect x="199" y="1" width="1" height="1" fill="#D9D9D9" fill-opacity="0.15"/>
<rect x="91" y="1" width="1" height="1" fill="#D9D9D9" fill-opacity="0.15"/>
<rect x="307" y="1" width="1" height="1" fill="#D9D9D9" fill-opacity="0.15"/>
<rect x="10" y="37" width="1" height="1" fill="#D9D9D9" fill-opacity="0.15"/>
<rect x="226" y="37" width="1" height="1" fill="#D9D9D9" fill-opacity="0.15"/>
<rect x="118" y="37" width="1" height="1" fill="#D9D9D9" fill-opacity="0.15"/>
<rect x="334" y="37" width="1" height="1" fill="#D9D9D9" fill-opacity="0.15"/>
<rect x="10" y="1" width="1" height="1" fill="#D9D9D9" fill-opacity="0.15"/>
<rect x="226" y="1" width="1" height="1" fill="#D9D9D9" fill-opacity="0.15"/>
<rect x="118" y="1" width="1" height="1" fill="#D9D9D9" fill-opacity="0.15"/>
<rect x="334" y="1" width="1" height="1" fill="#D9D9D9" fill-opacity="0.15"/>
<rect x="208" y="37" width="1" height="1" fill="#D9D9D9" fill-opacity="0.15"/>
<rect x="100" y="37" width="1" height="1" fill="#D9D9D9" fill-opacity="0.15"/>
<rect x="316" y="37" width="1" height="1" fill="#D9D9D9" fill-opacity="0.15"/>
<rect x="208" y="1" width="1" height="1" fill="#D9D9D9" fill-opacity="0.15"/>
<rect x="100" y="1" width="1" height="1" fill="#D9D9D9" fill-opacity="0.15"/>
<rect x="316" y="1" width="1" height="1" fill="#D9D9D9" fill-opacity="0.15"/>
<rect x="19" y="37" width="1" height="1" fill="#D9D9D9" fill-opacity="0.15"/>
<rect x="235" y="37" width="1" height="1" fill="#D9D9D9" fill-opacity="0.15"/>
<rect x="127" y="37" width="1" height="1" fill="#D9D9D9" fill-opacity="0.15"/>
<rect x="343" y="37" width="1" height="1" fill="#D9D9D9" fill-opacity="0.15"/>
<rect x="19" y="1" width="1" height="1" fill="#D9D9D9" fill-opacity="0.15"/>
<rect x="235" y="1" width="1" height="1" fill="#D9D9D9" fill-opacity="0.15"/>
<rect x="127" y="1" width="1" height="1" fill="#D9D9D9" fill-opacity="0.15"/>
<rect x="343" y="1" width="1" height="1" fill="#D9D9D9" fill-opacity="0.15"/>
<rect x="28" y="37" width="1" height="1" fill="#D9D9D9" fill-opacity="0.15"/>
<rect x="244" y="37" width="1" height="1" fill="#D9D9D9" fill-opacity="0.15"/>
<rect x="136" y="37" width="1" height="1" fill="#D9D9D9" fill-opacity="0.15"/>
<rect x="28" y="1" width="1" height="1" fill="#D9D9D9" fill-opacity="0.15"/>
<rect x="244" y="1" width="1" height="1" fill="#D9D9D9" fill-opacity="0.15"/>
<rect x="136" y="1" width="1" height="1" fill="#D9D9D9" fill-opacity="0.15"/>
<rect x="55" y="37" width="1" height="1" fill="#D9D9D9" fill-opacity="0.15"/>
<rect x="271" y="37" width="1" height="1" fill="#D9D9D9" fill-opacity="0.15"/>
<rect x="163" y="37" width="1" height="1" fill="#D9D9D9" fill-opacity="0.15"/>
<rect x="55" y="1" width="1" height="1" fill="#D9D9D9" fill-opacity="0.15"/>
<rect x="271" y="1" width="1" height="1" fill="#D9D9D9" fill-opacity="0.15"/>
<rect x="163" y="1" width="1" height="1" fill="#D9D9D9" fill-opacity="0.15"/>
<rect x="37" y="37" width="1" height="1" fill="#D9D9D9" fill-opacity="0.15"/>
<rect x="253" y="37" width="1" height="1" fill="#D9D9D9" fill-opacity="0.15"/>
<rect x="145" y="37" width="1" height="1" fill="#D9D9D9" fill-opacity="0.15"/>
<rect x="37" y="1" width="1" height="1" fill="#D9D9D9" fill-opacity="0.15"/>
<rect x="253" y="1" width="1" height="1" fill="#D9D9D9" fill-opacity="0.15"/>
<rect x="145" y="1" width="1" height="1" fill="#D9D9D9" fill-opacity="0.15"/>
<rect x="64" y="37" width="1" height="1" fill="#D9D9D9" fill-opacity="0.15"/>
<rect x="280" y="37" width="1" height="1" fill="#D9D9D9" fill-opacity="0.15"/>
<rect x="172" y="37" width="1" height="1" fill="#D9D9D9" fill-opacity="0.15"/>
<rect x="64" y="1" width="1" height="1" fill="#D9D9D9" fill-opacity="0.15"/>
<rect x="280" y="1" width="1" height="1" fill="#D9D9D9" fill-opacity="0.15"/>
<rect x="172" y="1" width="1" height="1" fill="#D9D9D9" fill-opacity="0.15"/>
<rect x="46" y="37" width="1" height="1" fill="#D9D9D9" fill-opacity="0.15"/>
<rect x="262" y="37" width="1" height="1" fill="#D9D9D9" fill-opacity="0.15"/>
<rect x="154" y="37" width="1" height="1" fill="#D9D9D9" fill-opacity="0.15"/>
<rect x="46" y="1" width="1" height="1" fill="#D9D9D9" fill-opacity="0.15"/>
<rect x="262" y="1" width="1" height="1" fill="#D9D9D9" fill-opacity="0.15"/>
<rect x="154" y="1" width="1" height="1" fill="#D9D9D9" fill-opacity="0.15"/>
<rect x="73" y="37" width="1" height="1" fill="#D9D9D9" fill-opacity="0.15"/>
<rect x="289" y="37" width="1" height="1" fill="#D9D9D9" fill-opacity="0.15"/>
<rect x="181" y="37" width="1" height="1" fill="#D9D9D9" fill-opacity="0.15"/>
<rect x="73" y="1" width="1" height="1" fill="#D9D9D9" fill-opacity="0.15"/>
<rect x="289" y="1" width="1" height="1" fill="#D9D9D9" fill-opacity="0.15"/>
<rect x="181" y="1" width="1" height="1" fill="#D9D9D9" fill-opacity="0.15"/>
<path d="M299 91L304.5 96.5" stroke="white" stroke-opacity="0.2"/>
<path d="M304.5 91L299 96.5" stroke="white" stroke-opacity="0.2"/>
<path d="M309 91L314.5 96.5" stroke="white" stroke-opacity="0.2"/>
<path d="M314.5 91L309 96.5" stroke="white" stroke-opacity="0.2"/>
<path d="M319 91L324.5 96.5" stroke="white" stroke-opacity="0.2"/>
<path d="M324.5 91L319 96.5" stroke="white" stroke-opacity="0.2"/>
<path opacity="0.4" d="M351 103L351 116L347 119L347 100L351 103Z" fill="white"/>
<path d="M351 103L351 104L347 101L347 100L351 103Z" fill="#FFFB00"/>
<path d="M351 101L351 102L347 99L347 98L351 101Z" fill="#FFFB00"/>
<path d="M351 99L351 100L347 97L347 96L351 99Z" fill="#FFFB00"/>
<path d="M351 97L351 98L347 95L347 94L351 97Z" fill="#FFFB00"/>
</g>
<path d="M351 4L351 39L347 36L347 1L351 4Z" fill="#FFFB00"/>
<path d="M1 7V1H7" stroke="#FFFB00" stroke-width="2"/>
<defs>
<filter id="filter0_b_21_2263" x="-10" y="-10" width="371" height="134" filterUnits="userSpaceOnUse" color-interpolation-filters="sRGB">
<feFlood flood-opacity="0" result="BackgroundImageFix"/>
<feGaussianBlur in="BackgroundImageFix" stdDeviation="5"/>
<feComposite in2="SourceAlpha" operator="in" result="effect1_backgroundBlur_21_2263"/>
<feBlend mode="normal" in="SourceGraphic" in2="effect1_backgroundBlur_21_2263" result="shape"/>
</filter>
<clipPath id="clip0_21_2263">
<rect width="351" height="114" fill="white"/>
</clipPath>
</defs>
</svg>
