<svg width="351" height="126" viewBox="0 0 351 126" fill="none" xmlns="http://www.w3.org/2000/svg">
<g clip-path="url(#clip0_167_166)">
<rect width="351" height="114" transform="translate(0 12)" fill="white" fill-opacity="0.04"/>
<path d="M3 13H347" stroke="#FFFB00" stroke-opacity="0.2"/>
<path opacity="0.2" fill-rule="evenodd" clip-rule="evenodd" d="M16 15H3V16.1609H16V15ZM16 66.0805H3V67.2414H16V66.0805ZM3 17.3218H16V20.8046H3V17.3218ZM16 68.4023H3V71.8851H16V68.4023ZM3 21.9655H16V24.2874H3V21.9655ZM16 74.2069H3V76.5287H16V74.2069ZM3 27.7701H16V32.4138H3V27.7701ZM16 78.8506H3V83.4943H16V78.8506ZM3 33.5747H16V34.7356H3V33.5747ZM16 84.6552H3V85.8161H16V84.6552ZM3 37.0575H16V38.2184H3V37.0575ZM16 88.1379H3V89.2989H16V88.1379ZM3 39.3793H16V41.7011H3V39.3793ZM16 90.4598H3V92.7816H16V90.4598ZM3 42.8621H16V44.023H3V42.8621ZM16 93.9425H3V95.1034H16V93.9425ZM3 45.1839H16V46.3448H3V45.1839ZM16 96.2644H3V97.4253H16V96.2644ZM3 49.8276H16V53.3103H3V49.8276ZM16 100.908H3V104.391H16V100.908ZM3 60.2759H16V61.4368H3V60.2759ZM16 111.356H3V112.517H16V111.356ZM3 63.7586H16V64.9195H3V63.7586ZM16 114.839H3V116H16V114.839ZM3 54.4713H16V56.7931H3V54.4713ZM16 105.552H3V107.874H16V105.552Z" fill="#FFFB00"/>
<path d="M100.85 110V103.232H97.4658V101.36H106.106V103.232H102.722V110H100.85ZM109.355 110C109.035 110 108.739 109.92 108.467 109.76C108.195 109.6 107.979 109.384 107.819 109.112C107.659 108.84 107.579 108.544 107.579 108.224V103.136C107.579 102.808 107.659 102.512 107.819 102.248C107.979 101.976 108.195 101.76 108.467 101.6C108.739 101.44 109.035 101.36 109.355 101.36H114.443C114.763 101.36 115.055 101.44 115.319 101.6C115.591 101.76 115.807 101.976 115.967 102.248C116.135 102.512 116.219 102.808 116.219 103.136V108.224C116.219 108.544 116.135 108.84 115.967 109.112C115.807 109.384 115.591 109.6 115.319 109.76C115.055 109.92 114.763 110 114.443 110H109.355ZM109.439 108.128H114.335V103.232H109.439V108.128ZM123.76 110C123.44 110 123.144 109.92 122.872 109.76C122.6 109.6 122.384 109.384 122.224 109.112C122.064 108.84 121.984 108.544 121.984 108.224V107.108H123.844V108.128L128.74 108.128V101.36H130.624V108.224C130.624 108.544 130.54 108.84 130.372 109.112C130.212 109.384 129.996 109.6 129.724 109.76C129.46 109.92 129.168 110 128.848 110L123.76 110ZM134.323 110C134.003 110 133.707 109.92 133.435 109.76C133.163 109.6 132.947 109.384 132.787 109.112C132.627 108.84 132.547 108.544 132.547 108.224V103.136C132.547 102.808 132.627 102.512 132.787 102.248C132.947 101.976 133.163 101.76 133.435 101.6C133.707 101.44 134.003 101.36 134.323 101.36H139.411C139.731 101.36 140.023 101.44 140.287 101.6C140.559 101.76 140.775 101.976 140.935 102.248C141.103 102.512 141.187 102.808 141.187 103.136V108.224C141.187 108.544 141.103 108.84 140.935 109.112C140.775 109.384 140.559 109.6 140.287 109.76C140.023 109.92 139.731 110 139.411 110H134.323ZM134.407 108.128H139.303V103.232H134.407V108.128ZM142.809 110V101.36H144.645V110H142.809ZM146.275 110V101.36H148.195L153.031 107.12V101.36H154.915V110H152.995L148.135 104.216V110H146.275ZM161.351 110V101.36H169.331V103.232H163.235V104.744H168.143V106.616H163.235V110H161.351ZM170.299 110V101.36H172.135V110H170.299ZM175.541 110C175.221 110 174.925 109.92 174.653 109.76C174.381 109.6 174.165 109.384 174.005 109.112C173.845 108.84 173.765 108.544 173.765 108.224V103.136C173.765 102.808 173.845 102.512 174.005 102.248C174.165 101.976 174.381 101.76 174.653 101.6C174.925 101.44 175.221 101.36 175.541 101.36H180.617C180.945 101.36 181.241 101.44 181.505 101.6C181.777 101.76 181.993 101.976 182.153 102.248C182.321 102.512 182.405 102.808 182.405 103.136V103.952H180.521V103.232H175.625V108.128H180.521V106.832H178.649V104.96H182.405V108.224C182.405 108.544 182.321 108.84 182.153 109.112C181.993 109.384 181.777 109.6 181.505 109.76C181.241 109.92 180.945 110 180.617 110H175.541ZM184.338 110V101.36H186.198V104.744H191.298V101.36H193.158V110H191.298V106.616H186.198V110H184.338ZM198.085 110V103.232H194.701V101.36H203.341V103.232H199.957V110H198.085ZM211.082 110C210.754 110 210.454 109.92 210.182 109.76C209.918 109.6 209.706 109.388 209.546 109.124C209.386 108.852 209.306 108.552 209.306 108.224V103.136C209.306 102.808 209.386 102.512 209.546 102.248C209.706 101.976 209.918 101.76 210.182 101.6C210.454 101.44 210.754 101.36 211.082 101.36H217.922V103.232H211.562C211.434 103.232 211.334 103.264 211.262 103.328C211.198 103.392 211.166 103.492 211.166 103.628V107.732C211.166 107.86 211.198 107.96 211.262 108.032C211.334 108.096 211.434 108.128 211.562 108.128H217.922V110H211.082ZM219.785 110V101.348H221.645V108.128H228.425V110H219.785ZM231.476 110C231.156 110 230.86 109.92 230.588 109.76C230.316 109.6 230.1 109.384 229.94 109.112C229.78 108.84 229.7 108.544 229.7 108.224V101.36H231.56V108.128H236.456V101.36H238.34V108.224C238.34 108.544 238.256 108.84 238.088 109.112C237.928 109.384 237.712 109.6 237.44 109.76C237.176 109.92 236.884 110 236.564 110H231.476ZM240.298 110V101.36H246.826C247.146 101.36 247.438 101.44 247.702 101.6C247.974 101.76 248.19 101.976 248.35 102.248C248.518 102.512 248.602 102.808 248.602 103.136V104.756C248.602 104.86 248.594 104.96 248.578 105.056C248.57 105.144 248.55 105.228 248.518 105.308C248.638 105.46 248.738 105.636 248.818 105.836C248.898 106.036 248.938 106.236 248.938 106.436V108.224C248.938 108.544 248.854 108.84 248.686 109.112C248.526 109.384 248.31 109.6 248.038 109.76C247.774 109.92 247.478 110 247.15 110H240.298ZM242.158 108.128H247.054V106.544H242.158V108.128ZM242.158 104.672H246.718V103.232H242.158V104.672Z" fill="#4BFFF6"/>
<path opacity="0.2" d="M3 116L53.1096 116L59.0038 126L292.109 126L298.003 116L351 116" stroke="#FFFB00" stroke-width="2"/>
<rect x="190" y="40" width="1" height="1" fill="#D9D9D9" fill-opacity="0.15"/>
<rect x="82" y="40" width="1" height="1" fill="#D9D9D9" fill-opacity="0.15"/>
<rect x="298" y="40" width="1" height="1" fill="#D9D9D9" fill-opacity="0.15"/>
<rect x="1" y="40" width="1" height="1" fill="#D9D9D9" fill-opacity="0.15"/>
<rect x="217" y="40" width="1" height="1" fill="#D9D9D9" fill-opacity="0.15"/>
<rect x="109" y="40" width="1" height="1" fill="#D9D9D9" fill-opacity="0.15"/>
<rect x="325" y="40" width="1" height="1" fill="#D9D9D9" fill-opacity="0.15"/>
<rect x="199" y="40" width="1" height="1" fill="#D9D9D9" fill-opacity="0.15"/>
<rect x="91" y="40" width="1" height="1" fill="#D9D9D9" fill-opacity="0.15"/>
<rect x="307" y="40" width="1" height="1" fill="#D9D9D9" fill-opacity="0.15"/>
<rect x="10" y="40" width="1" height="1" fill="#D9D9D9" fill-opacity="0.15"/>
<rect x="226" y="40" width="1" height="1" fill="#D9D9D9" fill-opacity="0.15"/>
<rect x="118" y="40" width="1" height="1" fill="#D9D9D9" fill-opacity="0.15"/>
<rect x="334" y="40" width="1" height="1" fill="#D9D9D9" fill-opacity="0.15"/>
<rect x="208" y="40" width="1" height="1" fill="#D9D9D9" fill-opacity="0.15"/>
<rect x="100" y="40" width="1" height="1" fill="#D9D9D9" fill-opacity="0.15"/>
<rect x="316" y="40" width="1" height="1" fill="#D9D9D9" fill-opacity="0.15"/>
<rect x="19" y="40" width="1" height="1" fill="#D9D9D9" fill-opacity="0.15"/>
<rect x="235" y="40" width="1" height="1" fill="#D9D9D9" fill-opacity="0.15"/>
<rect x="127" y="40" width="1" height="1" fill="#D9D9D9" fill-opacity="0.15"/>
<rect x="343" y="40" width="1" height="1" fill="#D9D9D9" fill-opacity="0.15"/>
<rect x="28" y="40" width="1" height="1" fill="#D9D9D9" fill-opacity="0.15"/>
<rect x="244" y="40" width="1" height="1" fill="#D9D9D9" fill-opacity="0.15"/>
<rect x="136" y="40" width="1" height="1" fill="#D9D9D9" fill-opacity="0.15"/>
<rect x="55" y="40" width="1" height="1" fill="#D9D9D9" fill-opacity="0.15"/>
<rect x="271" y="40" width="1" height="1" fill="#D9D9D9" fill-opacity="0.15"/>
<rect x="163" y="40" width="1" height="1" fill="#D9D9D9" fill-opacity="0.15"/>
<rect x="37" y="40" width="1" height="1" fill="#D9D9D9" fill-opacity="0.15"/>
<rect x="253" y="40" width="1" height="1" fill="#D9D9D9" fill-opacity="0.15"/>
<rect x="145" y="40" width="1" height="1" fill="#D9D9D9" fill-opacity="0.15"/>
<rect x="64" y="40" width="1" height="1" fill="#D9D9D9" fill-opacity="0.15"/>
<rect x="280" y="40" width="1" height="1" fill="#D9D9D9" fill-opacity="0.15"/>
<rect x="172" y="40" width="1" height="1" fill="#D9D9D9" fill-opacity="0.15"/>
<rect x="46" y="40" width="1" height="1" fill="#D9D9D9" fill-opacity="0.15"/>
<rect x="262" y="40" width="1" height="1" fill="#D9D9D9" fill-opacity="0.15"/>
<rect x="154" y="40" width="1" height="1" fill="#D9D9D9" fill-opacity="0.15"/>
<rect x="73" y="40" width="1" height="1" fill="#D9D9D9" fill-opacity="0.15"/>
<rect x="289" y="40" width="1" height="1" fill="#D9D9D9" fill-opacity="0.15"/>
<rect x="181" y="40" width="1" height="1" fill="#D9D9D9" fill-opacity="0.15"/>
<rect x="190" y="31" width="1" height="1" fill="#D9D9D9" fill-opacity="0.15"/>
<rect x="82" y="31" width="1" height="1" fill="#D9D9D9" fill-opacity="0.15"/>
<rect x="298" y="31" width="1" height="1" fill="#D9D9D9" fill-opacity="0.15"/>
<rect x="1" y="31" width="1" height="1" fill="#D9D9D9" fill-opacity="0.15"/>
<rect x="217" y="31" width="1" height="1" fill="#D9D9D9" fill-opacity="0.15"/>
<rect x="109" y="31" width="1" height="1" fill="#D9D9D9" fill-opacity="0.15"/>
<rect x="325" y="31" width="1" height="1" fill="#D9D9D9" fill-opacity="0.15"/>
<rect x="199" y="31" width="1" height="1" fill="#D9D9D9" fill-opacity="0.15"/>
<rect x="91" y="31" width="1" height="1" fill="#D9D9D9" fill-opacity="0.15"/>
<rect x="307" y="31" width="1" height="1" fill="#D9D9D9" fill-opacity="0.15"/>
<rect x="10" y="31" width="1" height="1" fill="#D9D9D9" fill-opacity="0.15"/>
<rect x="226" y="31" width="1" height="1" fill="#D9D9D9" fill-opacity="0.15"/>
<rect x="118" y="31" width="1" height="1" fill="#D9D9D9" fill-opacity="0.15"/>
<rect x="334" y="31" width="1" height="1" fill="#D9D9D9" fill-opacity="0.15"/>
<rect x="208" y="31" width="1" height="1" fill="#D9D9D9" fill-opacity="0.15"/>
<rect x="100" y="31" width="1" height="1" fill="#D9D9D9" fill-opacity="0.15"/>
<rect x="316" y="31" width="1" height="1" fill="#D9D9D9" fill-opacity="0.15"/>
<rect x="19" y="31" width="1" height="1" fill="#D9D9D9" fill-opacity="0.15"/>
<rect x="235" y="31" width="1" height="1" fill="#D9D9D9" fill-opacity="0.15"/>
<rect x="127" y="31" width="1" height="1" fill="#D9D9D9" fill-opacity="0.15"/>
<rect x="343" y="31" width="1" height="1" fill="#D9D9D9" fill-opacity="0.15"/>
<rect x="28" y="31" width="1" height="1" fill="#D9D9D9" fill-opacity="0.15"/>
<rect x="244" y="31" width="1" height="1" fill="#D9D9D9" fill-opacity="0.15"/>
<rect x="136" y="31" width="1" height="1" fill="#D9D9D9" fill-opacity="0.15"/>
<rect x="55" y="31" width="1" height="1" fill="#D9D9D9" fill-opacity="0.15"/>
<rect x="271" y="31" width="1" height="1" fill="#D9D9D9" fill-opacity="0.15"/>
<rect x="163" y="31" width="1" height="1" fill="#D9D9D9" fill-opacity="0.15"/>
<rect x="37" y="31" width="1" height="1" fill="#D9D9D9" fill-opacity="0.15"/>
<rect x="253" y="31" width="1" height="1" fill="#D9D9D9" fill-opacity="0.15"/>
<rect x="145" y="31" width="1" height="1" fill="#D9D9D9" fill-opacity="0.15"/>
<rect x="64" y="31" width="1" height="1" fill="#D9D9D9" fill-opacity="0.15"/>
<rect x="280" y="31" width="1" height="1" fill="#D9D9D9" fill-opacity="0.15"/>
<rect x="172" y="31" width="1" height="1" fill="#D9D9D9" fill-opacity="0.15"/>
<rect x="46" y="31" width="1" height="1" fill="#D9D9D9" fill-opacity="0.15"/>
<rect x="262" y="31" width="1" height="1" fill="#D9D9D9" fill-opacity="0.15"/>
<rect x="154" y="31" width="1" height="1" fill="#D9D9D9" fill-opacity="0.15"/>
<rect x="73" y="31" width="1" height="1" fill="#D9D9D9" fill-opacity="0.15"/>
<rect x="289" y="31" width="1" height="1" fill="#D9D9D9" fill-opacity="0.15"/>
<rect x="181" y="31" width="1" height="1" fill="#D9D9D9" fill-opacity="0.15"/>
<rect x="190" y="58" width="1" height="1" fill="#D9D9D9" fill-opacity="0.15"/>
<rect x="82" y="58" width="1" height="1" fill="#D9D9D9" fill-opacity="0.15"/>
<rect x="298" y="58" width="1" height="1" fill="#D9D9D9" fill-opacity="0.15"/>
<rect x="190" y="22" width="1" height="1" fill="#D9D9D9" fill-opacity="0.15"/>
<rect x="82" y="22" width="1" height="1" fill="#D9D9D9" fill-opacity="0.15"/>
<rect x="298" y="22" width="1" height="1" fill="#D9D9D9" fill-opacity="0.15"/>
<rect x="1" y="58" width="1" height="1" fill="#D9D9D9" fill-opacity="0.15"/>
<rect x="217" y="58" width="1" height="1" fill="#D9D9D9" fill-opacity="0.15"/>
<rect x="109" y="58" width="1" height="1" fill="#D9D9D9" fill-opacity="0.15"/>
<rect x="325" y="58" width="1" height="1" fill="#D9D9D9" fill-opacity="0.15"/>
<rect x="1" y="22" width="1" height="1" fill="#D9D9D9" fill-opacity="0.15"/>
<rect x="217" y="22" width="1" height="1" fill="#D9D9D9" fill-opacity="0.15"/>
<rect x="109" y="22" width="1" height="1" fill="#D9D9D9" fill-opacity="0.15"/>
<rect x="325" y="22" width="1" height="1" fill="#D9D9D9" fill-opacity="0.15"/>
<rect x="199" y="58" width="1" height="1" fill="#D9D9D9" fill-opacity="0.15"/>
<rect x="91" y="58" width="1" height="1" fill="#D9D9D9" fill-opacity="0.15"/>
<rect x="307" y="58" width="1" height="1" fill="#D9D9D9" fill-opacity="0.15"/>
<rect x="199" y="22" width="1" height="1" fill="#D9D9D9" fill-opacity="0.15"/>
<rect x="91" y="22" width="1" height="1" fill="#D9D9D9" fill-opacity="0.15"/>
<rect x="307" y="22" width="1" height="1" fill="#D9D9D9" fill-opacity="0.15"/>
<rect x="10" y="58" width="1" height="1" fill="#D9D9D9" fill-opacity="0.15"/>
<rect x="226" y="58" width="1" height="1" fill="#D9D9D9" fill-opacity="0.15"/>
<rect x="118" y="58" width="1" height="1" fill="#D9D9D9" fill-opacity="0.15"/>
<rect x="334" y="58" width="1" height="1" fill="#D9D9D9" fill-opacity="0.15"/>
<rect x="10" y="22" width="1" height="1" fill="#D9D9D9" fill-opacity="0.15"/>
<rect x="226" y="22" width="1" height="1" fill="#D9D9D9" fill-opacity="0.15"/>
<rect x="118" y="22" width="1" height="1" fill="#D9D9D9" fill-opacity="0.15"/>
<rect x="334" y="22" width="1" height="1" fill="#D9D9D9" fill-opacity="0.15"/>
<rect x="208" y="58" width="1" height="1" fill="#D9D9D9" fill-opacity="0.15"/>
<rect x="100" y="58" width="1" height="1" fill="#D9D9D9" fill-opacity="0.15"/>
<rect x="316" y="58" width="1" height="1" fill="#D9D9D9" fill-opacity="0.15"/>
<rect x="208" y="22" width="1" height="1" fill="#D9D9D9" fill-opacity="0.15"/>
<rect x="100" y="22" width="1" height="1" fill="#D9D9D9" fill-opacity="0.15"/>
<rect x="316" y="22" width="1" height="1" fill="#D9D9D9" fill-opacity="0.15"/>
<rect x="19" y="58" width="1" height="1" fill="#D9D9D9" fill-opacity="0.15"/>
<rect x="235" y="58" width="1" height="1" fill="#D9D9D9" fill-opacity="0.15"/>
<rect x="127" y="58" width="1" height="1" fill="#D9D9D9" fill-opacity="0.15"/>
<rect x="343" y="58" width="1" height="1" fill="#D9D9D9" fill-opacity="0.15"/>
<rect x="19" y="22" width="1" height="1" fill="#D9D9D9" fill-opacity="0.15"/>
<rect x="235" y="22" width="1" height="1" fill="#D9D9D9" fill-opacity="0.15"/>
<rect x="127" y="22" width="1" height="1" fill="#D9D9D9" fill-opacity="0.15"/>
<rect x="343" y="22" width="1" height="1" fill="#D9D9D9" fill-opacity="0.15"/>
<rect x="28" y="58" width="1" height="1" fill="#D9D9D9" fill-opacity="0.15"/>
<rect x="244" y="58" width="1" height="1" fill="#D9D9D9" fill-opacity="0.15"/>
<rect x="136" y="58" width="1" height="1" fill="#D9D9D9" fill-opacity="0.15"/>
<rect x="28" y="22" width="1" height="1" fill="#D9D9D9" fill-opacity="0.15"/>
<rect x="244" y="22" width="1" height="1" fill="#D9D9D9" fill-opacity="0.15"/>
<rect x="136" y="22" width="1" height="1" fill="#D9D9D9" fill-opacity="0.15"/>
<rect x="55" y="58" width="1" height="1" fill="#D9D9D9" fill-opacity="0.15"/>
<rect x="271" y="58" width="1" height="1" fill="#D9D9D9" fill-opacity="0.15"/>
<rect x="163" y="58" width="1" height="1" fill="#D9D9D9" fill-opacity="0.15"/>
<rect x="55" y="22" width="1" height="1" fill="#D9D9D9" fill-opacity="0.15"/>
<rect x="271" y="22" width="1" height="1" fill="#D9D9D9" fill-opacity="0.15"/>
<rect x="163" y="22" width="1" height="1" fill="#D9D9D9" fill-opacity="0.15"/>
<rect x="37" y="58" width="1" height="1" fill="#D9D9D9" fill-opacity="0.15"/>
<rect x="253" y="58" width="1" height="1" fill="#D9D9D9" fill-opacity="0.15"/>
<rect x="145" y="58" width="1" height="1" fill="#D9D9D9" fill-opacity="0.15"/>
<rect x="37" y="22" width="1" height="1" fill="#D9D9D9" fill-opacity="0.15"/>
<rect x="253" y="22" width="1" height="1" fill="#D9D9D9" fill-opacity="0.15"/>
<rect x="145" y="22" width="1" height="1" fill="#D9D9D9" fill-opacity="0.15"/>
<rect x="64" y="58" width="1" height="1" fill="#D9D9D9" fill-opacity="0.15"/>
<rect x="280" y="58" width="1" height="1" fill="#D9D9D9" fill-opacity="0.15"/>
<rect x="172" y="58" width="1" height="1" fill="#D9D9D9" fill-opacity="0.15"/>
<rect x="64" y="22" width="1" height="1" fill="#D9D9D9" fill-opacity="0.15"/>
<rect x="280" y="22" width="1" height="1" fill="#D9D9D9" fill-opacity="0.15"/>
<rect x="172" y="22" width="1" height="1" fill="#D9D9D9" fill-opacity="0.15"/>
<rect x="46" y="58" width="1" height="1" fill="#D9D9D9" fill-opacity="0.15"/>
<rect x="262" y="58" width="1" height="1" fill="#D9D9D9" fill-opacity="0.15"/>
<rect x="154" y="58" width="1" height="1" fill="#D9D9D9" fill-opacity="0.15"/>
<rect x="46" y="22" width="1" height="1" fill="#D9D9D9" fill-opacity="0.15"/>
<rect x="262" y="22" width="1" height="1" fill="#D9D9D9" fill-opacity="0.15"/>
<rect x="154" y="22" width="1" height="1" fill="#D9D9D9" fill-opacity="0.15"/>
<rect x="73" y="58" width="1" height="1" fill="#D9D9D9" fill-opacity="0.15"/>
<rect x="289" y="58" width="1" height="1" fill="#D9D9D9" fill-opacity="0.15"/>
<rect x="181" y="58" width="1" height="1" fill="#D9D9D9" fill-opacity="0.15"/>
<rect x="73" y="22" width="1" height="1" fill="#D9D9D9" fill-opacity="0.15"/>
<rect x="289" y="22" width="1" height="1" fill="#D9D9D9" fill-opacity="0.15"/>
<rect x="181" y="22" width="1" height="1" fill="#D9D9D9" fill-opacity="0.15"/>
<rect x="190" y="49" width="1" height="1" fill="#D9D9D9" fill-opacity="0.15"/>
<rect x="82" y="49" width="1" height="1" fill="#D9D9D9" fill-opacity="0.15"/>
<rect x="298" y="49" width="1" height="1" fill="#D9D9D9" fill-opacity="0.15"/>
<rect x="190" y="13" width="1" height="1" fill="#D9D9D9" fill-opacity="0.15"/>
<rect x="82" y="13" width="1" height="1" fill="#D9D9D9" fill-opacity="0.15"/>
<rect x="298" y="13" width="1" height="1" fill="#D9D9D9" fill-opacity="0.15"/>
<rect x="1" y="49" width="1" height="1" fill="#D9D9D9" fill-opacity="0.15"/>
<rect x="217" y="49" width="1" height="1" fill="#D9D9D9" fill-opacity="0.15"/>
<rect x="109" y="49" width="1" height="1" fill="#D9D9D9" fill-opacity="0.15"/>
<rect x="325" y="49" width="1" height="1" fill="#D9D9D9" fill-opacity="0.15"/>
<rect x="1" y="13" width="1" height="1" fill="#D9D9D9" fill-opacity="0.15"/>
<rect x="217" y="13" width="1" height="1" fill="#D9D9D9" fill-opacity="0.15"/>
<rect x="109" y="13" width="1" height="1" fill="#D9D9D9" fill-opacity="0.15"/>
<rect x="325" y="13" width="1" height="1" fill="#D9D9D9" fill-opacity="0.15"/>
<rect x="199" y="49" width="1" height="1" fill="#D9D9D9" fill-opacity="0.15"/>
<rect x="91" y="49" width="1" height="1" fill="#D9D9D9" fill-opacity="0.15"/>
<rect x="307" y="49" width="1" height="1" fill="#D9D9D9" fill-opacity="0.15"/>
<rect x="199" y="13" width="1" height="1" fill="#D9D9D9" fill-opacity="0.15"/>
<rect x="91" y="13" width="1" height="1" fill="#D9D9D9" fill-opacity="0.15"/>
<rect x="307" y="13" width="1" height="1" fill="#D9D9D9" fill-opacity="0.15"/>
<rect x="10" y="49" width="1" height="1" fill="#D9D9D9" fill-opacity="0.15"/>
<rect x="226" y="49" width="1" height="1" fill="#D9D9D9" fill-opacity="0.15"/>
<rect x="118" y="49" width="1" height="1" fill="#D9D9D9" fill-opacity="0.15"/>
<rect x="334" y="49" width="1" height="1" fill="#D9D9D9" fill-opacity="0.15"/>
<rect x="10" y="13" width="1" height="1" fill="#D9D9D9" fill-opacity="0.15"/>
<rect x="226" y="13" width="1" height="1" fill="#D9D9D9" fill-opacity="0.15"/>
<rect x="118" y="13" width="1" height="1" fill="#D9D9D9" fill-opacity="0.15"/>
<rect x="334" y="13" width="1" height="1" fill="#D9D9D9" fill-opacity="0.15"/>
<rect x="208" y="49" width="1" height="1" fill="#D9D9D9" fill-opacity="0.15"/>
<rect x="100" y="49" width="1" height="1" fill="#D9D9D9" fill-opacity="0.15"/>
<rect x="316" y="49" width="1" height="1" fill="#D9D9D9" fill-opacity="0.15"/>
<rect x="208" y="13" width="1" height="1" fill="#D9D9D9" fill-opacity="0.15"/>
<rect x="100" y="13" width="1" height="1" fill="#D9D9D9" fill-opacity="0.15"/>
<rect x="316" y="13" width="1" height="1" fill="#D9D9D9" fill-opacity="0.15"/>
<rect x="19" y="49" width="1" height="1" fill="#D9D9D9" fill-opacity="0.15"/>
<rect x="235" y="49" width="1" height="1" fill="#D9D9D9" fill-opacity="0.15"/>
<rect x="127" y="49" width="1" height="1" fill="#D9D9D9" fill-opacity="0.15"/>
<rect x="343" y="49" width="1" height="1" fill="#D9D9D9" fill-opacity="0.15"/>
<rect x="19" y="13" width="1" height="1" fill="#D9D9D9" fill-opacity="0.15"/>
<rect x="235" y="13" width="1" height="1" fill="#D9D9D9" fill-opacity="0.15"/>
<rect x="127" y="13" width="1" height="1" fill="#D9D9D9" fill-opacity="0.15"/>
<rect x="343" y="13" width="1" height="1" fill="#D9D9D9" fill-opacity="0.15"/>
<rect x="28" y="49" width="1" height="1" fill="#D9D9D9" fill-opacity="0.15"/>
<rect x="244" y="49" width="1" height="1" fill="#D9D9D9" fill-opacity="0.15"/>
<rect x="136" y="49" width="1" height="1" fill="#D9D9D9" fill-opacity="0.15"/>
<rect x="28" y="13" width="1" height="1" fill="#D9D9D9" fill-opacity="0.15"/>
<rect x="244" y="13" width="1" height="1" fill="#D9D9D9" fill-opacity="0.15"/>
<rect x="136" y="13" width="1" height="1" fill="#D9D9D9" fill-opacity="0.15"/>
<rect x="55" y="49" width="1" height="1" fill="#D9D9D9" fill-opacity="0.15"/>
<rect x="271" y="49" width="1" height="1" fill="#D9D9D9" fill-opacity="0.15"/>
<rect x="163" y="49" width="1" height="1" fill="#D9D9D9" fill-opacity="0.15"/>
<rect x="55" y="13" width="1" height="1" fill="#D9D9D9" fill-opacity="0.15"/>
<rect x="271" y="13" width="1" height="1" fill="#D9D9D9" fill-opacity="0.15"/>
<rect x="163" y="13" width="1" height="1" fill="#D9D9D9" fill-opacity="0.15"/>
<rect x="37" y="49" width="1" height="1" fill="#D9D9D9" fill-opacity="0.15"/>
<rect x="253" y="49" width="1" height="1" fill="#D9D9D9" fill-opacity="0.15"/>
<rect x="145" y="49" width="1" height="1" fill="#D9D9D9" fill-opacity="0.15"/>
<rect x="37" y="13" width="1" height="1" fill="#D9D9D9" fill-opacity="0.15"/>
<rect x="253" y="13" width="1" height="1" fill="#D9D9D9" fill-opacity="0.15"/>
<rect x="145" y="13" width="1" height="1" fill="#D9D9D9" fill-opacity="0.15"/>
<rect x="64" y="49" width="1" height="1" fill="#D9D9D9" fill-opacity="0.15"/>
<rect x="280" y="49" width="1" height="1" fill="#D9D9D9" fill-opacity="0.15"/>
<rect x="172" y="49" width="1" height="1" fill="#D9D9D9" fill-opacity="0.15"/>
<rect x="64" y="13" width="1" height="1" fill="#D9D9D9" fill-opacity="0.15"/>
<rect x="280" y="13" width="1" height="1" fill="#D9D9D9" fill-opacity="0.15"/>
<rect x="172" y="13" width="1" height="1" fill="#D9D9D9" fill-opacity="0.15"/>
<rect x="46" y="49" width="1" height="1" fill="#D9D9D9" fill-opacity="0.15"/>
<rect x="262" y="49" width="1" height="1" fill="#D9D9D9" fill-opacity="0.15"/>
<rect x="154" y="49" width="1" height="1" fill="#D9D9D9" fill-opacity="0.15"/>
<rect x="46" y="13" width="1" height="1" fill="#D9D9D9" fill-opacity="0.15"/>
<rect x="262" y="13" width="1" height="1" fill="#D9D9D9" fill-opacity="0.15"/>
<rect x="154" y="13" width="1" height="1" fill="#D9D9D9" fill-opacity="0.15"/>
<rect x="73" y="49" width="1" height="1" fill="#D9D9D9" fill-opacity="0.15"/>
<rect x="289" y="49" width="1" height="1" fill="#D9D9D9" fill-opacity="0.15"/>
<rect x="181" y="49" width="1" height="1" fill="#D9D9D9" fill-opacity="0.15"/>
<rect x="73" y="13" width="1" height="1" fill="#D9D9D9" fill-opacity="0.15"/>
<rect x="289" y="13" width="1" height="1" fill="#D9D9D9" fill-opacity="0.15"/>
<rect x="181" y="13" width="1" height="1" fill="#D9D9D9" fill-opacity="0.15"/>
<path d="M299 103L304.5 108.5" stroke="white" stroke-opacity="0.2"/>
<path d="M304.5 103L299 108.5" stroke="white" stroke-opacity="0.2"/>
<path d="M309 103L314.5 108.5" stroke="white" stroke-opacity="0.2"/>
<path d="M314.5 103L309 108.5" stroke="white" stroke-opacity="0.2"/>
<path d="M319 103L324.5 108.5" stroke="white" stroke-opacity="0.2"/>
<path d="M324.5 103L319 108.5" stroke="white" stroke-opacity="0.2"/>
<path opacity="0.4" d="M351 75L351 88L347 91L347 72L351 75Z" fill="white"/>
<path d="M351 75L351 76L347 73L347 72L351 75Z" fill="#FFFB00"/>
<path d="M351 73L351 74L347 71L347 70L351 73Z" fill="#FFFB00"/>
<path d="M351 71L351 72L347 69L347 68L351 71Z" fill="#FFFB00"/>
<path d="M351 69L351 70L347 67L347 66L351 69Z" fill="#FFFB00"/>
<path fill-rule="evenodd" clip-rule="evenodd" d="M156.999 44.4706L173 33L189.001 44.4706L178.838 52.1146H177.377C177.147 51.5823 176.617 51.2098 176 51.2098C175.172 51.2098 174.5 51.8813 174.5 52.7098C174.5 53.5382 175.172 54.2098 176 54.2098C176.688 54.2098 177.268 53.7464 177.445 53.1146H179.162L189.851 45.08L201 53.0721L194.494 72.6654L181.762 63.0952H181.045C180.868 62.4634 180.288 62 179.6 62C178.772 62 178.1 62.6716 178.1 63.5C178.1 64.3284 178.772 65 179.6 65C180.217 65 180.747 64.6275 180.977 64.0952H181.438L194.162 73.6653L190.233 85.5H155.767L151.838 73.6653L164.562 64.0952H165.023C165.253 64.6275 165.783 65 166.4 65C167.228 65 167.9 64.3284 167.9 63.5C167.9 62.6716 167.228 62 166.4 62C165.712 62 165.132 62.4634 164.955 63.0952H164.238L151.506 72.6654L145 53.0721L156.149 45.08L166.838 53.1146H168.555C168.732 53.7464 169.312 54.2098 170 54.2098C170.828 54.2098 171.5 53.5382 171.5 52.7098C171.5 51.8813 170.828 51.2098 170 51.2098C169.383 51.2098 168.853 51.5823 168.623 52.1146H167.162L156.999 44.4706ZM188.87 84.5L173.05 73.0861L173 73.1281L172.95 73.0861L157.13 84.5H188.87ZM173 71.8171L188.5 83L186.55 69.1812L185.42 68.3314L187.182 80.8159L173.578 71.0011L184.243 67.4461L183.272 66.7157L173 70.1396L162.728 66.7157L161.757 67.4461L172.422 71.0011L158.818 80.8159L160.58 68.3314L159.45 69.1812L157.5 83L173 71.8171ZM173 38.1199L179.537 50.3378L180.345 49.7295L173 36L165.655 49.7295L166.463 50.3378L173 38.1199ZM165.21 53.1417L161.946 63.5563L160.576 64.5868L164.362 52.5042L165.21 53.1417ZM150.226 55.3704L159.769 65.1928L158.964 65.7985L147.5 54L163.002 51.4825L164.111 52.3157L150.733 54.4881L157.492 56.8359C157.767 56.4924 158.19 56.2723 158.664 56.2723C159.492 56.2723 160.164 56.9438 160.164 57.7723C160.164 58.6007 159.492 59.2723 158.664 59.2723C157.838 59.2723 157.168 58.6052 157.164 57.7806L150.226 55.3704ZM146.479 54.3839L158.158 66.4041L152.015 71.0214L146.479 54.3839ZM156.344 84.0323L153.014 74.0221L158.32 70.0309L156.344 84.0323ZM164.846 49.1214L172.696 34.4482L158.688 44.4899L164.846 49.1214ZM156.135 46.3204L161.894 50.6494L146.641 53.1264L156.135 46.3204ZM180.79 53.1417L184.054 63.5563L185.424 64.5868L181.638 52.5042L180.79 53.1417ZM195.774 55.3704L186.231 65.1928L187.036 65.7985L198.5 54L182.998 51.4825L181.889 52.3157L195.267 54.4881L188.508 56.8359C188.233 56.4924 187.81 56.2723 187.336 56.2723C186.508 56.2723 185.836 56.9438 185.836 57.7723C185.836 58.6007 186.508 59.2723 187.336 59.2723C188.162 59.2723 188.832 58.6052 188.836 57.7806L195.774 55.3704ZM199.521 54.3839L187.842 66.4041L193.985 71.0214L199.521 54.3839ZM189.656 84.0323L192.986 74.0221L187.68 70.0309L189.656 84.0323ZM181.154 49.1214L173.304 34.4482L187.312 44.4899L181.154 49.1214ZM189.865 46.3204L184.106 50.6494L199.359 53.1264L189.865 46.3204Z" fill="#4BFFF6"/>
</g>
<path d="M166 2H186" stroke="#FFFB00" stroke-width="2"/>
<path d="M169 4H183" stroke="#FFFB00" stroke-width="2"/>
<path fill-rule="evenodd" clip-rule="evenodd" d="M158.686 1L82 1.176V21.0601L88.6542 25H91.1707V24H93.4634V25H96.9024V24H98.0488V25H99.1951V24H108.366V25H109.512V24H112.951V25H263.363V24.805L263.506 24.8977L270 21.0601V1.176L193.314 1L187.288 5.52776H164.712L158.686 1Z" fill="#9AA011"/>
<path d="M82 1.176L81.9989 0.675997L81.5 0.677141V1.176H82ZM158.686 1L158.986 0.600256L158.852 0.499617L158.685 0.500001L158.686 1ZM82 21.0601H81.5V21.3451L81.7453 21.4903L82 21.0601ZM88.6542 25L88.3995 25.4302L88.5173 25.5H88.6542V25ZM91.1707 25V25.5H91.6707V25H91.1707ZM91.1707 24V23.5H90.6707V24H91.1707ZM93.4634 24H93.9634V23.5H93.4634V24ZM93.4634 25H92.9634V25.5H93.4634V25ZM96.9024 25V25.5H97.4024V25H96.9024ZM96.9024 24V23.5H96.4024V24H96.9024ZM98.0488 24H98.5488V23.5H98.0488V24ZM98.0488 25H97.5488V25.5H98.0488V25ZM99.1951 25V25.5H99.6951V25H99.1951ZM99.1951 24V23.5H98.6951V24H99.1951ZM108.366 24H108.866V23.5H108.366V24ZM108.366 25H107.866V25.5H108.366V25ZM109.512 25V25.5H110.012V25H109.512ZM109.512 24V23.5H109.012V24H109.512ZM112.951 24H113.451V23.5H112.951V24ZM112.951 25H112.451V25.5H112.951V25ZM263.363 25V25.5H263.863V25H263.363ZM263.363 24.805L263.635 24.3854L262.863 23.8853V24.805H263.363ZM263.506 24.8977L263.235 25.3174L263.494 25.4857L263.761 25.3282L263.506 24.8977ZM270 21.0601L270.254 21.4905L270.5 21.3454V21.0601H270ZM270 1.176H270.5V0.677141L270.001 0.675997L270 1.176ZM193.314 1L193.315 0.500001L193.148 0.499617L193.014 0.600256L193.314 1ZM187.288 5.52776V6.02776H187.455L187.588 5.9275L187.288 5.52776ZM164.712 5.52776L164.412 5.9275L164.545 6.02776H164.712V5.52776ZM82.0011 1.67599L158.687 1.5L158.685 0.500001L81.9989 0.675997L82.0011 1.67599ZM82.5 21.0601V1.176H81.5V21.0601H82.5ZM88.909 24.5698L82.2547 20.6299L81.7453 21.4903L88.3995 25.4302L88.909 24.5698ZM91.1707 24.5H88.6542V25.5H91.1707V24.5ZM90.6707 24V25H91.6707V24H90.6707ZM93.4634 23.5H91.1707V24.5H93.4634V23.5ZM93.9634 25V24H92.9634V25H93.9634ZM96.9024 24.5H93.4634V25.5H96.9024V24.5ZM96.4024 24V25H97.4024V24H96.4024ZM98.0488 23.5H96.9024V24.5H98.0488V23.5ZM98.5488 25V24H97.5488V25H98.5488ZM99.1951 24.5H98.0488V25.5H99.1951V24.5ZM98.6951 24V25H99.6951V24H98.6951ZM108.366 23.5H99.1951V24.5H108.366V23.5ZM108.866 25V24H107.866V25H108.866ZM109.512 24.5H108.366V25.5H109.512V24.5ZM109.012 24V25H110.012V24H109.012ZM112.951 23.5H109.512V24.5H112.951V23.5ZM113.451 25V24H112.451V25H113.451ZM263.363 24.5H112.951V25.5H263.363V24.5ZM262.863 24.805V25H263.863V24.805H262.863ZM263.778 24.4781L263.635 24.3854L263.091 25.2246L263.235 25.3174L263.778 24.4781ZM269.746 20.6296L263.252 24.4673L263.761 25.3282L270.254 21.4905L269.746 20.6296ZM269.5 1.176V21.0601H270.5V1.176H269.5ZM193.313 1.5L269.999 1.67599L270.001 0.675997L193.315 0.500001L193.313 1.5ZM187.588 5.9275L193.615 1.39974L193.014 0.600256L186.988 5.12802L187.588 5.9275ZM164.712 6.02776H187.288V5.02776H164.712V6.02776ZM158.385 1.39974L164.412 5.9275L165.012 5.12802L158.986 0.600256L158.385 1.39974Z" fill="#FFFB00"/>
<path d="M351 16L351 51L347 48L347 13L351 16Z" fill="#FFFB00"/>
<path d="M1 19V13H7" stroke="#FFFB00" stroke-width="2"/>
<defs>
<clipPath id="clip0_167_166">
<rect width="351" height="114" fill="white" transform="translate(0 12)"/>
</clipPath>
</defs>
</svg>
