<svg width="68" height="16" viewBox="0 0 68 16" fill="none" xmlns="http://www.w3.org/2000/svg">
<path d="M26.1952 3.22837L29.2255 0.198109L34.0001 4.97341L38.7754 0.198109L41.8051 3.22837L37.0304 8.00367L41.8051 12.779L38.7754 15.8086L34.0001 11.0333L29.2255 15.8086L26.1952 12.779L30.9705 8.00367L26.1952 3.22837Z" fill="#4BFFF6"/>
<path d="M52.3902 3.22837L55.4204 0.198109L60.1951 4.97341L64.9704 0.198109L68 3.22837L63.2253 8.00303L68 12.7783L64.9704 15.8086L60.1951 11.0333L55.4204 15.8086L52.3902 12.7783L57.1655 8.00303L52.3902 3.22837Z" fill="#4BFFF6"/>
<path d="M0.000624253 3.22833L3.03088 0.198743L7.80555 4.97404L12.5808 0.198744L15.6105 3.22833L10.8358 8.00367L15.6105 12.779L12.5808 15.8086L7.80555 11.0339L3.03088 15.8086L0.000623835 12.779L4.77592 8.00367L0.000624253 3.22833Z" fill="#4BFFF6"/>
</svg>
