<svg width="393" height="13" viewBox="0 0 393 13" fill="none" xmlns="http://www.w3.org/2000/svg">
<path fill-rule="evenodd" clip-rule="evenodd" d="M334.418 12.2654L339.418 4.26543L338.57 3.73543L333.57 11.7354L334.418 12.2654ZM344.424 4.26543L339.424 12.2654L338.576 11.7354L343.576 3.73543L344.424 4.26543ZM354.424 4.26543L349.424 12.2654L348.576 11.7354L353.576 3.73543L354.424 4.26543ZM359.424 12.2654L364.424 4.26543L363.576 3.73543L358.576 11.7354L359.424 12.2654ZM374.424 4.26543L369.424 12.2654L368.576 11.7354L373.576 3.73543L374.424 4.26543ZM349.424 4.26543L344.424 12.2654L343.576 11.7354L348.576 3.73543L349.424 4.26543ZM354.424 12.2654L359.424 4.26543L358.576 3.73543L353.576 11.7354L354.424 12.2654ZM369.424 4.26543L364.424 12.2654L363.576 11.7354L368.576 3.73543L369.424 4.26543Z" fill="white" fill-opacity="0.2"/>
<path d="M397 1L336.476 1.00001L329.759 11L64.1126 11L57.3955 1.00003L-3 1.00003" stroke="white" stroke-opacity="0.2" stroke-width="2"/>
</svg>
