<svg width="338" height="70" viewBox="0 0 338 70" fill="none" xmlns="http://www.w3.org/2000/svg">
<rect width="338" height="68.0001" transform="translate(0 1)" fill="white" fill-opacity="0.04"/>
<path d="M71.5 1.5H131.691L138.191 14.5H71.5V1.5Z" fill="#FFFB00" fill-opacity="0.6" stroke="#FFFB00"/>
<path d="M87.92 11L86.248 9.008H87.872L89.2 10.576V11H87.92ZM83.448 11V5.248H88.016C88.2347 5.248 88.432 5.30133 88.608 5.408C88.7893 5.51467 88.9333 5.65867 89.04 5.84C89.152 6.02133 89.208 6.21867 89.208 6.432V7.92C89.208 8.13333 89.152 8.33067 89.04 8.512C88.9333 8.69333 88.7893 8.83733 88.608 8.944C88.432 9.05067 88.2347 9.104 88.016 9.104L84.688 9.112V11H83.448ZM84.688 7.856H87.952V6.488H84.688V7.856ZM91.5376 11C91.3242 11 91.1269 10.9467 90.9456 10.84C90.7642 10.7333 90.6202 10.5893 90.5136 10.408C90.4069 10.2267 90.3536 10.0293 90.3536 9.816V5.24H91.5936V9.752H94.8576V5.24H96.1136V9.816C96.1136 10.0293 96.0576 10.2267 95.9456 10.408C95.8389 10.5893 95.6949 10.7333 95.5136 10.84C95.3376 10.9467 95.1429 11 94.9296 11H91.5376ZM97.3226 11V5.232H98.5626V9.752H103.083V11H97.3226ZM103.885 11V5.24H109.205V6.488H105.141V7.496H108.413V8.744H105.141V9.752H109.205V11H103.885ZM113.244 11L113.62 9.736H113.02V8.512H113.988L114.26 7.664H113.244V6.44H114.652L115.036 5.24H116.3L115.892 6.44H116.996L117.38 5.24H118.636L118.228 6.44H118.764V7.664H117.844L117.572 8.512H118.54V9.736H117.172L116.812 11H115.572L115.956 9.736H114.836L114.484 11H113.244ZM115.236 8.512H116.324L116.596 7.664H115.508L115.236 8.512ZM121.051 11C120.838 11 120.643 10.9467 120.467 10.84C120.291 10.7333 120.15 10.592 120.043 10.416C119.936 10.24 119.883 10.048 119.883 9.84V9.392H121.107V9.776H124.315V8.712H120.827V7.488H124.099V6.464H121.107V6.912H119.883V6.4C119.883 6.18667 119.936 5.992 120.043 5.816C120.15 5.64 120.291 5.50133 120.467 5.4C120.643 5.29333 120.838 5.24 121.051 5.24H124.163C124.376 5.24 124.571 5.29333 124.747 5.4C124.923 5.50133 125.062 5.64 125.163 5.816C125.27 5.992 125.323 6.18667 125.323 6.4V7.552C125.323 7.61067 125.318 7.67467 125.307 7.744C125.302 7.808 125.291 7.86667 125.275 7.92C125.355 8.016 125.419 8.128 125.467 8.256C125.515 8.37867 125.539 8.50933 125.539 8.648V9.84C125.539 10.048 125.486 10.24 125.379 10.416C125.278 10.592 125.139 10.7333 124.963 10.84C124.787 10.9467 124.592 11 124.379 11H121.051Z" fill="black"/>
<rect x="4.5" y="1.5" width="67" height="67" fill="#4BFFF6" fill-opacity="0.15" stroke="#FFFB00"/>
<path d="M-1.79217e-06 4L-2.92866e-06 39L4 36L4 1L-1.79217e-06 4Z" fill="#FFFB00"/>
<path opacity="0.4" d="M-1.41456e-06 43L-4.86776e-06 56L4 59L4 40L-1.41456e-06 43Z" fill="white"/>
<path d="M3.27835e-06 43L-1.74846e-07 44L4 41L4 40L3.27835e-06 43Z" fill="#FFFB00"/>
<path d="M3.27835e-06 41L-1.74846e-07 42L4 39L4 38L3.27835e-06 41Z" fill="#FFFB00"/>
<path d="M22 69L338 69" stroke="#FFFB00" stroke-opacity="0.2"/>
<path d="M22 1.00003L338 0.999972" stroke="#FFFB00" stroke-opacity="0.2"/>
<mask id="mask0_138_247" style="mask-type:alpha" maskUnits="userSpaceOnUse" x="298" y="59" width="40" height="9">
<path d="M298 59H338V68H298V59Z" fill="white" fill-opacity="0.6"/>
</mask>
<g mask="url(#mask0_138_247)">
<path fill-rule="evenodd" clip-rule="evenodd" d="M335.538 57.4954L318.395 74.577L317.048 73.235L334.191 56.1533L335.538 57.4954Z" fill="white" fill-opacity="0.6"/>
<path fill-rule="evenodd" clip-rule="evenodd" d="M341.251 57.4954L324.109 74.577L322.762 73.235L339.905 56.1533L341.251 57.4954Z" fill="white" fill-opacity="0.6"/>
<path fill-rule="evenodd" clip-rule="evenodd" d="M346.966 57.4954L329.823 74.577L328.476 73.235L345.619 56.1533L346.966 57.4954Z" fill="white" fill-opacity="0.6"/>
<path fill-rule="evenodd" clip-rule="evenodd" d="M352.68 57.4954L335.537 74.577L334.191 73.235L351.333 56.1533L352.68 57.4954Z" fill="white" fill-opacity="0.6"/>
<path fill-rule="evenodd" clip-rule="evenodd" d="M329.823 57.4954L312.68 74.577L311.333 73.235L328.476 56.1533L329.823 57.4954Z" fill="white" fill-opacity="0.6"/>
<path fill-rule="evenodd" clip-rule="evenodd" d="M324.109 57.4954L306.966 74.577L305.619 73.235L322.762 56.1533L324.109 57.4954Z" fill="white" fill-opacity="0.6"/>
<path fill-rule="evenodd" clip-rule="evenodd" d="M318.395 57.4954L301.252 74.577L299.905 73.235L317.048 56.1533L318.395 57.4954Z" fill="white" fill-opacity="0.6"/>
<path fill-rule="evenodd" clip-rule="evenodd" d="M312.68 57.4954L295.537 74.577L294.191 73.235L311.333 56.1533L312.68 57.4954Z" fill="white" fill-opacity="0.6"/>
<path fill-rule="evenodd" clip-rule="evenodd" d="M306.966 57.4954L289.823 74.577L288.476 73.235L305.619 56.1533L306.966 57.4954Z" fill="white" fill-opacity="0.6"/>
<path fill-rule="evenodd" clip-rule="evenodd" d="M301.251 57.4954L284.109 74.577L282.762 73.235L299.905 56.1533L301.251 57.4954Z" fill="white" fill-opacity="0.6"/>
</g>
<path fill-rule="evenodd" clip-rule="evenodd" d="M337 42V12H338V42H337Z" fill="#FFFB00" fill-opacity="0.5"/>
<path fill-rule="evenodd" clip-rule="evenodd" d="M337 58V55H338V58H337Z" fill="#FFFB00" fill-opacity="0.5"/>
<path fill-rule="evenodd" clip-rule="evenodd" d="M337 52V32H338V52H337Z" fill="#FFFB00" fill-opacity="0.5"/>
<path d="M337 7V1H331" stroke="#FFFB00" stroke-width="2"/>
<path d="M25.7036 35.247H27.3316V33.421H25.7036C25.6669 33.421 25.6339 33.4357 25.6046 33.465C25.5826 33.487 25.5716 33.5163 25.5716 33.553V35.115C25.5716 35.1517 25.5826 35.1847 25.6046 35.214C25.6339 35.236 25.6669 35.247 25.7036 35.247Z" fill="black"/>
<path d="M28.7726 38.459H30.4006C30.4299 38.459 30.4593 38.448 30.4886 38.426C30.5179 38.3967 30.5326 38.3637 30.5326 38.327V36.82C30.5326 36.7833 30.5179 36.754 30.4886 36.732C30.4593 36.7027 30.4263 36.688 30.3896 36.688H28.7726V38.459Z" fill="black"/>
<path d="M34.8126 35.247H36.4406V33.421H34.8126C34.7759 33.421 34.7429 33.4357 34.7136 33.465C34.6916 33.487 34.6806 33.5163 34.6806 33.553V35.115C34.6806 35.1517 34.6916 35.1847 34.7136 35.214C34.7429 35.236 34.7759 35.247 34.8126 35.247Z" fill="black"/>
<path d="M37.8816 38.459H39.5096C39.5389 38.459 39.5682 38.448 39.5976 38.426C39.6269 38.3967 39.6416 38.3637 39.6416 38.327V36.82C39.6416 36.7833 39.6269 36.754 39.5976 36.732C39.5682 36.7027 39.5352 36.688 39.4986 36.688H37.8816V38.459Z" fill="black"/>
<path d="M45.5495 35.247H43.9215C43.8848 35.247 43.8518 35.236 43.8225 35.214C43.8005 35.1847 43.7895 35.1517 43.7895 35.115V33.553C43.7895 33.5163 43.8005 33.487 43.8225 33.465C43.8518 33.4357 43.8848 33.421 43.9215 33.421H45.5495V35.247Z" fill="black"/>
<path d="M48.6185 38.459H46.9905V36.688H48.6075C48.6442 36.688 48.6772 36.7027 48.7065 36.732C48.7358 36.754 48.7505 36.7833 48.7505 36.82V38.327C48.7505 38.3637 48.7358 38.3967 48.7065 38.426C48.6772 38.448 48.6478 38.459 48.6185 38.459Z" fill="black"/>
<path fill-rule="evenodd" clip-rule="evenodd" d="M62.0471 19H13V21.2H30.2778L33.7386 24.6608C33.954 24.5577 34.1953 24.5 34.45 24.5C35.3613 24.5 36.1 25.2387 36.1 26.15C36.1 27.0612 35.3613 27.8 34.45 27.8C33.5387 27.8 32.8 27.0612 32.8 26.15C32.8 25.8952 32.8577 25.654 32.9608 25.4386L29.8222 22.3H13V24.5H21.8939C22.1204 23.8591 22.7316 23.4 23.45 23.4C24.3613 23.4 25.1 24.1387 25.1 25.05C25.1 25.9612 24.3613 26.7 23.45 26.7C22.7316 26.7 22.1204 26.2408 21.8939 25.6H13V39.9H14.1V47.6H13V52.3208H17.95L17.95 35.6762L16.2069 33.2359C16.0618 33.2776 15.9085 33.3 15.75 33.3C14.8387 33.3 14.1 32.5612 14.1 31.65C14.1 30.7387 14.8387 30 15.75 30C16.6613 30 17.4 30.7387 17.4 31.65C17.4 32.0021 17.2897 32.3284 17.1018 32.5963L19.05 35.3237V45.95H41.3722L42.8609 44.4612C42.7579 44.2459 42.7002 44.0047 42.7002 43.75C42.7002 42.8387 43.4389 42.1 44.3502 42.1C45.2615 42.1 46.0002 42.8387 46.0002 43.75C46.0002 44.6612 45.2615 45.4 44.3502 45.4C44.0954 45.4 43.8541 45.3422 43.6387 45.2391L41.8278 47.05H19.05V48.7H50.6833L53.7 45.4637V23.3061C53.0591 23.0796 52.6 22.4684 52.6 21.75C52.6 20.8387 53.3387 20.1 54.25 20.1C55.1613 20.1 55.9 20.8387 55.9 21.75C55.9 22.4684 55.4409 23.0796 54.8 23.3061V44.2836L57.55 41.3334V37.6061C56.9091 37.3796 56.45 36.7684 56.45 36.05C56.45 35.1387 57.1887 34.4 58.1 34.4C59.0113 34.4 59.75 35.1387 59.75 36.05C59.75 36.7684 59.2909 37.3796 58.65 37.6061V41.7666L54.8 45.8968V45.95H54.7505L51.1617 49.8H19.05V52.3208H54.0405L62.0471 44.3143V31.1H61.4V23.4H62.0471V22.3H61.4V20.1H62.0471V19ZM38.85 24.5L35 20.65V19.55H48.75V24.5H38.85ZM27.3316 41.033V39.9H25.6596C25.3663 39.9 25.1023 39.8303 24.8676 39.691C24.6403 39.5517 24.4606 39.3683 24.3286 39.141C24.1966 38.9063 24.1306 38.6497 24.1306 38.371V37.799H25.5716V38.327C25.5716 38.3637 25.5826 38.3967 25.6046 38.426C25.6339 38.448 25.6669 38.459 25.7036 38.459H27.3316V36.688H25.6596C25.3736 36.688 25.1133 36.622 24.8786 36.49C24.6513 36.3507 24.4679 36.1637 24.3286 35.929C24.1966 35.6943 24.1306 35.4303 24.1306 35.137V33.509C24.1306 33.223 24.1966 32.9663 24.3286 32.739C24.4606 32.5043 24.6403 32.321 24.8676 32.189C25.1023 32.0497 25.3663 31.98 25.6596 31.98H27.3316V30.847H28.7726V31.98H30.4336C30.7269 31.98 30.9873 32.0497 31.2146 32.189C31.4493 32.321 31.6326 32.5043 31.7646 32.739C31.9039 32.9663 31.9736 33.223 31.9736 33.509L31.9626 34.092H30.5326V33.553C30.5326 33.5163 30.5179 33.487 30.4886 33.465C30.4593 33.4357 30.4263 33.421 30.3896 33.421H28.7726V35.247H30.4336C30.7269 35.247 30.9873 35.3167 31.2146 35.456C31.4493 35.588 31.6326 35.7677 31.7646 35.995C31.9039 36.2223 31.9736 36.4717 31.9736 36.743V38.371C31.9736 38.6497 31.9039 38.9063 31.7646 39.141C31.6326 39.3683 31.4493 39.5517 31.2146 39.691C30.9873 39.8303 30.7306 39.9 30.4446 39.9H28.7726V41.033H27.3316ZM36.4406 41.033V39.9H34.7686C34.4752 39.9 34.2112 39.8303 33.9766 39.691C33.7492 39.5517 33.5696 39.3683 33.4376 39.141C33.3056 38.9063 33.2396 38.6497 33.2396 38.371V37.799H34.6806V38.327C34.6806 38.3637 34.6916 38.3967 34.7136 38.426C34.7429 38.448 34.7759 38.459 34.8126 38.459H36.4406V36.688H34.7686C34.4826 36.688 34.2222 36.622 33.9876 36.49C33.7602 36.3507 33.5769 36.1637 33.4376 35.929C33.3056 35.6943 33.2396 35.4303 33.2396 35.137V33.509C33.2396 33.223 33.3056 32.9663 33.4376 32.739C33.5696 32.5043 33.7492 32.321 33.9766 32.189C34.2112 32.0497 34.4752 31.98 34.7686 31.98H36.4406V30.847H37.8816V31.98H39.5426C39.8359 31.98 40.0962 32.0497 40.3236 32.189C40.5582 32.321 40.7416 32.5043 40.8736 32.739C41.0129 32.9663 41.0826 33.223 41.0826 33.509L41.0716 34.092H39.6416V33.553C39.6416 33.5163 39.6269 33.487 39.5976 33.465C39.5682 33.4357 39.5352 33.421 39.4986 33.421H37.8816V35.247H39.5426C39.8359 35.247 40.0962 35.3167 40.3236 35.456C40.5582 35.588 40.7416 35.7677 40.8736 35.995C41.0129 36.2223 41.0826 36.4717 41.0826 36.743V38.371C41.0826 38.6497 41.0129 38.9063 40.8736 39.141C40.7416 39.3683 40.5582 39.5517 40.3236 39.691C40.0962 39.8303 39.8396 39.9 39.5536 39.9H37.8816V41.033H36.4406ZM45.5495 39.9V41.033H46.9905V39.9H48.6625C48.9485 39.9 49.2052 39.8303 49.4325 39.691C49.6672 39.5517 49.8505 39.3683 49.9825 39.141C50.1218 38.9063 50.1915 38.6497 50.1915 38.371V36.743C50.1915 36.4717 50.1218 36.2223 49.9825 35.995C49.8505 35.7677 49.6672 35.588 49.4325 35.456C49.2052 35.3167 48.9448 35.247 48.6515 35.247H46.9905V33.421H48.6075C48.6442 33.421 48.6772 33.4357 48.7065 33.465C48.7358 33.487 48.7505 33.5163 48.7505 33.553V34.092H50.1805L50.1915 33.509C50.1915 33.223 50.1218 32.9663 49.9825 32.739C49.8505 32.5043 49.6672 32.321 49.4325 32.189C49.2052 32.0497 48.9448 31.98 48.6515 31.98H46.9905V30.847H45.5495V31.98H43.8775C43.5842 31.98 43.3202 32.0497 43.0855 32.189C42.8582 32.321 42.6785 32.5043 42.5465 32.739C42.4145 32.9663 42.3485 33.223 42.3485 33.509V35.137C42.3485 35.4303 42.4145 35.6943 42.5465 35.929C42.6858 36.1637 42.8692 36.3507 43.0965 36.49C43.3312 36.622 43.5915 36.688 43.8775 36.688H45.5495V38.459H43.9215C43.8848 38.459 43.8518 38.448 43.8225 38.426C43.8005 38.3967 43.7895 38.3637 43.7895 38.327V37.799H42.3485V38.371C42.3485 38.6497 42.4145 38.9063 42.5465 39.141C42.6785 39.3683 42.8582 39.5517 43.0855 39.691C43.3202 39.8303 43.5842 39.9 43.8775 39.9H45.5495Z" fill="black"/>
<path d="M25.7036 34.247H27.3316V32.421H25.7036C25.6669 32.421 25.6339 32.4357 25.6046 32.465C25.5826 32.487 25.5716 32.5163 25.5716 32.553V34.115C25.5716 34.1517 25.5826 34.1847 25.6046 34.214C25.6339 34.236 25.6669 34.247 25.7036 34.247Z" fill="#4BFFF6"/>
<path d="M28.7726 37.459H30.4006C30.4299 37.459 30.4593 37.448 30.4886 37.426C30.5179 37.3967 30.5326 37.3637 30.5326 37.327V35.82C30.5326 35.7833 30.5179 35.754 30.4886 35.732C30.4593 35.7027 30.4263 35.688 30.3896 35.688H28.7726V37.459Z" fill="#4BFFF6"/>
<path d="M34.8126 34.247H36.4406V32.421H34.8126C34.7759 32.421 34.7429 32.4357 34.7136 32.465C34.6916 32.487 34.6806 32.5163 34.6806 32.553V34.115C34.6806 34.1517 34.6916 34.1847 34.7136 34.214C34.7429 34.236 34.7759 34.247 34.8126 34.247Z" fill="#4BFFF6"/>
<path d="M37.8816 37.459H39.5096C39.5389 37.459 39.5682 37.448 39.5976 37.426C39.6269 37.3967 39.6416 37.3637 39.6416 37.327V35.82C39.6416 35.7833 39.6269 35.754 39.5976 35.732C39.5682 35.7027 39.5352 35.688 39.4986 35.688H37.8816V37.459Z" fill="#4BFFF6"/>
<path d="M45.5495 34.247H43.9215C43.8848 34.247 43.8518 34.236 43.8225 34.214C43.8005 34.1847 43.7895 34.1517 43.7895 34.115V32.553C43.7895 32.5163 43.8005 32.487 43.8225 32.465C43.8518 32.4357 43.8848 32.421 43.9215 32.421H45.5495V34.247Z" fill="#4BFFF6"/>
<path d="M48.6185 37.459H46.9905V35.688H48.6075C48.6442 35.688 48.6772 35.7027 48.7065 35.732C48.7358 35.754 48.7505 35.7833 48.7505 35.82V37.327C48.7505 37.3637 48.7358 37.3967 48.7065 37.426C48.6772 37.448 48.6478 37.459 48.6185 37.459Z" fill="#4BFFF6"/>
<path fill-rule="evenodd" clip-rule="evenodd" d="M62.0471 18H13V20.2H30.2778L33.7386 23.6608C33.954 23.5577 34.1953 23.5 34.45 23.5C35.3613 23.5 36.1 24.2387 36.1 25.15C36.1 26.0612 35.3613 26.8 34.45 26.8C33.5387 26.8 32.8 26.0612 32.8 25.15C32.8 24.8952 32.8577 24.654 32.9608 24.4386L29.8222 21.3H13V23.5H21.8939C22.1204 22.8591 22.7316 22.4 23.45 22.4C24.3613 22.4 25.1 23.1387 25.1 24.05C25.1 24.9612 24.3613 25.7 23.45 25.7C22.7316 25.7 22.1204 25.2408 21.8939 24.6H13V38.9H14.1V46.6H13V51.3208H17.95L17.95 34.6762L16.2069 32.2359C16.0618 32.2776 15.9085 32.3 15.75 32.3C14.8387 32.3 14.1 31.5612 14.1 30.65C14.1 29.7387 14.8387 29 15.75 29C16.6613 29 17.4 29.7387 17.4 30.65C17.4 31.0021 17.2897 31.3284 17.1018 31.5963L19.05 34.3237V44.95H41.3722L42.8609 43.4612C42.7579 43.2459 42.7002 43.0047 42.7002 42.75C42.7002 41.8387 43.4389 41.1 44.3502 41.1C45.2615 41.1 46.0002 41.8387 46.0002 42.75C46.0002 43.6612 45.2615 44.4 44.3502 44.4C44.0954 44.4 43.8541 44.3422 43.6387 44.2391L41.8278 46.05H19.05V47.7H50.6833L53.7 44.4637V22.3061C53.0591 22.0796 52.6 21.4684 52.6 20.75C52.6 19.8387 53.3387 19.1 54.25 19.1C55.1613 19.1 55.9 19.8387 55.9 20.75C55.9 21.4684 55.4409 22.0796 54.8 22.3061V43.2836L57.55 40.3334V36.6061C56.9091 36.3796 56.45 35.7684 56.45 35.05C56.45 34.1387 57.1887 33.4 58.1 33.4C59.0113 33.4 59.75 34.1387 59.75 35.05C59.75 35.7684 59.2909 36.3796 58.65 36.6061V40.7666L54.8 44.8968V44.95H54.7505L51.1617 48.8H19.05V51.3208H54.0405L62.0471 43.3143V30.1H61.4V22.4H62.0471V21.3H61.4V19.1H62.0471V18ZM38.85 23.5L35 19.65V18.55H48.75V23.5H38.85ZM27.3316 40.033V38.9H25.6596C25.3663 38.9 25.1023 38.8303 24.8676 38.691C24.6403 38.5517 24.4606 38.3683 24.3286 38.141C24.1966 37.9063 24.1306 37.6497 24.1306 37.371V36.799H25.5716V37.327C25.5716 37.3637 25.5826 37.3967 25.6046 37.426C25.6339 37.448 25.6669 37.459 25.7036 37.459H27.3316V35.688H25.6596C25.3736 35.688 25.1133 35.622 24.8786 35.49C24.6513 35.3507 24.4679 35.1637 24.3286 34.929C24.1966 34.6943 24.1306 34.4303 24.1306 34.137V32.509C24.1306 32.223 24.1966 31.9663 24.3286 31.739C24.4606 31.5043 24.6403 31.321 24.8676 31.189C25.1023 31.0497 25.3663 30.98 25.6596 30.98H27.3316V29.847H28.7726V30.98H30.4336C30.7269 30.98 30.9873 31.0497 31.2146 31.189C31.4493 31.321 31.6326 31.5043 31.7646 31.739C31.9039 31.9663 31.9736 32.223 31.9736 32.509L31.9626 33.092H30.5326V32.553C30.5326 32.5163 30.5179 32.487 30.4886 32.465C30.4593 32.4357 30.4263 32.421 30.3896 32.421H28.7726V34.247H30.4336C30.7269 34.247 30.9873 34.3167 31.2146 34.456C31.4493 34.588 31.6326 34.7677 31.7646 34.995C31.9039 35.2223 31.9736 35.4717 31.9736 35.743V37.371C31.9736 37.6497 31.9039 37.9063 31.7646 38.141C31.6326 38.3683 31.4493 38.5517 31.2146 38.691C30.9873 38.8303 30.7306 38.9 30.4446 38.9H28.7726V40.033H27.3316ZM36.4406 40.033V38.9H34.7686C34.4752 38.9 34.2112 38.8303 33.9766 38.691C33.7492 38.5517 33.5696 38.3683 33.4376 38.141C33.3056 37.9063 33.2396 37.6497 33.2396 37.371V36.799H34.6806V37.327C34.6806 37.3637 34.6916 37.3967 34.7136 37.426C34.7429 37.448 34.7759 37.459 34.8126 37.459H36.4406V35.688H34.7686C34.4826 35.688 34.2222 35.622 33.9876 35.49C33.7602 35.3507 33.5769 35.1637 33.4376 34.929C33.3056 34.6943 33.2396 34.4303 33.2396 34.137V32.509C33.2396 32.223 33.3056 31.9663 33.4376 31.739C33.5696 31.5043 33.7492 31.321 33.9766 31.189C34.2112 31.0497 34.4752 30.98 34.7686 30.98H36.4406V29.847H37.8816V30.98H39.5426C39.8359 30.98 40.0962 31.0497 40.3236 31.189C40.5582 31.321 40.7416 31.5043 40.8736 31.739C41.0129 31.9663 41.0826 32.223 41.0826 32.509L41.0716 33.092H39.6416V32.553C39.6416 32.5163 39.6269 32.487 39.5976 32.465C39.5682 32.4357 39.5352 32.421 39.4986 32.421H37.8816V34.247H39.5426C39.8359 34.247 40.0962 34.3167 40.3236 34.456C40.5582 34.588 40.7416 34.7677 40.8736 34.995C41.0129 35.2223 41.0826 35.4717 41.0826 35.743V37.371C41.0826 37.6497 41.0129 37.9063 40.8736 38.141C40.7416 38.3683 40.5582 38.5517 40.3236 38.691C40.0962 38.8303 39.8396 38.9 39.5536 38.9H37.8816V40.033H36.4406ZM45.5495 38.9V40.033H46.9905V38.9H48.6625C48.9485 38.9 49.2052 38.8303 49.4325 38.691C49.6672 38.5517 49.8505 38.3683 49.9825 38.141C50.1218 37.9063 50.1915 37.6497 50.1915 37.371V35.743C50.1915 35.4717 50.1218 35.2223 49.9825 34.995C49.8505 34.7677 49.6672 34.588 49.4325 34.456C49.2052 34.3167 48.9448 34.247 48.6515 34.247H46.9905V32.421H48.6075C48.6442 32.421 48.6772 32.4357 48.7065 32.465C48.7358 32.487 48.7505 32.5163 48.7505 32.553V33.092H50.1805L50.1915 32.509C50.1915 32.223 50.1218 31.9663 49.9825 31.739C49.8505 31.5043 49.6672 31.321 49.4325 31.189C49.2052 31.0497 48.9448 30.98 48.6515 30.98H46.9905V29.847H45.5495V30.98H43.8775C43.5842 30.98 43.3202 31.0497 43.0855 31.189C42.8582 31.321 42.6785 31.5043 42.5465 31.739C42.4145 31.9663 42.3485 32.223 42.3485 32.509V34.137C42.3485 34.4303 42.4145 34.6943 42.5465 34.929C42.6858 35.1637 42.8692 35.3507 43.0965 35.49C43.3312 35.622 43.5915 35.688 43.8775 35.688H45.5495V37.459H43.9215C43.8848 37.459 43.8518 37.448 43.8225 37.426C43.8005 37.3967 43.7895 37.3637 43.7895 37.327V36.799H42.3485V37.371C42.3485 37.6497 42.4145 37.9063 42.5465 38.141C42.6785 38.3683 42.8582 38.5517 43.0855 38.691C43.3202 38.8303 43.5842 38.9 43.8775 38.9H45.5495Z" fill="#4BFFF6"/>
</svg>
