<svg width="338" height="70" viewBox="0 0 338 70" fill="none" xmlns="http://www.w3.org/2000/svg">
<path d="M71.5 1.5H131.691L138.191 14.5H71.5V1.5Z" fill="#FFFB00" fill-opacity="0.6" stroke="#FFFB00"/>
<path d="M87.92 11L86.248 9.008H87.872L89.2 10.576V11H87.92ZM83.448 11V5.248H88.016C88.2347 5.248 88.432 5.30133 88.608 5.408C88.7893 5.51467 88.9333 5.65867 89.04 5.84C89.152 6.02133 89.208 6.21867 89.208 6.432V7.92C89.208 8.13333 89.152 8.33067 89.04 8.512C88.9333 8.69333 88.7893 8.83733 88.608 8.944C88.432 9.05067 88.2347 9.104 88.016 9.104L84.688 9.112V11H83.448ZM84.688 7.856H87.952V6.488H84.688V7.856ZM91.5376 11C91.3242 11 91.1269 10.9467 90.9456 10.84C90.7642 10.7333 90.6202 10.5893 90.5136 10.408C90.4069 10.2267 90.3536 10.0293 90.3536 9.816V5.24H91.5936V9.752H94.8576V5.24H96.1136V9.816C96.1136 10.0293 96.0576 10.2267 95.9456 10.408C95.8389 10.5893 95.6949 10.7333 95.5136 10.84C95.3376 10.9467 95.1429 11 94.9296 11H91.5376ZM97.3226 11V5.232H98.5626V9.752H103.083V11H97.3226ZM103.885 11V5.24H109.205V6.488H105.141V7.496H108.413V8.744H105.141V9.752H109.205V11H103.885ZM113.244 11L113.62 9.736H113.02V8.512H113.988L114.26 7.664H113.244V6.44H114.652L115.036 5.24H116.3L115.892 6.44H116.996L117.38 5.24H118.636L118.228 6.44H118.764V7.664H117.844L117.572 8.512H118.54V9.736H117.172L116.812 11H115.572L115.956 9.736H114.836L114.484 11H113.244ZM115.236 8.512H116.324L116.596 7.664H115.508L115.236 8.512ZM119.915 11V8.768C119.915 8.55467 119.968 8.36 120.075 8.184C120.182 8.008 120.323 7.86933 120.499 7.768C120.675 7.66133 120.87 7.608 121.083 7.608H124.347V6.464H121.139V6.928H119.915V6.4C119.915 6.18667 119.968 5.992 120.075 5.816C120.182 5.64 120.323 5.50133 120.499 5.4C120.675 5.29333 120.87 5.24 121.083 5.24H124.403C124.616 5.24 124.811 5.29333 124.987 5.4C125.163 5.50133 125.304 5.64 125.411 5.816C125.518 5.992 125.571 6.18667 125.571 6.4V7.672C125.571 7.88533 125.518 8.08 125.411 8.256C125.304 8.432 125.163 8.57333 124.987 8.68C124.811 8.78667 124.616 8.84 124.403 8.84H121.139V9.776H125.571V11H119.915Z" fill="black"/>
<rect x="4.5" y="1.5" width="67" height="67" fill="#4BFFF6" fill-opacity="0.15" stroke="#FFFB00"/>
<path d="M-1.79217e-06 4L-2.92866e-06 39L4 36L4 1L-1.79217e-06 4Z" fill="#FFFB00"/>
<path opacity="0.4" d="M-1.41456e-06 43L-4.86776e-06 56L4 59L4 40L-1.41456e-06 43Z" fill="white"/>
<path d="M3.27835e-06 43L-1.74846e-07 44L4 41L4 40L3.27835e-06 43Z" fill="#FFFB00"/>
<path d="M3.27835e-06 41L-1.74846e-07 42L4 39L4 38L3.27835e-06 41Z" fill="#FFFB00"/>
<path d="M22 69L338 69" stroke="#FFFB00" stroke-opacity="0.2"/>
<path d="M22 1.00003L338 0.999972" stroke="#FFFB00" stroke-opacity="0.2"/>
<mask id="mask0_138_284" style="mask-type:alpha" maskUnits="userSpaceOnUse" x="298" y="59" width="40" height="9">
<path d="M298 59H338V68H298V59Z" fill="white" fill-opacity="0.6"/>
</mask>
<g mask="url(#mask0_138_284)">
<path fill-rule="evenodd" clip-rule="evenodd" d="M335.538 57.4954L318.395 74.577L317.048 73.235L334.191 56.1533L335.538 57.4954Z" fill="white" fill-opacity="0.6"/>
<path fill-rule="evenodd" clip-rule="evenodd" d="M341.251 57.4954L324.109 74.577L322.762 73.235L339.905 56.1533L341.251 57.4954Z" fill="white" fill-opacity="0.6"/>
<path fill-rule="evenodd" clip-rule="evenodd" d="M346.966 57.4954L329.823 74.577L328.476 73.235L345.619 56.1533L346.966 57.4954Z" fill="white" fill-opacity="0.6"/>
<path fill-rule="evenodd" clip-rule="evenodd" d="M352.68 57.4954L335.537 74.577L334.191 73.235L351.333 56.1533L352.68 57.4954Z" fill="white" fill-opacity="0.6"/>
<path fill-rule="evenodd" clip-rule="evenodd" d="M329.823 57.4954L312.68 74.577L311.333 73.235L328.476 56.1533L329.823 57.4954Z" fill="white" fill-opacity="0.6"/>
<path fill-rule="evenodd" clip-rule="evenodd" d="M324.109 57.4954L306.966 74.577L305.619 73.235L322.762 56.1533L324.109 57.4954Z" fill="white" fill-opacity="0.6"/>
<path fill-rule="evenodd" clip-rule="evenodd" d="M318.395 57.4954L301.252 74.577L299.905 73.235L317.048 56.1533L318.395 57.4954Z" fill="white" fill-opacity="0.6"/>
<path fill-rule="evenodd" clip-rule="evenodd" d="M312.68 57.4954L295.537 74.577L294.191 73.235L311.333 56.1533L312.68 57.4954Z" fill="white" fill-opacity="0.6"/>
<path fill-rule="evenodd" clip-rule="evenodd" d="M306.966 57.4954L289.823 74.577L288.476 73.235L305.619 56.1533L306.966 57.4954Z" fill="white" fill-opacity="0.6"/>
<path fill-rule="evenodd" clip-rule="evenodd" d="M301.251 57.4954L284.109 74.577L282.762 73.235L299.905 56.1533L301.251 57.4954Z" fill="white" fill-opacity="0.6"/>
</g>
<path fill-rule="evenodd" clip-rule="evenodd" d="M337 42V12H338V42H337Z" fill="#FFFB00" fill-opacity="0.5"/>
<path fill-rule="evenodd" clip-rule="evenodd" d="M337 58V55H338V58H337Z" fill="#FFFB00" fill-opacity="0.5"/>
<path fill-rule="evenodd" clip-rule="evenodd" d="M337 52V32H338V52H337Z" fill="#FFFB00" fill-opacity="0.5"/>
<path d="M337 7V1H331" stroke="#FFFB00" stroke-width="2"/>
<path fill-rule="evenodd" clip-rule="evenodd" d="M30.9819 12.3782L30.7127 12.4099L20.9896 19.9232L28.0608 22.4189H29.8804C30.0678 21.8888 30.5733 21.509 31.1676 21.509C31.9214 21.509 32.5325 22.1201 32.5325 22.8739C32.5325 23.6277 31.9214 24.2387 31.1676 24.2387C30.5733 24.2387 30.0678 23.8589 29.8804 23.3288H27.9049L20.752 20.8043L21.0739 25.2047L22.6394 26.0586H33.5201C33.7074 25.5285 34.213 25.1486 34.8073 25.1486C35.561 25.1486 36.1721 25.7597 36.1721 26.5135C36.1721 27.2673 35.561 27.8784 34.8073 27.8784C34.213 27.8784 33.7074 27.4986 33.5201 26.9685H22.4074L21.1529 26.2842L21.3029 28.3333H31.8252L34.8073 31.518L34.83 31.6024L36.1721 33.5653V37.6599L34.7723 39.7072H28.4729L27.073 37.6599V33.5653L28.4729 29.6982L33.0087 31.0086L31.42 29.2432H21.3694L21.465 30.5487L23.8883 31.518V39.7072H22.2391L22.495 41.0721H34.0736L32.9045 44.5794L26.0721 47.9956L28.3941 49.6844L35.5137 46.1246L35.5432 46.1837L37.173 41.527H39.7208L41.4158 46.3699L48.4559 49.89V49.7162L50.8217 47.9956L43.9893 44.5794L42.8202 41.0721H54.3988L54.6547 39.7072H53.4604V31.518L55.4151 30.7361L55.5244 29.2432H45.4868L44.0912 30.949L48.4209 29.6982L49.8208 33.5653V37.6599L48.4209 39.7072H42.1215L40.7217 37.6599V33.5653L42.0702 31.5931L42.0865 31.518L45.0556 28.3333H55.5909L55.7598 26.0258L54.0314 26.9685H42.4638C42.2765 27.4986 41.7709 27.8784 41.1766 27.8784C40.4228 27.8784 39.8118 27.2673 39.8118 26.5135C39.8118 25.7597 40.4228 25.1486 41.1766 25.1486C41.7709 25.1486 42.2765 25.5285 42.4638 26.0586H53.7994L55.8388 24.9462L56.1418 20.8043L48.9889 23.3288H47.0134C46.826 23.8589 46.3204 24.2387 45.7262 24.2387C44.9724 24.2387 44.3613 23.6277 44.3613 22.8739C44.3613 22.1201 44.9724 21.509 45.7262 21.509C46.3204 21.509 46.826 21.8888 47.0134 22.4189H48.833L55.9042 19.9232L46.1811 12.4099L45.9117 12.3782L38.4468 19.404L30.9819 12.3782ZM44.7316 12.2394L38.4469 11.5L32.162 12.2394L38.4468 18.1545L44.7316 12.2394ZM54.2281 41.982H44.0826L44.7333 43.9341L51.6506 47.3928L53.4604 46.0766L54.2281 41.982ZM48.4559 50.9073L48.355 50.8568L45.4395 53.3558H45.2712V57.9054L48.4559 55.6306V50.9073ZM43.9064 53.3558H41.1766V61.545L43.9064 59.2703V53.3558ZM39.8118 53.3558H37.082V62H39.8118V53.3558ZM35.7172 53.3558H32.9874V59.2703L35.7172 61.545V53.3558ZM31.6226 53.3558H31.4542L28.4379 50.7704V55.6306L31.6226 57.9054V53.3558ZM25.2431 47.3928L32.1605 43.9341L32.8112 41.982H22.6656L23.4334 46.0766L25.2431 47.3928ZM35.8246 46.9865H40.6143L47.4719 50.4153L45.1029 52.4459H31.7908L29.2542 50.2717L35.8246 46.9865Z" fill="black"/>
<path fill-rule="evenodd" clip-rule="evenodd" d="M30.982 11.3782L30.7128 11.4099L20.9897 18.9232L28.0609 21.4189H29.8805C30.0679 20.8888 30.5735 20.509 31.1677 20.509C31.9215 20.509 32.5326 21.1201 32.5326 21.8739C32.5326 22.6277 31.9215 23.2387 31.1677 23.2387C30.5735 23.2387 30.0679 22.8589 29.8805 22.3288H27.905L20.7521 19.8043L21.0741 24.2047L22.6395 25.0586H33.5202C33.7075 24.5285 34.2131 24.1486 34.8074 24.1486C35.5612 24.1486 36.1722 24.7597 36.1722 25.5135C36.1722 26.2673 35.5612 26.8784 34.8074 26.8784C34.2131 26.8784 33.7076 26.4986 33.5202 25.9685H22.4075L21.153 25.2842L21.303 27.3333H31.8253L34.8074 30.518L34.8301 30.6024L36.1722 32.5653V36.6599L34.7724 38.7072H28.473L27.0731 36.6599V32.5653L28.473 28.6982L33.0089 30.0086L31.4201 28.2432H21.3696L21.4651 29.5487L23.8885 30.518V38.7072H22.2392L22.4952 40.0721H34.0737L32.9046 43.5794L26.0722 46.9956L28.3943 48.6844L35.5138 45.1246L35.5433 45.1837L37.1731 40.527H39.7209L41.4159 45.3699L48.456 48.89V48.7162L50.8218 46.9956L43.9894 43.5794L42.8203 40.0721H54.3989L54.6548 38.7072H53.4605V30.518L55.4152 29.7361L55.5245 28.2432H45.4869L44.0913 29.949L48.421 28.6982L49.8209 32.5653V36.6599L48.421 38.7072H42.1217L40.7218 36.6599V32.5653L42.0703 30.5931L42.0867 30.518L45.0557 27.3333H55.5911L55.7599 25.0258L54.0316 25.9685H42.4639C42.2766 26.4986 41.771 26.8784 41.1767 26.8784C40.423 26.8784 39.8119 26.2673 39.8119 25.5135C39.8119 24.7597 40.423 24.1486 41.1767 24.1486C41.771 24.1486 42.2766 24.5285 42.464 25.0586H53.7995L55.8389 23.9462L56.142 19.8043L48.989 22.3288H47.0135C46.8261 22.8589 46.3206 23.2387 45.7263 23.2387C44.9725 23.2387 44.3614 22.6277 44.3614 21.8739C44.3614 21.1201 44.9725 20.509 45.7263 20.509C46.3206 20.509 46.8261 20.8888 47.0135 21.4189H48.8331L55.9043 18.9232L46.1813 11.4099L45.9119 11.3782L38.4469 18.404L30.982 11.3782ZM44.7318 11.2394L38.447 10.5L32.1621 11.2394L38.4469 17.1545L44.7318 11.2394ZM54.2283 40.982H44.0827L44.7334 42.9341L51.6508 46.3928L53.4605 45.0766L54.2283 40.982ZM48.456 49.9073L48.3551 49.8568L45.4396 52.3558H45.2713V56.9054L48.456 54.6306V49.9073ZM43.9065 52.3558H41.1767V60.545L43.9065 58.2703V52.3558ZM39.8119 52.3558H37.0822V61H39.8119V52.3558ZM35.7173 52.3558H32.9876V58.2703L35.7173 60.545V52.3558ZM31.6227 52.3558H31.4544L28.438 49.7704V54.6306L31.6227 56.9054V52.3558ZM25.2433 46.3928L32.1606 42.9341L32.8113 40.982H22.6658L23.4335 45.0766L25.2433 46.3928ZM35.8247 45.9865H40.6144L47.4721 49.4153L45.103 51.4459H31.791L29.2543 49.2717L35.8247 45.9865Z" fill="#4BFFF6"/>
</svg>
