<svg width="348" height="45" viewBox="0 0 348 45" fill="none" xmlns="http://www.w3.org/2000/svg">
<g filter="url(#filter0_b_1_1704)">
<path d="M107 25L117.5 44.5H234.5L245 25H107Z" fill="#FFFB00" fill-opacity="0.06"/>
<path d="M107 25L117.5 44.5H234.5L245 25H107Z" stroke="#FFFB00"/>
</g>
<path d="M348 13H268" stroke="#FFFB00" stroke-opacity="0.3"/>
<path d="M163 2H183" stroke="#FFFB00" stroke-width="2"/>
<path d="M166 4H180" stroke="#FFFB00" stroke-width="2"/>
<g filter="url(#filter1_b_1_1704)">
<path fill-rule="evenodd" clip-rule="evenodd" d="M155.686 1L79 1.176V21.0601L85.6542 25H88.1707V24H90.4634V25H93.9024V24H95.0488V25H96.1951V24H105.366V25H106.512V24H109.951V25H260.363V24.805L260.506 24.8977L267 21.0601V1.176L190.314 1L184.288 5.52776H161.712L155.686 1Z" fill="#FFFB00"/>
<path d="M79 1.176L78.9989 0.675997L78.5 0.677141V1.176H79ZM155.686 1L155.986 0.600256L155.852 0.499617L155.685 0.500001L155.686 1ZM79 21.0601H78.5V21.3451L78.7453 21.4903L79 21.0601ZM85.6542 25L85.3995 25.4302L85.5173 25.5H85.6542V25ZM88.1707 25V25.5H88.6707V25H88.1707ZM88.1707 24V23.5H87.6707V24H88.1707ZM90.4634 24H90.9634V23.5H90.4634V24ZM90.4634 25H89.9634V25.5H90.4634V25ZM93.9024 25V25.5H94.4024V25H93.9024ZM93.9024 24V23.5H93.4024V24H93.9024ZM95.0488 24H95.5488V23.5H95.0488V24ZM95.0488 25H94.5488V25.5H95.0488V25ZM96.1951 25V25.5H96.6951V25H96.1951ZM96.1951 24V23.5H95.6951V24H96.1951ZM105.366 24H105.866V23.5H105.366V24ZM105.366 25H104.866V25.5H105.366V25ZM106.512 25V25.5H107.012V25H106.512ZM106.512 24V23.5H106.012V24H106.512ZM109.951 24H110.451V23.5H109.951V24ZM109.951 25H109.451V25.5H109.951V25ZM260.363 25V25.5H260.863V25H260.363ZM260.363 24.805L260.635 24.3854L259.863 23.8853V24.805H260.363ZM260.506 24.8977L260.235 25.3174L260.494 25.4857L260.761 25.3282L260.506 24.8977ZM267 21.0601L267.254 21.4905L267.5 21.3454V21.0601H267ZM267 1.176H267.5V0.677141L267.001 0.675997L267 1.176ZM190.314 1L190.315 0.500001L190.148 0.499617L190.014 0.600256L190.314 1ZM184.288 5.52776V6.02776H184.455L184.588 5.9275L184.288 5.52776ZM161.712 5.52776L161.412 5.9275L161.545 6.02776H161.712V5.52776ZM79.0011 1.67599L155.687 1.5L155.685 0.500001L78.9989 0.675997L79.0011 1.67599ZM79.5 21.0601V1.176H78.5V21.0601H79.5ZM85.909 24.5698L79.2547 20.6299L78.7453 21.4903L85.3995 25.4302L85.909 24.5698ZM88.1707 24.5H85.6542V25.5H88.1707V24.5ZM87.6707 24V25H88.6707V24H87.6707ZM90.4634 23.5H88.1707V24.5H90.4634V23.5ZM90.9634 25V24H89.9634V25H90.9634ZM93.9024 24.5H90.4634V25.5H93.9024V24.5ZM93.4024 24V25H94.4024V24H93.4024ZM95.0488 23.5H93.9024V24.5H95.0488V23.5ZM95.5488 25V24H94.5488V25H95.5488ZM96.1951 24.5H95.0488V25.5H96.1951V24.5ZM95.6951 24V25H96.6951V24H95.6951ZM105.366 23.5H96.1951V24.5H105.366V23.5ZM105.866 25V24H104.866V25H105.866ZM106.512 24.5H105.366V25.5H106.512V24.5ZM106.012 24V25H107.012V24H106.012ZM109.951 23.5H106.512V24.5H109.951V23.5ZM110.451 25V24H109.451V25H110.451ZM260.363 24.5H109.951V25.5H260.363V24.5ZM259.863 24.805V25H260.863V24.805H259.863ZM260.778 24.4781L260.635 24.3854L260.091 25.2246L260.235 25.3174L260.778 24.4781ZM266.746 20.6297L260.252 24.4673L260.761 25.3282L267.254 21.4905L266.746 20.6297ZM266.5 1.176V21.0601H267.5V1.176H266.5ZM190.313 1.5L266.999 1.67599L267.001 0.675997L190.315 0.500001L190.313 1.5ZM184.588 5.9275L190.615 1.39974L190.014 0.600256L183.988 5.12802L184.588 5.9275ZM161.712 6.02776H184.288V5.02776H161.712V6.02776ZM155.385 1.39974L161.412 5.9275L162.012 5.12802L155.986 0.600256L155.385 1.39974Z" fill="#FFFB00"/>
</g>
<path d="M268 9L260 13L268 17" stroke="black"/>
<path d="M78 9L86 13L78 17" stroke="black"/>
<path d="M133.882 18V11.232H130.498V9.36H139.138V11.232H135.754V18H133.882ZM140.648 18V9.36L142.508 9.36V12.744L147.608 12.744V9.36H149.468V18H147.608V14.616H142.508V18H140.648ZM151.467 18V9.36H159.447V11.232H153.351V12.744H158.259V14.616H153.351V16.128H159.447V18L151.467 18ZM172.405 18L169.897 15.012H172.333L174.325 17.364V18H172.405ZM165.697 18V9.372L172.549 9.372C172.877 9.372 173.173 9.452 173.437 9.612C173.709 9.772 173.925 9.988 174.085 10.26C174.253 10.532 174.337 10.828 174.337 11.148V13.38C174.337 13.7 174.253 13.996 174.085 14.268C173.925 14.54 173.709 14.756 173.437 14.916C173.173 15.076 172.877 15.156 172.549 15.156L167.557 15.168V18H165.697ZM167.557 13.284L172.453 13.284V11.232L167.557 11.232V13.284ZM177.952 18C177.632 18 177.336 17.92 177.064 17.76C176.792 17.6 176.576 17.384 176.416 17.112C176.256 16.84 176.176 16.544 176.176 16.224V9.36H178.036V16.128H182.932V9.36H184.816V16.224C184.816 16.544 184.732 16.84 184.564 17.112C184.404 17.384 184.188 17.6 183.916 17.76C183.652 17.92 183.36 18 183.04 18H177.952ZM186.749 18V9.348H188.609V16.128H195.389V18H186.749ZM196.713 18V9.36H204.693V11.232H198.597V12.744H203.505V14.616H198.597V16.128H204.693V18H196.713ZM208.228 18C207.908 18 207.612 17.92 207.34 17.76C207.068 17.6 206.852 17.384 206.692 17.112C206.532 16.84 206.452 16.544 206.452 16.224V15.42L208.312 15.42V16.128H213.208V14.616H208.228C207.908 14.616 207.612 14.536 207.34 14.376C207.068 14.216 206.852 14.004 206.692 13.74C206.532 13.468 206.452 13.168 206.452 12.84V11.136C206.452 10.808 206.532 10.512 206.692 10.248C206.852 9.976 207.068 9.76 207.34 9.6C207.612 9.44 207.908 9.36 208.228 9.36L213.316 9.36C213.636 9.36 213.928 9.44 214.192 9.6C214.464 9.76 214.68 9.976 214.84 10.248C215.008 10.512 215.092 10.808 215.092 11.136V11.94H213.208V11.232L208.312 11.232V12.744L213.316 12.744C213.636 12.744 213.928 12.824 214.192 12.984C214.464 13.144 214.68 13.36 214.84 13.632C215.008 13.896 215.092 14.192 215.092 14.52V16.224C215.092 16.544 215.008 16.84 214.84 17.112C214.68 17.384 214.464 17.6 214.192 17.76C213.928 17.92 213.636 18 213.316 18H208.228Z" fill="black"/>
<path d="M80 13H0" stroke="#FFFB00" stroke-opacity="0.3"/>
<path d="M120.826 39C120.506 39 120.21 38.92 119.938 38.76C119.666 38.6 119.45 38.384 119.29 38.112C119.13 37.84 119.05 37.544 119.05 37.224V32.136C119.05 31.808 119.13 31.512 119.29 31.248C119.45 30.976 119.666 30.76 119.938 30.6C120.21 30.44 120.506 30.36 120.826 30.36H125.914C126.234 30.36 126.526 30.44 126.79 30.6C127.062 30.76 127.278 30.976 127.438 31.248C127.606 31.512 127.69 31.808 127.69 32.136V37.224C127.69 37.544 127.606 37.84 127.438 38.112C127.278 38.384 127.062 38.6 126.79 38.76C126.526 38.92 126.234 39 125.914 39H120.826ZM120.91 37.128H125.806V32.232H120.91V37.128ZM129.635 39V30.36H137.615V32.232H131.519V33.744H136.427V35.616H131.519V39H129.635ZM143.375 39V30.36L151.355 30.36V32.232H145.259V33.744H150.167V35.616H145.259V39L143.375 39ZM152.322 39V30.36H154.158V39H152.322ZM157.565 39C157.245 39 156.949 38.92 156.677 38.76C156.405 38.6 156.189 38.384 156.029 38.112C155.869 37.84 155.789 37.544 155.789 37.224V32.136C155.789 31.808 155.869 31.512 156.029 31.248C156.189 30.976 156.405 30.76 156.677 30.6C156.949 30.44 157.245 30.36 157.565 30.36H162.641C162.969 30.36 163.265 30.44 163.529 30.6C163.801 30.76 164.017 30.976 164.177 31.248C164.345 31.512 164.429 31.808 164.429 32.136V32.952H162.545V32.232H157.649V37.128H162.545V35.832H160.673V33.96H164.429V37.224C164.429 37.544 164.345 37.84 164.177 38.112C164.017 38.384 163.801 38.6 163.529 38.76C163.265 38.92 162.969 39 162.641 39H157.565ZM166.362 39V30.36H168.222V33.744H173.322V30.36L175.182 30.36V39H173.322V35.616H168.222V39H166.362ZM180.109 39V32.232H176.725V30.36H185.365V32.232H181.981V39H180.109ZM193.105 39C192.777 39 192.477 38.92 192.205 38.76C191.941 38.6 191.729 38.388 191.569 38.124C191.409 37.852 191.329 37.552 191.329 37.224V32.136C191.329 31.808 191.409 31.512 191.569 31.248C191.729 30.976 191.941 30.76 192.205 30.6C192.477 30.44 192.777 30.36 193.105 30.36H199.945V32.232H193.585C193.457 32.232 193.357 32.264 193.285 32.328C193.221 32.392 193.189 32.492 193.189 32.628V36.732C193.189 36.86 193.221 36.96 193.285 37.032C193.357 37.096 193.457 37.128 193.585 37.128H199.945V39H193.105ZM201.809 39V30.348H203.669V37.128H210.449V39H201.809ZM213.5 39C213.18 39 212.884 38.92 212.612 38.76C212.34 38.6 212.124 38.384 211.964 38.112C211.804 37.84 211.724 37.544 211.724 37.224V30.36H213.584V37.128H218.48V30.36H220.364V37.224C220.364 37.544 220.28 37.84 220.112 38.112C219.952 38.384 219.736 38.6 219.464 38.76C219.2 38.92 218.908 39 218.588 39H213.5ZM222.322 39V30.36H228.85C229.17 30.36 229.462 30.44 229.726 30.6C229.998 30.76 230.214 30.976 230.374 31.248C230.542 31.512 230.626 31.808 230.626 32.136V33.756C230.626 33.86 230.618 33.96 230.602 34.056C230.594 34.144 230.574 34.228 230.542 34.308C230.662 34.46 230.762 34.636 230.842 34.836C230.922 35.036 230.962 35.236 230.962 35.436V37.224C230.962 37.544 230.878 37.84 230.71 38.112C230.55 38.384 230.334 38.6 230.062 38.76C229.798 38.92 229.502 39 229.174 39H222.322ZM224.182 37.128H229.078V35.544H224.182V37.128ZM224.182 33.672H228.742V32.232H224.182V33.672Z" fill="#FFFB00"/>
<path fill-rule="evenodd" clip-rule="evenodd" d="M244.848 44.53L249.848 36.53L249 36L244 44L244.848 44.53ZM254.854 36.53L249.854 44.53L249.006 44L254.006 36L254.854 36.53ZM264.854 36.53L259.854 44.53L259.006 44L264.006 36L264.854 36.53ZM269.854 44.53L274.854 36.53L274.006 36L269.006 44L269.854 44.53ZM284.854 36.53L279.854 44.53L279.006 44L284.006 36L284.854 36.53ZM259.854 36.53L254.854 44.53L254.006 44L259.006 36L259.854 36.53ZM264.854 44.53L269.854 36.53L269.006 36L264.006 44L264.854 44.53ZM279.854 36.53L274.854 44.53L274.006 44L279.006 36L279.854 36.53Z" fill="white" fill-opacity="0.5"/>
<path fill-rule="evenodd" clip-rule="evenodd" d="M104.006 44.53L99.0058 36.53L99.8538 36L104.854 44L104.006 44.53ZM93.9999 36.53L98.9999 44.53L99.8479 44L94.8479 36L93.9999 36.53ZM83.9999 36.53L88.9999 44.53L89.8479 44L84.8479 36L83.9999 36.53ZM78.9999 44.53L73.9999 36.53L74.8479 36L79.8479 44L78.9999 44.53ZM63.9999 36.53L68.9999 44.53L69.8479 44L64.8479 36L63.9999 36.53ZM88.9999 36.53L93.9999 44.53L94.8479 44L89.8479 36L88.9999 36.53ZM83.9999 44.53L78.9999 36.53L79.8479 36L84.8479 44L83.9999 44.53ZM68.9999 36.53L73.9999 44.53L74.8479 44L69.8479 36L68.9999 36.53Z" fill="white" fill-opacity="0.5"/>
<defs>
<filter id="filter0_b_1_1704" x="102.163" y="20.5" width="147.674" height="28.5" filterUnits="userSpaceOnUse" color-interpolation-filters="sRGB">
<feFlood flood-opacity="0" result="BackgroundImageFix"/>
<feGaussianBlur in="BackgroundImageFix" stdDeviation="2"/>
<feComposite in2="SourceAlpha" operator="in" result="effect1_backgroundBlur_1_1704"/>
<feBlend mode="normal" in="SourceGraphic" in2="effect1_backgroundBlur_1_1704" result="shape"/>
</filter>
<filter id="filter1_b_1_1704" x="68.5" y="-9.50049" width="209" height="45.0005" filterUnits="userSpaceOnUse" color-interpolation-filters="sRGB">
<feFlood flood-opacity="0" result="BackgroundImageFix"/>
<feGaussianBlur in="BackgroundImageFix" stdDeviation="5"/>
<feComposite in2="SourceAlpha" operator="in" result="effect1_backgroundBlur_1_1704"/>
<feBlend mode="normal" in="SourceGraphic" in2="effect1_backgroundBlur_1_1704" result="shape"/>
</filter>
</defs>
</svg>
