<svg width="338" height="70" viewBox="0 0 338 70" fill="none" xmlns="http://www.w3.org/2000/svg">
<rect width="338" height="68.0001" transform="translate(0 1)" fill="white" fill-opacity="0.04"/>
<path d="M71.5 1.5H131.691L138.191 14.5H71.5V1.5Z" fill="#FFFB00" fill-opacity="0.6" stroke="#FFFB00"/>
<path d="M87.92 11L86.248 9.008H87.872L89.2 10.576V11H87.92ZM83.448 11V5.248H88.016C88.2347 5.248 88.432 5.30133 88.608 5.408C88.7893 5.51467 88.9333 5.65867 89.04 5.84C89.152 6.02133 89.208 6.21867 89.208 6.432V7.92C89.208 8.13333 89.152 8.33067 89.04 8.512C88.9333 8.69333 88.7893 8.83733 88.608 8.944C88.432 9.05067 88.2347 9.104 88.016 9.104L84.688 9.112V11H83.448ZM84.688 7.856H87.952V6.488H84.688V7.856ZM91.5376 11C91.3242 11 91.1269 10.9467 90.9456 10.84C90.7642 10.7333 90.6202 10.5893 90.5136 10.408C90.4069 10.2267 90.3536 10.0293 90.3536 9.816V5.24H91.5936V9.752H94.8576V5.24H96.1136V9.816C96.1136 10.0293 96.0576 10.2267 95.9456 10.408C95.8389 10.5893 95.6949 10.7333 95.5136 10.84C95.3376 10.9467 95.1429 11 94.9296 11H91.5376ZM97.3226 11V5.232H98.5626V9.752H103.083V11H97.3226ZM103.885 11V5.24H109.205V6.488H105.141V7.496H108.413V8.744H105.141V9.752H109.205V11H103.885ZM113.244 11L113.62 9.736H113.02V8.512H113.988L114.26 7.664H113.244V6.44H114.652L115.036 5.24H116.3L115.892 6.44H116.996L117.38 5.24H118.636L118.228 6.44H118.764V7.664H117.844L117.572 8.512H118.54V9.736H117.172L116.812 11H115.572L115.956 9.736H114.836L114.484 11H113.244ZM115.236 8.512H116.324L116.596 7.664H115.508L115.236 8.512ZM121.355 11V7.104L121.091 7.432H119.467L121.307 5.24H122.579V11H121.355Z" fill="black"/>
<rect x="4.5" y="1.5" width="67" height="67" fill="#4BFFF6" fill-opacity="0.15" stroke="#FFFB00"/>
<path fill-rule="evenodd" clip-rule="evenodd" d="M21.9988 20.4706L38 9L54.0012 20.4706L43.8379 28.1146H42.3772C42.1467 27.5823 41.6169 27.2098 41 27.2098C40.1716 27.2098 39.5 27.8813 39.5 28.7098C39.5 29.5382 40.1716 30.2098 41 30.2098C41.688 30.2098 42.2681 29.7464 42.4448 29.1146H44.1621L54.8512 21.08L66 29.0721L59.4943 48.6654L46.7622 39.0952H46.0449C45.8682 38.4634 45.2881 38 44.6001 38C43.7717 38 43.1001 38.6716 43.1001 39.5C43.1001 40.3284 43.7717 41 44.6001 41C45.217 41 45.7468 40.6275 45.9773 40.0952H46.438L59.1622 49.6653L55.2327 61.5H20.7673L16.8378 49.6653L29.562 40.0952H30.0227C30.2532 40.6275 30.783 41 31.3999 41C32.2283 41 32.8999 40.3284 32.8999 39.5C32.8999 38.6716 32.2283 38 31.3999 38C30.7119 38 30.1318 38.4634 29.9551 39.0952H29.2378L16.5057 48.6654L10 29.0721L21.1488 21.08L31.8379 29.1146H33.5552C33.7319 29.7464 34.312 30.2098 35 30.2098C35.8284 30.2098 36.5 29.5382 36.5 28.7098C36.5 27.8813 35.8284 27.2098 35 27.2098C34.3831 27.2098 33.8533 27.5823 33.6228 28.1146H32.1621L21.9988 20.4706ZM53.8699 60.5L38.0496 49.0861L38 49.1281L37.9504 49.0861L22.1301 60.5H53.8699ZM38 47.8171L53.5 59L51.5502 45.1812L50.4202 44.3314L52.1819 56.8159L38.5781 47.0011L49.2431 43.4461L48.272 42.7157L38 46.1396L27.728 42.7157L26.7568 43.4461L37.4219 47.0011L23.8181 56.8159L25.5798 44.3314L24.4498 45.1812L22.5 59L38 47.8171ZM38 14.1199L44.5366 26.3378L45.3454 25.7295L38 12L30.6546 25.7295L31.4634 26.3378L38 14.1199ZM30.2097 29.1417L26.9464 39.5563L25.5755 40.5868L29.3616 28.5042L30.2097 29.1417ZM15.2258 31.3704L24.7693 41.1928L23.9635 41.7985L12.5 30L28.0023 27.4825L29.1107 28.3157L15.7332 30.4881L22.4922 32.8359C22.7671 32.4924 23.1899 32.2723 23.6641 32.2723C24.4924 32.2723 25.1641 32.9438 25.1641 33.7723C25.1641 34.6007 24.4924 35.2723 23.6641 35.2723C22.8384 35.2723 22.1685 34.6052 22.1641 33.7806L15.2258 31.3704ZM11.4788 30.3839L23.1578 42.4041L17.015 47.0214L11.4788 30.3839ZM21.3445 60.0323L18.0135 50.0221L23.3201 46.0309L21.3445 60.0323ZM29.8461 25.1214L37.696 10.4482L23.6882 20.4899L29.8461 25.1214ZM21.1348 22.3204L26.894 26.6494L11.6406 29.1264L21.1348 22.3204ZM45.7903 29.1417L49.0536 39.5563L50.4245 40.5868L46.6384 28.5042L45.7903 29.1417ZM60.7742 31.3704L51.2307 41.1928L52.0365 41.7985L63.5 30L47.9977 27.4825L46.8893 28.3157L60.2668 30.4881L53.5078 32.8359C53.2329 32.4924 52.8101 32.2723 52.3359 32.2723C51.5076 32.2723 50.8359 32.9438 50.8359 33.7723C50.8359 34.6007 51.5076 35.2723 52.3359 35.2723C53.1616 35.2723 53.8315 34.6052 53.8359 33.7806L60.7742 31.3704ZM64.5212 30.3839L52.8422 42.4041L58.985 47.0214L64.5212 30.3839ZM54.6555 60.0323L57.9865 50.0221L52.6799 46.0309L54.6555 60.0323ZM46.1539 25.1214L38.304 10.4482L52.3118 20.4899L46.1539 25.1214ZM54.8652 22.3204L49.1059 26.6494L64.3594 29.1264L54.8652 22.3204Z" fill="black"/>
<path fill-rule="evenodd" clip-rule="evenodd" d="M21.9988 19.4706L38 8L54.0012 19.4706L43.8379 27.1146H42.3772C42.1467 26.5823 41.6169 26.2098 41 26.2098C40.1716 26.2098 39.5 26.8813 39.5 27.7098C39.5 28.5382 40.1716 29.2098 41 29.2098C41.688 29.2098 42.2681 28.7464 42.4448 28.1146H44.1621L54.8512 20.08L66 28.0721L59.4943 47.6654L46.7622 38.0952H46.0449C45.8682 37.4634 45.2881 37 44.6001 37C43.7717 37 43.1001 37.6716 43.1001 38.5C43.1001 39.3284 43.7717 40 44.6001 40C45.217 40 45.7468 39.6275 45.9773 39.0952H46.438L59.1622 48.6653L55.2327 60.5H20.7673L16.8378 48.6653L29.562 39.0952H30.0227C30.2532 39.6275 30.783 40 31.3999 40C32.2283 40 32.8999 39.3284 32.8999 38.5C32.8999 37.6716 32.2283 37 31.3999 37C30.7119 37 30.1318 37.4634 29.9551 38.0952H29.2378L16.5057 47.6654L10 28.0721L21.1488 20.08L31.8379 28.1146H33.5552C33.7319 28.7464 34.312 29.2098 35 29.2098C35.8284 29.2098 36.5 28.5382 36.5 27.7098C36.5 26.8813 35.8284 26.2098 35 26.2098C34.3831 26.2098 33.8533 26.5823 33.6228 27.1146H32.1621L21.9988 19.4706ZM53.8699 59.5L38.0496 48.0861L38 48.1281L37.9504 48.0861L22.1301 59.5H53.8699ZM38 46.8171L53.5 58L51.5502 44.1812L50.4202 43.3314L52.1819 55.8159L38.5781 46.0011L49.2431 42.4461L48.272 41.7157L38 45.1396L27.728 41.7157L26.7568 42.4461L37.4219 46.0011L23.8181 55.8159L25.5798 43.3314L24.4498 44.1812L22.5 58L38 46.8171ZM38 13.1199L44.5366 25.3378L45.3454 24.7295L38 11L30.6546 24.7295L31.4634 25.3378L38 13.1199ZM30.2097 28.1417L26.9464 38.5563L25.5755 39.5868L29.3616 27.5042L30.2097 28.1417ZM15.2258 30.3704L24.7693 40.1928L23.9635 40.7985L12.5 29L28.0023 26.4825L29.1107 27.3157L15.7332 29.4881L22.4922 31.8359C22.7671 31.4924 23.1899 31.2723 23.6641 31.2723C24.4924 31.2723 25.1641 31.9438 25.1641 32.7723C25.1641 33.6007 24.4924 34.2723 23.6641 34.2723C22.8384 34.2723 22.1685 33.6052 22.1641 32.7806L15.2258 30.3704ZM11.4788 29.3839L23.1578 41.4041L17.015 46.0214L11.4788 29.3839ZM21.3445 59.0323L18.0135 49.0221L23.3201 45.0309L21.3445 59.0323ZM29.8461 24.1214L37.696 9.44824L23.6882 19.4899L29.8461 24.1214ZM21.1348 21.3204L26.894 25.6494L11.6406 28.1264L21.1348 21.3204ZM45.7903 28.1417L49.0536 38.5563L50.4245 39.5868L46.6384 27.5042L45.7903 28.1417ZM60.7742 30.3704L51.2307 40.1928L52.0365 40.7985L63.5 29L47.9977 26.4825L46.8893 27.3157L60.2668 29.4881L53.5078 31.8359C53.2329 31.4924 52.8101 31.2723 52.3359 31.2723C51.5076 31.2723 50.8359 31.9438 50.8359 32.7723C50.8359 33.6007 51.5076 34.2723 52.3359 34.2723C53.1616 34.2723 53.8315 33.6052 53.8359 32.7806L60.7742 30.3704ZM64.5212 29.3839L52.8422 41.4041L58.985 46.0214L64.5212 29.3839ZM54.6555 59.0323L57.9865 49.0221L52.6799 45.0309L54.6555 59.0323ZM46.1539 24.1214L38.304 9.44824L52.3118 19.4899L46.1539 24.1214ZM54.8652 21.3204L49.1059 25.6494L64.3594 28.1264L54.8652 21.3204Z" fill="#4BFFF6"/>
<path d="M-1.79217e-06 4L-2.92866e-06 39L4 36L4 1L-1.79217e-06 4Z" fill="#FFFB00"/>
<path opacity="0.4" d="M-1.41456e-06 43L-4.86776e-06 56L4 59L4 40L-1.41456e-06 43Z" fill="white"/>
<path d="M3.27835e-06 43L-1.74846e-07 44L4 41L4 40L3.27835e-06 43Z" fill="#FFFB00"/>
<path d="M3.27835e-06 41L-1.74846e-07 42L4 39L4 38L3.27835e-06 41Z" fill="#FFFB00"/>
<path d="M22 69L338 69" stroke="#FFFB00" stroke-opacity="0.2"/>
<path d="M22 1.00003L338 0.999972" stroke="#FFFB00" stroke-opacity="0.2"/>
<mask id="mask0_138_169" style="mask-type:alpha" maskUnits="userSpaceOnUse" x="298" y="59" width="40" height="9">
<path d="M298 59H338V68H298V59Z" fill="white" fill-opacity="0.6"/>
</mask>
<g mask="url(#mask0_138_169)">
<path fill-rule="evenodd" clip-rule="evenodd" d="M335.538 57.4954L318.395 74.577L317.048 73.235L334.191 56.1533L335.538 57.4954Z" fill="white" fill-opacity="0.6"/>
<path fill-rule="evenodd" clip-rule="evenodd" d="M341.251 57.4954L324.109 74.577L322.762 73.235L339.905 56.1533L341.251 57.4954Z" fill="white" fill-opacity="0.6"/>
<path fill-rule="evenodd" clip-rule="evenodd" d="M346.966 57.4954L329.823 74.577L328.476 73.235L345.619 56.1533L346.966 57.4954Z" fill="white" fill-opacity="0.6"/>
<path fill-rule="evenodd" clip-rule="evenodd" d="M352.68 57.4954L335.537 74.577L334.191 73.235L351.333 56.1533L352.68 57.4954Z" fill="white" fill-opacity="0.6"/>
<path fill-rule="evenodd" clip-rule="evenodd" d="M329.823 57.4954L312.68 74.577L311.333 73.235L328.476 56.1533L329.823 57.4954Z" fill="white" fill-opacity="0.6"/>
<path fill-rule="evenodd" clip-rule="evenodd" d="M324.109 57.4954L306.966 74.577L305.619 73.235L322.762 56.1533L324.109 57.4954Z" fill="white" fill-opacity="0.6"/>
<path fill-rule="evenodd" clip-rule="evenodd" d="M318.395 57.4954L301.252 74.577L299.905 73.235L317.048 56.1533L318.395 57.4954Z" fill="white" fill-opacity="0.6"/>
<path fill-rule="evenodd" clip-rule="evenodd" d="M312.68 57.4954L295.537 74.577L294.191 73.235L311.333 56.1533L312.68 57.4954Z" fill="white" fill-opacity="0.6"/>
<path fill-rule="evenodd" clip-rule="evenodd" d="M306.966 57.4954L289.823 74.577L288.476 73.235L305.619 56.1533L306.966 57.4954Z" fill="white" fill-opacity="0.6"/>
<path fill-rule="evenodd" clip-rule="evenodd" d="M301.251 57.4954L284.109 74.577L282.762 73.235L299.905 56.1533L301.251 57.4954Z" fill="white" fill-opacity="0.6"/>
</g>
<path fill-rule="evenodd" clip-rule="evenodd" d="M337 42V12H338V42H337Z" fill="#FFFB00" fill-opacity="0.5"/>
<path fill-rule="evenodd" clip-rule="evenodd" d="M337 58V55H338V58H337Z" fill="#FFFB00" fill-opacity="0.5"/>
<path fill-rule="evenodd" clip-rule="evenodd" d="M337 52V32H338V52H337Z" fill="#FFFB00" fill-opacity="0.5"/>
<path d="M337 7V1H331" stroke="#FFFB00" stroke-width="2"/>
</svg>
